v -0.04501333833 -0.4334306419 0.3828542829 1 1 1
vn 0 0 1
v -0.04501333833 0.4334307313 0.3828542829 1 1 1
vn 0 0 1
v -0.629355073 -0.002511946019 -0.3828542531 1 1 1
vn -0.6482746601 0 -0.7614065409
v -0.629355073 -0.002511946019 0.3828542829 1 1 1
vn -0.8878121972 0 0.460206002
v -0.04501333833 -0.4334361255 -0.3828542531 1 1 1
vn 0 0 -1
v -0.629355073 -0.9349752069 -0.2544554174 1 1 1
vn -0.8523105383 -0.4958901107 -0.1663121432
v 0.5393283963 -0.4334361255 -0.3828542531 1 1 1
vn 0.2531859577 0 -0.9674176574
v 0.629355073 -0.002511946019 -0.2974739969 1 1 1
vn 0.7522847652 0 -0.6588380933
v 0.3981013894 -1.300297618 0.3828542829 1 1 1
vn -0.9188271165 -0.3756224811 0.1210971996
v -0.629355073 0.8015496731 -0.3828542531 1 1 1
vn -0.7138097882 0.1152293608 -0.6907950044
v 0.629355073 0.0315832682 -0.1984582841 1 1 1
vn 0.2886157334 0 0.9574450254
v 0.629355073 0.5122656822 -0.1984582841 1 1 1
vn 0.9202746749 -0.334695816 0.2026652694
v 0.4103739858 0.5122656822 -0.1984582841 1 1 1
vn 0.8586732745 -0.1955898702 0.4737349749
v 0.4103739858 0.5122656822 0.1984582394 1 1 1
vn 0.6844612956 -0.6236304641 -0.3776212335
v 0.629355073 0.0315832682 0.1984582394 1 1 1
vn 0.2886156738 0 -0.9574450254
v 0.3981041014 -1.300297618 -0.3828542531 1 1 1
vn -0.9363329411 -0.2950873673 -0.1902737617
v 0.629355073 -0.4490991235 -0.1984582841 1 1 1
vn 0.9228240252 0.1470088959 0.3560677469
v 0.5393283963 -1.300297618 -0.3828542531 1 1 1
vn 0.8152410388 -0.4329374731 -0.3846389949
v -0.629355073 -0.9349752069 0.2544526756 1 1 1
vn -0.6981403828 -0.7115104795 0.07970482111
v -0.629355073 -0.8065735698 0.3828542829 1 1 1
vn -0.1273093373 -0.1626804918 0.9784311056
v 0.4103739858 -0.4490991235 -0.1984582841 1 1 1
vn 0.6844612956 0.6236304641 0.3776212037
v 0.629355073 -0.4490991235 0.1984582394 1 1 1
vn 0.8262813091 0.4818119705 -0.2917471528
v 0.4103739858 0.0315832682 -0.1984582841 1 1 1
vn 0.8755844831 0 0.4830649793
v 0.629355073 -0.8650882244 -0.2974739969 1 1 1
vn 0.9292944074 -0.2990331352 -0.2167743295
v 0.629355073 -0.002511946019 0.2974739373 1 1 1
vn 0.7522847056 0 0.6588381529
v 0.4103739858 -0.4490991235 0.1984582394 1 1 1
vn 0.8586732745 0.1955899 -0.4737349749
v 0.3981013894 -0.8065735698 0.3828542829 1 1 1
vn -0.09404532611 -0.09785551578 0.9907470942
v -0.1156254858 -0.9349752069 -0.2544554174 1 1 1
vn 0 -0.980301559 -0.1975065321
v 0.3981041014 -0.8065735698 -0.3828542531 1 1 1
vn -0.08472118527 -0.1763081402 -0.9806823134
v 0.629355073 0.5122656822 0.1984582394 1 1 1
vn 0.7656002045 -0.2455033958 -0.5946295857
v -0.629355073 0.9299457669 -0.2544554174 1 1 1
vn -0.75205338 0.6550055146 -0.07337205112
v 0.629355073 0.8600642085 -0.2974739969 1 1 1
vn 0.8717663884 0.1597262174 -0.4631532431
v 0.4103739858 0.0315832682 0.1984582394 1 1 1
vn 0.8755844831 0 -0.4830649793
v 0.629355073 -0.8650882244 0.2974739373 1 1 1
vn 0.9496616721 -0.1021358669 0.2961602807
v 0.3981013894 1.300297499 0.3828542829 1 1 1
vn -0.9722260833 0.1961126179 0.1277352124
v -0.1156254858 -0.8065735698 -0.3828542531 1 1 1
vn 0 -0.3222727478 -0.9466468692
v -0.1156254858 0.8015496731 0.3828542829 1 1 1
vn -4.508162049e-18 0.3248646855 0.9457604885
v -0.1156254858 -0.8065735698 0.3828542829 1 1 1
vn 0 -0.322276026 0.9466457367
v -0.1156254858 0.9299457669 0.2544526756 1 1 1
vn -2.740801748e-18 0.9803034067 0.1974973083
v -0.629355073 0.8015496731 0.3828542829 1 1 1
vn -0.1404279321 0.08972196281 0.9860172272
v 0.629355073 0.8600642085 0.2974739373 1 1 1
vn 0.955851078 0.2379145473 0.1724683791
v 0.3981041014 -0.9349752069 -0.2544554174 1 1 1
vn -0.6660143137 -0.7413018346 -0.08304499835
v 0.3981013894 0.8015496731 0.3828542829 1 1 1
vn -0.08612086624 0.1774147153 0.9803607464
v 0.3981013894 0.9299457669 0.2544526756 1 1 1
vn -0.3920490146 0.9142266512 0.1024072319
v 0.3981013894 -0.9349752069 0.2544526756 1 1 1
vn -0.5150585771 -0.8126692772 0.2725495994
v 0.5393283963 -0.8650882244 0.2974739373 1 1 1
vn 0.9509189129 -0.2505358756 0.1816178411
v -0.1156254858 0.9299457669 -0.2544554174 1 1 1
vn 0 0.9803031683 -0.1974986643
v 0.5393283963 -1.300297618 0.3828542829 1 1 1
vn 0.949352324 -0.1541042328 0.2738284767
v 0.3981041014 1.300297499 -0.3828542531 1 1 1
vn -0.8367868066 0.5206145048 -0.1695533991
v 0.5393283963 0.8600642085 0.2974739373 1 1 1
vn 0.9281202555 0.1213723496 0.3519396782
v 0.5393283963 0.8600642085 -0.2974739969 1 1 1
vn 0.9846606255 0.1412668228 -0.1024067774
v 0.5393283963 1.300297499 0.3828542829 1 1 1
vn 0.918481648 0.2951547503 0.263201654
v 0.5393283963 -0.002511946019 -0.2974739969 1 1 1
vn 0.6887345314 0 -0.7250136137
v -0.1156254858 0.8015496731 -0.3828542531 1 1 1
vn 0 0.3248582482 -0.9457626939
v 0.3981041014 0.8015496731 -0.3828542531 1 1 1
vn -0.09566816688 0.09854192287 -0.9905236363
v 0.5393283963 0.4334307313 -0.3828542531 1 1 1
vn 0.1619600654 0 -0.9867973328
v 0.5393283963 -0.8650882244 -0.2974739969 1 1 1
vn 0.976220727 -0.07067507505 -0.2049343735
v 0.5393283963 0.4334307313 0.3828542829 1 1 1
vn 0.2540091574 0 0.967201829
v 0.5393283963 -0.002511946019 0.2974739373 1 1 1
vn 0.6887340546 0 0.7250140309
v 0.5393283963 -0.4334306419 0.3828542829 1 1 1
vn 0.1616182774 0 0.9868533611
v -0.04501333833 0.4334307313 -0.3828542531 1 1 1
vn 0 0 -1
v 0.5393283963 1.300297499 -0.3828542531 1 1 1
vn 0.8807016015 0.2316595763 -0.4131568074
v 0.3981041014 0.9299457669 -0.2544554174 1 1 1
vn -0.7908260226 0.5802772641 -0.1946086138
v -0.1156254858 -0.9349752069 0.2544526756 1 1 1
vn 0 -0.9803017378 0.1975057125
v -0.629355073 -0.8065735698 -0.3828542531 1 1 1
vn -0.7455695868 -0.06017783657 -0.6637052298
v -0.629355073 0.9299457669 0.2544526756 1 1 1
vn -0.8122670054 0.5530156493 0.1854616553
# mm_gid 1
g mmGroup1
f 18//18 9//9 16//16 
f 48//48 9//9 18//18 
f 52//52 49//49 35//35 
f 62//62 49//49 52//52 
f 1//1 38//38 27//27 
f 1//1 20//20 38//38 
f 4//4 20//20 1//1 
f 52//52 35//35 43//43 
f 60//60 58//58 2//2 
f 43//43 58//58 52//52 
f 43//43 2//2 58//58 
f 37//37 2//2 43//43 
f 40//40 2//2 37//37 
f 4//4 2//2 40//40 
f 1//1 2//2 4//4 
f 1//1 60//60 2//2 
f 27//27 60//60 1//1 
f 27//27 48//48 60//60 
f 9//9 48//48 27//27 
f 16//16 42//42 29//29 
f 9//9 42//42 16//16 
f 9//9 45//45 42//42 
f 27//27 45//45 9//9 
f 14//14 12//12 30//30 
f 13//13 12//12 14//14 
f 46//46 24//24 34//34 
f 57//57 24//24 46//46 
f 32//32 53//53 51//51 
f 8//8 53//53 32//32 
f 8//8 57//57 53//53 
f 24//24 57//57 8//8 
f 8//8 11//11 17//17 
f 8//8 12//12 11//11 
f 32//32 12//12 8//8 
f 41//41 12//12 32//32 
f 41//41 30//30 12//12 
f 25//25 30//30 41//41 
f 15//15 30//30 25//25 
f 17//17 24//24 8//8 
f 17//17 34//34 24//24 
f 22//22 34//34 17//17 
f 22//22 25//25 34//34 
f 15//15 25//25 22//22 
f 21//21 22//22 17//17 
f 26//26 22//22 21//21 
f 13//13 11//11 12//12 
f 23//23 11//11 13//13 
f 23//23 17//17 11//11 
f 21//21 17//17 23//23 
f 26//26 15//15 22//22 
f 33//33 15//15 26//26 
f 33//33 30//30 15//15 
f 14//14 30//30 33//33 
f 33//33 13//13 14//14 
f 33//33 23//23 13//13 
f 26//26 23//23 33//33 
f 21//21 23//23 26//26 
f 34//34 59//59 46//46 
f 25//25 59//59 34//34 
f 25//25 50//50 59//59 
f 41//41 50//50 25//25 
f 51//51 41//41 32//32 
f 50//50 41//41 51//51 
f 44//44 43//43 35//35 
f 63//63 49//49 55//55 
f 63//63 35//35 49//49 
f 44//44 35//35 63//63 
f 7//7 53//53 57//57 
f 56//56 53//53 7//7 
f 56//56 51//51 53//53 
f 62//62 51//51 56//56 
f 52//52 51//51 62//62 
f 52//52 50//50 51//51 
f 58//58 50//50 52//52 
f 58//58 59//59 50//50 
f 60//60 59//59 58//58 
f 57//57 18//18 7//7 
f 57//57 48//48 18//18 
f 46//46 48//48 57//57 
f 46//46 60//60 48//48 
f 59//59 60//60 46//46 
f 54//54 63//63 55//55 
f 54//54 47//47 63//63 
f 10//10 47//47 54//54 
f 31//31 47//47 10//10 
f 47//47 44//44 63//63 
f 47//47 39//39 44//44 
f 31//31 39//39 47//47 
f 66//66 39//39 31//31 
f 39//39 43//43 44//44 
f 39//39 37//37 43//43 
f 66//66 37//37 39//39 
f 40//40 37//37 66//66 
f 55//55 62//62 56//56 
f 49//49 62//62 55//55 
f 36//36 5//5 29//29 
f 65//65 5//5 36//36 
f 3//3 5//5 65//65 
f 3//3 61//61 5//5 
f 10//10 61//61 3//3 
f 54//54 61//61 10//10 
f 55//55 61//61 54//54 
f 56//56 61//61 55//55 
f 56//56 5//5 61//61 
f 7//7 5//5 56//56 
f 7//7 29//29 5//5 
f 18//18 29//29 7//7 
f 16//16 29//29 18//18 
f 28//28 29//29 42//42 
f 28//28 36//36 29//29 
f 6//6 36//36 28//28 
f 65//65 36//36 6//6 
f 66//66 4//4 40//40 
f 31//31 4//4 66//66 
f 10//10 4//4 31//31 
f 3//3 4//4 10//10 
f 65//65 4//4 3//3 
f 6//6 4//4 65//65 
f 19//19 4//4 6//6 
f 20//20 4//4 19//19 
f 28//28 19//19 6//6 
f 28//28 64//64 19//19 
f 42//42 64//64 28//28 
f 45//45 64//64 42//42 
f 38//38 45//45 27//27 
f 38//38 64//64 45//45 
f 20//20 64//64 38//38 
f 19//19 64//64 20//20 
