v 1.192940116 0.1751676947 0.1937645674 1 1 1
vn 0.3754997849 0.9256350994 0.04689966887
v 1.260242224 0.1349854171 0.1937645674 1 1 1
vn 0.6838326454 0.7120906115 0.1590595096
v 1.228862166 0.1613578945 -8.10315214e-07 1 1 1
vn 0.4971826077 0.8676425219 0.002428710228
v 1.176138043 0.178921327 -8.10315214e-07 1 1 1
vn 0.2530705929 0.9674450755 -0.002310295124
v 1.189422488 -0.1381245703 -0.1937661916 1 1 1
vn 0.3004135787 -0.9536186457 -0.01905597188
v 1.296944499 0.06672792137 -8.10315214e-07 1 1 1
vn 0.9849579334 0.1727937758 -0.0004565375566
v 1.162012219 -0.1417557299 -0.1937661916 1 1 1
vn -0.002503016964 -0.9952509999 -0.0973097235
v 1.284794211 -0.06340581179 -0.1937661916 1 1 1
vn 0.2855737805 -0.1458990574 -0.947185874
v 1.251019955 0.1451585591 -0.1937661916 1 1 1
vn 0.6716139317 0.7357692122 -0.08705417067
v 1.292671323 0.08018677682 -0.1937661916 1 1 1
vn 0.273131758 0.1036976352 -0.9563711882
v 0.4742601812 -0.1209702343 -0.1428915262 1 1 1
vn -0.0356958583 -0.7428535819 -0.6685016155
v 0.489489466 -0.1361269951 -0.1937661916 1 1 1
vn -0.08184587955 -0.6032076478 -0.7933736444
v 0.4706098139 0.1403753757 0.142889902 1 1 1
vn -0.07382634282 0.7311882377 0.6781691909
v 0.489489466 -0.1361269951 0.1937645674 1 1 1
vn -0.0631974563 -0.8434423208 0.5334895849
v 0.4854094982 0.1560821533 -0.1937661916 1 1 1
vn -0.05764753371 0.8179319501 -0.5724194646
v 0.4706098139 0.140369907 -0.1428915262 1 1 1
vn -0.1546886563 0.7298260331 -0.6659019589
v 0.4854081273 0.1560821533 0.1937645674 1 1 1
vn -0.07487197965 0.5796987414 0.8113837242
v 0.4742601812 -0.1209702343 0.142889902 1 1 1
vn -0.05834916234 -0.7370657325 0.6732974648
v 1.188106537 0.1755066514 -0.1937661916 1 1 1
vn 0.004571225494 0.9683469534 -0.2495662123
v 1.300755858 0.00311338366 -0.1937661916 1 1 1
vn 0.1868138909 -0.00542250555 -0.9823803306
v 1.234822273 -0.1188187599 -0.1937661916 1 1 1
vn 0.5774732828 -0.8124584556 -0.08022367954
v -0.174536854 -0.1300331056 -0.1428915262 1 1 1
vn -0.5021021366 -0.6413690448 -0.5801199675
v 1.271727681 0.1221025512 -8.10315214e-07 1 1 1
vn 0.828032732 0.5606787205 -0.001077001449
v 1.190447211 -0.1364649534 0.1937645674 1 1 1
vn 0.04383799806 -0.9446421862 0.3251604736
v 1.157510877 0.1804851443 0.1937645674 1 1 1
vn -0.02985279076 0.9899191856 0.1384515017
v 1.242352843 -0.1143146977 -8.10315214e-07 1 1 1
vn 0.5343328118 -0.8451694846 0.0133018028
v 1.295060158 0.07519084215 0.1937645674 1 1 1
vn 0.2545248568 0.0854941383 0.9632797241
v 1.299750686 -0.002333368175 0.1937645674 1 1 1
vn 0.1745395362 -0.01497048419 0.9845363498
v 1.295878291 -0.03389402479 -8.10315214e-07 1 1 1
vn 0.9538503885 -0.2999940217 0.01315214578
v 1.275512934 -0.0808782503 -8.10315214e-07 1 1 1
vn 0.8091855049 -0.5875524879 -0.0009290478774
v 1.265830994 -0.0892053768 0.1937645674 1 1 1
vn 0.7899059057 -0.599478662 0.1291280389
v 1.184735417 -0.1384693384 -8.10315214e-07 1 1 1
vn 0.333453238 -0.9427585602 0.003898740979
v -0.1781844646 0.1313125044 -0.1428915262 1 1 1
vn -0.1571857482 0.7277778387 -0.6675567627
v -0.1781844646 0.1313125044 0.142889902 1 1 1
vn -0.5198187828 0.6271005273 0.5801149011
v -0.174536854 -0.1300331056 0.142889902 1 1 1
vn -0.1367991269 -0.7318839431 0.6675566435
# mm_gid 0
g mmGroup0
f 4//4 1//1 3//3 
f 3//3 19//19 4//4 
f 1//1 2//2 3//3 
f 3//3 9//9 19//19 
f 23//23 9//9 3//3 
f 3//3 2//2 23//23 
f 23//23 10//10 9//9 
f 2//2 27//27 23//23 
f 6//6 10//10 23//23 
f 23//23 27//27 6//6 
f 5//5 21//21 32//32 
f 26//26 24//24 32//32 
f 32//32 21//21 26//26 
f 26//26 31//31 24//24 
f 21//21 8//8 30//30 
f 26//26 21//21 30//30 
f 30//30 31//31 26//26 
f 30//30 8//8 29//29 
f 29//29 31//31 30//30 
f 24//24 31//31 28//28 
f 12//12 7//7 14//14 
f 14//14 7//7 24//24 
f 32//32 24//24 7//7 
f 7//7 5//5 32//32 
f 21//21 5//5 7//7 
f 8//8 21//21 7//7 
f 29//29 28//28 31//31 
f 8//8 20//20 29//29 
f 14//14 24//24 28//28 
f 14//14 13//13 18//18 
f 18//18 13//13 35//35 
f 35//35 34//34 22//22 
f 35//35 13//13 34//34 
f 13//13 33//33 34//34 
f 22//22 34//34 33//33 
f 33//33 11//11 22//22 
f 11//11 35//35 22//22 
f 18//18 35//35 11//11 
f 14//14 18//18 11//11 
f 11//11 12//12 14//14 
f 12//12 8//8 7//7 
f 20//20 8//8 12//12 
f 20//20 28//28 29//29 
f 27//27 28//28 6//6 
f 28//28 20//20 6//6 
f 6//6 20//20 10//10 
f 19//19 9//9 10//10 
f 17//17 25//25 15//15 
f 15//15 25//25 19//19 
f 4//4 19//19 25//25 
f 25//25 1//1 4//4 
f 2//2 1//1 25//25 
f 25//25 27//27 2//2 
f 25//25 17//17 27//27 
f 17//17 28//28 27//27 
f 14//14 28//28 17//17 
f 17//17 13//13 14//14 
f 17//17 16//16 13//13 
f 16//16 33//33 13//13 
f 16//16 11//11 33//33 
f 16//16 12//12 11//11 
f 15//15 12//12 16//16 
f 15//15 20//20 12//12 
f 15//15 10//10 20//20 
f 15//15 19//19 10//10 
f 15//15 16//16 17//17 
