v 0.5745991468 -0.06746450812 0.005805208813 1 1 1
vn 0.8491944075 -0.1314180344 -0.511466682
v 0.5216246843 -0.2502461076 0.005805208813 1 1 1
vn 0.7451256514 -0.3854648769 -0.5442467928
v 0.457626909 -0.01027231477 -0.1153152511 1 1 1
vn 0.1107280776 0.4323600233 -0.8948765993
v 0.5787708759 -0.01027231477 0.005805208813 1 1 1
vn 0.09358176589 0.9952785373 -0.02575009502
v 0.2664536238 -0.5129111409 0.005805208813 1 1 1
vn 0.4340471327 -0.7854875326 -0.4411489964
v 0.1508330256 -0.5572286844 0.005805208813 1 1 1
vn 0.2292636782 -0.8928260207 -0.3876853287
v -0.1485965103 -0.4313068688 -0.1153152511 1 1 1
vn -0.1423941553 -0.4176640511 -0.897374332
v -0.2832664549 -0.5038204193 0.005805208813 1 1 1
vn -0.4224329591 -0.7728121281 -0.4736156762
v -0.4830370545 -0.3161167502 0.005805208813 1 1 1
vn -0.7401456833 -0.4902402163 -0.4602704942
v 0.5661658049 -0.1095790714 0.1153152362 1 1 1
vn 0.09660675377 -0.02325239778 0.9950509667
v -0.5745986104 -0.06746450812 0.1153152362 1 1 1
vn -0.09614169598 -0.015861094 0.9952412844
v -0.5028586984 -0.2835273445 0.1153152362 1 1 1
vn -0.1657038033 -0.09339476377 0.9817431569
v 0.3797026575 -0.4340231121 0.1153152362 1 1 1
vn 0.1782671958 -0.2038390785 0.9626372457
v 0.5787708759 -0.01027231477 0.1153152362 1 1 1
vn 0.0392142646 0.9092030525 0.4145022333
v 0.222954914 -0.5324902534 0.1153152362 1 1 1
vn 0.1842707396 -0.4232161343 0.8870921135
v 0.0760801807 -0.5722464323 0.1153152362 1 1 1
vn 0.1419892162 -0.9108364582 0.3875770271
v -0.5188465118 -0.01027231477 -0.05410846323 1 1 1
vn 0 1 0
v -0.4576258957 -0.01027231477 -0.1153152511 1 1 1
vn -0.1061218083 0.8859385848 -0.4514986575
v 0.5524117947 -0.1700518727 0.005805208813 1 1 1
vn 0.8770503402 -0.270324707 -0.3971236944
v 0.4516567886 -0.06893253326 -0.1153152511 1 1 1
vn 0.1210568398 -0.02540629357 -0.9923204184
v 0.4255292714 -0.1663440168 -0.1153152511 1 1 1
vn 0.1145598665 -0.04751395062 -0.9922794104
v 0.3836627603 -0.4313441515 0.005805208813 1 1 1
vn 0.5618258715 -0.6356825829 -0.5293952823
v 0.2675481439 -0.3694925904 -0.1153152511 1 1 1
vn 0.1792704165 -0.2533373833 -0.9506220222
v -0.07624639571 -0.5734984279 0.005805208813 1 1 1
vn -0.1493373066 -0.8736416698 -0.4630859494
v -0.1784821749 -0.5497445464 0.005805208813 1 1 1
vn -0.2824273407 -0.8391184211 -0.4648817778
v -0.3633958399 -0.2757721245 -0.1153152511 1 1 1
vn -0.1305332482 -0.1038290337 -0.9859921932
v -0.5464965701 -0.1881943643 0.005805208813 1 1 1
vn -0.8554393053 -0.3307887316 -0.3985002339
v -0.4533883035 -0.06067687646 -0.1153152511 1 1 1
vn -0.08685941249 -0.0174707491 -0.9960673451
v -0.4278643429 -0.1582379639 -0.1153152511 1 1 1
vn -0.1636528969 -0.06476818025 -0.9843895435
v -0.5728586912 -0.07686702162 0.005805208813 1 1 1
vn -0.8727299571 -0.1590689272 -0.4615620673
v -0.2675478756 -0.3694925904 -0.1153152511 1 1 1
vn -0.134578228 -0.1860367954 -0.9732825756
v -0.383662492 -0.4313441515 0.005805208813 1 1 1
vn -0.6008036733 -0.6520931125 -0.4623954296
v 0.1444505751 -0.432079941 -0.1153152511 1 1 1
vn 0.1558083147 -0.5570853353 -0.8157081008
v -0.01681335084 -0.4558767676 -0.1153152511 1 1 1
vn -0.008798417635 -0.6425147653 -0.7662228346
v 0.00954139512 -0.5779130459 0.005805208813 1 1 1
vn 0.07147537172 -0.866643548 -0.4937815964
v 0.3633961082 -0.2757721245 -0.1153152511 1 1 1
vn 0.175864175 -0.1354488581 -0.9750514627
v 0.4673523903 -0.3400848508 0.005805208813 1 1 1
vn 0.743593514 -0.578501761 -0.335267663
v 0.5188468695 -0.01027231477 -0.05410846323 1 1 1
vn 0 1 0
v -0.5787708759 -0.01027231477 0.005805208813 1 1 1
vn -0.0477007851 0.9985473752 -0.0250561405
v -0.04768526927 -0.5760214925 0.1153152362 1 1 1
vn -0.08656802028 -0.9875018597 0.1317043751
v -0.1873023212 -0.5460515022 0.1153152362 1 1 1
vn -0.2449830025 -0.7423297763 0.623642385
v -0.2997433245 -0.4941949844 0.1153152362 1 1 1
vn -0.1517954171 -0.2306879312 0.9611145854
v -0.411310643 -0.4050657749 0.1153152362 1 1 1
vn -0.1141691506 -0.1059697568 0.987793386
v 0.4999831319 -0.2873461545 0.1153152362 1 1 1
vn 0.09729252756 -0.05342435464 0.9938209057
v -0.5524110794 -0.1700518727 0.1153152362 1 1 1
vn -0.08410745114 -0.02520269714 0.996137917
v -0.5787708759 -0.01027231477 0.1153152362 1 1 1
vn -0.0616440028 0.571416378 0.8183417916
v -0.5787718892 -0.0102314651 0.005805208813 1 1 1
vn -0.08160738647 -0.9965394139 -0.0157920979
v -0.5429988503 0.1959670335 0.005805208813 1 1 1
vn -0.8651162982 0.2926988006 -0.407309711
v -0.4227464199 0.1714035273 -0.1153152511 1 1 1
vn -0.1314657629 0.05691993982 -0.9896852374
v -0.2548570037 0.3783411384 -0.1153152511 1 1 1
vn -0.1632953733 0.264119029 -0.9505659938
v -0.2055331469 0.5394513607 0.005805208813 1 1 1
vn -0.3285264373 0.819752574 -0.4691227078
v 0.1968301982 0.5434454083 0.005805208813 1 1 1
vn 0.2904442549 0.8510481715 -0.4374461472
v 0.4189492464 0.3981913924 0.005805208813 1 1 1
vn 0.6348454952 0.6385954022 -0.434933424
v 0.03790631145 0.4539876878 -0.1153152511 1 1 1
vn 0.05193075538 0.6554637551 -0.7534390688
v 0.05721823499 0.5744373202 0.005805208813 1 1 1
vn 0.1074173301 0.9152706265 -0.388254106
v 0.4576279819 -0.0102314651 -0.1153152511 1 1 1
vn 0.02679832652 -0.8766184449 -0.4804393351
v 0.4542509615 0.04893069342 -0.1153152511 1 1 1
vn 0.1493564099 0.02718620934 -0.9884096384
v 0.1370099783 0.5601549745 0.1153152362 1 1 1
vn 0.1729723513 0.6444975138 0.7447841763
v -0.2668347955 0.512712121 0.1153152362 1 1 1
vn -0.1984975338 0.3856124878 0.901055932
v 0.5173476934 0.2577315271 0.1153152362 1 1 1
vn 0.1081581637 0.05297845602 0.9927210808
v -0.5403507948 0.2051701248 0.1153152362 1 1 1
vn -0.07100737095 0.02831519954 0.9970738292
v -0.5752096176 0.05663131177 0.005805208813 1 1 1
vn -0.8603109717 0.1415456384 -0.4897242188
v -0.4542504847 0.04893069342 -0.1153152511 1 1 1
vn -0.134911105 0.02641279437 -0.9905056357
v -0.3542491496 0.2874048054 -0.1153152511 1 1 1
vn -0.1661826819 0.1436016262 -0.9755828381
v -0.3395268023 0.4668758214 0.005805208813 1 1 1
vn -0.5134596825 0.7122668624 -0.4785760939
v 0.3079054952 0.4883092046 0.005805208813 1 1 1
vn 0.4596995413 0.7146373987 -0.5272282958
v 0.1732802689 0.4227444232 -0.1153152511 1 1 1
vn 0.1567708999 0.3652260303 -0.9176234603
v 0.285074532 0.3553501964 -0.1153152511 1 1 1
vn 0.1472181529 0.1832358539 -0.971983254
v 0.4227469563 0.1714035273 -0.1153152511 1 1 1
vn 0.1224702224 0.04926015809 -0.9912489653
v 0.5527375937 0.1689829379 0.005805208813 1 1 1
vn 0.8355172276 0.2741509378 -0.4761850834
v -0.009570755064 0.5779130459 0.1153152362 1 1 1
vn 0.003501263913 0.9927571416 0.120087564
v -0.1325350553 0.5618597865 0.1153152362 1 1 1
vn -0.2260287404 0.8962570429 0.3816206455
v 0.4498619735 0.3617675304 0.1153152362 1 1 1
vn 0.1218818575 0.1047140434 0.9870054722
v -0.4728032649 0.331222415 0.1153152362 1 1 1
vn -0.139748171 0.09236177057 0.9858700633
v 0.5787718892 -0.0102314651 0.1153152362 1 1 1
vn 0.06272566319 -0.5814665556 0.8111486435
v 0.5766201615 0.04715936631 0.1153152362 1 1 1
vn 0.09540378302 0.01230718568 0.9953625798
v -0.5787718892 -0.0102314651 0.1153152362 1 1 1
vn -0.03780542687 -0.91590482 0.3996112049
v 0.5580222607 0.150617063 0.1153152362 1 1 1
vn 0.09584830701 0.02426304482 0.9951002002
v -0.5709855556 0.08500605077 0.1153152362 1 1 1
vn -0.1073314771 0.01888844557 0.9940438271
v 0.31158337 0.4852430522 0.1153152362 1 1 1
vn 0.200511694 0.3121507764 0.9286317825
v -0.369661659 0.4433978498 0.1153152362 1 1 1
vn -0.1215485632 0.1372265816 0.9830538034
v 0.5752100945 0.05663131177 0.005805208813 1 1 1
vn 0.9167739153 0.1239081174 -0.3797003031
v 0.5787718892 -0.0102314651 0.005805208813 1 1 1
vn 0.03569256142 -0.9992708564 -0.01355709508
v 0.5117083192 -0.0102314651 -0.06124689803 1 1 1
vn 0.07560631633 -0.9942604303 -0.07569561154
v 0.4936747551 0.2992268801 0.005805208813 1 1 1
vn 0.7690218091 0.4500098228 -0.4539787173
v 0.3755850494 0.2611069977 -0.1153152511 1 1 1
vn 0.1243870184 0.09338458627 -0.9878295064
v -0.129046008 0.4369077981 -0.1153152511 1 1 1
vn -0.1348395646 0.5274342895 -0.8388273716
v -0.06678899378 0.5741204619 0.005805208813 1 1 1
vn -0.1087158695 0.8616961241 -0.4956416488
v -0.4947575033 0.2998832762 0.005805208813 1 1 1
vn -0.7247059345 0.4279613793 -0.5400466323
v -0.4318841994 0.3841231167 0.005805208813 1 1 1
vn -0.6813804507 0.6317244172 -0.3696551323
v -0.5117077231 -0.0102314651 -0.06124689803 1 1 1
vn -0.08775120229 -0.9922606349 -0.08785521984
v -0.457626909 -0.0102314651 -0.1153152511 1 1 1
vn -0.02630854398 -0.4054989815 -0.9137168527
# mm_gid 8
g mmGroup8
f 17//17 38//38 18//18 
f 18//18 38//38 3//3 
f 18//18 3//3 28//28 
f 35//35 34//34 33//33 
f 40//40 35//35 16//16 
f 40//40 24//24 35//35 
f 24//24 34//34 35//35 
f 35//35 33//33 6//6 
f 16//16 35//35 6//6 
f 24//24 7//7 34//34 
f 7//7 33//33 34//34 
f 16//16 41//41 40//40 
f 41//41 24//24 40//40 
f 41//41 25//25 24//24 
f 25//25 7//7 24//24 
f 16//16 6//6 15//15 
f 15//15 41//41 16//16 
f 6//6 33//33 5//5 
f 15//15 6//6 5//5 
f 41//41 8//8 25//25 
f 8//8 7//7 25//25 
f 7//7 23//23 33//33 
f 5//5 33//33 23//23 
f 15//15 42//42 41//41 
f 42//42 8//8 41//41 
f 8//8 31//31 7//7 
f 31//31 23//23 7//7 
f 5//5 23//23 22//22 
f 13//13 5//5 22//22 
f 15//15 5//5 13//13 
f 13//13 42//42 15//15 
f 42//42 32//32 8//8 
f 32//32 31//31 8//8 
f 13//13 43//43 42//42 
f 43//43 32//32 42//42 
f 31//31 36//36 23//23 
f 22//22 23//23 36//36 
f 32//32 26//26 31//31 
f 26//26 36//36 31//31 
f 22//22 36//36 37//37 
f 12//12 9//9 43//43 
f 44//44 12//12 43//43 
f 44//44 43//43 13//13 
f 13//13 37//37 44//44 
f 13//13 22//22 37//37 
f 43//43 9//9 32//32 
f 9//9 26//26 32//32 
f 26//26 21//21 36//36 
f 2//2 36//36 21//21 
f 37//37 36//36 2//2 
f 44//44 37//37 2//2 
f 9//9 29//29 26//26 
f 29//29 21//21 26//26 
f 12//12 27//27 9//9 
f 27//27 29//29 9//9 
f 2//2 21//21 19//19 
f 44//44 2//2 19//19 
f 44//44 45//45 12//12 
f 45//45 27//27 12//12 
f 29//29 20//20 21//21 
f 19//19 21//21 20//20 
f 44//44 19//19 10//10 
f 10//10 45//45 44//44 
f 45//45 30//30 27//27 
f 30//30 29//29 27//27 
f 30//30 28//28 29//29 
f 28//28 20//20 29//29 
f 19//19 20//20 1//1 
f 10//10 19//19 1//1 
f 10//10 11//11 45//45 
f 11//11 30//30 45//45 
f 28//28 3//3 20//20 
f 1//1 20//20 3//3 
f 30//30 18//18 28//28 
f 39//39 18//18 30//30 
f 39//39 17//17 18//18 
f 4//4 17//17 39//39 
f 38//38 17//17 4//4 
f 4//4 3//3 38//38 
f 1//1 3//3 4//4 
f 10//10 1//1 4//4 
f 10//10 46//46 11//11 
f 46//46 30//30 11//11 
f 39//39 30//30 46//46 
f 14//14 39//39 46//46 
f 4//4 39//39 14//14 
f 10//10 4//4 14//14 
f 14//14 46//46 10//10 
# mm_gid 19
g mmGroup19
f 88//88 54//54 87//87 
f 55//55 54//54 88//88 
f 71//71 55//55 88//88 
f 58//58 55//55 71//71 
f 88//88 87//87 51//51 
f 71//71 88//88 72//72 
f 72//72 58//58 71//71 
f 72//72 88//88 51//51 
f 58//58 52//52 55//55 
f 52//52 54//54 55//55 
f 52//52 67//67 54//54 
f 67//67 87//87 54//54 
f 67//67 50//50 87//87 
f 51//51 87//87 50//50 
f 72//72 51//51 59//59 
f 59//59 58//58 72//72 
f 59//59 80//80 58//58 
f 80//80 52//52 58//58 
f 80//80 66//66 52//52 
f 66//66 67//67 52//52 
f 51//51 50//50 65//65 
f 59//59 51//51 65//65 
f 66//66 68//68 67//67 
f 68//68 50//50 67//67 
f 59//59 65//65 81//81 
f 81//81 80//80 59//59 
f 68//68 64//64 50//50 
f 65//65 50//50 64//64 
f 80//80 53//53 66//66 
f 53//53 68//68 66//66 
f 65//65 64//64 90//90 
f 81//81 65//65 90//90 
f 81//81 73//73 80//80 
f 73//73 53//53 80//80 
f 85//85 86//86 53//53 
f 73//73 85//85 53//53 
f 74//74 73//73 81//81 
f 81//81 90//90 74//74 
f 53//53 86//86 68//68 
f 86//86 64//64 68//68 
f 90//90 64//64 89//89 
f 74//74 90//90 89//89 
f 86//86 49//49 64//64 
f 89//89 64//64 49//49 
f 74//74 60//60 73//73 
f 60//60 85//85 73//73 
f 85//85 69//69 86//86 
f 69//69 49//49 86//86 
f 89//89 49//49 48//48 
f 74//74 89//89 48//48 
f 74//74 48//48 61//61 
f 61//61 60//60 74//74 
f 60//60 70//70 85//85 
f 70//70 69//69 85//85 
f 61//61 78//78 60//60 
f 78//78 70//70 60//60 
f 69//69 63//63 49//49 
f 48//48 49//49 63//63 
f 70//70 57//57 69//69 
f 57//57 63//63 69//69 
f 48//48 63//63 62//62 
f 79//79 48//48 62//62 
f 61//61 48//48 79//79 
f 79//79 78//78 61//61 
f 78//78 82//82 70//70 
f 82//82 57//57 70//70 
f 92//92 91//91 63//63 
f 56//56 91//91 92//92 
f 84//84 91//91 56//56 
f 62//62 63//63 91//91 
f 83//83 84//84 82//82 
f 47//47 84//84 83//83 
f 91//91 84//84 47//47 
f 82//82 84//84 57//57 
f 79//79 76//76 78//78 
f 76//76 82//82 78//78 
f 57//57 92//92 63//63 
f 56//56 92//92 57//57 
f 57//57 84//84 56//56 
f 91//91 47//47 62//62 
f 79//79 62//62 47//47 
f 79//79 75//75 76//76 
f 75//75 82//82 76//76 
f 83//83 82//82 75//75 
f 77//77 83//83 75//75 
f 47//47 83//83 77//77 
f 79//79 47//47 77//77 
f 77//77 75//75 79//79 
