v 0.5179790854 -0.6275519133 0.5421519876 1 1 1
vn 0.5318260789 -0.8293946981 0.1710714251
v 0.3816825747 -0.5687282681 0.5421519876 1 1 1
vn -0.07566086948 0.5891264677 0.8044908047
v 0.6231834888 -0.3287822604 0.5421519876 1 1 1
vn -0.7393698692 0.05575806275 0.6709867716
v 0.7283411026 -0.3480801582 0.5421519876 1 1 1
vn 0.9593575001 -0.1624155641 0.2307690829
v -0.2893974483 0.5600987673 0.4580032229 1 1 1
vn 0.00903800223 -0.1068239585 0.9942368865
v -0.438541472 0.4690566063 0.4580032229 1 1 1
vn 0.6480412483 -0.6668342948 0.3679328859
v -0.5106945038 0.3325949013 0.4580032229 1 1 1
vn 0.05369621515 -0.007430404425 0.9985296726
v 0.3569716513 0.5745304227 0.4580032229 1 1 1
vn -0.01176195685 -0.327231288 0.944871068
v 0.6571184397 -0.508177042 0.5421519876 1 1 1
vn 0.772036314 -0.5811216831 0.2574053109
v 0.7318293452 -0.3362475932 -0.05877820402 1 1 1
vn 0.888240993 -0.06606866419 -0.4546019137
v 0.2018914223 -0.05500459671 -0.05877820402 1 1 1
vn 0.1519669592 -0.07139702886 -0.9858034849
v 0.1914283633 0.07723965496 -0.05877820402 1 1 1
vn 0.6683141589 0.2336928248 -0.7062179446
v 0.7403790355 0.2960326672 -0.05877820402 1 1 1
vn 0.6399677992 0.02639159933 -0.7679483891
v 0.7000880837 0.4334424436 -0.05877820402 1 1 1
vn 0.7590395808 0.3942993283 -0.5180608034
v 0.5888870358 0.5757756829 -0.05877820402 1 1 1
vn 0.4891400039 0.6334085464 -0.5996129513
v 0.00788201578 0.1489143819 -0.05877820402 1 1 1
vn -0.030828733 0.1254336238 -0.9916229248
v 0.1120794639 0.1479000151 -0.05877820402 1 1 1
vn 0.07511985302 0.1823868603 -0.9803529978
v 0.3923908472 0.6756858826 -0.05877820402 1 1 1
vn 0.05929286778 0.8828667402 -0.465865463
v -0.7446903586 0.5052700639 0.4707215428 1 1 1
vn -0.8232480884 0.09151111543 0.5602573752
v -0.7446903586 -0.5048687458 0.4707215428 1 1 1
vn -0.9799671173 -0.1089318693 0.1667280495
v -0.7446903586 0.5052700639 0.1407341808 1 1 1
vn -0.9799671173 0.1089318991 -0.1667280942
v -0.7446903586 -0.5048687458 0.1407341808 1 1 1
vn -0.8232477307 -0.09151118994 -0.5602578521
v -0.6324046254 0.5052700639 0.470721662 1 1 1
vn -0.6995425224 0.3908517659 0.5982267261
v -0.6324046254 0.5052700639 0.1407342404 1 1 1
vn -0.8508014083 0.08470932394 -0.518614769
v -0.6324046254 0.688546896 -0.05877820402 1 1 1
vn -0.3489027023 0.3712950051 -0.8604689837
v -0.6324046254 -0.5048687458 0.1407342404 1 1 1
vn -0.9787871838 -0.1120607182 -0.1715169847
v -0.2726389766 -0.5670403242 0.5421519876 1 1 1
vn 0.03884755075 0.4384495318 0.8979158401
v 0.07603728771 0.1574797034 -0.3763739765 1 1 1
vn 0.08774398267 0.9961375594 0.003303962061
v -0.0104014026 0.1416915655 -0.3763739765 1 1 1
vn -0.5615802407 0.8274202943 -0.00180592481
v 0.3521757722 -0.6842355728 0.5421519876 1 1 1
vn 0.04421506077 -0.9870586991 0.1541431397
v -0.6324046254 -0.5048687458 0.470721662 1 1 1
vn -0.7090644836 -0.1136701852 0.6959214807
v -0.6324046254 -0.6885469556 -0.05877820402 1 1 1
vn -0.2012013495 -0.6266384721 -0.7528892756
v 0.6336635351 0.2902868986 0.5421519876 1 1 1
vn -0.3914552927 -0.01954511926 0.9199895263
v 0.7316408753 0.325668931 0.5421519876 1 1 1
vn 0.9901840091 0.08105258644 0.1138688475
v 0.5856662393 0.4226237237 0.5421519876 1 1 1
vn -0.4956130385 -0.2589243054 0.8290511966
v 0.6239924431 0.5447800756 0.5421519876 1 1 1
vn 0.7842638493 0.6014778018 0.1521666944
v 0.512152493 0.5075012445 0.5421519876 1 1 1
vn -0.3636588752 -0.4573786855 0.8115152121
v 0.4895858169 0.6439445615 0.5421519876 1 1 1
vn 0.4506630599 0.8817110062 0.139601022
v 0.3849250972 0.5670403242 0.5421519876 1 1 1
vn -0.04996140301 -0.7585062385 0.6497477293
v 0.3521757722 0.6842355132 0.5421519876 1 1 1
vn 0.03831772506 0.9638984799 0.2634984255
v -0.2270056307 0.5791025162 0.5421519876 1 1 1
vn 0.008702168241 -0.2716058791 0.9623692036
v -0.3411649764 0.5437766314 0.5421519876 1 1 1
vn 0.2302672118 -0.3848617673 0.8937888145
v -0.4579312503 0.4427446425 0.5421519876 1 1 1
vn 0.3401114643 -0.2306337208 0.9116645455
v -0.5164821148 0.3152984977 0.5421519876 1 1 1
vn 0.7126482129 -0.02840794437 0.7009461522
v -0.6324046254 0.688546896 0.5421519876 1 1 1
vn -0.2492689192 0.9098412991 0.3317436278
v -0.5164821148 -0.3152985275 0.5421519876 1 1 1
vn 0.2261573523 0.02059144713 0.9738731384
v -0.4462140501 -0.4564606845 0.5421519876 1 1 1
vn 0.3465938866 0.3374552429 0.8752123117
v -0.6324046254 -0.6885469556 0.5421519876 1 1 1
vn -0.3544188738 -0.7860745192 0.5064327717
v -0.09410076588 0.04116901383 -0.3763739765 1 1 1
vn -0.9563258886 0.2923012972 -0.0008529381012
v 0.4763433635 0.5325750709 0.4580032229 1 1 1
vn -0.3823215067 -0.6803631783 0.625248909
v 0.5702178478 0.4427446425 0.4580032229 1 1 1
vn -0.7754724026 -0.579867959 0.2497912645
v 0.6287686229 0.3152984977 0.4580032229 1 1 1
vn -0.1593326479 -0.009466519579 0.9871795774
v 0.6231834888 -0.3287822604 0.4580032229 1 1 1
vn -0.05330639705 0.009390663356 0.9985340238
v 0.554254353 -0.4672002494 0.4580032229 1 1 1
vn -0.5368257761 0.4142691195 0.7349824309
v 0.4598376751 -0.5404520035 0.4580032229 1 1 1
vn -0.472080946 0.8769558668 0.08993329108
v 0.3464298248 -0.5775201917 0.4580032229 1 1 1
vn -0.001253468334 0.09796373546 0.9951891899
v -0.2893974483 -0.5600987673 0.4580032229 1 1 1
vn 0.1037675366 0.4596319199 0.8820265532
v -0.4365772605 -0.4721397161 0.4580032229 1 1 1
vn 0.6466761827 0.6332615018 0.4251938462
v -0.5090065598 -0.3358376026 0.4580032229 1 1 1
vn 0.1782417595 0.01632450894 0.9838513136
v -0.07865599543 -0.0826593712 -0.3763739765 1 1 1
vn -0.9260383844 -0.377338022 0.008305419236
v -0.02032639831 -0.1390972733 -0.3763739765 1 1 1
vn -0.4949617386 -0.8688970208 0.005553790834
v 0.05614287779 -0.1587315351 -0.3763739765 1 1 1
vn 0.03693637997 -0.9992328882 -0.013015192
v 0.1326126605 -0.1390972733 -0.3763739765 1 1 1
vn 0.6222214103 -0.7828258276 -0.004925441928
v 0.200042367 -0.05967495963 -0.3763739765 1 1 1
vn 0.9606574178 -0.2777271271 -0.002228381112
v 0.2092489004 0.04449671134 -0.3763739765 1 1 1
vn 0.9712404609 0.2380538136 0.004726567306
v 0.1558341384 0.1206910089 -0.3763739765 1 1 1
vn 0.6557705402 0.7549002767 -0.009516944177
v 0.5321202278 -0.4861893356 0.5421519876 1 1 1
vn -0.5016783476 0.449724853 0.7389630079
v 0.631918788 -0.532743752 -0.05877820402 1 1 1
vn 0.6347895861 -0.4935716689 -0.5944991112
v 0.116611965 -0.1461056173 -0.05877820402 1 1 1
vn 0.1167834178 -0.2315526307 -0.9657872319
v 0.482437551 -0.6480717659 -0.05877820402 1 1 1
vn 0.3530573547 -0.7556285858 -0.5517027378
v 0.3521757722 -0.6842355728 -0.05877820402 1 1 1
vn 0.02615437843 -0.7203918099 -0.693073988
v 0.03624846414 -0.1574797481 -0.05877820402 1 1 1
vn -0.02689935826 -0.121128805 -0.9922722578
v -0.05461166799 -0.1107341349 -0.05877820402 1 1 1
vn -0.3544970155 -0.3256399035 -0.8765218258
v -0.06983048469 0.09773416817 -0.05877820402 1 1 1
vn -0.4435013235 0.3365674317 -0.8306797743
v -0.0996190086 -0.002511483384 -0.05877820402 1 1 1
vn -0.1170348972 -0.01079971623 -0.9930690527
v -0.1018038094 -0.007494853809 -0.5421519876 1 1 1
vn -0.500277698 -0.02484607883 -0.8655084372
v 0.1970898509 0.06373868138 -0.5421519876 1 1 1
vn 0.577003181 0.2092952728 -0.7894699574
v 0.2014884204 -0.06024736166 -0.5421519876 1 1 1
vn 0.3819578588 -0.1558784395 -0.910939157
v -0.06723323464 -0.09890236706 -0.5421519876 1 1 1
vn -0.4935573041 -0.3964062035 -0.7741209865
v 0.1127402037 -0.1429480761 -0.5421519876 1 1 1
vn 0.4355731905 -0.8124678731 -0.3875202239
v -0.002289863769 -0.1475847512 -0.5421519876 1 1 1
vn -0.2375569046 -0.9566545486 -0.1684601605
v -0.06761708856 0.09597981721 -0.5421519876 1 1 1
vn -0.5689647794 0.4394386411 -0.6951063275
v 0.104403995 0.1489143819 -0.5421519876 1 1 1
vn 0.3815722167 0.7830950022 -0.4910853505
v 0.01666807942 0.1537445486 -0.5421519876 1 1 1
vn -0.2546259463 0.9576247931 -0.1346118301
# mm_gid 0
g mmGroup0
f 59//59 44//44 46//46 
f 7//7 44//44 59//59 
f 56//56 27//27 2//2 
f 57//57 27//27 56//56 
f 56//56 54//54 53//53 
f 56//56 55//55 54//54 
f 57//57 59//59 58//58 
f 56//56 59//59 57//57 
f 56//56 7//7 59//59 
f 53//53 7//7 56//56 
f 5//5 6//6 7//7 
f 5//5 53//53 52//52 
f 5//5 7//7 53//53 
f 52//52 8//8 5//5 
f 50//50 8//8 52//52 
f 51//51 50//50 52//52 
f 42//42 5//5 41//41 
f 42//42 6//6 5//5 
f 43//43 6//6 42//42 
f 43//43 7//7 6//6 
f 44//44 7//7 43//43 
f 50//50 39//39 8//8 
f 50//50 37//37 39//39 
f 51//51 37//37 50//50 
f 51//51 35//35 37//37 
f 52//52 35//35 51//51 
f 52//52 33//33 35//35 
f 3//3 52//52 53//53 
f 33//33 52//52 3//3 
f 53//53 67//67 3//3 
f 54//54 67//67 53//53 
f 55//55 67//67 54//54 
f 55//55 2//2 67//67 
f 56//56 2//2 55//55 
f 5//5 39//39 41//41 
f 8//8 39//39 5//5 
f 14//14 34//34 13//13 
f 14//14 36//36 34//34 
f 15//15 36//36 14//14 
f 15//15 38//38 36//36 
f 18//18 38//38 15//15 
f 18//18 40//40 38//38 
f 70//70 30//30 71//71 
f 70//70 1//1 30//30 
f 68//68 1//1 70//70 
f 68//68 9//9 1//1 
f 68//68 4//4 9//9 
f 10//10 4//4 68//68 
f 10//10 34//34 4//4 
f 13//13 34//34 10//10 
f 21//21 20//20 19//19 
f 22//22 20//20 21//21 
f 57//57 47//47 27//27 
f 58//58 47//47 57//57 
f 59//59 47//47 58//58 
f 59//59 46//46 47//47 
f 74//74 49//49 75//75 
f 74//74 29//29 49//49 
f 16//16 29//29 74//74 
f 16//16 28//28 29//29 
f 17//17 28//28 16//16 
f 17//17 66//66 28//28 
f 12//12 66//66 17//17 
f 12//12 65//65 66//66 
f 12//12 64//64 65//65 
f 11//11 64//64 12//12 
f 11//11 63//63 64//64 
f 69//69 63//63 11//11 
f 69//69 62//62 63//63 
f 72//72 62//62 69//69 
f 72//72 61//61 62//62 
f 73//73 61//61 72//72 
f 73//73 60//60 61//61 
f 75//75 60//60 73//73 
f 75//75 49//49 60//60 
f 76//76 60//60 49//49 
f 79//79 60//60 76//76 
f 79//79 61//61 60//60 
f 81//81 61//61 79//79 
f 81//81 62//62 61//61 
f 80//80 62//62 81//81 
f 80//80 63//63 62//62 
f 80//80 64//64 63//63 
f 78//78 64//64 80//80 
f 77//77 64//64 78//78 
f 77//77 65//65 64//64 
f 77//77 66//66 65//65 
f 83//83 66//66 77//77 
f 83//83 28//28 66//66 
f 84//84 28//28 83//83 
f 84//84 29//29 28//28 
f 82//82 29//29 84//84 
f 82//82 49//49 29//29 
f 76//76 49//49 82//82 
f 83//83 82//82 84//84 
f 77//77 82//82 83//83 
f 77//77 76//76 82//82 
f 79//79 80//80 81//81 
f 79//79 78//78 80//80 
f 76//76 78//78 79//79 
f 76//76 77//77 78//78 
f 18//18 45//45 40//40 
f 25//25 45//45 18//18 
f 23//23 21//21 19//19 
f 24//24 21//21 23//23 
f 25//25 74//74 75//75 
f 25//25 16//16 74//74 
f 73//73 32//32 75//75 
f 72//72 32//32 73//73 
f 72//72 71//71 32//32 
f 69//69 71//71 72//72 
f 70//70 71//71 69//69 
f 69//69 68//68 70//70 
f 11//11 68//68 69//69 
f 10//10 68//68 11//11 
f 11//11 13//13 10//10 
f 12//12 13//13 11//11 
f 17//17 13//13 12//12 
f 17//17 14//14 13//13 
f 17//17 15//15 14//14 
f 17//17 18//18 15//15 
f 18//18 17//17 16//16 
f 18//18 16//16 25//25 
f 25//25 75//75 32//32 
f 31//31 19//19 20//20 
f 23//23 19//19 31//31 
f 26//26 20//20 22//22 
f 31//31 20//20 26//26 
f 24//24 22//22 21//21 
f 26//26 22//22 24//24 
f 45//45 23//23 31//31 
f 45//45 24//24 23//23 
f 25//25 24//24 45//45 
f 25//25 26//26 24//24 
f 32//32 26//26 25//25 
f 48//48 26//26 32//32 
f 48//48 31//31 26//26 
f 45//45 31//31 48//48 
f 30//30 32//32 71//71 
f 48//48 32//32 30//30 
f 34//34 35//35 33//33 
f 36//36 35//35 34//34 
f 36//36 37//37 35//35 
f 38//38 37//37 36//36 
f 38//38 39//39 37//37 
f 40//40 39//39 38//38 
f 40//40 41//41 39//39 
f 45//45 41//41 40//40 
f 45//45 42//42 41//41 
f 43//43 42//42 45//45 
f 44//44 43//43 45//45 
f 45//45 46//46 44//44 
f 48//48 46//46 45//45 
f 48//48 47//47 46//46 
f 48//48 27//27 47//47 
f 30//30 27//27 48//48 
f 30//30 2//2 27//27 
f 1//1 2//2 30//30 
f 1//1 67//67 2//2 
f 9//9 67//67 1//1 
f 9//9 3//3 67//67 
f 4//4 3//3 9//9 
f 33//33 4//4 34//34 
f 3//3 4//4 33//33 
