v -0.269644618 0.288302362 0.1547777206 1 1 1
vn -0.4926705658 -0.8695677519 -0.03358078748
v -0.269644618 0.2025798857 0.1331354231 1 1 1
vn -0.9973500371 0.06791303307 0.02609090321
v -0.269644618 0.1992707253 0.1489080191 1 1 1
vn -0.898661077 0.4385047555 -0.0110397134
v -0.269644618 0.2024023086 0.1647170782 1 1 1
vn -0.8515863419 0.4732396901 -0.2254880369
v -0.269644618 0.2438769192 0.1936918199 1 1 1
vn -0.7534091473 -0.02829540335 -0.656942904
v -0.269644618 0.259796381 0.1911932975 1 1 1
vn -0.2866496444 -0.362128377 -0.8869583011
v -0.269644618 0.2734690607 0.1826593727 1 1 1
vn -0.381126076 -0.6422659159 -0.6650093198
v -0.269644618 0.2837294936 0.1702316105 1 1 1
vn -0.5427064896 -0.7533124685 -0.3714700937
v -0.269644618 0.2550284863 0.1059845313 1 1 1
vn -0.677046597 -0.1505665332 0.7203732133
v -0.269644618 0.2337147892 0.1058642268 1 1 1
vn -0.9992948174 0.01027788222 0.03611351177
v 0.2690737545 -0.5287085176 -0.03977644816 1 1 1
vn 0.9053750634 -0.3023189902 -0.2981597781
v 0.2696445882 -0.3624642789 -0.2060202807 1 1 1
vn 0.5402849317 -0.2192275077 -0.8124232292
v 0.2696445882 0.2024023086 0.1647170782 1 1 1
vn 0.8341478109 0.5255734324 -0.1672424674
v -0.269644618 0.214785859 0.1156628653 1 1 1
vn -0.8355436325 0.3787481487 0.3980158865
v -0.269644618 0.52290833 0.2060202807 1 1 1
vn -0.928312242 0.01003730763 0.3716659546
v -0.269644618 0.227982834 0.191014111 1 1 1
vn -0.6274806857 0.2576942444 -0.7347527742
v -0.269644618 0.2144100666 0.1823262125 1 1 1
vn -0.7952521443 0.4040193856 -0.4520424306
v -0.269644618 0.52290833 -0.2060202807 1 1 1
vn -0.6620960832 0.002521977993 -0.7494146824
v -0.269644618 0.2738448381 0.1159958318 1 1 1
vn -0.9897800088 -0.09070446342 0.1100375429
v -0.269644618 0.2858526111 0.1336049587 1 1 1
vn -0.4400210381 -0.8277766705 0.3480909169
v -0.269644618 -0.5229115486 0.2060202807 1 1 1
vn -0.8989711404 -0.002827444347 0.4379987121
v 0.2696445882 0.2858526111 0.1336049587 1 1 1
vn 0.4239089489 -0.8731392026 0.2406846732
v 0.2696445882 0.2778722644 0.1196040809 1 1 1
vn 0.3238945007 -0.7305671573 0.6011355519
v -0.2455751598 -0.5705858469 0.002101724735 1 1 1
vn -0.6023374796 -0.7982216477 -0.005637150258
v -0.006973479409 0.2103826404 0.1787177622 1 1 1
vn 0.001283250866 0.7455843687 -0.6664100289
v -0.006973479409 0.2042907476 0.1697836816 1 1 1
vn -1.628570064e-17 0.8828709126 -0.4696157277
v -0.2668111324 0.5400772691 -0.2060202807 1 1 1
vn -0.9454131126 0.3257920444 -0.00732047949
v -0.259629935 0.555926919 -0.2060202807 1 1 1
vn -0.8170813918 0.5752781034 -0.03785656765
v -0.2477347553 0.5686259866 -0.2060202807 1 1 1
vn -0.6310503483 0.7715667486 -0.0803752467
v -0.2329600751 0.5778146386 -0.2060202807 1 1 1
vn -0.3828595877 0.9163345098 -0.1172586307
v -0.2160131633 0.5817659497 -0.2060202807 1 1 1
vn -0.008168064989 0.9901089668 -0.1400626749
v -0.259629935 0.555926919 0.2060202807 1 1 1
vn -0.8171204329 0.5753055811 0.03657431155
v -0.2329600751 0.5778146386 0.2060202807 1 1 1
vn -0.3830352426 0.9167549014 0.1133334711
v 0.2668111026 0.5400772691 0.2060202807 1 1 1
vn 0.945414722 0.3257929385 0.007072169334
v 0.2477347106 0.5686259866 0.2060202807 1 1 1
vn 0.6311863065 0.7717330456 0.07766584307
v 0.2160131186 0.5817659497 0.2060202807 1 1 1
vn 0.002400454832 0.2859135866 0.95825243
v 0.2255140692 0.579996407 -0.003554128809 1 1 1
vn 0.285561204 0.9583604932 1.326332827e-18
v 0.2425846756 0.5727502108 -0.003554128809 1 1 1
vn 0.5046103001 0.8633472323 1.62890164e-18
v 0.2522378266 0.5649299622 -0.003554128809 1 1 1
vn 0.7165888548 0.6974958181 -5.927209001e-18
v 0.2600580156 0.5552768111 -0.003554128809 1 1 1
vn 0.8862823248 0.4631453753 -1.567260528e-19
v 0.2673042417 0.5382062197 -0.003554128809 1 1 1
vn 0.9699778557 0.2431931645 -5.896522358e-19
v -0.006973479409 0.2698174119 0.1123875976 1 1 1
vn 1.229911639e-08 -0.572706461 0.8197605014
v -0.006973479409 0.2839641571 0.1285385489 1 1 1
vn 1.355355617e-17 -0.8828716874 0.4696142375
v -0.006973479409 0.2889841795 0.1494138241 1 1 1
vn -0.001580419717 -0.9993818998 0.03511817753
v -0.006973479409 0.2837294936 0.1702316105 1 1 1
vn -0.001278410084 -0.8798702955 -0.4752122164
v -0.006973479409 0.2694019675 0.1862220317 1 1 1
vn 6.401723454e-07 -0.5924800038 -0.805585146
v -0.006973479409 0.2492838353 0.1937223226 1 1 1
vn -3.129878934e-08 -0.1149574667 -0.9933704138
v -0.006973479409 0.227982834 0.191014111 1 1 1
vn -6.959689927e-07 0.3904335797 -0.9206311107
v -0.006973479409 0.1992707253 0.1489080191 1 1 1
vn 1.93214504e-07 0.999994278 0.003381415037
v -0.006973479409 0.2005138546 0.1596504897 1 1 1
vn 3.139380743e-19 0.9747567773 -0.2232692838
v -0.006973479409 0.2184375077 0.1859346479 1 1 1
vn -1.370738012e-08 0.5727186203 -0.8197520375
v -0.006973479409 0.238470003 0.1936612725 1 1 1
vn -1.275806198e-07 0.09068313986 -0.9958797693
v -0.006973479409 0.259796381 0.1911932975 1 1 1
vn 5.522543916e-07 -0.3182474375 -0.9480077028
v -0.006973479409 0.277536124 0.1790967137 1 1 1
vn 1.245360171e-08 -0.744771421 -0.6673196554
v -0.006973479409 0.2876205742 0.1601416171 1 1 1
vn 9.418158513e-18 -0.9668828249 -0.2552206218
v -0.006973479409 0.287741065 0.1386713535 1 1 1
vn 0.001607951126 -0.9807263613 0.1953797191
v -0.006973479409 0.2778722644 0.1196040809 1 1 1
vn 0.001283371705 -0.7455822229 0.6664124131
v -0.006973479409 0.2602720559 0.1073081121 1 1 1
vn -2.294934376e-07 -0.3584088683 0.9335647225
v 0.2668111026 0.5400772691 -0.2060202807 1 1 1
vn 0.9454129934 0.3257923722 -0.007320448756
v 0.2596299052 0.555926919 -0.2060202807 1 1 1
vn 0.8170813918 0.5752781034 -0.03785660118
v 0.2477347106 0.5686259866 -0.2060202807 1 1 1
vn 0.6310503483 0.7715667486 -0.0803752467
v 0.2329600602 0.5778146386 -0.2060202807 1 1 1
vn 0.3828595877 0.9163345098 -0.1172586456
v 0.2160131186 0.5817659497 -0.2060202807 1 1 1
vn 0.002363093663 0.5615424514 -0.8274445534
v 0.2329600602 0.5778146386 0.2060202807 1 1 1
vn 0.3830352426 0.9167549014 0.1133334786
v 0.2596299052 0.555926919 0.2060202807 1 1 1
vn 0.8171204329 0.5753055811 0.03657434508
v -0.2160131633 0.5817659497 0.2060202807 1 1 1
vn -0.001317542861 0.3075428307 0.9515333176
v -0.2477347553 0.5686259866 0.2060202807 1 1 1
vn -0.6311863065 0.7717330456 0.07766584307
v -0.2668111324 0.5400772691 0.2060202807 1 1 1
vn -0.9454147816 0.3257926404 0.007072199136
v -0.2255140841 0.579996407 -0.003554128809 1 1 1
vn -0.2855614126 0.9583604336 4.045318514e-18
v -0.2425846905 0.5727502108 -0.003554128809 1 1 1
vn -0.5046101213 0.8633473516 -1.253000888e-18
v -0.2522378266 0.5649299622 -0.003554128809 1 1 1
vn -0.7165888548 0.6974958181 -5.676889259e-18
v -0.2600580752 0.5552768111 -0.003554128809 1 1 1
vn -0.8862823248 0.4631453753 -4.46669259e-19
v -0.2673042417 0.5382062197 -0.003554128809 1 1 1
vn -0.9699779749 0.2431928366 4.422391898e-19
v -0.006973479409 0.2497849017 0.1046609432 1 1 1
vn -8.293921994e-09 -0.1261247098 0.9920144081
v -0.269644618 -0.5229115486 -0.04557341337 1 1 1
vn -0.7394241095 -0.4762845933 -0.4758202732
v -0.006973479409 0.2389710695 0.104599908 1 1 1
vn 1.873552975e-07 0.1164857522 0.9931923747
v -0.268912077 -0.5322063565 -0.002422394929 1 1 1
vn -0.9906836152 -0.1361709535 0.001865655649
v -0.006973479409 0.2284585238 0.1071285456 1 1 1
vn -1.951639739e-08 0.3493260741 0.9370012283
v -0.2685029805 -0.5345054865 -0.03397948295 1 1 1
vn -0.9001564384 -0.3998221159 -0.172802493
v -0.006973479409 0.2188529223 0.1121002063 1 1 1
vn 0.001276623108 0.5443305373 0.8388698697
v -0.2668111324 -0.5400788188 0.2060202807 1 1 1
vn -0.9372393489 -0.3484382927 0.01315735187
v -0.265696466 -0.544206202 -0.002422394929 1 1 1
vn -0.9568850994 -0.2904666066 5.915525847e-08
v -0.006973479409 0.2107187808 0.1192255169 1 1 1
vn -4.326482212e-07 0.7808353901 0.6247368455
v -0.2651193142 -0.5456522703 -0.02283149585 1 1 1
vn -0.8238351941 -0.5499765277 -0.1371910423
v -0.006973479409 0.2045254111 0.12809062 1 1 1
vn 0.001607985119 0.8636638522 0.5040656924
v -0.2600580752 -0.5552768111 -0.002422394929 1 1 1
vn -0.8729270697 -0.4878379703 0.003535148688
v -0.006973479409 0.2006343454 0.1381802112 1 1 1
vn -4.889697039e-18 0.9722787142 0.2338248938
v -0.2569129765 -0.5593494773 -0.009134754539 1 1 1
vn -0.69896698 -0.71248281 -0.06175257266
v 0.2569129765 -0.5593494773 -0.009134754539 1 1 1
vn 0.7704744339 -0.637065053 -0.02274423465
v 0.2696445882 0.288302362 0.1547777206 1 1 1
vn 0.4927787185 -0.8579490781 -0.1452325284
v 0.2696445882 0.2806328237 0.1746641695 1 1 1
vn 0.4542766809 -0.7296509147 -0.5111185908
v 0.2696445882 0.2694019675 0.1862220317 1 1 1
vn 0.3935259283 -0.4942954183 -0.775118947
v 0.2696445882 0.2545401156 0.1924577951 1 1 1
vn 0.1602074802 -0.1838581413 -0.9698091149
v 0.2696445882 0.238470003 0.1936612725 1 1 1
vn 0.8375396729 0.08635544777 -0.539509058
v 0.2696445882 0.2232101709 0.188474372 1 1 1
vn 0.6228955388 0.4006642401 -0.6719146967
v 0.2696445882 0.2103826404 0.1787177622 1 1 1
vn 0.8401469588 0.4188212752 -0.344589293
v 0.2651192546 -0.5456522703 -0.02283149585 1 1 1
vn 0.9246003032 -0.3777724504 -0.0490132384
v 0.2455751151 -0.5705858469 0.002101724735 1 1 1
vn 0.576936245 -0.8167203069 -0.01060811058
v 0.2477347106 -0.5686276555 0.2060202807 1 1 1
vn 0.6380998492 -0.76884377 0.04132604599
v 0.2160131186 -0.5817659497 0.2060202807 1 1 1
vn 0.001369020436 -0.1586679071 0.9873310328
v 0.2696445882 0.1992707253 0.1489080191 1 1 1
vn 0.8911445141 0.4534181356 0.01653802767
v 0.2696445882 0.2236557305 0.1096143797 1 1 1
vn 0.9953429103 0.03501116857 0.08981508762
v 0.2696445882 0.2443779856 0.104630433 1 1 1
vn 0.9982410669 -0.002778894035 0.05922078341
v 0.2696445882 0.2650447488 0.1098478585 1 1 1
vn 0.9904947877 -0.06476505101 0.1213488653
v -0.2559338808 -0.5604300499 0.2060202807 1 1 1
vn -0.7583143711 -0.6501789689 0.04718678072
v 0.2690737545 -0.5287085176 0.2060202807 1 1 1
vn 0.9000654817 -0.00978208892 0.4356448948
v -0.2380958498 -0.5750683546 0.2060202807 1 1 1
vn -0.4664599597 -0.8770181537 0.1151272655
v 0.2623745799 -0.5507895947 0.2060202807 1 1 1
vn 0.8776758909 -0.4788938761 0.0185937658
v -0.2301170975 -0.578527391 0.01004351489 1 1 1
vn -0.07468313724 -0.8073237538 -0.5853638053
v 0.2329600602 -0.5778146386 0.2060202807 1 1 1
vn 0.3779179156 -0.9124593139 0.1568311453
v -0.2131289542 -0.5821940899 0.01371071953 1 1 1
vn -0.004118099343 -0.9998500943 -0.01681913994
v 0.2696445882 0.2025798857 0.1331354231 1 1 1
vn 0.9974249005 0.06546349078 0.02929235622
v -0.2160131633 -0.5817659497 0.2060202807 1 1 1
vn -0.003521327395 -0.1581464708 0.9874094129
v 0.2131288946 -0.5821940899 0.01371071953 1 1 1
vn 0.0081391735 -0.9998399019 -0.01593684778
v 0.2696445882 0.2107187808 0.1192255169 1 1 1
vn 0.8709826469 0.3556295931 0.3389938474
v 0.2301170826 -0.578527391 0.01004351489 1 1 1
vn 0.05482133105 -0.7730901837 -0.6319226027
v 0.2696445882 0.52290833 -0.2060202807 1 1 1
vn 0.5813875198 0.002241351875 -0.8136236668
v -0.269644618 -0.3624642789 -0.2060202807 1 1 1
vn -0.3647852838 -0.07482603192 -0.9280801415
v 0.2696445882 0.52290833 0.2060202807 1 1 1
vn 0.9311161637 0.009716358967 0.3645932972
# mm_gid 2
g mmGroup2
f 117//117 60//60 59//59 
f 117//117 61//61 60//60 
f 117//117 62//62 61//61 
f 117//117 63//63 62//62 
f 18//18 31//31 63//63 
f 18//18 30//30 31//31 
f 18//18 29//29 30//30 
f 18//18 28//28 29//29 
f 18//18 27//27 28//28 
f 118//118 117//117 12//12 
f 118//118 63//63 117//117 
f 18//18 63//63 118//118 
f 66//66 63//63 31//31 
f 36//36 63//63 66//66 
f 69//69 33//33 66//66 
f 70//70 33//33 69//69 
f 70//70 67//67 33//33 
f 71//71 67//67 70//70 
f 32//32 67//67 71//71 
f 72//72 32//32 71//71 
f 68//68 32//32 72//72 
f 73//73 68//68 72//72 
f 15//15 68//68 73//73 
f 73//73 18//18 15//15 
f 73//73 27//27 18//18 
f 72//72 27//27 73//73 
f 72//72 28//28 27//27 
f 71//71 28//28 72//72 
f 71//71 29//29 28//28 
f 70//70 29//29 71//71 
f 70//70 30//30 29//29 
f 69//69 30//30 70//70 
f 69//69 31//31 30//30 
f 66//66 31//31 69//69 
f 32//32 68//68 15//15 
f 15//15 67//67 32//32 
f 33//33 67//67 15//15 
f 119//119 64//64 36//36 
f 119//119 35//35 64//64 
f 119//119 65//65 35//35 
f 119//119 34//34 65//65 
f 106//106 99//99 108//108 
f 106//106 110//110 99//99 
f 106//106 100//100 110//110 
f 36//36 106//106 119//119 
f 36//36 100//100 106//106 
f 66//66 100//100 36//36 
f 113//113 100//100 66//66 
f 15//15 66//66 33//33 
f 21//21 66//66 15//15 
f 21//21 113//113 66//66 
f 21//21 107//107 113//113 
f 105//105 107//107 21//21 
f 21//21 81//81 105//105 
f 41//41 34//34 119//119 
f 40//40 34//34 41//41 
f 40//40 65//65 34//34 
f 39//39 65//65 40//40 
f 39//39 35//35 65//65 
f 38//38 35//35 39//39 
f 64//64 35//35 38//38 
f 37//37 64//64 38//38 
f 36//36 64//64 37//37 
f 37//37 63//63 36//36 
f 37//37 62//62 63//63 
f 38//38 62//62 37//37 
f 38//38 61//61 62//62 
f 39//39 61//61 38//38 
f 39//39 60//60 61//61 
f 40//40 60//60 39//39 
f 40//40 59//59 60//60 
f 41//41 59//59 40//40 
f 41//41 117//117 59//59 
f 119//119 117//117 41//41 
f 10//10 80//80 78//78 
f 14//14 80//80 10//10 
f 14//14 83//83 80//80 
f 14//14 85//85 83//83 
f 2//2 85//85 14//14 
f 2//2 87//87 85//85 
f 2//2 49//49 87//87 
f 3//3 49//49 2//2 
f 3//3 50//50 49//49 
f 4//4 50//50 3//3 
f 4//4 26//26 50//50 
f 4//4 25//25 26//26 
f 17//17 25//25 4//4 
f 17//17 51//51 25//25 
f 17//17 48//48 51//51 
f 16//16 48//48 17//17 
f 16//16 52//52 48//48 
f 5//5 52//52 16//16 
f 5//5 47//47 52//52 
f 5//5 53//53 47//47 
f 6//6 53//53 5//5 
f 6//6 46//46 53//53 
f 7//7 46//46 6//6 
f 7//7 54//54 46//46 
f 7//7 45//45 54//54 
f 8//8 45//45 7//7 
f 8//8 55//55 45//45 
f 1//1 55//55 8//8 
f 1//1 44//44 55//55 
f 1//1 56//56 44//44 
f 20//20 56//56 1//1 
f 20//20 43//43 56//56 
f 20//20 57//57 43//43 
f 19//19 57//57 20//20 
f 19//19 42//42 57//57 
f 19//19 58//58 42//42 
f 9//9 58//58 19//19 
f 9//9 74//74 58//58 
f 9//9 76//76 74//74 
f 10//10 76//76 9//9 
f 10//10 78//78 76//76 
f 103//103 58//58 74//74 
f 104//104 58//58 103//103 
f 104//104 42//42 58//58 
f 104//104 57//57 42//42 
f 23//23 57//57 104//104 
f 23//23 43//43 57//57 
f 22//22 43//43 23//23 
f 22//22 56//56 43//43 
f 22//22 44//44 56//56 
f 90//90 44//44 22//22 
f 90//90 55//55 44//44 
f 90//90 45//45 55//55 
f 91//91 45//45 90//90 
f 91//91 54//54 45//45 
f 91//91 46//46 54//54 
f 92//92 46//46 91//91 
f 92//92 53//53 46//46 
f 93//93 53//53 92//92 
f 93//93 47//47 53//53 
f 93//93 52//52 47//47 
f 94//94 52//52 93//93 
f 94//94 48//48 52//52 
f 95//95 48//48 94//94 
f 95//95 51//51 48//48 
f 95//95 25//25 51//51 
f 96//96 25//25 95//95 
f 96//96 26//26 25//25 
f 13//13 26//26 96//96 
f 13//13 50//50 26//26 
f 13//13 49//49 50//50 
f 101//101 49//49 13//13 
f 101//101 87//87 49//49 
f 112//112 87//87 101//101 
f 112//112 85//85 87//87 
f 112//112 83//83 85//85 
f 115//115 83//83 112//112 
f 115//115 80//80 83//83 
f 102//102 80//80 115//115 
f 102//102 78//78 80//80 
f 102//102 76//76 78//78 
f 103//103 76//76 102//102 
f 103//103 74//74 76//76 
f 21//21 3//3 2//2 
f 4//4 3//3 21//21 
f 21//21 17//17 4//4 
f 15//15 6//6 5//5 
f 7//7 6//6 15//15 
f 15//15 8//8 7//7 
f 1//1 8//8 15//15 
f 15//15 20//20 1//1 
f 9//9 19//19 18//18 
f 10//10 75//75 14//14 
f 10//10 118//118 75//75 
f 18//18 10//10 9//9 
f 118//118 10//10 18//18 
f 15//15 19//19 20//20 
f 18//18 19//19 15//15 
f 21//21 16//16 17//17 
f 21//21 5//5 16//16 
f 15//15 5//5 21//21 
f 75//75 2//2 14//14 
f 21//21 2//2 75//75 
f 115//115 112//112 11//11 
f 13//13 106//106 101//101 
f 96//96 106//106 13//13 
f 95//95 106//106 96//96 
f 94//94 106//106 95//95 
f 94//94 119//119 106//106 
f 93//93 119//119 94//94 
f 92//92 119//119 93//93 
f 91//91 119//119 92//92 
f 90//90 119//119 91//91 
f 22//22 119//119 90//90 
f 23//23 119//119 22//22 
f 104//104 119//119 23//23 
f 104//104 117//117 119//119 
f 103//103 117//117 104//104 
f 103//103 12//12 117//117 
f 102//102 12//12 103//103 
f 11//11 102//102 115//115 
f 12//12 102//102 11//11 
f 106//106 112//112 101//101 
f 11//11 112//112 106//106 
f 116//116 100//100 114//114 
f 116//116 110//110 100//100 
f 116//116 99//99 110//110 
f 98//98 99//99 116//116 
f 89//89 99//99 98//98 
f 89//89 108//108 99//99 
f 97//97 108//108 89//89 
f 97//97 106//106 108//108 
f 11//11 106//106 97//97 
f 89//89 98//98 116//116 
f 97//97 89//89 116//116 
f 116//116 11//11 97//97 
f 75//75 11//11 116//116 
f 75//75 12//12 11//11 
f 118//118 12//12 75//75 
f 88//88 109//109 24//24 
f 84//84 109//109 88//88 
f 79//79 109//109 84//84 
f 75//75 109//109 79//79 
f 116//116 109//109 75//75 
f 116//116 111//111 109//109 
f 114//114 111//111 116//116 
f 100//100 111//111 114//114 
f 113//113 111//111 100//100 
f 81//81 21//21 77//77 
f 113//113 109//109 111//111 
f 107//107 109//109 113//113 
f 107//107 24//24 109//109 
f 105//105 24//24 107//107 
f 105//105 88//88 24//24 
f 86//86 105//105 81//81 
f 86//86 88//88 105//105 
f 79//79 84//84 82//82 
f 86//86 84//84 88//88 
f 81//81 84//84 86//86 
f 81//81 82//82 84//84 
f 81//81 79//79 82//82 
f 77//77 79//79 81//81 
f 77//77 75//75 79//79 
f 21//21 75//75 77//77 
