v 0.1088215634 -0.2354494929 -0.02733460627 1 1 1
vn 0.4465141892 -0.1031864062 -0.8888068795
v -0.1088215709 -0.2354494929 -0.02733460627 1 1 1
vn -0.1237961128 -0.1144337803 -0.9856873155
v 0.1088215634 0.235449478 -0.02733460627 1 1 1
vn 0.1237961128 0.1144337803 -0.9856873155
v -0.1088215709 0.235449478 -0.02733460627 1 1 1
vn -0.4465141892 0.1031864062 -0.8888068795
v 0.1088215634 0.235449478 0.02733460814 1 1 1
vn 0.4465141892 0.1031864062 0.8888068795
v -0.1088215709 0.235449478 0.02733460814 1 1 1
vn -0.1237961128 0.1144337803 0.9856873155
v 0.1088215634 -0.2354494929 0.02733460814 1 1 1
vn 0.1237961128 -0.1144337803 0.9856873155
v -0.1088215709 -0.2354494929 0.02733460814 1 1 1
vn -0.4465141892 -0.1031864062 0.8888068795
# mm_gid 4
g mmGroup4
f 1//1 2//2 3//3 
f 3//3 5//5 1//1 
f 1//1 5//5 7//7 
f 1//1 7//7 2//2 
f 2//2 7//7 8//8 
f 2//2 8//8 4//4 
f 3//3 2//2 4//4 
f 4//4 6//6 3//3 
f 3//3 6//6 5//5 
f 5//5 6//6 7//7 
f 7//7 6//6 8//8 
f 4//4 8//8 6//6 
