v 0.9591174126 0.9442763329 -0.05044460297 1 1 1
vn 0.02625082247 0.05332677811 -0.998232007
v 0.9591174126 0.9442763329 0.05044460297 1 1 1
vn 0.1023269892 0.207870394 0.9727893472
v 0.9591174126 4.768371582e-07 -0.05044460297 1 1 1
vn 0.1023269892 -0.207870394 -0.9727893472
v 0.9591174126 4.768371582e-07 0.05044460297 1 1 1
vn 0.02625082247 -0.05332677811 0.998232007
v -0.9591174126 4.768371582e-07 -0.05044460297 1 1 1
vn -0.02625082247 -0.05332677811 -0.998232007
v -0.9591174126 4.768371582e-07 0.05044460297 1 1 1
vn -0.1023269892 -0.207870394 0.9727893472
v -0.9591174126 0.9442763329 -0.05044460297 1 1 1
vn -0.1023269892 0.207870394 -0.9727893472
v -0.9591174126 0.9442763329 0.05044460297 1 1 1
vn -0.02625082247 0.05332677811 0.998232007
# mm_gid 0
g mmGroup0
f 1//1 2//2 3//3 
f 3//3 2//2 4//4 
f 5//5 6//6 7//7 
f 7//7 6//6 8//8 
f 4//4 6//6 3//3 
f 3//3 6//6 5//5 
f 2//2 8//8 4//4 
f 4//4 8//8 6//6 
f 1//1 7//7 2//2 
f 2//2 7//7 8//8 
f 3//3 5//5 1//1 
f 1//1 5//5 7//7 
