v 0.3214612007 0.4868882 0.3387486041 1 1 1
vn 0.5126840472 -0.6672919989 0.5402559042
v 0.0191845689 -0.5157783031 0.0842173472 1 1 1
vn 0.126380071 0.008967513219 0.9919413328
v -0.2440062612 0.5909952521 0.3981814981 1 1 1
vn -0.1926209033 0.9166707397 0.3501599133
v -0.01222385187 0.5909952521 0.46683833 1 1 1
vn -0.01011117827 0.9223921895 0.3861222565
v -0.1199686378 0.7623252273 -0.08030953258 1 1 1
vn -0.2120589316 -0.9682358503 -0.1324777156
v -0.0560878925 0.7623252273 -0.135407418 1 1 1
vn -0.07952836156 -0.9705132842 -0.2275503874
v -0.3983419836 0.79820925 -0.3225714266 1 1 1
vn -0.03805154935 0.9987080097 -0.03368020803
v 0.4785260856 0.79820925 -0.1836897731 1 1 1
vn 0.04149552435 0.9990423918 -0.01387365256
v -0.009596644901 0.4868882 0.3664899468 1 1 1
vn -0.0660206303 -0.4796186388 0.8749898672
v -0.1915561259 0.4868882 0.3125910759 1 1 1
vn -0.4800853133 -0.4679407775 0.7419902086
v -0.3677538931 0.4868882 0.03865205497 1 1 1
vn -0.9637171626 -0.2621842623 0.05008642003
v -0.3221879303 0.4868882 0.1749336421 1 1 1
vn -0.7657043934 -0.4459897876 0.4634542763
v -0.3515183628 0.4868882 -0.1041249335 1 1 1
vn -0.8267143369 -0.4462444782 -0.3426503539
v 0.1836893708 0.79820925 0.4785256088 1 1 1
vn 0.05472651124 0.9849940538 0.1636819243
v -0.3225719035 0.79820925 0.3983419836 1 1 1
vn -0.07410875708 0.9937291741 0.08372673392
v -0.3225719035 0.7623252273 0.3983419836 1 1 1
vn -0.0865894258 -0.989341259 0.1170733497
v -0.4146780968 0.7623252273 0.3012813926 1 1 1
vn -0.08144431561 -0.9945682883 0.06481293589
v 0.07777767628 -0.79820925 -0.0532730855 1 1 1
vn 0.7532877326 -0.3706347346 -0.5433115959
v 0.01338748541 -0.79820925 0.08355693519 1 1 1
vn -0.04507126659 -0.4652737379 0.8840186
v 0.08736864477 -0.5157783031 -0.03878934309 1 1 1
vn 0.919362843 0.004163774196 -0.3933885694
v -0.06328385323 0.1507644057 0.05173211545 1 1 1
vn -0.775937736 -0.4181146324 0.4723354876
v 0.2659347951 0.267913878 -0.2523627281 1 1 1
vn 0.7368985415 -0.3037632704 -0.6039109826
v 0.1816830933 0.1507644057 -0.1724113226 1 1 1
vn 0.3177899122 -0.8841218352 -0.3425465822
v -0.3564859033 0.267913878 0.08558431268 1 1 1
vn -0.9240672588 -0.2981173396 0.2392189801
v -0.1504032165 0.267913878 0.3378099799 1 1 1
vn -0.3587215245 -0.243721053 0.9010654092
v -0.265933454 0.267913878 0.2523614764 1 1 1
vn -0.7237935066 -0.3508006036 0.5941900611
v -0.1422181278 0.1507644057 0.2015997022 1 1 1
vn -0.2218545973 -0.8975512385 0.3810279071
v -0.02640237287 -0.5157783031 0.07902371883 1 1 1
vn -0.3765847683 -0.009373274632 0.9263347387
v 0.222832486 0.5909952521 0.4104062617 1 1 1
vn 0.1843052208 0.9223918915 0.3394477665
v 0.01913034543 0.7623252273 -0.1453101784 1 1 1
vn 0.07069121301 -0.9683529735 -0.2393642366
v -0.4682568312 0.79820925 -0.2084820867 1 1 1
vn -0.03516073897 0.9992277026 -0.01754034683
v -0.2873722017 0.4868882 -0.2327111512 1 1 1
vn -0.596244514 -0.641380012 -0.4828293324
v -0.2084816545 0.79820925 0.4682563841 1 1 1
vn -0.1366204619 0.9520149231 0.2738657892
v -0.2084816545 0.7623252273 0.4682563841 1 1 1
vn -0.04153404012 -0.993550539 0.1055092216
v 0.06126186624 -0.79820925 0.06592222303 1 1 1
vn 0.6611936092 -0.2132941782 0.7192556262
v 0.05880694464 -0.5157783031 -0.07469742 1 1 1
vn 0.6310738921 -0.003577185329 -0.775714457
v -0.2431166023 0.1507644057 0.04198864847 1 1 1
vn -0.4551083446 -0.8843814731 0.1036618873
v -0.3515183628 0.267913878 -0.1041249335 1 1 1
vn -0.9074307084 -0.3550676107 -0.2247141749
v 0.1504032612 0.267913878 -0.3378117085 1 1 1
vn 0.3683402538 -0.297068119 -0.8809517622
v 0.2435484082 0.1507644057 -0.05847064778 1 1 1
vn 0.4173873067 -0.8959959149 -0.1515886933
v -0.02060528845 0.1507644057 0.07968423516 1 1 1
vn -0.1992496252 -0.3309113979 0.9223867059
v -0.08112157881 0.1507644057 -0.007709430531 1 1 1
vn -0.9153726101 -0.4021239579 -0.01973132603
v -0.1162766367 0.5909956694 -0.08922314644 1 1 1
vn -0.1192905083 0.9886309505 -0.09153448045
v -0.4785259962 0.7623252273 0.1836885065 1 1 1
vn -0.1320240945 -0.9895808101 0.05744063109
v 0.301282227 0.79820925 0.4146780968 1 1 1
vn 0.04423046485 0.9967817068 0.0668572858
v -0.4146780968 0.79820925 0.3012813926 1 1 1
vn -0.05168172345 0.9980781674 0.03419073671
v 0.468256861 0.79820925 0.2084808052 1 1 1
vn 0.03516090289 0.9992277026 0.01754042879
v 0.414678961 0.79820925 -0.3012826741 1 1 1
vn 0.05168152973 0.9980781674 -0.03419044241
v -0.1416177452 0.7623252273 0.02804341167 1 1 1
vn -0.2021365315 -0.978890717 0.03022978641
v -0.3810701072 0.5909952521 0.2768629789 1 1 1
vn -0.34726879 0.9102981687 0.2253034264
v 0.4477674365 0.4868882 0.1326344162 1 1 1
vn 0.7141276002 -0.6672896147 0.2115333974
v -0.3214598596 0.4868882 -0.3387492299 1 1 1
vn -0.5882912278 -0.5896341205 -0.5533940792
v 0.410407573 0.5909952521 -0.2228328884 1 1 1
vn 0.3145071864 0.9355168343 -0.1609143466
v 0.2440066934 0.5909952521 -0.3981823623 1 1 1
vn 0.2015781552 0.9338849187 -0.2953391969
v 0.1162766814 0.5909956694 0.08922208101 1 1 1
vn 0.2602460384 0.9529547095 0.155400604
v 0.0560879074 0.5909956694 0.1354070157 1 1 1
vn 0.1366180182 0.955545485 0.261282146
v -0.1836893708 0.7623252273 -0.478526473 1 1 1
vn -0.05809316784 -0.9893413186 -0.1335250139
v -0.05357787386 0.7623252273 -0.5097625852 1 1 1
vn -0.01678491384 -0.993550539 -0.1121409982
v 0.301282227 0.7623252273 0.4146780968 1 1 1
vn 0.07060681283 -0.993550539 0.08872400224
v 0.468256861 0.7623252273 0.2084808052 1 1 1
vn 0.1024866104 -0.9939159155 0.04034430161
v 0.3983420134 0.7623252273 0.3225710392 1 1 1
vn 0.1170735061 -0.989341259 0.08658934385
v -0.4477669597 0.4868882 -0.1326359063 1 1 1
vn -0.7680767179 -0.6213612556 -0.1548171192
v 0.01222387049 0.5909952521 -0.4668387175 1 1 1
vn 0.03573616222 0.9021213055 -0.4300001264
v -0.1090185866 0.4868882 -0.4540953338 1 1 1
vn -0.2092152983 -0.6607916355 -0.720821321
v -0.4540949166 0.4868882 0.1090181842 1 1 1
vn -0.6472461224 -0.738363862 0.1894498616
v 0.4668383002 0.5909952521 0.01222387329 1 1 1
vn 0.3861230314 0.9223918915 0.01011176594
v 0.1453106403 0.5909956694 0.01913012937 1 1 1
vn 0.1984367818 0.9797654152 0.0261258278
v -0.3012813628 0.7623252273 -0.4146793485 1 1 1
vn -0.06858441979 -0.9939158559 -0.08618243039
v -0.05357787386 0.79820925 -0.5097625852 1 1 1
vn -0.03754787147 0.7867510915 -0.6161273718
v 0.08018405735 0.79820925 -0.5062608123 1 1 1
vn 0.1898574531 0.3083771765 -0.93212533
v 0.5062603951 0.7623252273 0.08018317819 1 1 1
vn 0.1436309367 -0.9894965291 0.01633165404
v 0.08018405735 0.7623252273 -0.5062608123 1 1 1
vn 0.01645123586 -0.9893413186 -0.1446829438
v -0.01913032681 0.5909956694 0.1453095526 1 1 1
vn -0.01232691109 0.9555453062 0.2945865095
v 0.0736842528 0.4868882 -0.4652295113 1 1 1
vn 0.1130760238 -0.6910127997 -0.7139433622
v -0.3387488127 0.4868882 0.321460098 1 1 1
vn -0.4958548844 -0.7140747309 0.494191438
v 0.05212960392 -0.5157783031 0.07318662107 1 1 1
vn 0.4853337407 0.0008818130009 0.8743285537
v 0.1354078948 0.5909956694 -0.05608832836 1 1 1
vn 0.3130650818 0.9422034621 -0.1193437576
v -0.3983419836 0.7623252273 -0.3225714266 1 1 1
vn -0.1162214354 -0.9894965887 -0.08595967293
v 0.0932886228 0.1507644057 0.0008178419084 1 1 1
vn 0.9617040157 -0.2721073031 0.03290949762
v 0.2084816545 0.79820925 -0.4682572782 1 1 1
vn 0.1366212815 0.952014327 -0.2738673985
v 0.5097621679 0.7623252273 -0.05357831344 1 1 1
vn 0.1423929632 -0.9895806909 -0.02131295949
v 0.2084816545 0.7623252273 -0.4682572782 1 1 1
vn 0.03812610358 -0.9945682883 -0.09685194492
v -0.0892227143 0.5909956694 0.116276674 1 1 1
vn -0.1790465713 0.942506969 0.2821753919
v -0.2228316069 0.5909952521 -0.4104062319 1 1 1
vn -0.1733527333 0.9173480272 -0.3583593071
v 0.07733558118 -0.5157783031 0.04927741736 1 1 1
vn 0.8605778813 0.003764326451 0.5093049407
v 0.08922272921 0.5909956694 -0.1162770763 1 1 1
vn 0.1831506789 0.9452003837 -0.2702814639
v -0.4682568312 0.7623252273 -0.2084820867 1 1 1
vn -0.1339716762 -0.9895808697 -0.05273801833
v 0.05701014027 0.1507644057 -0.07226917893 1 1 1
vn 0.595190227 -0.3985195756 -0.6978042126
v -0.01236859243 0.1507644057 -0.08878279477 1 1 1
vn -0.1570388228 -0.3227958977 -0.933349669
v -0.1836893708 0.79820925 -0.478526473 1 1 1
vn -0.05472580343 0.9849939942 -0.1636822671
v 0.4785260856 0.7623252273 -0.1836897731 1 1 1
vn 0.09277725965 -0.9948683977 -0.0403647162
v 0.414678961 0.7623252273 -0.3012826741 1 1 1
vn 0.1131106317 -0.9894966483 -0.09001298994
v -0.1354069859 0.5909956694 0.05608725175 1 1 1
vn -0.3312025666 0.9297817349 0.1606573462
v -0.3660572171 0.5909952521 -0.2964287996 1 1 1
vn -0.2428366989 0.9499265552 -0.1966464818
v 0.2440066934 0.4868882 -0.3981823623 1 1 1
vn 0.32551229 -0.6540341973 -0.6828477383
v -0.1326346099 0.4868882 0.4477671981 1 1 1
vn -0.2115336508 -0.6672927141 0.71412462
v 0.04198854044 0.1507644057 0.2431162894 1 1 1
vn 0.09013438225 -0.8976535201 0.4313860238
v 0.1724109203 0.1507644057 0.1816831082 1 1 1
vn 0.3616900444 -0.8748614192 0.3221766055
v -0.07638665289 -0.5157783031 -0.03593124449 1 1 1
vn -0.9257195592 -0.00345350313 -0.378194958
v -0.04909483343 -0.5157783031 -0.0728136003 1 1 1
vn -0.5914568305 0.0006560593029 -0.8063364029
v -0.04374378175 -0.79820925 -0.07514038682 1 1 1
vn -0.580072701 -0.2049294859 -0.7883651257
v -0.06092077121 -0.79820925 0.04985179007 1 1 1
vn -0.6993591785 -0.3821634948 0.6040263176
v 0.1162766814 0.7623252273 0.08922208101 1 1 1
vn 0.1826488227 -0.9705132842 0.1573002636
v 0.1836893708 0.7623252273 0.4785256088 1 1 1
vn 0.05809358507 -0.989341259 0.1335251629
v 0.5062603951 0.79820925 0.08018317819 1 1 1
vn 0.03470535576 0.9993726015 0.007068873849
v -0.5097621679 0.79820925 0.05357789248 1 1 1
vn -0.03658305481 0.9993281364 0.002229271922
v 0.1915569901 0.4868882 -0.3125926256 1 1 1
vn 0.4894250631 -0.4339161813 -0.7564257383
v 0.3221888542 0.4868882 -0.1749344617 1 1 1
vn 0.7940044403 -0.4286064208 -0.4311073124
v 0.3810710013 0.4868882 -0.2768646777 1 1 1
vn 0.5869579315 -0.6551023126 -0.4757324159
v -0.4477669597 0.5909952521 -0.1326359063 1 1 1
vn -0.3822206855 0.9143090248 -0.1339637935
v -0.1453097314 0.5909956694 -0.01913076453 1 1 1
vn -0.3302191496 0.9424102902 -0.05308661237
v 0.3225727975 0.7623252273 -0.3983424008 1 1 1
vn 0.08561572433 -0.9895808101 -0.1157574728
v -0.01913032681 0.7623252273 0.1453095526 1 1 1
vn -0.0522316657 -0.970929265 0.2335984707
v 0.3225727975 0.79820925 -0.3983424008 1 1 1
vn 0.07410875708 0.9937291741 -0.08372735977
v 0.05938153714 0.1507644057 0.06355870515 1 1 1
vn 0.4965615869 -0.43580091 0.7506691217
v -0.506259501 0.7623252273 -0.08018446714 1 1 1
vn -0.1005301401 -0.9948683381 -0.01143104304
v 0.01913034543 0.5909956694 -0.1453101784 1 1 1
vn 0.01232658885 0.9555454254 -0.2945861816
v 0.09415093809 -0.5157783031 0.006588144694 1 1 1
vn 0.9935729504 -1.640496379e-07 0.113193512
v 0.1090186164 0.4868882 0.4540953934 1 1 1
vn 0.1738688201 -0.6672933102 0.724216342
v 0.3515192568 0.267913878 0.1041243076 1 1 1
vn 0.904001534 -0.3146338761 0.2894594371
v 0.07113663852 0.1507644057 -0.2401546091 1 1 1
vn 0.07659040391 -0.9103782177 -0.4066268206
v -0.1034808159 0.1507644057 -0.2239654511 1 1 1
vn -0.1638365537 -0.8893786669 -0.426805824
v -0.009596644901 0.267913878 0.3664899468 1 1 1
vn 0.01400473062 -0.3481617272 0.9373298883
v 0.02771162242 -0.5157783031 -0.09019304067 1 1 1
vn 0.2375170439 0.007092263084 -0.9713574648
v 0.09201261401 -0.79820925 0.01201681606 1 1 1
vn 0.9899691343 -0.0622952804 0.12680839
v -0.080184035 0.7623252273 0.5062599182 1 1 1
vn -0.01645188592 -0.989341259 0.1446829587
v 0.05357789248 0.79820925 0.5097625852 1 1 1
vn 0.03754620254 0.7867549658 0.6161224842
v 0.3664910793 0.4868882 0.009596443735 1 1 1
vn 0.8942015767 -0.4470517337 0.02341497876
v -0.1749340445 0.4868882 -0.3221883774 1 1 1
vn -0.357724458 -0.3795323074 -0.8532223701
v 0.5097621679 0.79820925 -0.05357831344 1 1 1
vn 0.03658300638 0.9993281364 -0.002229436999
v 0.1086228788 0.7623252273 -0.09509631246 1 1 1
vn 0.1599394232 -0.978890717 -0.127249077
v 0.3981819749 0.5909952521 0.2440058291 1 1 1
vn 0.329336524 0.9223921895 0.2018169016
v -0.06328385323 -0.5157783031 0.05173189566 1 1 1
vn -0.722551167 -0.001144860755 0.691316545
v -0.08157984912 -0.5157783031 0.009655260481 1 1 1
vn -0.9789240956 -0.003143106122 0.2042001486
v -0.07984557748 -0.79820925 -0.01890861988 1 1 1
vn -0.9871778488 -0.09337917715 -0.1294613481
v 0.1440517008 0.7623252273 0.009564959444 1 1 1
vn 0.2498883456 -0.9682355523 0.008700914681
v -0.506259501 0.79820925 -0.08018446714 1 1 1
vn -0.03470544145 0.9993726015 -0.00706880074
v 0.009596662596 0.4868882 -0.3664914668 1 1 1
vn 0.06217865273 -0.5630126595 -0.8241059184
v 0.1749340445 0.4868882 0.3221881688 1 1 1
vn 0.3935484886 -0.3857030869 0.8344775438
v 0.3125921786 0.4868882 0.1915561408 1 1 1
vn 0.7626928687 -0.4470519722 0.467380017
v -0.080184035 0.79820925 0.5062599182 1 1 1
vn -0.1898599267 0.308370173 0.9321271777
v 0.05357789248 0.7623252273 0.5097625852 1 1 1
vn 0.01678515412 -0.993550539 0.1121409088
v 0.0215463452 -0.79820925 -0.08937488496 1 1 1
vn 0.171868518 -0.5127609372 -0.8411524296
v -0.007017536554 -0.5157783031 -0.09110958874 1 1 1
vn -0.2191460431 -0.00500193378 -0.9756792188
v 0.1325165629 0.267913878 0.3452188671 1 1 1
vn 0.3370366693 -0.3398555815 0.8780116439
v 0.2523623109 0.267913878 0.265933454 1 1 1
vn 0.6626062989 -0.3244297504 0.6750541925
v -0.2135594189 0.1507644057 -0.1308692694 1 1 1
vn -0.3814825714 -0.8995112777 -0.2129566669
v -0.2523618937 0.267913878 -0.2659342885 1 1 1
vn -0.7121978998 -0.2924154997 -0.6381750107
v -0.1325165182 0.267913878 -0.3452193141 1 1 1
vn -0.3383565247 -0.3295051754 -0.8814426661
v 0.009596662596 0.267913878 -0.3664914668 1 1 1
vn -0.05503985658 -0.3297085166 -0.9424769878
v 0.3564868569 0.267913878 -0.08558493108 1 1 1
vn 0.9276180267 -0.3146333396 -0.2013222277
v 0.2401550561 0.1507644057 0.07113663852 1 1 1
vn 0.4422012568 -0.8934924603 0.07828952372
v -0.06516854465 0.1507644057 -0.05616878718 1 1 1
vn -0.7211191058 -0.3677252233 -0.5871673226
v -0.0560878925 0.5909956694 -0.135407418 1 1 1
vn -0.1476804465 0.9529548287 -0.2647027969
v -0.5097621679 0.7623252273 0.05357789248 1 1 1
vn -0.1429637671 -0.9894965887 0.02139816433
v 0.3983420134 0.79820925 0.3225710392 1 1 1
vn 0.03805144876 0.9987080097 0.03368000686
v -0.4785259962 0.79820925 0.1836885065 1 1 1
vn -0.04149536043 0.9990423918 0.01387376711
v -0.3012813628 0.79820925 -0.4146793485 1 1 1
vn -0.04423049092 0.9967817068 -0.06685712934
v -0.0892227143 0.7623252273 0.116276674 1 1 1
vn -0.1809030473 -0.9683531523 0.1719485074
v 0.0560879074 0.7623252273 0.1354070157 1 1 1
vn 0.0715643093 -0.9709295034 0.2284171432
v -0.4540949166 0.5909952521 0.1090181842 1 1 1
vn -0.3990077376 0.916201055 0.03699238598
v 0.4540958405 0.4868882 -0.1090190336 1 1 1
vn 0.7372375727 -0.6607928276 -0.140831843
# mm_gid 29
g mmGroup29
f 125//125 20//20 118//118 
f 23//23 39//39 22//22 
f 107//107 22//22 39//39 
f 138//138 39//39 150//150 
f 107//107 39//39 138//138 
f 95//95 107//107 138//138 
f 63//63 95//95 74//74 
f 95//95 138//138 74//74 
f 74//74 138//138 64//64 
f 129//129 150//150 149//149 
f 138//138 150//150 129//129 
f 64//64 138//138 129//129 
f 64//64 129//129 52//52 
f 129//129 149//149 148//148 
f 129//129 148//148 32//32 
f 52//52 129//129 32//32 
f 52//52 32//32 62//62 
f 159//159 93//93 83//83 
f 50//50 83//83 93//93 
f 135//135 134//134 99//99 
f 37//37 26//26 24//24 
f 12//12 24//24 26//26 
f 50//50 65//65 75//75 
f 65//65 12//12 75//75 
f 11//11 24//24 12//12 
f 11//11 38//38 24//24 
f 37//37 24//24 38//38 
f 42//42 99//99 134//134 
f 102//102 134//134 135//135 
f 102//102 133//133 134//134 
f 21//21 134//134 133//133 
f 42//42 134//134 21//21 
f 21//21 37//37 42//42 
f 21//21 27//27 37//37 
f 27//27 26//26 37//37 
f 12//12 26//26 10//10 
f 75//75 12//12 10//10 
f 50//50 75//75 3//3 
f 3//3 83//83 50//50 
f 16//16 159//159 34//34 
f 33//33 16//16 34//34 
f 33//33 34//34 141//141 
f 127//127 33//33 141//141 
f 141//141 126//126 127//127 
f 141//141 34//34 126//126 
f 34//34 113//113 126//126 
f 34//34 159//159 113//113 
f 159//159 83//83 113//113 
f 113//113 83//83 73//73 
f 126//126 113//113 142//142 
f 127//127 126//126 142//142 
f 127//127 142//142 14//14 
f 14//14 33//33 127//127 
f 14//14 15//15 33//33 
f 15//15 16//16 33//33 
f 15//15 17//17 16//16 
f 17//17 159//159 16//16 
f 17//17 49//49 159//159 
f 49//49 93//93 159//159 
f 50//50 93//93 161//161 
f 161//161 65//65 50//50 
f 65//65 11//11 12//12 
f 65//65 13//13 11//11 
f 13//13 38//38 11//11 
f 37//37 38//38 147//147 
f 42//42 37//37 147//147 
f 101//101 99//99 100//100 
f 135//135 99//99 101//101 
f 101//101 102//102 135//135 
f 27//27 25//25 26//26 
f 10//10 26//26 25//25 
f 75//75 10//10 96//96 
f 3//3 75//75 96//96 
f 3//3 73//73 83//83 
f 4//4 73//73 3//3 
f 3//3 96//96 4//4 
f 4//4 56//56 73//73 
f 160//160 73//73 56//56 
f 113//113 73//73 160//160 
f 142//142 113//113 160//160 
f 142//142 160//160 104//104 
f 14//14 142//142 104//104 
f 14//14 104//104 45//45 
f 45//45 15//15 14//14 
f 45//45 46//46 15//15 
f 46//46 17//17 15//15 
f 46//46 44//44 17//17 
f 44//44 49//49 17//17 
f 49//49 111//111 93//93 
f 161//161 93//93 111//111 
f 161//161 62//62 65//65 
f 62//62 13//13 65//65 
f 13//13 148//148 38//38 
f 147//147 38//38 148//148 
f 42//42 147//147 153//153 
f 153//153 99//99 42//42 
f 153//153 100//100 99//99 
f 102//102 28//28 133//133 
f 41//41 133//133 28//28 
f 21//21 133//133 41//41 
f 41//41 27//27 21//21 
f 27//27 123//123 25//25 
f 9//9 25//25 123//123 
f 10//10 25//25 9//9 
f 96//96 10//10 9//9 
f 9//9 119//119 96//96 
f 4//4 96//96 119//119 
f 4//4 119//119 29//29 
f 29//29 56//56 4//4 
f 104//104 160//160 59//59 
f 45//45 104//104 59//59 
f 45//45 59//59 156//156 
f 156//156 46//46 45//45 
f 156//156 157//157 46//46 
f 157//157 44//44 46//46 
f 157//157 155//155 44//44 
f 155//155 49//49 44//44 
f 161//161 111//111 110//110 
f 110//110 62//62 161//161 
f 62//62 32//32 13//13 
f 32//32 148//148 13//13 
f 147//147 148//148 122//122 
f 153//153 147//147 122//122 
f 101//101 100//100 144//144 
f 41//41 97//97 27//27 
f 97//97 123//123 27//27 
f 29//29 55//55 56//56 
f 103//103 56//56 55//55 
f 160//160 56//56 103//103 
f 59//59 160//160 103//103 
f 59//59 103//103 61//61 
f 156//156 59//59 61//61 
f 156//156 61//61 47//47 
f 47//47 157//157 156//156 
f 157//157 47//47 106//106 
f 106//106 155//155 157//157 
f 106//106 116//116 155//155 
f 116//116 49//49 155//155 
f 116//116 5//5 49//49 
f 5//5 111//111 49//49 
f 5//5 43//43 111//111 
f 110//110 111//111 43//43 
f 110//110 52//52 62//62 
f 94//94 52//52 110//110 
f 110//110 43//43 94//94 
f 84//84 43//43 154//154 
f 94//94 43//43 84//84 
f 84//84 52//52 94//94 
f 84//84 64//64 52//52 
f 63//63 154//154 117//117 
f 84//84 154//154 63//63 
f 63//63 64//64 84//84 
f 63//63 74//74 64//64 
f 30//30 86//86 117//117 
f 54//54 117//117 86//86 
f 63//63 117//117 54//54 
f 54//54 95//95 63//63 
f 88//88 20//20 36//36 
f 88//88 121//121 23//23 
f 121//121 39//39 23//23 
f 121//121 150//150 39//39 
f 89//89 122//122 121//121 
f 122//122 150//150 121//121 
f 122//122 149//149 150//150 
f 122//122 148//148 149//149 
f 153//153 122//122 89//89 
f 89//89 100//100 153//153 
f 89//89 144//144 100//100 
f 101//101 144//144 143//143 
f 143//143 102//102 101//101 
f 143//143 19//19 102//102 
f 19//19 28//28 102//102 
f 19//19 2//2 28//28 
f 41//41 28//28 2//2 
f 97//97 145//145 123//123 
f 139//139 123//123 145//145 
f 9//9 123//123 139//139 
f 139//139 119//119 9//9 
f 139//139 1//1 119//119 
f 29//29 119//119 1//1 
f 29//29 1//1 132//132 
f 132//132 55//55 29//29 
f 61//61 103//103 60//60 
f 47//47 61//61 60//60 
f 47//47 60//60 105//105 
f 106//106 47//47 105//105 
f 106//106 105//105 137//137 
f 137//137 116//116 106//106 
f 137//137 87//87 116//116 
f 87//87 5//5 116//116 
f 5//5 154//154 43//43 
f 6//6 154//154 5//5 
f 6//6 117//117 154//154 
f 30//30 117//117 6//6 
f 70//70 82//82 72//72 
f 82//82 30//30 72//72 
f 82//82 131//131 30//30 
f 131//131 86//86 30//30 
f 54//54 109//109 95//95 
f 109//109 107//107 95//95 
f 109//109 108//108 107//107 
f 108//108 22//22 107//107 
f 108//108 151//151 22//22 
f 40//40 22//22 151//151 
f 23//23 22//22 40//40 
f 88//88 23//23 40//40 
f 88//88 40//40 79//79 
f 79//79 20//20 88//88 
f 79//79 118//118 20//20 
f 18//18 20//20 125//125 
f 18//18 36//36 20//20 
f 89//89 121//121 88//88 
f 88//88 124//124 89//89 
f 88//88 36//36 124//124 
f 89//89 124//124 144//144 
f 143//143 144//144 124//124 
f 41//41 2//2 115//115 
f 115//115 97//97 41//41 
f 97//97 146//146 145//145 
f 139//139 145//145 146//146 
f 132//132 67//67 55//55 
f 136//136 55//55 67//67 
f 103//103 55//55 136//136 
f 60//60 103//103 136//136 
f 60//60 136//136 71//71 
f 105//105 60//60 71//71 
f 105//105 71//71 130//130 
f 137//137 105//105 130//130 
f 137//137 130//130 31//31 
f 31//31 87//87 137//137 
f 31//31 78//78 87//87 
f 78//78 5//5 87//87 
f 68//68 5//5 78//78 
f 68//68 6//6 5//5 
f 158//158 57//57 68//68 
f 57//57 6//6 68//68 
f 58//58 6//6 57//57 
f 58//58 30//30 6//6 
f 72//72 30//30 58//58 
f 69//69 72//72 58//58 
f 70//70 72//72 69//69 
f 69//69 80//80 70//70 
f 80//80 82//82 70//70 
f 80//80 112//112 82//82 
f 112//112 131//131 82//82 
f 131//131 77//77 86//86 
f 53//53 86//86 77//77 
f 54//54 86//86 53//53 
f 53//53 109//109 54//54 
f 53//53 162//162 109//109 
f 162//162 108//108 109//109 
f 125//125 118//118 85//85 
f 125//125 85//85 35//35 
f 35//35 18//18 125//125 
f 35//35 85//85 76//76 
f 35//35 76//76 19//19 
f 19//19 18//18 35//35 
f 18//18 19//19 143//143 
f 143//143 36//36 18//18 
f 143//143 124//124 36//36 
f 19//19 76//76 2//2 
f 115//115 2//2 76//76 
f 115//115 98//98 97//97 
f 98//98 146//146 97//97 
f 139//139 146//146 140//140 
f 140//140 1//1 139//139 
f 140//140 51//51 1//1 
f 132//132 1//1 51//51 
f 132//132 51//51 66//66 
f 66//66 67//67 132//132 
f 71//71 136//136 81//81 
f 130//130 71//71 81//81 
f 130//130 81//81 8//8 
f 31//31 130//130 8//8 
f 31//31 8//8 7//7 
f 7//7 78//78 31//31 
f 7//7 68//68 78//78 
f 158//158 68//68 7//7 
f 7//7 48//48 158//158 
f 7//7 8//8 48//48 
f 8//8 91//91 48//48 
f 8//8 81//81 91//91 
f 81//81 136//136 91//91 
f 136//136 67//67 77//77 
f 136//136 77//77 131//131 
f 91//91 136//136 131//131 
f 91//91 131//131 92//92 
f 48//48 91//91 92//92 
f 48//48 92//92 114//114 
f 158//158 48//48 114//114 
f 158//158 114//114 90//90 
f 90//90 57//57 158//158 
f 90//90 58//58 57//57 
f 69//69 58//58 90//90 
f 90//90 80//80 69//69 
f 90//90 114//114 80//80 
f 114//114 112//112 80//80 
f 114//114 92//92 112//112 
f 92//92 131//131 112//112 
f 162//162 128//128 108//108 
f 128//128 151//151 108//108 
f 128//128 120//120 151//151 
f 152//152 151//151 120//120 
f 40//40 151//151 152//152 
f 79//79 40//40 152//152 
f 79//79 85//85 118//118 
f 115//115 76//76 85//85 
f 98//98 120//120 146//146 
f 140//140 146//146 120//120 
f 140//140 120//120 128//128 
f 51//51 140//140 128//128 
f 66//66 77//77 67//67 
f 53//53 77//77 66//66 
f 66//66 162//162 53//53 
f 66//66 51//51 162//162 
f 51//51 128//128 162//162 
f 79//79 152//152 115//115 
f 115//115 85//85 79//79 
f 115//115 152//152 98//98 
f 152//152 120//120 98//98 
