v -0.2479265034 0.09641057253 -0.02137470059 1 1 1
vn -0.999823153 -0.01432208531 -0.01218770351
v -0.2479265034 0.08120916784 -0.02137470059 1 1 1
vn -0.143857494 -0.9895425439 -0.01051519997
v -0.2460260838 0.09641057253 0.03839033097 1 1 1
vn -0.9888103008 -0.005506585352 0.149076879
v -0.2353711873 0.08120916784 -0.07983618975 1 1 1
vn -0.2527892292 -0.9625836611 -0.09762308747
v -0.2117201835 0.10052789 -0.1275325865 1 1 1
vn -0.7994052768 0.3824862838 -0.4633092284
v 0.06357727945 0.1043646187 -0.2366941869 1 1 1
vn 0.2244634032 0.4125256538 -0.8828582764
v 0.2001557648 0.08880987018 -0.1478724331 1 1 1
vn 0.2809059918 -0.9336832762 -0.2220977098
v 0.1763814539 0.1057689413 -0.1715024561 1 1 1
vn 0.6127491593 0.4834394157 -0.6251598001
v 0.214657411 0.1057689413 -0.1207078695 1 1 1
vn 0.6817007065 0.6090711355 -0.4053597152
v 0.1723230034 0.10052789 0.1765020192 1 1 1
vn 0.6878143549 0.1361593902 0.7130021453
v 0.1327631921 0.1123583987 -0.1346279681 1 1 1
vn -0.5275700092 0.6589933634 0.5360948443
v -0.1459840387 -0.1352939755 -0.03039763495 1 1 1
vn -0.7461794615 -0.6207952499 -0.2404776067
v -0.003007639199 0.1164755747 -0.1978278756 1 1 1
vn -0.000329133065 0.9725630283 0.2326392978
v -0.1459840387 0.08120916784 -0.03039763495 1 1 1
vn -0.8332660198 -0.5344813466 -0.141412437
v 0.003569999477 0.1038579643 -0.03539667651 1 1 1
vn -0.006534679327 0.9968573451 -0.07894801348
v 0.02530043013 0.1038579643 -0.02630464546 1 1 1
vn 0.05593565479 0.9974756241 -0.04374428466
v 0.03667289391 0.1038579643 -0.003610112239 1 1 1
vn 0.07588428259 0.9971066117 -0.00446765963
v 0.02926441655 0.1038579643 0.02066947147 1 1 1
vn 0.03069461696 0.9991887808 0.02606931701
v 0.007259809412 0.1038579643 0.03382430971 1 1 1
vn 0.02204079926 0.9965633154 0.07984820008
v -0.1309313625 0.1095211953 -0.1345256269 1 1 1
vn 0.08178754151 0.9910385013 0.1056103036
v -0.1271324605 0.1156132445 0.1463116705 1 1 1
vn 0.1261360198 0.9800226688 -0.153770119
v -0.1917612106 0.1156132445 0.02370029315 1 1 1
vn 0.288598299 0.9562833309 -0.0472567454
v -0.1737839878 0.1156132445 0.08521868289 1 1 1
vn 0.1827533543 0.9779776931 -0.1008008942
v 0.001879674615 0.1081081852 0.1874801964 1 1 1
vn -0.006332583725 0.9945292473 -0.1042665243
v -0.1523452103 0.1156132445 -0.1206523404 1 1 1
vn 0.1568894386 0.978913188 0.1308230013
v -0.04594551399 0.1055602655 0.1786072403 1 1 1
vn 0.01921662875 0.9972945452 -0.07095267624
v -0.09204188734 0.1066839918 -0.161591813 1 1 1
vn 0.06282559782 0.9961446524 0.06122734398
v -0.1767435521 0.1055602655 0.04775696993 1 1 1
vn 0.07611415535 0.9969136119 0.01923292316
v -0.1770714968 0.1055602655 -0.0479773581 1 1 1
vn 0.1197270229 0.9928013086 0.003325066529
v -0.0917397216 0.1081081852 0.1621245742 1 1 1
vn 0.06503521651 0.9905845523 -0.120468758
v -0.158197403 0.1055602655 0.09233051538 1 1 1
vn 0.1020145267 0.9936393499 -0.0476857163
v -0.1864293963 0.1095211953 -0.001251178561 1 1 1
vn 0.1106959879 0.9938445091 0.004412687384
v 0.04844678938 0.08120916784 -0.1401158869 1 1 1
vn 0.2366174459 -0.4844838083 -0.842192173
v 0.01334681362 -0.1352939755 -0.1470669657 1 1 1
vn 0.09484470636 -0.5840786695 -0.8061367869
v 0.1230318472 0.1129003093 -0.2051760107 1 1 1
vn 0.2249381244 0.8901765347 -0.3962178528
v 0.004677641671 0.1129003093 -0.2379986048 1 1 1
vn 0.02155929618 0.8109466434 -0.5847228169
v 0.2280431539 0.1162906066 -0.0590371713 1 1 1
vn 0.4814826846 0.8702639341 -0.1039956361
v 0.1686896235 0.1162906066 -0.1639444083 1 1 1
vn 0.3652307689 0.873288393 -0.3224497437
v 0.2364132404 0.1043646187 0.0681090802 1 1 1
vn 0.8685097098 0.4396324754 0.2289415002
v 0.02187736705 0.08120916784 -0.2444756776 1 1 1
vn 0.04246839136 -0.9735040665 -0.22469154
v 0.1336395144 0.08120916784 -0.2071603984 1 1 1
vn 0.09365904331 -0.9892420769 -0.11237479
v 0.01223436091 0.1352939755 -0.03404634073 1 1 1
vn 0.2535384297 0.4693122804 -0.8458511829
v 0.03178448975 0.1352939755 0.01708165929 1 1 1
vn 0.5314780474 0.7914226651 0.3019622564
v -0.1262108833 -0.1352939755 -0.08034343272 1 1 1
vn -0.5362904072 -0.767241478 -0.3517571092
v -0.1145607382 0.08120916784 -0.09409778565 1 1 1
vn -0.7559182048 -0.3882091939 -0.5271444917
v -0.08827729523 -0.1352939755 -0.1183775738 1 1 1
vn -0.3631854057 -0.8004363775 -0.4768626392
v 0.01150846947 0.1352939755 0.03262483701 1 1 1
vn 0.16590783 0.9166472554 0.3636377156
v -0.07364400476 0.08120916784 -0.1289030164 1 1 1
vn -0.4533443451 -0.2773960233 -0.8470716476
v 0.04016024619 -0.1352939755 0.142243728 1 1 1
vn 0.1842607111 -0.8112790585 0.5548642278
v 0.08828519285 0.08120916784 0.1183767319 1 1 1
vn 0.5956230164 -0.2286231965 0.7700419426
v 0.02239860781 0.08120916784 0.1453147978 1 1 1
vn 0.1141527444 -0.564448595 0.8175371289
v 0.08828519285 -0.1352939755 0.1183767319 1 1 1
vn 0.2981208563 -0.8844093084 0.3590879738
v 0.1341922283 -0.1352939755 0.06417679787 1 1 1
vn 0.6233742833 -0.6862862706 0.3747207224
v 0.1341922283 0.08120916784 0.06417679787 1 1 1
vn 0.7819447517 -0.5418934226 0.3080810606
v 0.1492636949 -0.1352939755 -0.005234953016 1 1 1
vn 0.9085204005 -0.4151249826 0.04755952582
v 0.1492636949 0.08120916784 -0.005234953016 1 1 1
vn 0.8560266495 -0.5076168776 -0.0976908505
v 0.1299663186 -0.1352939755 -0.07359175384 1 1 1
vn 0.9049094915 -0.05268643051 -0.4223303795
v 0.1299663186 0.08120916784 -0.07359175384 1 1 1
vn 0.662837863 -0.6170746684 -0.4241047204
v -0.2375925779 0.0992192179 -0.07133186609 1 1 1
vn -0.9248741865 0.2735014856 -0.2642058432
v -0.05086190626 0.1072773561 -0.1801788211 1 1 1
vn 0.02463932522 0.9949376583 0.09742643684
v -0.07555318624 0.1168574318 -0.1828344762 1 1 1
vn 0.1098633334 0.9710399508 0.2121590376
v -0.1487030685 -0.1352939755 0.02325109206 1 1 1
vn -0.9317286611 -0.3499790728 0.09693481773
v 0.04579335079 0.1081081852 -0.1811565906 1 1 1
vn -0.01432777755 0.994079113 0.1077098176
v 0.1080216095 0.1038579643 -0.1456160396 1 1 1
vn -0.02682445385 0.9977095127 0.06209856272
v -0.002844969276 0.1066839918 -0.185929358 1 1 1
vn -0.007782892324 0.9969419241 0.07775731385
v 0.1788790077 0.1081081852 -0.04917114601 1 1 1
vn -0.131634295 0.9904707074 0.04049880803
v 0.1831908375 0.1055602655 -0.0007256715326 1 1 1
vn -0.1187965125 0.9927565455 0.01793981157
v 0.1772936136 0.1055602655 0.04719134048 1 1 1
vn -0.05161561072 0.9976227283 -0.04565898329
v 0.1834178269 0.1156132445 0.06316345185 1 1 1
vn -0.1706510633 0.9832994342 -0.06324908137
v 0.1318243295 0.1095211953 0.1336474866 1 1 1
vn -0.08195900172 0.9957427382 -0.04217991978
v -0.02239160053 0.08120916784 -0.1453152001 1 1 1
vn -0.07230030745 -0.6066604257 -0.7916664481
v 0.09311718494 0.1123583987 -0.1650498658 1 1 1
vn -0.4229406416 0.6404403448 0.6410595775
v 0.1578003615 0.1055602655 -0.09303868562 1 1 1
vn -0.0767043978 0.9968533516 0.0199955944
v 0.161590308 0.1095211953 0.09442609549 1 1 1
vn -0.09662058204 0.990098834 -0.1018272713
v -0.0401532352 -0.1352939755 -0.1422436982 1 1 1
vn -0.168584004 -0.8031460047 -0.5714332461
v -0.01333980449 -0.1352939755 0.1470663399 1 1 1
vn -0.1022179797 -0.4845483899 0.8687717319
v -0.04843978211 0.08120916784 0.1401152611 1 1 1
vn -0.2635697722 -0.5369291306 0.8013976216
v -0.08081372082 -0.1352939755 0.1248750016 1 1 1
vn -0.5264829397 -0.1566653401 0.8356265426
v -0.1085358262 0.08120916784 0.1022520661 1 1 1
vn -0.601328373 -0.5576736927 0.5721924901
v -0.1299575418 -0.1352939755 0.07359176129 1 1 1
vn -0.8447925448 -0.03802752495 0.5337410569
v -0.143805474 0.08120916784 0.04059839994 1 1 1
vn -0.8439131975 -0.4697338343 0.2591537237
v 0.09607148916 0.08120916784 -0.1152667403 1 1 1
vn 0.5768404007 -0.4093817174 -0.7068675756
v 0.08082073927 -0.1352939755 -0.1248756349 1 1 1
vn 0.5679124594 -0.1773365438 -0.8037581444
v 0.007935850881 0.08120916784 0.2468317598 1 1 1
vn 0.001375644584 -0.9797202349 0.2003655136
v -0.05167306587 0.08120916784 0.2421191484 1 1 1
vn -0.08849661797 -0.9602447152 0.2647610307
v 0.06692381948 0.08120916784 0.2370427102 1 1 1
vn 0.1182171255 -0.9206897616 0.3719610572
v -0.1588743031 0.09641057253 0.191136986 1 1 1
vn -0.6380829811 -0.0009729151498 0.76996696
v -0.1336324811 0.08120916784 0.2071595192 1 1 1
vn -0.1142133325 -0.9846182466 0.1322202533
v -0.1201671734 0.1043646187 0.2141717225 1 1 1
vn -0.4213888049 0.3513445556 0.8360553384
v -0.2297809273 0.09641057253 0.09593615681 1 1 1
vn -0.9217658639 -0.005695640109 0.3877051473
v -0.2379035056 0.08120916784 0.06716323644 1 1 1
vn -0.1709266305 -0.9824509621 0.07466077805
v -0.2001470178 0.08880987018 0.1478715986 1 1 1
vn -0.2591207325 -0.9462522268 0.1935540885
v 0.03727328405 0.1352939755 -0.001483267988 1 1 1
vn 0.5126285553 0.8574792743 -0.04405903444
v 0.02831638232 0.1352939755 -0.0232698936 1 1 1
vn 0.8294145465 0.1156398803 -0.546533525
v -0.03644899651 0.1156132445 0.1914527565 1 1 1
vn 0.05531752855 0.9728901386 -0.2245546728
v -0.1830218434 0.1156132445 -0.06437226385 1 1 1
vn 0.1573870182 0.98692137 0.03486462682
v -0.1588305831 0.1055602655 -0.09267485887 1 1 1
vn 0.03556692228 0.9977530837 0.05677866563
v -0.1287917346 0.1055602655 0.1306204796 1 1 1
vn 0.05966448784 0.9950789213 -0.07910781354
v -0.02830762789 0.1352939755 0.02326880209 1 1 1
vn -0.7854956985 0.1446693093 0.6017202735
v -0.03485465795 0.1038579643 0.0120633794 1 1 1
vn -0.05169026181 0.9976485968 0.04500450939
v -0.1376095861 0.1177443713 -0.1799975783 1 1 1
vn -0.03768058866 0.9984987378 -0.03975417465
v -0.2054399103 0.1156132445 -0.111989066 1 1 1
vn -0.1501444429 0.985393703 -0.08034829795
v -0.146486029 0.08120916784 -0.1969454288 1 1 1
vn -0.09506012499 -0.9869898558 -0.1296710223
v 0.06004883721 0.1155231819 0.2261074185 1 1 1
vn 0.1334150434 0.8313950896 0.5394281149
v -0.06691506505 0.08120916784 -0.2370435894 1 1 1
vn -0.07999192923 -0.9562669992 -0.2813444138
v 0.06360810995 0.1036026627 0.2362834215 1 1 1
vn 0.2438699603 0.338486135 0.9088204503
v -0.1235810518 0.10052789 -0.2127733827 1 1 1
vn -0.4764330983 0.2128065377 -0.8530679345
v -0.2317863405 0.1129003093 -0.06067610905 1 1 1
vn -0.6073519588 0.7750415802 -0.1744539142
v -0.2304482162 0.1172024533 0.004260686692 1 1 1
vn -0.07577938586 0.9970733523 -0.01010954939
v -0.03634448722 0.1038579643 -0.007237936836 1 1 1
vn -0.07091637701 0.9958044887 -0.0578295067
v -0.0367577225 0.1352939755 -0.0006682784879 1 1 1
vn -0.6208039522 0.7838513255 0.01339963917
v -0.01815124974 0.1038579643 0.03117895685 1 1 1
vn -0.03873765469 0.9984264374 0.04054661468
v -0.1214584634 0.1134821251 -0.2051357776 1 1 1
vn -0.2594926953 0.8331744075 -0.4883481562
v -0.1730720997 0.10052789 -0.1757519841 1 1 1
vn -0.6940541863 0.1318460852 -0.7077467442
v -0.2090991139 0.08120916784 -0.1335504949 1 1 1
vn -0.1424195468 -0.9836905599 -0.1098613515
v -0.004567434546 0.1172024533 0.2271766663 1 1 1
vn -0.004039688502 0.9922247529 0.1243934855
v -0.1672509313 0.1162906066 0.1653868258 1 1 1
vn -0.3638161719 0.8723436594 0.32657969
v -0.02822498046 0.1352939755 -0.02262445726 1 1 1
vn -0.486890167 0.7864588499 -0.3800268471
v -0.2002445161 0.1172024533 0.1142097339 1 1 1
vn -0.1015125886 0.9935252666 0.05101681128
v 0.2297879308 0.08120916784 -0.09593699872 1 1 1
vn 0.1925453991 -0.9714779258 -0.138408497
v 0.19604747 0.1172024533 -0.1182619184 1 1 1
vn 0.07657095045 0.9958282113 -0.04962887615
v 0.2461734116 0.1043646187 0.006382392719 1 1 1
vn 0.8858042359 0.4636904299 0.01849423535
v 0.1778870374 0.1177443713 0.141255036 1 1 1
vn 0.04250606522 0.998658061 0.02958665788
v -0.0458628647 0.117165558 -0.2232288867 1 1 1
vn -0.02480071411 0.9920467138 -0.1234025806
v -0.001588212559 0.0992192179 -0.2465702593 1 1 1
vn -0.03297534212 0.1720338911 -0.9845389724
v 0.2353799194 0.08120916784 0.07983530313 1 1 1
vn 0.194137603 -0.9783668518 0.07147654146
v 0.2245846838 0.1164755747 0.06449984014 1 1 1
vn 0.1839546114 0.9818419814 0.04633579403
v 0.06895676255 0.1172024533 -0.2186907381 1 1 1
vn 0.05262828991 0.986794889 -0.1531865448
v 0.1161739081 0.1164755747 0.2009346783 1 1 1
vn 0.07624986023 0.9874284267 0.1384597123
v 0.2111910731 0.10052789 0.1284532994 1 1 1
vn 0.8262214661 0.2720855176 0.4932824075
v 0.2384842038 0.1057689413 -0.06173695996 1 1 1
vn 0.7313824296 0.646536231 -0.2169578224
v 0.0927638635 0.1066839918 0.1611835212 1 1 1
vn -0.0559216328 0.9974405766 -0.0445535928
v -0.01222560275 0.1352939755 0.03404568881 1 1 1
vn -0.1589102894 0.4783490598 0.8636721969
v -0.2462355196 0.1057689413 0.0007344223559 1 1 1
vn -0.7761027217 0.6304972172 -0.01173762791
v -0.1706906259 0.1134821251 -0.167357862 1 1 1
vn -0.4833082557 0.7382038832 -0.4706040621
v -0.0616193302 0.1101488024 -0.2330798209 1 1 1
vn -0.190243274 0.6553403735 -0.7309832573
v 3.455147453e-05 0.1043646187 0.2444997132 1 1 1
vn 0.03511184826 0.4580832124 0.8882156014
v -0.0640097484 0.1129003093 0.2299216241 1 1 1
vn -0.1455147713 0.815977335 0.5594698191
v -0.120509997 0.1172024533 0.1957098693 1 1 1
vn -0.06716315448 0.9906532168 0.1187236831
v -0.06483643502 0.09938245267 -0.2371574938 1 1 1
vn -0.2609628141 0.1777151376 -0.948849678
v -0.2135943919 0.1057689413 0.1225527003 1 1 1
vn -0.6918725967 0.5862696767 0.4214263558
v -0.2379341125 0.1057689413 0.06379231066 1 1 1
vn -0.7502174377 0.6195706725 0.230880931
v -0.2275184244 0.1162906066 0.06100144982 1 1 1
vn -0.4800942838 0.8706849217 0.1068516672
v -0.1748759001 0.1057689413 0.1730115265 1 1 1
vn -0.5789574385 0.5485907197 0.603205204
v -0.01149971038 0.1352939755 -0.03262603655 1 1 1
vn -0.1146630943 0.9165251255 -0.38318941
v -0.05891712382 0.0992192179 0.2400343865 1 1 1
vn -0.1970407069 0.2197853476 0.9554419518
v 0.117823787 0.0992192179 -0.2177601904 1 1 1
vn 0.4109762907 0.06570158154 -0.9092754126
v 0.2091078609 0.08120916784 0.1335491985 1 1 1
vn 0.2031757087 -0.9664472342 0.1571605206
v 0.1464947909 0.08120916784 0.1969447732 1 1 1
vn 0.08952314407 -0.9879034758 0.1266186684
v 0.2304521501 0.1172024533 -0.003245197004 1 1 1
vn 0.1457495838 0.9892291427 0.0135170063
v 0.2460339218 0.08120916784 -0.03839032724 1 1 1
vn 0.1518335342 -0.9882900715 -0.01514110062
v 0.2479352504 0.08120916784 0.02137382887 1 1 1
vn 0.3396193981 -0.9397735596 0.03852718323
v 0.1588813365 0.09641057253 -0.1911374182 1 1 1
vn 0.6458907723 -0.01588693634 -0.7632644773
v 0.2297879308 0.09641057253 -0.09593699872 1 1 1
vn 0.9141304493 0.1090390906 -0.3904816806
v 0.2460339218 0.09641057253 -0.03839032724 1 1 1
vn 0.975286305 0.106424503 -0.1936245263
v 0.1692266017 0.1134821251 0.168817535 1 1 1
vn 0.4720309079 0.7346762419 0.4872757494
v 0.1222762242 0.1043646187 0.2116977721 1 1 1
vn 0.4495128989 0.3308033049 0.8297634125
v 0.2074321657 0.1134821251 0.1199159697 1 1 1
vn 0.5537574887 0.7749438882 0.3046549261
v -0.02093937807 0.1038579643 -0.02737774327 1 1 1
vn -0.03058753163 0.9989359379 -0.03451597318
v 0.07373584807 0.1177443713 -0.1850604713 1 1 1
vn -0.06497064978 0.9885197282 0.1364094019
v 0.1600316167 0.1156132445 -0.1088832468 1 1 1
vn -0.2511635125 0.9522950649 0.1733521819
v 0.1930199116 0.1156132445 -0.01310329139 1 1 1
vn -0.195841983 0.9803056717 0.02543020621
v 0.1199977398 0.1171099693 0.157207787 1 1 1
vn -0.1519898623 0.972778976 -0.1749290079
v 0.05364850909 0.1163489521 0.19114317 1 1 1
vn -0.04119308293 0.9821012616 -0.1837938726
v 0.0503875725 0.1063902676 0.1794621199 1 1 1
vn -0.02793958597 0.9929817319 -0.1149203256
# mm_gid 32
g mmGroup32
f 95//95 164//164 24//24 
f 21//21 95//95 30//30 
f 103//103 114//114 107//107 
f 103//103 107//107 105//105 
f 83//83 58//58 57//57 
f 83//83 82//82 58//58 
f 82//82 41//41 58//58 
f 58//58 41//41 7//7 
f 58//58 7//7 120//120 
f 155//155 151//151 120//120 
f 151//151 58//58 120//120 
f 151//151 56//56 58//58 
f 57//57 58//58 56//56 
f 83//83 33//33 82//82 
f 33//33 41//41 82//82 
f 33//33 40//40 41//41 
f 147//147 41//41 40//40 
f 153//153 147//147 8//8 
f 153//153 41//41 147//147 
f 7//7 41//41 153//153 
f 153//153 8//8 7//7 
f 7//7 8//8 9//9 
f 154//154 9//9 131//131 
f 7//7 9//9 154//154 
f 154//154 120//120 7//7 
f 155//155 120//120 154//154 
f 154//154 131//131 155//155 
f 155//155 131//131 122//122 
f 122//122 151//151 155//155 
f 122//122 152//152 151//151 
f 152//152 56//56 151//151 
f 57//57 56//56 55//55 
f 55//55 83//83 57//57 
f 55//55 34//34 83//83 
f 34//34 33//33 83//83 
f 147//147 40//40 6//6 
f 36//36 6//6 125//125 
f 35//35 147//147 6//6 
f 35//35 8//8 147//147 
f 47//47 43//43 145//145 
f 145//145 43//43 93//93 
f 159//159 145//145 15//15 
f 15//15 145//145 42//42 
f 145//145 93//93 42//42 
f 42//42 93//93 94//94 
f 15//15 42//42 16//16 
f 16//16 42//42 94//94 
f 63//63 16//16 64//64 
f 63//63 15//15 16//16 
f 65//65 15//15 63//63 
f 60//60 15//15 65//65 
f 60//60 159//159 15//15 
f 17//17 43//43 18//18 
f 17//17 93//93 43//43 
f 17//17 94//94 93//93 
f 16//16 94//94 17//17 
f 63//63 64//64 72//72 
f 27//27 159//159 60//60 
f 145//145 159//159 118//118 
f 97//97 110//110 159//159 
f 118//118 159//159 110//110 
f 32//32 100//100 110//110 
f 99//99 100//100 112//112 
f 111//111 100//100 99//99 
f 111//111 110//110 100//100 
f 118//118 110//110 111//111 
f 47//47 118//118 111//111 
f 47//47 145//145 118//118 
f 18//18 47//47 19//19 
f 18//18 43//43 47//47 
f 74//74 18//18 70//70 
f 68//68 18//18 74//74 
f 68//68 17//17 18//18 
f 67//67 17//17 68//68 
f 66//66 17//17 67//67 
f 73//73 17//17 66//66 
f 73//73 16//16 17//17 
f 64//64 16//16 73//73 
f 64//64 73//73 11//11 
f 72//72 64//64 11//11 
f 124//124 61//61 13//13 
f 121//121 38//38 35//35 
f 121//121 160//160 161//161 
f 121//121 37//37 131//131 
f 131//131 9//9 121//121 
f 38//38 121//121 9//9 
f 9//9 8//8 38//38 
f 35//35 38//38 8//8 
f 35//35 6//6 128//128 
f 36//36 128//128 6//6 
f 101//101 124//124 113//113 
f 124//124 136//136 113//113 
f 128//128 36//36 124//124 
f 124//124 13//13 128//128 
f 128//128 13//13 160//160 
f 121//121 35//35 128//128 
f 128//128 160//160 121//121 
f 160//160 72//72 161//161 
f 72//72 11//11 161//161 
f 20//20 159//159 27//27 
f 97//97 159//159 20//20 
f 29//29 110//110 97//97 
f 32//32 110//110 29//29 
f 28//28 100//100 32//32 
f 31//31 100//100 28//28 
f 98//98 100//100 31//31 
f 98//98 112//112 100//100 
f 30//30 112//112 98//98 
f 26//26 112//112 30//30 
f 99//99 112//112 133//133 
f 133//133 111//111 99//99 
f 133//133 112//112 19//19 
f 133//133 19//19 47//47 
f 47//47 111//111 133//133 
f 132//132 19//19 165//165 
f 132//132 18//18 19//19 
f 70//70 18//18 132//132 
f 11//11 73//73 161//161 
f 121//121 161//161 162//162 
f 37//37 150//150 122//122 
f 122//122 131//131 37//37 
f 124//124 36//36 136//136 
f 36//36 125//125 136//136 
f 136//136 125//125 140//140 
f 107//107 136//136 140//140 
f 113//113 136//136 107//107 
f 109//109 22//22 96//96 
f 108//108 109//109 102//102 
f 109//109 96//96 102//102 
f 102//102 96//96 25//25 
f 101//101 135//135 102//102 
f 101//101 113//113 135//135 
f 102//102 25//25 101//101 
f 101//101 25//25 61//61 
f 101//101 61//61 124//124 
f 13//13 61//61 60//60 
f 63//63 160//160 13//13 
f 63//63 72//72 160//160 
f 63//63 13//13 65//65 
f 13//13 60//60 65//65 
f 60//60 61//61 27//27 
f 61//61 20//20 27//27 
f 25//25 97//97 20//20 
f 25//25 29//29 97//97 
f 96//96 29//29 25//25 
f 96//96 32//32 29//29 
f 22//22 28//28 32//32 
f 22//22 31//31 28//28 
f 23//23 31//31 22//22 
f 23//23 98//98 31//31 
f 21//21 98//98 23//23 
f 21//21 30//30 98//98 
f 95//95 26//26 30//30 
f 95//95 24//24 26//26 
f 24//24 112//112 26//26 
f 24//24 19//19 112//112 
f 165//165 19//19 24//24 
f 163//163 165//165 164//164 
f 132//132 165//165 163//163 
f 163//163 70//70 132//132 
f 69//69 68//68 74//74 
f 67//67 68//68 69//69 
f 162//162 67//67 69//69 
f 66//66 67//67 162//162 
f 161//161 73//73 66//66 
f 66//66 162//162 161//161 
f 121//121 162//162 150//150 
f 150//150 37//37 121//121 
f 150//150 127//127 39//39 
f 39//39 122//122 150//150 
f 39//39 152//152 122//122 
f 39//39 126//126 152//152 
f 126//126 56//56 152//152 
f 126//126 54//54 56//56 
f 53//53 34//34 55//55 
f 55//55 54//54 53//53 
f 55//55 56//56 54//54 
f 34//34 71//71 33//33 
f 71//71 40//40 33//33 
f 71//71 105//105 40//40 
f 125//125 40//40 105//105 
f 6//6 40//40 125//125 
f 125//125 105//105 140//140 
f 105//105 107//107 140//140 
f 4//4 59//59 5//5 
f 135//135 107//107 114//114 
f 113//113 107//107 135//135 
f 109//109 23//23 22//22 
f 22//22 32//32 96//96 
f 25//25 20//20 61//61 
f 24//24 164//164 165//165 
f 150//150 162//162 69//69 
f 158//158 39//39 127//127 
f 39//39 158//158 130//130 
f 130//130 126//126 39//39 
f 130//130 148//148 126//126 
f 148//148 54//54 126//126 
f 53//53 54//54 50//50 
f 53//53 50//50 52//52 
f 75//75 53//53 52//52 
f 34//34 53//53 75//75 
f 75//75 71//71 34//34 
f 71//71 103//103 105//105 
f 48//48 103//103 71//71 
f 71//71 75//75 48//48 
f 48//48 75//75 46//46 
f 75//75 52//52 46//46 
f 52//52 50//50 49//49 
f 46//46 52//52 49//49 
f 48//48 46//46 45//45 
f 103//103 48//48 45//45 
f 45//45 46//46 44//44 
f 46//46 49//49 44//44 
f 12//12 49//49 76//76 
f 44//44 49//49 12//12 
f 45//45 44//44 12//12 
f 45//45 12//12 14//14 
f 115//115 45//45 14//14 
f 103//103 45//45 115//115 
f 115//115 114//114 103//103 
f 115//115 5//5 114//114 
f 4//4 5//5 115//115 
f 115//115 14//14 4//4 
f 12//12 76//76 62//62 
f 14//14 12//12 62//62 
f 14//14 62//62 81//81 
f 79//79 80//80 78//78 
f 81//81 80//80 79//79 
f 81//81 62//62 80//80 
f 62//62 78//78 80//80 
f 62//62 76//76 78//78 
f 77//77 78//78 76//76 
f 79//79 78//78 77//77 
f 88//88 79//79 77//77 
f 88//88 89//89 87//87 
f 88//88 87//87 92//92 
f 92//92 79//79 88//88 
f 91//91 90//90 3//3 
f 92//92 90//90 91//91 
f 91//91 79//79 92//92 
f 91//91 81//81 79//79 
f 91//91 3//3 1//1 
f 91//91 1//1 2//2 
f 2//2 81//81 91//91 
f 2//2 14//14 81//81 
f 4//4 14//14 2//2 
f 2//2 59//59 4//4 
f 2//2 1//1 59//59 
f 5//5 59//59 108//108 
f 135//135 114//114 5//5 
f 5//5 102//102 135//135 
f 5//5 108//108 102//102 
f 143//143 119//119 109//109 
f 119//119 23//23 109//109 
f 116//116 164//164 95//95 
f 74//74 70//70 163//163 
f 69//69 74//74 163//163 
f 150//150 69//69 127//127 
f 123//123 158//158 127//127 
f 123//123 156//156 158//158 
f 130//130 158//158 156//156 
f 156//156 10//10 130//130 
f 10//10 148//148 130//130 
f 10//10 149//149 148//148 
f 149//149 54//54 148//148 
f 149//149 50//50 54//54 
f 149//149 51//51 50//50 
f 49//49 50//50 51//51 
f 51//51 76//76 49//49 
f 77//77 76//76 51//51 
f 88//88 77//77 85//85 
f 85//85 89//89 88//88 
f 85//85 146//146 89//89 
f 144//144 87//87 89//89 
f 92//92 87//87 144//144 
f 141//141 92//92 144//144 
f 90//90 92//92 141//141 
f 142//142 90//90 141//141 
f 3//3 90//90 142//142 
f 134//134 3//3 142//142 
f 1//1 3//3 134//134 
f 59//59 1//1 134//134 
f 108//108 59//59 134//134 
f 109//109 108//108 134//134 
f 109//109 134//134 143//143 
f 119//119 21//21 23//23 
f 139//139 21//21 119//119 
f 139//139 95//95 21//21 
f 116//116 95//95 139//139 
f 116//116 104//104 129//129 
f 129//129 164//164 116//116 
f 129//129 163//163 164//164 
f 123//123 163//163 129//129 
f 123//123 69//69 163//163 
f 127//127 69//69 123//123 
f 123//123 129//129 156//156 
f 129//129 157//157 156//156 
f 129//129 104//104 157//157 
f 157//157 104//104 106//106 
f 10//10 156//156 157//157 
f 157//157 149//149 10//10 
f 157//157 86//86 149//149 
f 86//86 51//51 149//149 
f 86//86 137//137 84//84 
f 84//84 51//51 86//86 
f 84//84 77//77 51//51 
f 85//85 77//77 84//84 
f 84//84 146//146 85//85 
f 84//84 137//137 146//146 
f 138//138 146//146 137//137 
f 89//89 146//146 138//138 
f 143//143 134//134 142//142 
f 143//143 142//142 119//119 
f 117//117 139//139 119//119 
f 138//138 116//116 139//139 
f 116//116 137//137 104//104 
f 138//138 137//137 116//116 
f 138//138 139//139 89//89 
f 144//144 89//89 139//139 
f 139//139 117//117 144//144 
f 141//141 144//144 117//117 
f 117//117 119//119 141//141 
f 119//119 142//142 141//141 
f 104//104 137//137 106//106 
f 106//106 86//86 157//157 
f 106//106 137//137 86//86 
