v 0.1003703699 0.1298384815 0.04953785613 1 1 1
vn 0.1630400121 0.06556458026 0.9844385386
v -0.1065723673 0.1298384815 0.04953785613 1 1 1
vn -0.04127757996 0.06639712304 0.9969391227
v 0.1003703699 -0.1274646074 0.04953785613 1 1 1
vn 0.04127757996 -0.06639712304 0.9969391227
v -0.1065723673 -0.1274646074 0.04953785613 1 1 1
vn -0.1630400121 -0.06556458026 0.9844385386
v 0.1003703699 -0.1274646074 0.03240115568 1 1 1
vn 0.1630400121 -0.06556458026 -0.9844385386
v -0.1065723673 -0.1274646074 0.03240115568 1 1 1
vn -0.04127757996 -0.06639712304 -0.9969391227
v 0.1003703699 0.1298384815 0.03240115568 1 1 1
vn 0.04127757996 0.06639712304 -0.9969391227
v -0.1065723673 0.1298384815 0.03240115568 1 1 1
vn -0.1630400121 0.06556458026 -0.9844385386
# mm_gid 0
g mmGroup0
f 1//1 2//2 3//3 
f 3//3 2//2 4//4 
f 5//5 6//6 7//7 
f 7//7 6//6 8//8 
f 4//4 6//6 3//3 
f 3//3 6//6 5//5 
f 2//2 8//8 4//4 
f 4//4 8//8 6//6 
f 1//1 7//7 2//2 
f 2//2 7//7 8//8 
f 3//3 5//5 1//1 
f 1//1 5//5 7//7 
