v -0.1136416271 0.1427271813 0.03021495417 1 1 1
vn 0.08151085675 -0.03046719171 0.9962066412
v 0.1104200557 0.1427271813 0.03021495417 1 1 1
vn -0.1360582709 -0.1104835644 0.9845209718
v -0.1329647154 0.1620500833 0.04953785613 1 1 1
vn 0.092948623 -0.141811803 0.9855201244
v 0.1297431439 0.1620500833 0.04953785613 1 1 1
vn -0.06181562692 -0.05089994892 0.9967888594
v 0.1104200557 -0.1376740187 0.03021495417 1 1 1
vn -0.03996333852 0.03193381801 0.9986907244
v 0.1297431439 -0.1569969207 0.04953785613 1 1 1
vn -0.07356756926 0.05973916128 0.9954993725
v -0.1136416271 -0.1376740187 0.03021495417 1 1 1
vn 0.0691043064 0.1199637279 0.9903702736
v -0.1329647154 -0.1569969207 0.04953785613 1 1 1
vn 0.1043955833 0.04575141147 0.9934829473
v -0.2187499702 0.2474143356 0.00523033971 1 1 1
vn -0.8113371134 0.4956709146 -0.3099071085
v -0.1639817059 0.2474143356 -0.04953792319 1 1 1
vn -0.2386978865 0.1846239716 -0.9533820152
v -0.2187499702 -0.2474148124 0.00523033971 1 1 1
vn -0.738990128 -0.4207738042 -0.5261587501
v -0.1639817059 -0.2474148124 -0.04953792319 1 1 1
vn -0.07629822195 -0.1180276945 -0.9900747538
v -0.2187499702 -0.2474148124 0.04953785613 1 1 1
vn -0.3627625406 -0.3207344711 0.8749473095
v -0.2187499702 0.2474143356 0.04953785613 1 1 1
vn -0.1599974781 0.2829217315 0.9457040429
v 0.2187500447 -0.2474148124 0.00523033971 1 1 1
vn 0.6402670145 -0.7281805277 -0.2445633262
v 0.1639815867 -0.2474148124 -0.04953792319 1 1 1
vn 0.2420901954 -0.08022645116 -0.9669312835
v 0.2187500447 -0.2474148124 0.04953785613 1 1 1
vn 0.2475261837 -0.2188488841 0.9438410401
v 0.1639815867 0.2474143356 -0.04953792319 1 1 1
vn 0.07673583925 0.05085909739 -0.9957534671
v 0.2187500447 0.2474143356 0.00523033971 1 1 1
vn 0.6165691614 0.6535483599 -0.4389954209
v 0.2187500447 0.2474143356 0.04953785613 1 1 1
vn 0.3660249412 0.1618094444 0.9164297581
# mm_gid 0
g mmGroup0
f 1//1 2//2 3//3 
f 3//3 2//2 4//4 
f 5//5 6//6 2//2 
f 2//2 6//6 4//4 
f 5//5 7//7 6//6 
f 6//6 7//7 8//8 
f 7//7 1//1 8//8 
f 8//8 1//1 3//3 
f 9//9 10//10 11//11 
f 11//11 10//10 12//12 
f 11//11 13//13 9//9 
f 9//9 13//13 14//14 
f 13//13 11//11 15//15 
f 15//15 11//11 12//12 
f 15//15 12//12 16//16 
f 15//15 17//17 13//13 
f 10//10 18//18 12//12 
f 12//12 18//18 16//16 
f 15//15 16//16 19//19 
f 19//19 16//16 18//18 
f 2//2 1//1 5//5 
f 5//5 1//1 7//7 
f 18//18 10//10 19//19 
f 19//19 10//10 9//9 
f 19//19 9//9 14//14 
f 14//14 20//20 19//19 
f 13//13 17//17 6//6 
f 6//6 17//17 20//20 
f 6//6 20//20 4//4 
f 4//4 20//20 14//14 
f 4//4 14//14 3//3 
f 3//3 14//14 8//8 
f 8//8 14//14 13//13 
f 8//8 13//13 6//6 
f 19//19 20//20 15//15 
f 15//15 20//20 17//17 
