v 0.03001632728 0.1002505198 0.3446412385
vn 0.3328314126 0.939470768 0.08135059476
v 0.06223396584 0.06395702809 0.3443875015
vn -0.6475471854 -0.7568009496 0.08907836676
v 0.07933150977 0.07049548626 0.3444335163
vn 0.7050657272 0.7074089646 0.04954657331
v 0.02562492527 0.08477280289 0.3445334435
vn -0.2083097994 -0.9773100615 0.03836754709
v -0.01642340608 0.08718544245 0.3445498645
vn 0.1955768913 -0.9753985405 0.1017218158
v -0.01991549134 0.10354013 0.3446642458
vn -0.1062394083 0.9927484989 0.05624645576
v -0.05759608746 0.06807495654 0.3444170654
vn 0.6064367294 -0.7901838422 0.08856645226
v -0.06278030574 0.08579307795 0.34454
vn -0.5466547012 0.8366492987 0.03444637731
v -0.09277200699 0.05540563166 0.3443283439
vn -0.8509953618 0.5174058676 0.08998929709
v -0.08859623224 0.02215982601 0.3440969288
vn 0.9414686561 -0.3325719237 0.0550696142
v -0.1079538986 0.01158233173 0.3440226316
vn -0.9703369737 0.2383996844 0.0401471369
v -0.09207122028 -0.01979384199 0.3438030779
vn 0.9675710201 0.2405023724 0.07723291963
v -0.1041041911 -0.03830741346 0.3436742127
vn -0.9638227224 -0.2632540464 0.04174943641
v -0.07713913918 -0.05558113754 0.3435532749
vn 0.7502696514 0.6499438882 0.1211133897
v -0.07160650194 -0.08585946262 0.3433422446
vn -0.7232639194 -0.6888245344 0.0490921922
v -0.03136074543 -0.0897841081 0.3433146179
vn 0.3824123144 0.9218703508 0.06257733703
v -0.0275570564 -0.1095940694 0.3431752622
vn -0.2272103578 -0.9726564288 0.04811363667
v 0.02223933861 -0.09341950715 0.3432889879
vn -0.1908920556 0.9780361652 0.08369860053
v 0.03001632728 -0.107966356 0.3431877494
vn 0.2792654634 -0.9590889812 0.04646680877
v 0.0596149005 -0.07400661707 0.3434244096
vn -0.6878077388 0.7214738131 0.07997556031
v 0.08226480335 -0.07312965393 0.3434309959
vn 0.7550741434 -0.6541215777 0.04458714649
v 0.08834308386 -0.02460860647 0.3437695503
vn -0.9577403665 0.2773492634 0.07622832805
v 0.1079531908 -0.01945856959 0.3438057005
vn 0.9765973687 -0.2086484432 0.05218663439
v 0.1035578474 0.02671031654 0.3441284895
vn 0.9717609286 0.228677243 0.05820123106
v 0.08580685407 0.0290559046 0.3441442549
vn -0.9463626146 -0.3209792078 0.03701605275
v 0.08660230041 0.02884685248 -0.1501533985
vn -0.930380702 -0.3660373986 0.02020868659
v 0.07185166329 0.05527678132 0.1007981375
vn -0.8101704121 -0.5861846209 -0.003399383742
v 0.06781394035 0.06168770045 -0.1459250301
vn -0.6657897234 -0.746109128 0.006723476574
v 0.09103972465 0.0101807639 0.1004839018
vn -0.9890233278 -0.147692889 -0.004428868648
v 0.09185357392 -0.0002244917268 -0.1455476731
vn -0.9990919232 0.0414416492 0.009895816445
v 0.0870020017 -0.03173871711 0.1001907066
vn -0.9535896182 0.3011077642 -0.0009587514796
v 0.08631436527 -0.02926822565 -0.1545592546
vn -0.9145982265 0.4034257233 0.02752744034
v 0.06478597224 -0.06751681119 0.09994089603
vn -0.7906309962 0.6122924089 0.0007809773088
v 0.07355037332 -0.054130923 -0.1547328085
vn -0.7998908162 0.5963198543 0.0676561296
v 0.05387846753 -0.07398426533 -0.1548708677
vn -0.5829048157 0.8114714622 0.04166567326
v 0.03906340525 -0.08618026972 0.09981007129
vn -0.4341620207 0.90080446 0.007396070752
v 0.02876333147 -0.08592651039 -0.1580013782
vn -0.2615081668 0.9638228416 0.05156580359
v 0.008299923502 -0.09414921701 0.09975485504
vn -0.02873795293 0.9995698929 0.005848598666
v -0.01039377507 -0.09145915508 -0.1509922296
vn 0.07642620802 0.9965093732 0.03358775005
v -0.03343811631 -0.08852454275 0.09979429841
vn 0.3944655657 0.9189061522 0.002902150853
v -0.03984903917 -0.08315362036 -0.1541253775
vn 0.495038867 0.8685292006 0.02436294965
v -0.07461737096 -0.0564028807 0.1000191271
vn 0.748395741 0.6632523537 0.0003238108766
v -0.06073843688 -0.07021344453 -0.1508449763
vn 0.6716468334 0.7401718497 0.03218947724
v -0.08158050478 -0.04550195113 -0.1466731429
vn 0.8869934082 0.4616386294 0.01150978543
v -0.09207122028 -0.01809381694 0.1002860293
vn 0.9865920544 0.1632044017 -0.0006886531482
v -0.09127708524 -0.01605063118 -0.1488714665
vn 0.995249927 0.0928503871 0.02926324308
v -0.09011743963 0.02063466795 0.1005568728
vn 0.966816783 -0.2554246485 -0.004848822486
v -0.09193185717 0.01280114241 -0.1494552344
vn 0.9891710281 -0.14176476 0.03799295053
v -0.08284927905 0.04130055383 -0.1460670233
vn 0.8740128875 -0.485858351 0.006567096803
v -0.06790798903 0.06022302434 0.1008323207
vn 0.7323918939 -0.6808244586 -0.008952158503
v -0.06022172421 0.07052703947 -0.145863235
vn 0.5921860933 -0.8057996035 -0.001626423909
v -0.01975377277 0.08761669695 0.101024285
vn 0.2361825407 -0.9716885686 -0.006255117245
v -0.03836989775 0.08155419677 -0.1592372805
vn 0.4022119045 -0.9129077196 0.06946263462
v -0.01136672031 0.09132703394 -0.1449086964
vn 0.00220462936 -0.9999905229 -0.003753513796
v 0.03539119288 0.0823180899 0.1009868085
vn -0.3593187332 -0.9331973791 -0.005715017207
v 0.02697127126 0.08679495007 -0.1517495513
vn -0.3451946974 -0.938157022 0.02649652213
v 0.02141890861 0.01946713403 -0.2164477855
vn -0.1148005053 -0.1242038906 0.9855933189
v -0.01948818378 -0.01160663739 -0.2179479599
vn 0.05611127988 0.02979154885 0.997979939
v 0.01000520773 -0.01724840514 -0.2180110663
vn -0.05806927755 0.08242377639 0.9949041605
v -0.01157840155 0.01655224152 -0.2177757174
vn 0.08921547979 -0.06541870534 0.9938616753
v -0.004089351743 0.08759302646 -0.1678360105
vn -0.001008425141 -0.9506031275 0.3104072809
v -0.066075176 0.05809174851 -0.1680424362
vn 0.6810448766 -0.6213527322 0.3874256909
v -0.03720762208 0.02376649901 -0.2128952146
vn 0.2911785245 -0.2309749573 0.9283671975
v -0.00557112135 0.03740088269 -0.2150856555
vn 0.0511268191 -0.2925896049 0.9548703432
v -0.08236543089 0.03269129992 -0.1682199389
vn 0.8394738436 -0.3671239018 0.4006291032
v -0.02249905653 0.07965563238 -0.1796112806
vn 0.2490096688 -0.7997258306 0.54629004
v 0.002338661347 0.07531814277 -0.190257147
vn 0.001508975169 -0.7527942657 0.6582541466
v -0.04375659674 0.06131824479 -0.1903544366
vn 0.4730345905 -0.6548829675 0.5893781185
v -0.05915017053 0.03475552425 -0.197239995
vn 0.5931952596 -0.386089623 0.7064377069
v -0.08019208163 0.01171249617 -0.1825800836
vn 0.854341805 -0.09850405902 0.5102910995
v -0.05587108061 0.007129134145 -0.2074283212
vn 0.5850023031 -0.06849078834 0.8081344962
v -0.05487446859 -0.02561310679 -0.2043609172
vn 0.5071746707 0.2881902754 0.8122316599
v -0.04240104556 -0.01292274334 -0.2131502926
vn 0.282551378 0.03276542574 0.9586924314
v -0.07461342961 -0.04835767671 -0.1672627628
vn 0.7920181155 0.4828964472 0.3735215664
v -0.07377722114 -0.0157087855 -0.1908921897
vn 0.7474067807 0.200207904 0.6334823966
v -0.05728974193 -0.0505573228 -0.1898876876
vn 0.6098775268 0.4661892951 0.6408720613
v -0.04900918528 -0.06881187856 -0.1778363138
vn 0.5237083435 0.7236848474 0.4494550526
v -0.02871275879 -0.03319813684 -0.2132922858
vn 0.1997893006 0.2765954733 0.9399889112
v -0.02873510867 -0.06007246301 -0.2003968209
vn 0.2952471972 0.5500068069 0.7812308669
v -0.02249905653 -0.08005465567 -0.1807262301
vn 0.2173330933 0.8471049666 0.4849531353
v -0.001350642298 -0.04303671792 -0.2133606523
vn 0.002070402727 0.3483476937 0.9373630881
v 0.00196263101 -0.0657037124 -0.2004362643
vn -0.05876960233 0.6722028852 0.7380307317
v 0.004394994583 -0.08400297165 -0.1777074635
vn -0.1117083281 0.8805146813 0.4606681764
v 0.0254947599 -0.04850887507 -0.2078161836
vn -0.2517739534 0.4913225472 0.8337937593
v 0.08715056628 -0.006845779251 -0.1684960425
vn -0.9166815281 0.09068902582 0.3891921639
v 0.07486516237 0.04445736483 -0.1681384146
vn -0.8046432734 -0.4747599959 0.3565840423
v 0.08129580319 0.01091441792 -0.1800911874
vn -0.8487523198 -0.1622200608 0.5032933354
v 0.05307118595 0.07008921355 -0.1663634479
vn -0.5709059834 -0.7459521294 0.3429603875
v 0.06524351984 -0.01929816417 -0.197617352
vn -0.6793932915 0.1703701168 0.7137217522
v 0.06142931432 0.04181463644 -0.1904911846
vn -0.6620709896 -0.4385001361 0.6077660918
v 0.02530805953 0.07633973658 -0.1821291149
vn -0.2671350539 -0.7976506948 0.5407330394
v 0.06532109529 0.005184558686 -0.1999405771
vn -0.6616696715 -0.1001134962 0.7430818081
v 0.04010340199 0.06323126704 -0.1903412938
vn -0.4557035267 -0.6292712688 0.6295648813
v 0.05325525627 0.02921630815 -0.2039783001
vn -0.4943833947 -0.2404174954 0.8353349566
v 0.0429039076 0.001529439469 -0.2130503654
vn -0.3405251503 -0.02830598317 0.9398092628
v 0.03502962366 0.04231688753 -0.2071824521
vn -0.3058676422 -0.4198992252 0.8544762135
v 0.008871858008 0.05472062528 -0.2070969939
vn -0.1306730658 -0.5116870999 0.8491765857
v -0.08643734455 -0.02037892304 -0.1685893983
vn 0.9073822498 0.1809909344 0.3793412149
v -0.02115796879 0.05546742678 -0.2041636854
vn 0.2372637689 -0.5315274596 0.8131325245
v 0.0398036316 -0.06750366092 -0.185945943
vn -0.4347972274 0.7183952332 0.5430098176
v 0.05313561112 -0.04282372072 -0.198173508
vn -0.5058483481 0.4339782596 0.7455067635
v 0.03533597291 -0.02521340922 -0.2132370621
vn -0.3036124706 0.2097532004 0.9294208288
v 0.07027917355 -0.0421663262 -0.1804619581
vn -0.7629463673 0.4385007024 0.4750051796
v -0.03857368976 -0.03234352171 -0.3445518017
vn -0.4053925276 -0.3489727378 -0.8449112177
v 0.04546774924 -0.01580213569 -0.3444374204
vn 0.3996437192 -0.2133557945 -0.8914954662
v 0.003665285418 -0.0484286733 -0.3446649015
vn 0.07190801948 -0.5889194608 -0.8049864173
v -0.05146653205 0.0009469870711 -0.3443191051
vn -0.3631433547 0.02795724571 -0.9313137531
v 0.04354026541 0.02640265599 -0.3441429138
vn 0.3994007409 0.1973977536 -0.8952726722
v -0.03384570032 0.03896811232 -0.3440548182
vn -0.3725965619 0.399554193 -0.837572813
v 0.01019585226 0.04937073961 -0.3439825177
vn 0.1068504155 0.622625649 -0.7751904726
v 0.03389627486 0.1040923446 -0.2855913341
vn 0.3727201819 0.9209822416 -0.1134520099
v 0.05871295556 0.09056051075 0.029443115
vn 0.5477588773 0.8365986347 0.007932007313
v 0.07380281389 0.08042347431 -0.2857570052
vn 0.6621156931 0.7332701683 -0.1546532512
v 0.02645192854 0.1040778756 0.02953778021
vn 0.1245176867 0.99217695 0.00895724725
v -0.0005525641609 0.1101614162 -0.2855492532
vn -0.03273434564 0.9954886436 -0.08905488253
v -0.03112277016 0.1024501696 0.02952594683
vn -0.3020922542 0.9532544613 0.006793570239
v -0.04232873395 0.1013602093 -0.2856110632
vn -0.4528680444 0.8807378411 -0.1386052519
v -0.08255607635 0.06939763576 0.029295858
vn -0.7620034218 0.6475707889 0.001709549688
v -0.08255607635 0.07159596682 -0.2858187854
vn -0.8055061698 0.5853168368 -0.09254197776
v -0.1079538986 0.01378329191 0.02890799567
vn -0.983120203 0.1829138845 0.004140840378
v -0.1057318971 0.0314251557 -0.2861001492
vn -0.9354601502 0.2862922847 -0.207246393
v -0.1079538986 -0.01490018889 -0.2864235938
vn -0.9720079303 -0.1841501296 -0.1459086686
v -0.1041041911 -0.03610776737 0.02855957486
vn -0.9330894947 -0.3596377373 -0.002165108221
v -0.08255607635 -0.07051190734 -0.2868114412
vn -0.791706264 -0.6015690565 -0.1063760966
v -0.08339886367 -0.07344257087 0.02829793282
vn -0.7787318826 -0.6273544431 -0.001747624367
v -0.05625237152 -0.09550476819 0.02814410254
vn -0.4550897181 -0.8904206157 -0.006667703856
v -0.04609297961 -0.09917172045 -0.2870112956
vn -0.3559606969 -0.9214205742 -0.1558079123
v -0.0005525641609 -0.1101607382 0.02804286219
vn -0.06171803921 -0.9980741739 -0.006232768763
v -0.0005525641609 -0.1079610959 -0.2870731056
vn 0.09406779706 -0.9878947139 -0.1233504117
v 0.04498653859 -0.1013713628 0.02810334414
vn 0.3839853108 -0.923330605 -0.003982502967
v 0.0551472418 -0.09330380708 -0.2869705558
vn 0.4970231354 -0.8456023335 -0.1947427541
v 0.07380281389 -0.0815403685 0.02824139595
vn 0.7505714893 -0.6607821584 -0.003068334423
v 0.09072943032 -0.05811999738 -0.2867246866
vn 0.8611962795 -0.4945416749 -0.1173432842
v 0.1035578474 -0.03222781792 0.02858718671
vn 0.9596476555 -0.2812002301 -0.001681927126
v 0.1079531908 0.0005420314264 -0.2863144577
vn 0.9852762222 -0.06921803951 -0.1563318521
v 0.1068487689 0.01770399883 0.02893560566
vn 0.986943543 0.160992384 0.004883847199
v 0.09916250408 0.04607981816 -0.2859962881
vn 0.9153259993 0.3882389367 -0.1069991812
v 0.08909908682 0.06056881323 0.02923406288
vn 0.8378311396 0.5459025502 0.005423270166
# mm_gid 0
g mmGroup0
f 1//1 2//2 3//3 
f 1//1 4//4 2//2 
f 1//1 5//5 4//4 
f 6//6 5//5 1//1 
f 6//6 7//7 5//5 
f 8//8 7//7 6//6 
f 9//9 7//7 8//8 
f 9//9 10//10 7//7 
f 11//11 10//10 9//9 
f 11//11 12//12 10//10 
f 13//13 12//12 11//11 
f 13//13 14//14 12//12 
f 15//15 14//14 13//13 
f 15//15 16//16 14//14 
f 17//17 16//16 15//15 
f 17//17 18//18 16//16 
f 19//19 18//18 17//17 
f 19//19 20//20 18//18 
f 21//21 20//20 19//19 
f 21//21 22//22 20//20 
f 23//23 22//22 21//21 
f 24//24 22//22 23//23 
f 24//24 25//25 22//22 
f 24//24 2//2 25//25 
f 3//3 2//2 24//24 
f 26//26 27//27 28//28 
f 26//26 29//29 27//27 
f 30//30 29//29 26//26 
f 30//30 31//31 29//29 
f 32//32 31//31 30//30 
f 32//32 33//33 31//31 
f 34//34 33//33 32//32 
f 35//35 33//33 34//34 
f 35//35 36//36 33//33 
f 37//37 36//36 35//35 
f 37//37 38//38 36//36 
f 39//39 38//38 37//37 
f 39//39 40//40 38//38 
f 41//41 40//40 39//39 
f 41//41 42//42 40//40 
f 43//43 42//42 41//41 
f 44//44 42//42 43//43 
f 44//44 45//45 42//42 
f 46//46 45//45 44//44 
f 46//46 47//47 45//45 
f 48//48 47//47 46//46 
f 49//49 47//47 48//48 
f 49//49 50//50 47//47 
f 51//51 50//50 49//49 
f 51//51 52//52 50//50 
f 53//53 52//52 51//51 
f 54//54 52//52 53//53 
f 54//54 55//55 52//52 
f 56//56 55//55 54//54 
f 28//28 55//55 56//56 
f 28//28 27//27 55//55 
f 4//4 55//55 2//2 
f 4//4 52//52 55//55 
f 5//5 52//52 4//4 
f 7//7 52//52 5//5 
f 7//7 50//50 52//52 
f 10//10 50//50 7//7 
f 10//10 47//47 50//50 
f 10//10 45//45 47//47 
f 12//12 45//45 10//10 
f 12//12 42//42 45//45 
f 14//14 42//42 12//12 
f 16//16 42//42 14//14 
f 16//16 40//40 42//42 
f 16//16 38//38 40//40 
f 18//18 38//38 16//16 
f 18//18 36//36 38//38 
f 20//20 36//36 18//18 
f 20//20 33//33 36//36 
f 22//22 33//33 20//20 
f 22//22 31//31 33//33 
f 22//22 29//29 31//31 
f 25//25 29//29 22//22 
f 25//25 27//27 29//29 
f 2//2 27//27 25//25 
f 2//2 55//55 27//27 
f 57//57 58//58 59//59 
f 57//57 60//60 58//58 
f 54//54 61//61 56//56 
f 54//54 53//53 61//61 
f 51//51 62//62 53//53 
f 63//63 60//60 64//64 
f 62//62 49//49 65//65 
f 51//51 49//49 62//62 
f 61//61 53//53 66//66 
f 66//66 67//67 61//61 
f 66//66 53//53 68//68 
f 53//53 62//62 68//68 
f 69//69 68//68 62//62 
f 62//62 65//65 69//69 
f 70//70 69//69 65//65 
f 48//48 65//65 49//49 
f 70//70 65//65 48//48 
f 71//71 72//72 73//73 
f 46//46 44//44 74//74 
f 75//75 76//76 72//72 
f 76//76 74//74 77//77 
f 72//72 78//78 73//73 
f 43//43 74//74 44//44 
f 77//77 74//74 43//43 
f 76//76 79//79 72//72 
f 78//78 72//72 79//79 
f 77//77 43//43 41//41 
f 77//77 79//79 76//76 
f 59//59 58//58 78//78 
f 41//41 80//80 77//77 
f 79//79 77//77 80//80 
f 79//79 81//81 78//78 
f 81//81 59//59 78//78 
f 80//80 41//41 39//39 
f 80//80 82//82 79//79 
f 81//81 79//79 82//82 
f 39//39 83//83 80//80 
f 82//82 80//80 83//83 
f 82//82 84//84 81//81 
f 30//30 85//85 32//32 
f 30//30 26//26 85//85 
f 28//28 86//86 26//26 
f 85//85 26//26 87//87 
f 86//86 87//87 26//26 
f 86//86 28//28 88//88 
f 87//87 89//89 85//85 
f 87//87 86//86 90//90 
f 88//88 56//56 91//91 
f 89//89 87//87 92//92 
f 90//90 92//92 87//87 
f 88//88 91//91 93//93 
f 93//93 90//90 88//88 
f 86//86 88//88 90//90 
f 92//92 90//90 94//94 
f 89//89 92//92 95//95 
f 92//92 94//94 95//95 
f 96//96 95//95 94//94 
f 97//97 96//96 91//91 
f 93//93 91//91 96//96 
f 96//96 94//94 90//90 
f 90//90 93//93 96//96 
f 95//95 96//96 57//57 
f 96//96 97//97 57//57 
f 70//70 46//46 98//98 
f 75//75 70//70 98//98 
f 70//70 48//48 46//46 
f 71//71 70//70 75//75 
f 71//71 75//75 72//72 
f 97//97 99//99 64//64 
f 63//63 64//64 99//99 
f 99//99 69//69 63//63 
f 71//71 63//63 69//69 
f 73//73 63//63 71//71 
f 73//73 60//60 63//63 
f 58//58 60//60 73//73 
f 99//99 97//97 67//67 
f 69//69 99//99 68//68 
f 71//71 69//69 70//70 
f 67//67 66//66 99//99 
f 68//68 99//99 66//66 
f 74//74 98//98 46//46 
f 74//74 76//76 75//75 
f 75//75 98//98 74//74 
f 78//78 58//58 73//73 
f 37//37 83//83 39//39 
f 37//37 100//100 83//83 
f 82//82 83//83 100//100 
f 100//100 84//84 82//82 
f 35//35 100//100 37//37 
f 84//84 100//100 101//101 
f 81//81 84//84 102//102 
f 102//102 59//59 81//81 
f 34//34 103//103 100//100 
f 100//100 35//35 34//34 
f 101//101 100//100 103//103 
f 102//102 84//84 101//101 
f 103//103 34//34 32//32 
f 103//103 89//89 101//101 
f 102//102 101//101 89//89 
f 32//32 85//85 103//103 
f 85//85 89//89 103//103 
f 89//89 95//95 102//102 
f 95//95 59//59 102//102 
f 57//57 59//59 95//95 
f 56//56 88//88 28//28 
f 56//56 61//61 91//91 
f 61//61 67//67 91//91 
f 97//97 91//91 67//67 
f 97//97 64//64 57//57 
f 60//60 57//57 64//64 
f 104//104 105//105 106//106 
f 107//107 105//105 104//104 
f 107//107 108//108 105//105 
f 109//109 108//108 107//107 
f 108//108 109//109 110//110 
f 111//111 112//112 113//113 
f 111//111 114//114 112//112 
f 115//115 114//114 111//111 
f 115//115 116//116 114//114 
f 117//117 116//116 115//115 
f 117//117 118//118 116//116 
f 119//119 118//118 117//117 
f 119//119 120//120 118//118 
f 121//121 120//120 119//119 
f 122//122 120//120 121//121 
f 122//122 123//123 120//120 
f 124//124 123//123 122//122 
f 124//124 125//125 123//123 
f 124//124 126//126 125//125 
f 127//127 126//126 124//124 
f 127//127 128//128 126//126 
f 129//129 128//128 127//127 
f 129//129 130//130 128//128 
f 131//131 130//130 129//129 
f 131//131 132//132 130//130 
f 133//133 132//132 131//131 
f 133//133 134//134 132//132 
f 135//135 134//134 133//133 
f 135//135 136//136 134//134 
f 137//137 136//136 135//135 
f 137//137 138//138 136//136 
f 113//113 138//138 137//137 
f 113//113 112//112 138//138 
f 24//24 138//138 3//3 
f 24//24 136//136 138//138 
f 24//24 134//134 136//136 
f 23//23 134//134 24//24 
f 21//21 134//134 23//23 
f 21//21 132//132 134//134 
f 21//21 130//130 132//132 
f 19//19 130//130 21//21 
f 19//19 128//128 130//130 
f 17//17 128//128 19//19 
f 17//17 126//126 128//128 
f 15//15 126//126 17//17 
f 15//15 125//125 126//126 
f 15//15 123//123 125//125 
f 13//13 123//123 15//15 
f 13//13 120//120 123//123 
f 11//11 120//120 13//13 
f 11//11 118//118 120//120 
f 9//9 118//118 11//11 
f 8//8 118//118 9//9 
f 8//8 116//116 118//118 
f 6//6 116//116 8//8 
f 6//6 114//114 116//116 
f 1//1 114//114 6//6 
f 1//1 112//112 114//114 
f 3//3 112//112 1//1 
f 3//3 138//138 112//112 
f 137//137 108//108 113//113 
f 135//135 108//108 137//137 
f 135//135 105//105 108//108 
f 133//133 105//105 135//135 
f 131//131 105//105 133//133 
f 131//131 106//106 105//105 
f 129//129 106//106 131//131 
f 127//127 106//106 129//129 
f 127//127 104//104 106//106 
f 124//124 104//104 127//127 
f 122//122 104//104 124//124 
f 122//122 107//107 104//104 
f 121//121 107//107 122//122 
f 121//121 109//109 107//107 
f 119//119 109//109 121//121 
f 117//117 109//109 119//119 
f 117//117 110//110 109//109 
f 115//115 110//110 117//117 
f 111//111 110//110 115//115 
f 113//113 110//110 111//111 
f 110//110 113//113 108//108 
