v -0.01346153859 -0.5384306908 0.9139736295 1 1 1
vn -0.9992544651 -0.0249828212 0.02943502925
v -0.01346145943 -0.5384306908 -0.9139772058 1 1 1
vn -0.9996605515 -0.02499285154 -0.007361795288
v 0.01346146781 -0.5384306908 0.9139736295 1 1 1
vn 0.9996605515 -0.02499287575 0.007361795288
v 0.01346154697 -0.5384306908 -0.9139772058 1 1 1
vn 0.9992544651 -0.02498272434 -0.02943502925
v -0.01346153859 0.5384306908 0.9139772058 1 1 1
vn -0.9996605515 0.02499287575 0.007361708209
v 0.01346146781 0.5384306908 0.9139772058 1 1 1
vn 0.9992544651 0.02498262562 0.02943505906
v -0.01346145943 0.5384306908 -0.9139772058 1 1 1
vn -0.9992544651 0.02498272434 -0.02943505906
v 0.01346154697 0.5384306908 -0.9139772058 1 1 1
vn 0.9996605515 0.02499289997 -0.007361708209
# mm_gid 2
g mmGroup2
f 1//1 2//2 3//3 
f 6//6 1//1 3//3 
f 6//6 3//3 8//8 
f 8//8 5//5 6//6 
f 5//5 1//1 6//6 
f 5//5 2//2 1//1 
f 7//7 2//2 5//5 
f 7//7 5//5 8//8 
f 4//4 7//7 8//8 
f 8//8 3//3 4//4 
f 3//3 2//2 4//4 
f 2//2 7//7 4//4 
