v 0.9897671342 -0.6142225266 -0.1536849737 1 1 1
vn 0.7423459291 -0.597264111 -0.3036413789
v 0.9897671342 0.6142224669 -0.1536849737 1 1 1
vn 0.2957031727 0.9460753798 -0.132291317
v 0.9609968066 -0.5854521394 0.1536849886 1 1 1
vn -0.141924426 0.4470311403 0.8831877708
v -0.9753819704 0.5998372436 0.1536849886 1 1 1
vn -0.2735935152 0.9025729895 0.3324283659
v 0.9139790535 0.5384306908 0.1066653728 1 1 1
vn -0.2726103663 -0.9302580953 0.2455676645
v -0.9897671938 -0.6142225266 -0.1536849737 1 1 1
vn -0.2905521393 -0.922198534 -0.2552044094
v 0.9753819704 0.5998372436 0.1536849886 1 1 1
vn 0.7284883261 0.5799310207 0.3646707535
v -0.9897671938 0.6142224669 -0.1536849737 1 1 1
vn -0.7157962918 0.5835558176 -0.3835338652
v -0.913975358 -0.5384307504 0.1066653728 1 1 1
vn 0.273722142 0.9354032874 0.2238232046
v -0.913975358 -0.5384307504 -0.1536849737 1 1 1
vn 0.7014327645 0.595334053 -0.3918794096
v 0.9139790535 0.5384306908 -0.1536849737 1 1 1
vn -0.645088613 -0.5475114584 -0.5330026746
v 0.9139754176 -0.5384307504 -0.1536849737 1 1 1
vn -0.2647275031 0.8987401724 -0.3495503366
v -0.9753819704 -0.5998373032 0.1536849886 1 1 1
vn -0.7112711072 -0.5662246346 0.4165129662
v 0.9897671342 -0.6142225266 0.1536849886 1 1 1
vn 0.2906507552 -0.952211678 0.09388881177
v 0.9139754176 -0.5384307504 0.1066653728 1 1 1
vn -0.7435446978 0.6270092726 0.2323804498
v -0.913975358 0.5384306908 -0.1536849737 1 1 1
vn 0.2758428156 -0.9364771843 -0.2166129798
v -0.913975358 0.5384306908 0.1066653728 1 1 1
vn 0.7351310849 -0.6185408235 0.2774699032
# mm_gid 1
g mmGroup1
f 12//12 1//1 6//6 
f 14//14 6//6 1//1 
f 7//7 1//1 2//2 
f 14//14 1//1 7//7 
f 14//14 7//7 3//3 
f 3//3 7//7 15//15 
f 9//9 3//3 15//15 
f 12//12 9//9 15//15 
f 15//15 11//11 12//12 
f 11//11 1//1 12//12 
f 11//11 2//2 1//1 
f 8//8 2//2 11//11 
f 4//4 2//2 8//8 
f 7//7 2//2 4//4 
f 7//7 4//4 5//5 
f 15//15 7//7 5//5 
f 5//5 11//11 15//15 
f 5//5 16//16 11//11 
f 16//16 8//8 11//11 
f 16//16 17//17 10//10 
f 10//10 8//8 16//16 
f 10//10 6//6 8//8 
f 12//12 6//6 10//10 
f 10//10 9//9 12//12 
f 10//10 17//17 9//9 
f 9//9 17//17 13//13 
f 13//13 3//3 9//9 
f 14//14 3//3 13//13 
f 13//13 6//6 14//14 
f 13//13 8//8 6//6 
f 4//4 8//8 13//13 
f 13//13 17//17 4//4 
f 5//5 4//4 17//17 
f 17//17 16//16 5//5 
