v -0.2372070104 0.582526207 0.8241809011 1 1 1
vn -0.2058652341 0.9713790417 0.118500188
v -0.2372069359 -0.468013376 -0.9386941195 1 1 1
vn -0.9694268107 -0.01412118506 -0.244973883
v -0.2372070104 -0.5825262666 0.8241809011 1 1 1
vn -0.1157873198 -0.9927148223 0.03332475945
v -0.2372070253 -0.468013376 0.9386937618 1 1 1
vn -0.9676664472 -0.04865282029 0.2474965751
v 0.2372083664 0.468013376 -0.9386941195 1 1 1
vn 0.9694268703 0.01412118506 -0.2449738085
v 0.2372083515 0.582526207 -0.8241811395 1 1 1
vn 0.4103433788 0.9052202106 -0.1104293466
v 0.2372082919 -0.5825262666 0.8241809011 1 1 1
vn 0.2058652639 -0.9713790417 0.1185002327
v -0.2372069359 0.468013376 -0.9386941195 1 1 1
vn -0.9615508318 0.05297232047 -0.2694697678
v -0.2372069508 0.582526207 -0.8241811395 1 1 1
vn -0.2419321984 0.9697468877 -0.03255375102
v 0.2372083664 -0.468013376 -0.9386941195 1 1 1
vn 0.9615508318 -0.05297231674 -0.2694697082
v 0.2372083515 -0.5825262666 -0.8241811395 1 1 1
vn 0.241932258 -0.9697468877 -0.03255373612
v -0.2372069508 -0.5825262666 -0.8241811395 1 1 1
vn -0.4103434384 -0.9052202106 -0.1104294062
v 0.237208277 0.468013376 0.9386937618 1 1 1
vn 0.9676664472 0.04865282401 0.2474966645
v 0.237208277 -0.468013376 0.9386937618 1 1 1
vn 0.9721827507 -0.01347912196 0.2338355184
v 0.2372082919 0.582526207 0.8241809011 1 1 1
vn 0.11578729 0.9927148223 0.03332476318
v -0.2372070253 0.468013376 0.9386937618 1 1 1
vn -0.9721827507 0.01347912196 0.2338354439
# mm_gid 0
g mmGroup0
f 11//11 3//3 12//12 
f 7//7 3//3 11//11 
f 15//15 9//9 1//1 
f 6//6 9//9 15//15 
f 13//13 1//1 16//16 
f 15//15 1//1 13//13 
f 10//10 12//12 2//2 
f 11//11 12//12 10//10 
f 2//2 5//5 10//10 
f 8//8 5//5 2//2 
f 9//9 16//16 1//1 
f 8//8 16//16 9//9 
f 2//2 16//16 8//8 
f 2//2 4//4 16//16 
f 12//12 4//4 2//2 
f 3//3 4//4 12//12 
f 6//6 8//8 9//9 
f 5//5 8//8 6//6 
f 13//13 6//6 15//15 
f 13//13 5//5 6//6 
f 14//14 5//5 13//13 
f 14//14 10//10 5//5 
f 14//14 11//11 10//10 
f 7//7 11//11 14//14 
f 16//16 14//14 13//13 
f 4//4 14//14 16//16 
f 7//7 4//4 3//3 
f 14//14 4//4 7//7 
