v 0.02237365581 -0.4037890434 0.1504090577 1 1 1
vn 0.9008222818 -0.190000087 0.390408963
v -0.02237365767 0.3072373271 0.2648211718 1 1 1
vn -0.8892250061 -0.4121152759 0.1985947192
v -0.02237365767 0.4037890136 0.2648211718 1 1 1
vn -0.8836227059 0.4662668407 0.04249929637
v -0.02237365767 0.4037890136 -0.2648211718 1 1 1
vn -0.9272931814 0.3590346575 -0.1059314832
v -0.02237365767 0.3256547749 -0.2648211718 1 1 1
vn -0.923091054 -0.1704545915 -0.3447436392
v -0.02237365767 -0.4037890434 0.04715994745 1 1 1
vn -0.9617141485 -0.1844063699 -0.2027317286
v -0.02237365767 -0.1063046828 -0.01693593152 1 1 1
vn -0.9129387736 -0.1162918508 -0.3911764026
v -0.02237365767 0.1625696868 -0.1455530077 1 1 1
vn -0.8331736922 -0.2752504349 -0.4796444774
v -0.02237365767 -0.1030666083 0.0902647227 1 1 1
vn -0.9613050818 0.08321911842 0.2626158297
v 0.02237365581 -0.4037890434 0.04715994745 1 1 1
vn 0.9111084342 -0.1494244039 -0.3841272295
v 0.02237365581 -0.1030649394 0.09026405215 1 1 1
vn 0.8675769567 0.15020594 0.4740763903
v 0.02237365581 0.3072373271 0.2648211718 1 1 1
vn 0.7309539914 -0.6775277257 0.08162365854
v 0.02237365581 0.3072373271 -0.135898754 1 1 1
vn 0.9929640293 -0.0580858402 0.1031913459
v 0.02237365581 0.1487844139 -0.02464223653 1 1 1
vn 0.9636997581 0.1288838685 0.2338197976
v 0.02237365581 -0.1062977389 -0.01693891361 1 1 1
vn 0.9139898419 -0.1456467956 -0.3786946237
v 0.02237365581 0.4037890136 0.2648211718 1 1 1
vn 0.962757051 0.254012078 0.09261078387
v 0.02237365581 0.3256547749 -0.2648211718 1 1 1
vn 0.7684093714 -0.2837032676 -0.5736370683
v 0.02237365581 0.1622556895 -0.1453347206 1 1 1
vn 0.9491538405 -0.1566919237 -0.2730468512
v -0.02237365767 -0.4037890434 0.1504090577 1 1 1
vn -0.75551337 0.01855384745 0.6548704505
v -0.02237365767 0.1489281803 -0.02473895438 1 1 1
vn -0.8748662472 0.2338183075 0.4241910279
v -0.02237365767 0.3072373271 -0.135898754 1 1 1
vn -0.9740344882 -0.2206706703 0.05060870945
v 0.02237365581 0.4037890136 -0.2648211718 1 1 1
vn 0.7898505926 0.6116377115 -0.04511520639
# mm_gid 17
g mmGroup17
f 19//19 6//6 1//1 
f 9//9 6//6 19//19 
f 9//9 7//7 6//6 
f 6//6 7//7 10//10 
f 1//1 6//6 10//10 
f 10//10 11//11 1//1 
f 11//11 19//19 1//1 
f 9//9 19//19 11//11 
f 20//20 7//7 9//9 
f 20//20 8//8 7//7 
f 15//15 7//7 8//8 
f 10//10 7//7 15//15 
f 15//15 11//11 10//10 
f 11//11 20//20 9//9 
f 14//14 20//20 11//11 
f 11//11 15//15 14//14 
f 14//14 15//15 18//18 
f 15//15 8//8 18//18 
f 13//13 18//18 17//17 
f 18//18 8//8 17//17 
f 8//8 20//20 21//21 
f 8//8 21//21 5//5 
f 17//17 8//8 5//5 
f 5//5 4//4 17//17 
f 5//5 21//21 4//4 
f 4//4 21//21 3//3 
f 4//4 3//3 22//22 
f 17//17 4//4 22//22 
f 13//13 17//17 22//22 
f 22//22 16//16 13//13 
f 22//22 3//3 16//16 
f 3//3 2//2 16//16 
f 3//3 21//21 2//2 
f 2//2 21//21 12//12 
f 16//16 2//2 12//12 
f 13//13 16//16 12//12 
f 12//12 21//21 13//13 
f 21//21 20//20 13//13 
f 13//13 20//20 14//14 
f 14//14 18//18 13//13 
