v 0.02713668905 -0.4762060046 0.3457966447 1 1 1
vn 0.1584055871 -0.6906837821 0.70559448
v 0.02713668905 -0.4931833148 0.3048094213 1 1 1
vn 0.9975475073 -0.06993413717 0.002856252715
v 0.02713668905 -0.4603856504 -0.3616169989 1 1 1
vn 0.1584066898 -0.7055968642 -0.6906810999
v 0.01284494903 -0.3545291126 -0.2608683109 1 1 1
vn -0.90621382 0.04949937016 0.4199122787
v 0.01284494903 -0.452344805 -0.163053304 1 1 1
vn -0.9987481833 0.04683677852 0.01756200753
v 0.02713668905 -0.419398427 -0.3785943389 1 1 1
vn 0.4612832665 -0.01707997918 -0.8870885372
v 0.02713668905 0.4908355772 0.1848483086 1 1 1
vn 0.9975693226 0.06958703697 0.003623660887
v 0.02713668905 -0.4354161918 0.3735401332 1 1 1
vn 0.774320066 -0.02482316829 0.6323071122
v 0.01284494903 0.377437979 -0.2608683109 1 1 1
vn -0.9141853452 -0.04056025296 0.4032617211
v 0.02713668905 -0.4881289601 -0.3208270371 1 1 1
vn 0.9986456037 -0.05200615525 -0.001523562125
v -0.02713668719 -0.3545291126 0.2608689964 1 1 1
vn -0.9861463308 0.01941937581 -0.164737016
v -0.02713668719 -0.452344805 -0.163053304 1 1 1
vn -0.7112911344 0.6969951391 0.09089931846
v 0.02713668905 0.4908355772 -0.184847638 1 1 1
vn 0.9982210994 0.05894996226 -0.008916217834
v -0.02713668719 0.3825375736 -0.3500251174 1 1 1
vn -0.6988679767 0.4022586346 -0.5914148092
v 0.02713668905 0.4467961192 -0.2911685407 1 1 1
vn 0.7019596696 0.5642488599 -0.4345984459
v 0.02713668905 0.2994369268 -0.3762466013 1 1 1
vn 0.9806502461 0.006969876122 -0.1956438273
v -0.02713668719 0.2994369268 -0.3762466013 1 1 1
vn -0.8967158198 0.01575801335 -0.4423261285
v -0.02713668719 -0.419398427 -0.3785943389 1 1 1
vn -0.9097782373 -0.00799074024 -0.4150176942
v -0.02713668719 -0.452344805 0.163053304 1 1 1
vn -0.925317347 0.3550545871 -0.1331316084
v -0.02713668719 -0.4881289601 -0.3208270371 1 1 1
vn -0.8514655232 -0.5224995613 -0.0447283648
v -0.02713668719 -0.4354161918 0.3735401332 1 1 1
vn -0.7294613123 -0.02683272958 0.6834955812
v -0.02713668719 0.3825375736 0.3500250876 1 1 1
vn -0.6988649964 0.3110534549 0.6440756917
v -0.02713668719 0.4467961192 0.2911691964 1 1 1
vn -0.6926322579 0.571436584 0.4401372671
v -0.02713668719 0.4592925906 0.1790144295 1 1 1
vn -0.408508271 -0.9079893231 -0.09314714372
v 0.02713668905 0.4467961192 0.2911691964 1 1 1
vn 0.6670137048 0.649751544 0.3645759523
v 0.01284494903 -0.452344805 0.163053304 1 1 1
vn -0.9992320538 0.03885374591 -0.005067145452
v -0.02713668719 -0.4762060046 0.3457966447 1 1 1
vn -0.8787955046 -0.394380331 0.268668294
v -0.02713668719 0.377437979 0.2608689964 1 1 1
vn -0.8591162562 -0.05121670291 -0.5092113018
v -0.02713668719 0.2994369268 0.3762468994 1 1 1
vn -0.9692780972 0.007068309002 0.2458658367
v -0.02713668719 0.4908355772 0.1848483086 1 1 1
vn -0.735719502 0.6696697474 0.1012879685
v 0.02713668905 0.2994369268 0.3762468994 1 1 1
vn 0.9945321083 0.003001018427 0.1043881774
v 0.02713668905 0.3825375736 0.3500250876 1 1 1
vn 0.2248987108 0.5479921699 0.8056830168
v -0.02713668719 0.4592925906 -0.179013744 1 1 1
vn -0.7655470967 -0.6138696074 0.1926182359
v -0.02713668719 -0.3545291126 -0.2608683109 1 1 1
vn -0.9489023685 0.03694365546 0.3133998513
v 0.02713668905 0.3825375736 -0.3500251174 1 1 1
vn 0.224903211 0.4237442613 -0.8774163127
v -0.02713668719 0.377437979 -0.2608683109 1 1 1
vn -0.9583910704 -0.02856742032 0.2840255201
v -0.02713668719 0.4467961192 -0.2911685407 1 1 1
vn -0.6573336124 0.6572121382 -0.3687610924
v -0.02713668719 0.4908355772 -0.184847638 1 1 1
vn -0.4541546404 0.8897174001 -0.0463309586
v -0.02713668719 -0.4931833148 0.3048094213 1 1 1
vn -0.5736804008 -0.819067657 0.004353496712
v 0.01284494903 -0.3545291126 0.2608689964 1 1 1
vn -0.7311220169 0.07987094671 -0.6775553226
v -0.02713668719 -0.4603856504 -0.3616169989 1 1 1
vn -0.8752652407 -0.2722975612 -0.3997059464
v 0.01284494903 0.4592925906 -0.179013744 1 1 1
vn -0.9989510775 -0.04555148631 0.004672951996
v 0.01284494903 0.4592925906 0.1790144295 1 1 1
vn -0.998526752 -0.05177265778 -0.01624507643
v 0.01284494903 0.377437979 0.2608689964 1 1 1
vn -0.976301074 -0.02165800892 -0.2153301984
# mm_gid 10
g mmGroup10
f 2//2 27//27 39//39 
f 1//1 27//27 2//2 
f 2//2 8//8 1//1 
f 1//1 21//21 27//27 
f 8//8 21//21 1//1 
f 11//11 28//28 40//40 
f 11//11 29//29 28//28 
f 11//11 21//21 29//29 
f 11//11 27//27 21//21 
f 11//11 39//39 27//27 
f 2//2 31//31 8//8 
f 31//31 21//21 8//8 
f 29//29 21//21 31//31 
f 22//22 31//31 32//32 
f 22//22 32//32 23//23 
f 23//23 32//32 25//25 
f 30//30 25//25 7//7 
f 23//23 25//25 30//30 
f 28//28 23//23 30//30 
f 22//22 23//23 28//28 
f 28//28 29//29 22//22 
f 29//29 31//31 22//22 
f 31//31 25//25 32//32 
f 31//31 7//7 25//25 
f 7//7 38//38 30//30 
f 36//36 14//14 17//17 
f 37//37 14//14 36//36 
f 36//36 38//38 37//37 
f 36//36 9//9 33//33 
f 33//33 38//38 36//36 
f 30//30 38//38 33//33 
f 24//24 30//30 33//33 
f 28//28 30//30 24//24 
f 43//43 28//28 24//24 
f 43//43 26//26 44//44 
f 44//44 28//28 43//43 
f 40//40 28//28 44//44 
f 44//44 26//26 40//40 
f 12//12 20//20 19//19 
f 26//26 12//12 19//19 
f 19//19 40//40 26//26 
f 11//11 40//40 19//19 
f 19//19 39//39 11//11 
f 19//19 20//20 39//39 
f 10//10 20//20 3//3 
f 3//3 20//20 41//41 
f 3//3 41//41 6//6 
f 6//6 41//41 18//18 
f 10//10 3//3 6//6 
f 10//10 39//39 20//20 
f 2//2 39//39 10//10 
f 10//10 31//31 2//2 
f 10//10 7//7 31//31 
f 10//10 13//13 7//7 
f 13//13 38//38 7//7 
f 13//13 37//37 38//38 
f 15//15 37//37 13//13 
f 15//15 14//14 37//37 
f 35//35 14//14 15//15 
f 35//35 17//17 14//14 
f 16//16 17//17 35//35 
f 36//36 17//17 34//34 
f 34//34 9//9 36//36 
f 4//4 34//34 5//5 
f 4//4 9//9 34//34 
f 4//4 5//5 9//9 
f 9//9 5//5 42//42 
f 33//33 9//9 42//42 
f 42//42 24//24 33//33 
f 43//43 24//24 42//42 
f 42//42 26//26 43//43 
f 42//42 5//5 26//26 
f 5//5 12//12 26//26 
f 5//5 34//34 12//12 
f 34//34 20//20 12//12 
f 34//34 41//41 20//20 
f 18//18 41//41 34//34 
f 34//34 17//17 18//18 
f 17//17 6//6 18//18 
f 16//16 6//6 17//17 
f 16//16 10//10 6//6 
f 16//16 13//13 10//10 
f 15//15 13//13 16//16 
f 16//16 35//35 15//15 
