v -0.02237365767 -0.01542901155 0.2101569772 1 1 1
vn -0.8954132199 0.2891124189 0.3385988474
v -0.02237365767 0.03990441561 0.1138533354 1 1 1
vn -0.9720714092 0.1035190076 0.2106205672
v -0.02237365767 -0.0635818243 0.1297816634 1 1 1
vn -0.901676774 -0.294954896 -0.3161970079
v -0.02237365767 -0.1891015917 0.1637074798 1 1 1
vn -0.9609932899 0.04408081248 -0.2730363309
v -0.02237365767 -0.1196673512 0.1589894891 1 1 1
vn -0.9403172135 -0.09504780918 -0.3267559707
v -0.02237365767 -0.2409073263 0.2576981783 1 1 1
vn -0.8738604784 -0.1219834015 0.4706250429
v -0.02237365767 -0.3213797212 0.06447117776 1 1 1
vn -0.9154393673 0.3554305732 -0.1887852103
v -0.02237365767 -0.4177419543 3.449570443e-07 1 1 1
vn -0.8998034596 -0.4361636341 0.01072439458
v -0.02237365767 -0.3926494122 0.1152850538 1 1 1
vn -0.9058936834 -0.3894256353 0.166446209
v -0.02237365767 -0.3927627206 -0.1152471006 1 1 1
vn -0.8759064078 -0.4520339668 -0.1686809659
v -0.02237365767 -0.3185112774 -0.07155424356 1 1 1
vn -0.9178600907 0.3684479594 0.1475770175
v -0.02237365767 -0.3351428211 -0.001115884865 1 1 1
vn -0.7595667243 0.6498445272 -0.02757732756
v -0.02237365767 -0.2756900489 -0.1301913559 1 1 1
vn -0.8832636476 0.2825909555 0.3741492033
v -0.02237365767 -0.3269370198 -0.2111102343 1 1 1
vn -0.867218852 -0.3465546668 -0.3575350344
v -0.02237365767 -0.1952320933 -0.1632371247 1 1 1
vn -0.967951417 0.01710665971 0.2505543232
v -0.02237365767 -0.1699431539 -0.2695646584 1 1 1
vn -0.8478565812 0.0370637551 -0.5289285779
v -0.02237365767 -0.2427552491 -0.2575394809 1 1 1
vn -0.8603736758 -0.1570887268 -0.4848507643
v -0.02237365767 -0.07035738975 -0.2452814877 1 1 1
vn -0.9353951216 0.1575876176 -0.3165471554
v -0.02237365767 0.1248493716 -0.1035992056 1 1 1
vn -0.8149491549 0.3568900824 0.4566041231
v -0.02237365767 0.009482664056 -0.1794784516 1 1 1
vn -0.9021154642 0.3237184882 -0.2852963507
v -0.02237365767 -0.09974890202 -0.1494215131 1 1 1
vn -0.9212793708 -0.1562845409 0.3561171889
v 0.02237365581 -0.01104108151 -0.04720035568 1 1 1
vn 0.9127738476 -0.3804372847 0.1486987919
v 0.02237365581 -0.2111773044 -0.1604442298 1 1 1
vn 0.9666045904 0.0657851398 0.247685045
v 0.02237365581 -0.1217626706 -0.1593313068 1 1 1
vn 0.935267508 -0.07278555632 0.3463769257
v -0.02237365767 0.0914440304 0.05688858032 1 1 1
vn -0.9544978738 0.2681208849 -0.1305567026
v -0.02237365767 0.2886548638 0.1039384156 1 1 1
vn -0.8947535753 -0.2725276649 -0.3537579477
v -0.02237365767 0.07841411978 -0.0005581025616 1 1 1
vn -0.7890520692 0.6141269207 -0.01565148309
v 0.02237365581 -0.1514030993 0.1646156907 1 1 1
vn 0.943138957 -0.02430185117 -0.3315092325
v 0.02237365581 0.03990441561 0.1138533354 1 1 1
vn 0.9911835194 0.05067011341 0.1224245578
v -0.02237365767 0.333830446 0.01378365513 1 1 1
vn -0.8780683279 -0.4780410528 -0.02174239606
v -0.02237365767 0.4177419245 0.001674362691 1 1 1
vn -0.8693234921 0.4940760434 -0.01286603324
v -0.02237365767 0.3203512132 0.06330923736 1 1 1
vn -0.8864327669 -0.4138118029 -0.207356602
v 0.02237365581 0.4087355435 -0.06832164526 1 1 1
vn 0.850666523 0.5077186227 -0.1363388896
v 0.02237365581 0.3609694839 -0.1583031714 1 1 1
vn 0.886476934 0.3685763478 -0.2798394561
v 0.02237365581 0.06559960544 -0.16585581 1 1 1
vn 0.8945618272 -0.3575979471 -0.268109709
v 0.02237365581 0.2867334187 -0.2196608037 1 1 1
vn 0.8351510167 0.267963618 -0.4803314209
v 0.02237365581 0.1712146848 0.1282351762 1 1 1
vn 0.8802959919 0.1280394495 -0.456820339
v 0.02237365581 0.0796764046 -0.01374653075 1 1 1
vn 0.9058250189 0.4195795059 0.0586014539
v 0.02237365581 0.09305097163 -0.0632436201 1 1 1
vn 0.9069920778 0.3650467396 0.2100149989
v 0.02237365581 -0.2306834012 0.1535212994 1 1 1
vn 0.946777761 0.1055878997 -0.3040774763
v 0.02237365581 -0.2866605818 0.1204811707 1 1 1
vn 0.9026466608 0.3185935616 -0.2893564403
v -0.02237365767 0.2039878815 -0.2360790074 1 1 1
vn -0.7986955643 -0.06001920253 -0.5987345576
v 0.02237365581 -0.3213797212 0.06447084993 1 1 1
vn 0.9480977058 0.3047735095 -0.09068523347
v -0.02237365767 0.1861077845 -0.1298212111 1 1 1
vn -0.9708084464 0.0283588618 0.2381736487
v -0.02237365767 0.06570696086 -0.1660075039 1 1 1
vn -0.8859207034 -0.330531925 -0.3254123032
v 0.02237365581 0.2403692305 0.1283578873 1 1 1
vn 0.9698757529 -0.06734519452 -0.2341061532
v 0.02237365581 -0.005322163459 0.01860001497 1 1 1
vn 0.8607483506 -0.5058641434 -0.0566893518
v 0.02237365581 0.002474577865 0.1913357228 1 1 1
vn 0.7908291221 0.4999628961 0.3530246615
v 0.02237365581 0.3338314295 0.01377669908 1 1 1
vn 0.8794764876 -0.4741200507 -0.04160824791
v 0.02237365581 -0.03934669495 -0.230218336 1 1 1
vn 0.7862012386 0.3767881095 -0.4898146093
v 0.02237365581 -0.101431042 -0.260363847 1 1 1
vn 0.9093542099 0.09648875892 -0.4046786129
v 0.02237365581 0.009550867602 -0.1793777794 1 1 1
vn 0.9045687914 0.3633212745 -0.2230536342
v 0.02237365581 -0.3896251917 -0.1283013672 1 1 1
vn 0.8500937819 -0.4612603486 -0.2541249096
v 0.02237365581 -0.4072646201 0.07944624126 1 1 1
vn 0.757250011 -0.6386289001 0.1368414462
v 0.02237365581 -0.3263947964 0.2111489922 1 1 1
vn 0.9512555003 -0.2040462345 0.2312532961
v -0.02237365767 0.2667333484 -0.2252890021 1 1 1
vn -0.9151850939 0.1273434609 -0.3823870718
v -0.02237365767 0.3389710784 -0.1845177263 1 1 1
vn -0.8736403584 0.3288579285 -0.3586153686
v -0.02237365767 0.237841472 0.2314071059 1 1 1
vn -0.8139123321 0.03861085325 0.5797032714
v -0.02237365767 0.3404970467 0.1860467046 1 1 1
vn -0.8450231552 0.3402628303 0.4125010669
v -0.02237365767 0.2427800596 -0.1266806871 1 1 1
vn -0.9698423147 -0.06303307414 0.2354414761
v -0.02237365767 0.2283712327 0.1307672262 1 1 1
vn -0.969180584 -0.03163543716 -0.2443117201
v -0.02237365767 0.06563672423 0.1654212475 1 1 1
vn -0.8627101779 -0.3618339598 0.3532807827
v -0.02237365767 -0.2687641084 0.1332131624 1 1 1
vn -0.9264695644 0.2163799554 -0.3079511225
v -0.02237365767 0.129349038 0.2180543989 1 1 1
vn -0.9454950094 -0.1165171191 0.3040772676
v -0.02237365767 0.3960621953 -0.09997327626 1 1 1
vn -0.862658143 0.4598204195 -0.2106800377
v -0.02237365767 0.03990441561 -0.11552798 1 1 1
vn -0.9845181108 0.04097427055 -0.1704263538
v -0.02237365767 -0.04078917578 -0.1050754711 1 1 1
vn -0.8645635247 -0.4124647677 0.2870586812
v -0.02237365767 0.09144404531 -0.05688838661 1 1 1
vn -0.9165632129 0.3722943068 0.1459756047
v -0.02237365767 -0.007337167859 -0.02249222063 1 1 1
vn -0.9508657455 -0.3078533113 0.03287399933
v 0.02237365581 -0.264502883 0.2514015734 1 1 1
vn 0.8020136356 -0.251860708 0.5416089892
v 0.02237365581 -0.1947056055 -0.2667224109 1 1 1
vn 0.8573515415 -0.04575606808 -0.5126936436
v -0.02237365767 0.287199825 -0.1027565598 1 1 1
vn -0.9256929755 -0.2367100567 0.295060873
v -0.02237365767 0.3214684129 -0.0558789745 1 1 1
vn -0.9203125834 -0.3562415838 0.1616067439
v -0.02237365767 0.1258506328 0.1047449559 1 1 1
vn -0.8627692461 0.3140601814 -0.3962264657
v -0.02237365767 0.1711865366 0.1282265484 1 1 1
vn -0.9646810293 0.06480766088 -0.2553243637
v -0.02237365767 0.1284716129 -0.2176085413 1 1 1
vn -0.9190713763 -0.17813389 -0.3515339792
v 0.02237365581 -0.3164782226 -0.07948297262 1 1 1
vn 0.9126083255 0.3525139689 0.2070747316
v 0.02237365581 0.173938036 -0.1275244802 1 1 1
vn 0.9619657397 0.07248889655 0.2633766532
v 0.02237365581 0.08392239362 0.03907839581 1 1 1
vn 0.9147874117 0.3885125518 -0.1105532721
v 0.02237365581 0.1284875423 -0.2176131755 1 1 1
vn 0.775727272 -0.264727056 -0.5728584528
v 0.02237365581 0.4158403575 0.02511953562 1 1 1
vn 0.8811075687 0.4691595137 0.0594874993
v 0.02237365581 0.3405185342 0.1860274822 1 1 1
vn 0.9421052933 0.2154561132 0.2569363117
v 0.02237365581 -0.08387554437 0.1423873007 1 1 1
vn 0.9483762383 -0.1664748043 -0.2699418962
v 0.02237365581 -0.2758106291 -0.1300923079 1 1 1
vn 0.964727819 0.1604569107 0.2086956203
v 0.02237365581 0.2886555195 0.1039380804 1 1 1
vn 0.9685948491 -0.1568451077 -0.1929341406
v 0.02237365581 0.329210192 -0.0384020023 1 1 1
vn 0.9048839808 -0.4112718403 0.1097291484
v 0.02237365581 0.3004232943 -0.08811008185 1 1 1
vn 0.9244744182 -0.2843576372 0.2539444566
v 0.02237365581 -0.065184623 0.2447442561 1 1 1
vn 0.8761549592 0.1860887408 0.4446610808
v 0.02237365581 -0.3269840479 -0.2110694647 1 1 1
vn 0.9503837228 -0.2193525881 -0.2205793411
v 0.02237365581 -0.377566874 0.1516395956 1 1 1
vn 0.8411123157 -0.4541653693 0.2937071025
v 0.02237365581 -0.4154346585 -0.02690680325 1 1 1
vn 0.8983469605 -0.4355117381 -0.057465069
v 0.02237365581 -0.1922243834 0.2667820156 1 1 1
vn 0.9017628431 -0.0008424727712 0.4322303534
v 0.02237365581 -0.2660391033 -0.2512001395 1 1 1
vn 0.8063848615 -0.2522546351 -0.5348935127
v 0.02237365581 0.3202763796 0.06339767575 1 1 1
vn 0.8763933778 -0.4305675924 -0.2157456279
v 0.02237365581 -0.02262640558 0.07981787622 1 1 1
vn 0.9143887162 -0.3364104927 -0.2252137214
v 0.02237365581 0.2427774221 -0.1266813427 1 1 1
vn 0.9396417141 -0.09594089538 0.3284338117
v 0.02237365581 0.03990441561 -0.11552798 1 1 1
vn 0.9957576394 0.02157976665 -0.08944842964
v 0.02237365581 0.1124560237 0.08979324251 1 1 1
vn 0.9300627708 0.2746888399 -0.2439862639
v 0.02237365581 0.1248261705 -0.1035796627 1 1 1
vn 0.9410574436 0.2104439735 0.2648096979
v 0.02237365581 -0.3335042 -0.0176178962 1 1 1
vn 0.7710102797 0.6336347461 0.06364071369
v 0.02237365581 0.1293772012 0.218062669 1 1 1
vn 0.8461180925 -0.1765666604 0.5028999448
v 0.02237365581 0.2583347559 0.2274177969 1 1 1
vn 0.8318665028 0.1328979582 0.5388286114
v 0.02237365581 0.3939920664 0.1136612222 1 1 1
vn 0.8483204842 0.4664148092 0.2506183088
v 0.02237365581 0.2253307253 -0.233500421 1 1 1
vn 0.9227321148 0.01523606945 -0.3851405978
v 0.02237365581 -0.05920632929 -0.1222613156 1 1 1
vn 0.8765124083 -0.3263388574 0.3538769782
v -0.02237365767 0.3966569304 0.1022597626 1 1 1
vn -0.8979719281 0.4136307538 0.1501864642
v 0.02237365581 0.06551414728 0.1652443707 1 1 1
vn 0.9057812095 -0.340697825 0.2519631684
v -0.02237365767 -0.1319535077 0.2649563551 1 1 1
vn -0.8841947317 0.0904533565 0.4582770467
v -0.02237365767 -0.02057394944 0.07198818773 1 1 1
vn -0.89540869 -0.4209646285 -0.1450242698
v -0.02237365767 -0.3263010681 0.2112288028 1 1 1
vn -0.8856359124 -0.3133965433 0.3426830769
# mm_gid 18
g mmGroup18
f 108//108 4//4 6//6 
f 92//92 108//108 6//6 
f 92//92 6//6 70//70 
f 40//40 92//92 70//70 
f 6//6 4//4 110//110 
f 9//9 7//7 8//8 
f 99//99 19//19 39//39 
f 39//39 19//19 68//68 
f 30//30 31//31 73//73 
f 45//45 19//19 44//44 
f 45//45 44//44 76//76 
f 80//80 45//45 76//76 
f 78//78 80//80 104//104 
f 80//80 42//42 104//104 
f 80//80 76//76 42//42 
f 76//76 44//44 42//42 
f 42//42 44//44 56//56 
f 104//104 42//42 56//56 
f 104//104 56//56 36//36 
f 36//36 56//56 57//57 
f 36//36 57//57 34//34 
f 96//96 36//36 34//34 
f 96//96 104//104 36//36 
f 78//78 104//104 96//96 
f 96//96 44//44 78//78 
f 96//96 60//60 44//44 
f 56//56 44//44 60//60 
f 60//60 57//57 56//56 
f 96//96 72//72 60//60 
f 72//72 57//57 60//60 
f 72//72 65//65 57//57 
f 34//34 57//57 65//65 
f 96//96 34//34 87//87 
f 87//87 72//72 96//96 
f 34//34 65//65 33//33 
f 87//87 34//34 33//33 
f 87//87 73//73 72//72 
f 73//73 65//65 72//72 
f 87//87 33//33 86//86 
f 86//86 73//73 87//87 
f 73//73 31//31 65//65 
f 33//33 65//65 31//31 
f 33//33 31//31 81//81 
f 86//86 33//33 81//81 
f 86//86 30//30 73//73 
f 49//49 30//30 86//86 
f 86//86 81//81 49//49 
f 30//30 106//106 31//31 
f 81//81 31//31 106//106 
f 49//49 81//81 94//94 
f 94//94 30//30 49//49 
f 94//94 32//32 30//30 
f 32//32 106//106 30//30 
f 81//81 106//106 103//103 
f 94//94 81//81 103//103 
f 94//94 26//26 32//32 
f 26//26 106//106 32//32 
f 59//59 26//26 61//61 
f 106//106 26//26 59//59 
f 103//103 106//106 59//59 
f 94//94 103//103 85//85 
f 85//85 26//26 94//94 
f 85//85 103//103 82//82 
f 103//103 59//59 82//82 
f 85//85 82//82 46//46 
f 46//46 26//26 85//85 
f 46//46 61//61 26//26 
f 82//82 59//59 102//102 
f 102//102 59//59 58//58 
f 59//59 61//61 58//58 
f 46//46 82//82 102//102 
f 102//102 58//58 101//101 
f 46//46 102//102 101//101 
f 58//58 61//61 64//64 
f 101//101 58//58 64//64 
f 46//46 101//101 37//37 
f 37//37 61//61 46//46 
f 37//37 75//75 61//61 
f 64//64 61//61 75//75 
f 64//64 75//75 62//62 
f 64//64 62//62 101//101 
f 101//101 62//62 107//107 
f 37//37 101//101 107//107 
f 37//37 74//74 75//75 
f 62//62 75//75 74//74 
f 62//62 74//74 2//2 
f 107//107 62//62 2//2 
f 107//107 2//2 29//29 
f 98//98 107//107 29//29 
f 37//37 107//107 98//98 
f 98//98 74//74 37//37 
f 3//3 1//1 2//2 
f 29//29 83//83 95//95 
f 83//83 3//3 95//95 
f 95//95 3//3 109//109 
f 3//3 2//2 109//109 
f 98//98 29//29 95//95 
f 98//98 25//25 74//74 
f 2//2 74//74 25//25 
f 109//109 2//2 25//25 
f 95//95 109//109 47//47 
f 79//79 95//95 47//47 
f 98//98 95//95 79//79 
f 79//79 25//25 98//98 
f 25//25 69//69 109//109 
f 47//47 109//109 69//69 
f 79//79 27//27 25//25 
f 27//27 69//69 25//25 
f 38//38 68//68 27//27 
f 69//69 27//27 68//68 
f 47//47 69//69 22//22 
f 38//38 47//47 22//22 
f 79//79 47//47 38//38 
f 38//38 27//27 79//79 
f 38//38 22//22 39//39 
f 39//39 68//68 38//38 
f 105//105 97//97 22//22 
f 22//22 67//67 105//105 
f 22//22 69//69 67//67 
f 22//22 97//97 39//39 
f 97//97 99//99 39//39 
f 97//97 66//66 35//35 
f 35//35 99//99 97//97 
f 99//99 35//35 78//78 
f 78//78 19//19 99//99 
f 78//78 44//44 19//19 
f 78//78 35//35 80//80 
f 35//35 45//45 80//80 
f 35//35 66//66 45//45 
f 66//66 19//19 45//45 
f 66//66 68//68 19//19 
f 69//69 68//68 66//66 
f 66//66 67//67 69//69 
f 105//105 67//67 21//21 
f 105//105 52//52 97//97 
f 52//52 66//66 97//97 
f 52//52 20//20 66//66 
f 20//20 67//67 66//66 
f 20//20 21//21 67//67 
f 18//18 21//21 20//20 
f 71//71 16//16 51//51 
f 17//17 15//15 16//16 
f 16//16 15//15 18//18 
f 51//51 16//16 18//18 
f 51//51 18//18 50//50 
f 24//24 51//51 50//50 
f 105//105 21//21 24//24 
f 24//24 52//52 105//105 
f 24//24 50//50 52//52 
f 50//50 20//20 52//52 
f 18//18 20//20 50//50 
f 18//18 15//15 21//21 
f 24//24 21//21 15//15 
f 24//24 15//15 23//23 
f 23//23 51//51 24//24 
f 23//23 71//71 51//51 
f 71//71 17//17 16//16 
f 93//93 17//17 71//71 
f 93//93 14//14 17//17 
f 14//14 15//15 17//17 
f 23//23 93//93 71//71 
f 23//23 89//89 93//93 
f 89//89 14//14 93//93 
f 14//14 13//13 15//15 
f 23//23 15//15 13//13 
f 23//23 13//13 84//84 
f 84//84 89//89 23//23 
f 84//84 53//53 89//89 
f 53//53 14//14 89//89 
f 53//53 10//10 14//14 
f 10//10 13//13 14//14 
f 10//10 11//11 13//13 
f 77//77 13//13 11//11 
f 84//84 13//13 77//77 
f 77//77 53//53 84//84 
f 100//100 11//11 12//12 
f 100//100 91//91 77//77 
f 77//77 11//11 100//100 
f 77//77 91//91 53//53 
f 91//91 10//10 53//53 
f 91//91 8//8 10//10 
f 8//8 11//11 10//10 
f 8//8 12//12 11//11 
f 8//8 7//7 12//12 
f 43//43 12//12 7//7 
f 100//100 12//12 43//43 
f 43//43 91//91 100//100 
f 43//43 54//54 91//91 
f 54//54 8//8 91//91 
f 54//54 9//9 8//8 
f 9//9 63//63 7//7 
f 41//41 7//7 63//63 
f 55//55 110//110 90//90 
f 41//41 55//55 90//90 
f 41//41 90//90 43//43 
f 43//43 7//7 41//41 
f 43//43 90//90 54//54 
f 90//90 9//9 54//54 
f 90//90 110//110 9//9 
f 110//110 63//63 9//9 
f 41//41 63//63 40//40 
f 40//40 55//55 41//41 
f 110//110 4//4 63//63 
f 40//40 63//63 4//4 
f 40//40 70//70 55//55 
f 70//70 110//110 55//55 
f 70//70 6//6 110//110 
f 40//40 4//4 28//28 
f 28//28 92//92 40//40 
f 28//28 88//88 92//92 
f 88//88 108//108 92//92 
f 108//108 5//5 4//4 
f 28//28 4//4 5//5 
f 1//1 108//108 88//88 
f 1//1 5//5 108//108 
f 28//28 5//5 83//83 
f 88//88 28//28 83//83 
f 88//88 83//83 48//48 
f 48//48 1//1 88//88 
f 1//1 3//3 5//5 
f 83//83 5//5 3//3 
f 48//48 2//2 1//1 
f 29//29 2//2 48//48 
f 48//48 83//83 29//29 
