v -0.3373630047 1.425316987e-05 -0.008834457956 1 1 1
vn -0.9024862051 0.4180296957 0.1037777364
v 0.2965824306 -0.1348258853 -0.1610311568 1 1 1
vn 0.7540792227 -0.534250617 -0.382022053
v 0.2877479792 -0.1348258853 0.1763321608 1 1 1
vn 0.441572547 -0.8736257553 0.2044301629
v 0.1610308439 -0.1348258853 0.296582073 1 1 1
vn 0.1399295181 -0.9642568231 0.2250077277
v 0.1763321608 -0.1348258853 -0.2877479792 1 1 1
vn 0.1614367962 -0.9473084211 -0.2766674757
v 0.2258574218 1.425316987e-05 -0.2439125329 1 1 1
vn 0.6464796662 0.4682257771 -0.6023526192
v 0.0532492362 1.425316987e-05 -0.3362003863 1 1 1
vn 0.2497797161 0.3823634088 -0.8896113038
v -0.07878275961 1.425316987e-05 -0.3281542659 1 1 1
vn -0.2394853532 0.4568714499 -0.8566885591
v -0.2323047221 1.425316987e-05 -0.2447985709 1 1 1
vn -0.6377409101 0.4069370627 -0.6539791822
v -0.3109616339 1.425316987e-05 -0.1384498328 1 1 1
vn -0.8171929717 0.447008878 -0.3638388216
v -0.1428087652 0.1348258853 0.135520488 1 1 1
vn -0.3242743015 0.9048855305 0.2757324874
v 0.1887686998 0.1348258853 0.05591559783 1 1 1
vn 0.2963933647 0.9400543571 0.1686677933
v -0.1069869995 0.1348258853 -0.1698861569 1 1 1
vn -0.2275118381 0.8958118558 -0.3817845583
v 0.1698861718 0.1348258853 -0.1069871709 1 1 1
vn 0.3166378438 0.9342005253 -0.1643468589
v -0.00883444678 -0.1348258853 0.3373630047 1 1 1
vn -0.001133419806 -0.9767071009 0.2145739645
v -0.1763314903 -0.1348258853 0.2877476513 1 1 1
vn -0.2042575926 -0.9368936419 0.2837413251
v -0.3119735122 -0.1348258853 -0.1147908494 1 1 1
vn -0.5577096343 -0.804576993 -0.2039995342
v 0.2877479792 1.425316987e-05 0.1763321608 1 1 1
vn 0.7125769854 0.4449425936 0.5424574614
v 0.098305583 1.425316987e-05 0.3175541461 1 1 1
vn 0.3441324234 0.5084238052 0.7893529534
v 0.3321769536 1.425316987e-05 -0.01276726928 1 1 1
vn 0.8999521732 0.4266347587 -0.08982666582
v 0.3373630047 -0.1348258853 0.008833801374 1 1 1
vn 0.9594120383 -0.2808865905 0.02512388118
v -0.3017684519 -0.1348258853 0.139429599 1 1 1
vn -0.8656966686 -0.4135707915 0.2820079327
v -0.161030829 -0.1348258853 -0.2965821028 1 1 1
vn -0.1320070922 -0.9698883891 -0.204671964
v 0.008834475651 -0.1348258853 -0.3373633325 1 1 1
vn 0.0003162836365 -0.9820911288 -0.1884063631
v 0.04447638243 0.1348258853 -0.1957789063 1 1 1
vn 0.1491418183 0.7939386368 -0.5894219279
v -0.1957787573 0.1348258853 -0.0444761999 1 1 1
vn -0.2777131498 0.9579418898 -0.0722688511
v 0.04595961049 0.1348258853 0.1914359033 1 1 1
vn 0.08443424851 0.8509718776 0.5183799267
v -0.2812903821 1.425316987e-05 0.1771449894 1 1 1
vn -0.7309195995 0.4081883132 0.5469358563
v -0.09584885836 1.425316987e-05 0.3235810101 1 1 1
vn -0.2833469212 0.5004727244 0.8180718422
# mm_gid 21
g mmGroup21
f 7//7 25//25 6//6 
f 5//5 7//7 6//6 
f 4//4 24//24 5//5 
f 24//24 7//7 5//5 
f 24//24 8//8 7//7 
f 8//8 25//25 7//7 
f 8//8 13//13 25//25 
f 13//13 14//14 25//25 
f 6//6 25//25 14//14 
f 6//6 14//14 20//20 
f 2//2 20//20 21//21 
f 2//2 6//6 20//20 
f 5//5 6//6 2//2 
f 3//3 5//5 2//2 
f 12//12 26//26 11//11 
f 1//1 11//11 26//26 
f 22//22 28//28 1//1 
f 28//28 11//11 1//1 
f 22//22 1//1 17//17 
f 12//12 11//11 27//27 
f 19//19 12//12 27//27 
f 18//18 12//12 19//19 
f 4//4 18//18 19//19 
f 3//3 18//18 4//4 
f 4//4 5//5 3//3 
f 4//4 19//19 15//15 
f 15//15 24//24 4//4 
f 26//26 14//14 13//13 
f 14//14 26//26 12//12 
f 20//20 14//14 12//12 
f 21//21 20//20 3//3 
f 3//3 2//2 21//21 
f 3//3 20//20 18//18 
f 20//20 12//12 18//18 
f 1//1 26//26 10//10 
f 17//17 1//1 10//10 
f 29//29 11//11 28//28 
f 29//29 27//27 11//11 
f 19//19 27//27 29//29 
f 15//15 19//19 29//29 
f 15//15 23//23 24//24 
f 23//23 8//8 24//24 
f 23//23 9//9 8//8 
f 9//9 13//13 8//8 
f 9//9 26//26 13//13 
f 10//10 26//26 9//9 
f 17//17 10//10 9//9 
f 17//17 16//16 22//22 
f 16//16 28//28 22//22 
f 16//16 29//29 28//28 
f 15//15 29//29 16//16 
f 16//16 23//23 15//15 
f 17//17 9//9 23//23 
f 23//23 16//16 17//17 
