v -0.01792131737 -0.3826589882 -0.1226094589 1 1 1
vn -0.9439718723 -0.2766764462 -0.1799089313
v -0.01792131737 -0.3292536139 -0.02176173963 1 1 1
vn -0.9211469293 0.3847129941 0.05902731046
v -0.01792131737 -0.4031529427 0.07844590396 1 1 1
vn -0.8991963267 -0.4197267592 0.1235938817
v -0.01792131737 -0.4162221253 6.602902886e-06 1 1 1
vn -0.8977418542 -0.437761277 -0.04924073443
v -0.01792131737 -0.2833489776 0.1014753878 1 1 1
vn -0.9756829739 0.1249126419 -0.1801099777
v -0.01792131737 0.0012405999 -0.1635183692 1 1 1
vn -0.8568790555 -0.002994116163 0.5155088305
v 0.01792131551 -0.06755570322 -0.1605247408 1 1 1
vn 0.950332582 0.0271420069 0.3100504577
v 0.01792131551 -0.2666497231 -0.1163583994 1 1 1
vn 0.9238376617 0.1321156323 0.3592623472
v 0.01792131551 -0.3162471652 0.05988266319 1 1 1
vn 0.9084145427 0.3862181604 -0.1600579768
v 0.01792131551 -0.06762957573 0.1605571657 1 1 1
vn 0.9576249123 0.02416013367 -0.2870032489
v 0.01792131551 -0.266928643 0.1163716167 1 1 1
vn 0.9525566101 0.1128597632 -0.2826634049
v 0.01792131551 0.4003480971 0.09630361944 1 1 1
vn 0.8341562748 0.5376958847 0.1227453277
v 0.01792131551 0.3712645173 0.1481838822 1 1 1
vn 0.848669827 0.3564612865 0.3907619417
v 0.01792131551 0.1434094459 0.1562114805 1 1 1
vn 0.9514439702 -0.03543436527 -0.3057756126
v 0.01792131551 0.277502954 0.1116277948 1 1 1
vn 0.9268326759 -0.1555603743 -0.3417340219
v 0.01792131551 0.1391293705 -0.1576073021 1 1 1
vn 0.9724873304 -0.02453758754 0.2316598594
v 0.01792131551 0.2696893215 -0.1163583994 1 1 1
vn 0.8184565902 -0.2301965058 0.5264393091
v 0.01792131551 0.314211607 0.0735321641 1 1 1
vn 0.9192008972 -0.3418989778 -0.1953837723
v 0.01792131551 0.3327041268 0.02142185532 1 1 1
vn 0.9792716503 -0.2012081891 -0.02328755334
v 0.01792131551 -0.05748841912 -0.2639053464 1 1 1
vn 0.9329425693 -0.00650386326 -0.3599664569
v 0.01792131551 -0.2685883641 -0.2199294865 1 1 1
vn 0.9372992516 -0.1018001586 -0.3333269954
v 0.01792131551 -0.3679459393 -0.1487284601 1 1 1
vn 0.8563717008 -0.3473011255 -0.3821118176
v -0.01792131737 0.3228592575 -0.05427389219 1 1 1
vn -0.9614680409 -0.2546314895 0.1036436334
v -0.01792131737 0.2955647409 0.09300072491 1 1 1
vn -0.9603921175 -0.1705898643 -0.2203317732
v -0.01792131737 0.3858796656 0.1221500188 1 1 1
vn -0.938047111 0.300429672 0.1726547182
v -0.01792131737 0.4162121713 -0.02976266667 1 1 1
vn -0.8668127656 0.4983042479 -0.01812363043
v -0.01792131737 0.1946242452 -0.2483506352 1 1 1
vn -0.8568909168 0.06676834822 -0.5111554861
v -0.01792131737 0.0012405999 0.1635315716 1 1 1
vn -0.8574575186 -0.005825371016 -0.5145217776
v -0.01792131737 0.1438321322 -0.1568600535 1 1 1
vn -0.9737836123 -0.05498107895 0.2207319587
v -0.01792131737 0.2722179294 0.2195230126 1 1 1
vn -0.9466905594 0.1446076632 0.2878638208
v -0.01792131737 -0.3313898444 0.1858555526 1 1 1
vn -0.7863985896 -0.3417022824 0.5146035552
v -0.01792131737 -0.3761122823 0.1358536631 1 1 1
vn -0.9361740351 -0.2922994494 0.1952926368
v -0.01792131737 -0.2138771266 0.2390935123 1 1 1
vn -0.9647282362 -0.05133093521 0.2581948936
v -0.01792131737 0.3762921691 -0.1384892613 1 1 1
vn -0.9185775518 0.3288036287 -0.2193249762
v 0.01792131551 -0.4132301509 0.02676867321 1 1 1
vn 0.9275904298 -0.3723344207 0.03071003966
v 0.01792131551 -0.385976553 0.1196888462 1 1 1
vn 0.9062058926 -0.366341114 0.2111518681
v 0.01792131551 -0.3313898444 0.1858555526 1 1 1
vn 0.9341242313 -0.2027039528 0.2938078642
v 0.01792131551 0.06025980785 0.2639053464 1 1 1
vn 0.9674738646 0.0101956455 0.2527654469
v 0.01792131551 0.3927517831 -0.1155210584 1 1 1
vn 0.8230852485 0.5165806413 -0.2359556854
v 0.01792131551 0.3380580544 -0.1795142591 1 1 1
vn 0.9639058709 0.1588471681 -0.2136657089
v -0.01792131737 -0.3201737106 0.05496959016 1 1 1
vn -0.9695712328 0.2294109315 -0.08545336127
v -0.01792131737 -0.2686775029 -0.2198725045 1 1 1
vn -0.9446735978 -0.1469388157 -0.2932588458
v -0.01792131737 -0.2843507826 -0.09975552559 1 1 1
vn -0.9593218565 0.171252504 0.2244419456
v -0.01792131737 0.1473695934 0.1555318236 1 1 1
vn -0.9527443051 -0.07882702351 -0.2933677137
v -0.01792131737 0.3326106966 0.02178487927 1 1 1
vn -0.93254143 -0.3568193316 -0.05519489199
v -0.01792131737 0.2861126661 -0.1012892649 1 1 1
vn -0.9450654984 -0.1782073826 0.2740315795
v 0.01792131551 0.4162221253 -0.02971795201 1 1 1
vn 0.9600699544 0.2795802653 -0.01002610382
v 0.01792131551 0.2721261978 0.2195819914 1 1 1
vn 0.9125285745 0.1198068708 0.3910727799
v 0.01792131551 0.3276234567 -0.04234826937 1 1 1
vn 0.8043470383 -0.5842095017 0.1082827002
v 0.01792131551 0.3102779686 -0.07612470537 1 1 1
vn 0.9739126563 -0.1787282377 0.1398227215
v 0.01792131551 -0.212833792 0.2391435206 1 1 1
vn 0.8990856409 -0.08546027541 0.4293501675
v 0.01792131551 -0.397222966 -0.09667892754 1 1 1
vn 0.8764723539 -0.465447396 -0.1231051907
v -0.01792131737 -0.1409560591 -0.1567971259 1 1 1
vn -0.9441303611 0.07163421065 0.3216929734
v -0.01792131737 -0.05805382878 -0.2638370991 1 1 1
vn -0.94663167 -0.03442986682 -0.3204731941
v 0.01792131551 -0.3073833883 -0.07663959265 1 1 1
vn 0.9165680408 0.3394957185 0.2112952769
v 0.01792131551 -0.3292708099 -0.0215896666 1 1 1
vn 0.9769580364 0.212983042 0.01382802706
v 0.01792131551 0.1946242452 -0.2483506352 1 1 1
vn 0.9085380435 0.1056483537 -0.4042240381
v -0.01792131737 0.3162908852 -0.1975624412 1 1 1
vn -0.9372935891 0.1678903252 -0.3054399788
v -0.01792131737 -0.1411527991 0.1568421274 1 1 1
vn -0.952060461 0.06560246646 -0.2987929881
v -0.01792131737 0.06084439903 0.2638344467 1 1 1
vn -0.9013392925 0.01743966155 0.4327623844
# mm_gid 11
g mmGroup11
f 30//30 60//60 48//48 
f 48//48 60//60 38//38 
f 38//38 60//60 51//51 
f 37//37 31//31 36//36 
f 32//32 5//5 3//3 
f 24//24 30//30 25//25 
f 13//13 30//30 48//48 
f 25//25 30//30 13//13 
f 12//12 25//25 13//13 
f 13//13 18//18 12//12 
f 18//18 45//45 19//19 
f 18//18 24//24 45//45 
f 24//24 25//25 45//45 
f 45//45 25//25 26//26 
f 12//12 18//18 19//19 
f 12//12 26//26 25//25 
f 47//47 26//26 12//12 
f 12//12 19//19 47//47 
f 45//45 26//26 23//23 
f 49//49 45//45 23//23 
f 19//19 45//45 49//49 
f 47//47 19//19 49//49 
f 23//23 26//26 34//34 
f 47//47 49//49 50//50 
f 49//49 23//23 50//50 
f 50//50 23//23 46//46 
f 23//23 34//34 46//46 
f 47//47 50//50 39//39 
f 39//39 26//26 47//47 
f 34//34 26//26 39//39 
f 46//46 34//34 58//58 
f 39//39 50//50 40//40 
f 40//40 34//34 39//39 
f 40//40 58//58 34//34 
f 40//40 50//50 17//17 
f 50//50 46//46 17//17 
f 46//46 29//29 17//17 
f 46//46 58//58 29//29 
f 29//29 58//58 27//27 
f 54//54 27//27 20//20 
f 29//29 27//27 54//54 
f 54//54 6//6 29//29 
f 16//16 29//29 6//6 
f 17//17 29//29 16//16 
f 40//40 17//17 16//16 
f 40//40 16//16 57//57 
f 57//57 58//58 40//40 
f 27//27 58//58 57//57 
f 20//20 27//27 57//57 
f 57//57 16//16 20//20 
f 20//20 16//16 7//7 
f 16//16 6//6 7//7 
f 42//42 53//53 54//54 
f 42//42 54//54 21//21 
f 21//21 54//54 20//20 
f 20//20 7//7 21//21 
f 54//54 53//53 6//6 
f 7//7 6//6 53//53 
f 7//7 53//53 8//8 
f 21//21 7//7 8//8 
f 42//42 43//43 53//53 
f 8//8 53//53 43//43 
f 8//8 43//43 55//55 
f 22//22 8//8 55//55 
f 21//21 8//8 22//22 
f 22//22 42//42 21//21 
f 1//1 42//42 22//22 
f 1//1 43//43 42//42 
f 55//55 2//2 56//56 
f 55//55 43//43 2//2 
f 22//22 55//55 52//52 
f 52//52 1//1 22//22 
f 1//1 2//2 43//43 
f 56//56 2//2 9//9 
f 35//35 56//56 9//9 
f 35//35 4//4 52//52 
f 52//52 56//56 35//35 
f 52//52 55//55 56//56 
f 52//52 4//4 1//1 
f 4//4 2//2 1//1 
f 4//4 41//41 2//2 
f 9//9 2//2 41//41 
f 9//9 41//41 5//5 
f 35//35 3//3 4//4 
f 3//3 41//41 4//4 
f 3//3 5//5 41//41 
f 35//35 9//9 36//36 
f 36//36 3//3 35//35 
f 36//36 32//32 3//3 
f 36//36 31//31 32//32 
f 31//31 5//5 32//32 
f 33//33 5//5 31//31 
f 33//33 59//59 5//5 
f 5//5 59//59 11//11 
f 9//9 5//5 11//11 
f 11//11 36//36 9//9 
f 11//11 37//37 36//36 
f 11//11 51//51 37//37 
f 31//31 37//37 51//51 
f 51//51 33//33 31//31 
f 51//51 60//60 33//33 
f 60//60 59//59 33//33 
f 60//60 28//28 59//59 
f 10//10 59//59 28//28 
f 11//11 59//59 10//10 
f 10//10 51//51 11//11 
f 10//10 38//38 51//51 
f 10//10 28//28 14//14 
f 38//38 10//10 14//14 
f 14//14 48//48 38//38 
f 44//44 60//60 30//30 
f 28//28 60//60 44//44 
f 14//14 28//28 44//44 
f 14//14 44//44 15//15 
f 15//15 48//48 14//14 
f 15//15 13//13 48//48 
f 18//18 13//13 15//15 
f 15//15 24//24 18//18 
f 15//15 44//44 24//24 
f 44//44 30//30 24//24 
