v -0.02237365767 -0.2131966054 0.2829594314 1 1 1
vn -0.9192504287 -0.34943524 0.1813108921
v -0.02237365767 -0.1211091354 0.1841746271 1 1 1
vn -0.9810704589 0.110453181 -0.1590625644
v -0.02237365767 -0.2131966054 -0.07199560106 1 1 1
vn -0.944539547 -0.3063081801 0.1184076518
v -0.02237365767 -0.1211091354 -0.07199560106 1 1 1
vn -0.914796412 0.1324814856 0.3815706074
v 0.02237365581 -0.1211091354 0.1841746271 1 1 1
vn 0.9458312988 -0.1064858064 -0.3066983819
v 0.02237365581 0.4090916216 -0.09041309357 1 1 1
vn 0.7266031504 0.4230932295 0.5413316488
v -2.800748999e-14 -0.2131966054 -0.2829594612 1 1 1
vn -0.7893217802 -0.3835487068 -0.4794387221
v 0.02237365581 0.2477991283 -0.07199560106 1 1 1
vn 0.9944786429 -0.05985425785 0.08619554341
v -0.02237365767 -0.4090916514 -0.172455132 1 1 1
vn -0.9797565341 -0.1678506285 -0.1091023237
v -0.02237365767 0.4090916216 -0.09041309357 1 1 1
vn -0.8834180832 0.3335841894 0.3290807009
v 0.02237365581 -0.2131966054 0.2829594314 1 1 1
vn 0.7936201096 -0.6033585668 0.07826592028
v 0.02237365581 -0.2131966054 -0.07199560106 1 1 1
vn 0.9779530168 -0.1690503508 0.1225963682
v 0.02237365581 -0.2131966054 -0.172455132 1 1 1
vn 0.9733061194 -0.08222220093 -0.2142772079
v -2.800748999e-14 -0.4090916514 -0.07199560106 1 1 1
vn 0 -0.4563185871 0.889816463
v -0.02237365767 -0.2131966054 -0.172455132 1 1 1
vn -0.9226889014 -0.0943486616 -0.3738228083
v -0.02237365767 0.2477991283 -0.07199560106 1 1 1
vn -0.989177227 -0.119070366 -0.08573604375
v -0.02237365767 -0.1211091354 0.2829594314 1 1 1
vn -0.8422230482 0.293163985 0.4524546266
v 0.02237365581 -0.1211091354 -0.07199560106 1 1 1
vn 0.9418102503 0.2727873027 0.1964191794
v -2.800748999e-14 -0.1211091354 -0.2829594612 1 1 1
vn 0.7893217802 0.3835487068 -0.4794387221
v -0.02237365767 -0.1211091354 -0.172455132 1 1 1
vn -0.973302722 0.04013065249 -0.2259896696
v 0.02237365581 0.4090916216 -0.172455132 1 1 1
vn 0.9367959499 0.103437908 -0.3342363238
v -0.02237365767 0.4090916216 -0.172455132 1 1 1
vn -0.8131868839 0.04489470273 -0.5802685022
v 0.02237365581 -0.4090916514 -0.172455132 1 1 1
vn 0.9361947179 -0.1603876799 -0.3127543032
v 0.02237365581 -0.1211091354 0.2829594314 1 1 1
vn 0.9361029863 0.1629210114 0.3117176592
v 0.02237365581 -0.1211091354 -0.172455132 1 1 1
vn 0.9107728601 0.04103429615 -0.4108636677
# mm_gid 14
g mmGroup14
f 2//2 1//1 17//17 
f 2//2 3//3 1//1 
f 1//1 3//3 11//11 
f 5//5 24//24 11//11 
f 24//24 1//1 11//11 
f 17//17 1//1 24//24 
f 6//6 17//17 24//24 
f 10//10 17//17 6//6 
f 21//21 10//10 6//6 
f 22//22 10//10 21//21 
f 25//25 22//22 21//21 
f 14//14 23//23 12//12 
f 14//14 9//9 23//23 
f 9//9 15//15 23//23 
f 20//20 7//7 15//15 
f 19//19 7//7 20//20 
f 7//7 19//19 13//13 
f 15//15 7//7 13//13 
f 23//23 15//15 13//13 
f 12//12 23//23 13//13 
f 12//12 13//13 18//18 
f 18//18 13//13 25//25 
f 13//13 19//19 25//25 
f 19//19 20//20 25//25 
f 20//20 22//22 25//25 
f 22//22 20//20 16//16 
f 16//16 10//10 22//22 
f 16//16 17//17 10//10 
f 2//2 17//17 16//16 
f 2//2 16//16 5//5 
f 18//18 2//2 5//5 
f 12//12 18//18 5//5 
f 5//5 11//11 12//12 
f 11//11 3//3 12//12 
f 3//3 14//14 12//12 
f 3//3 9//9 14//14 
f 3//3 15//15 9//9 
f 4//4 15//15 3//3 
f 4//4 20//20 15//15 
f 16//16 20//20 4//4 
f 16//16 4//4 8//8 
f 5//5 16//16 8//8 
f 8//8 24//24 5//5 
f 6//6 24//24 8//8 
f 8//8 21//21 6//6 
f 8//8 25//25 21//21 
f 18//18 25//25 8//8 
f 8//8 4//4 18//18 
f 4//4 2//2 18//18 
f 4//4 3//3 2//2 
