v -0.2850399017 0.9039291739 0.4447543025 1 1 1
vn 0.5590821505 -0.7634217739 -0.3234413862
v 0.5008274317 0.8452667594 0.5407457948 1 1 1
vn 0.07996787131 -0.8388193846 -0.5385046005
v -0.3673065603 0.5098346472 0.9431526065 1 1 1
vn -0.1410603225 0.4250705242 0.8941012621
v -0.5008158088 0.5918884873 0.7271590233 1 1 1
vn -0.9949065447 0.06458391249 0.07739426196
v -0.5008158088 0.8389593959 0.3855404854 1 1 1
vn -0.9604742527 0.2513008118 0.1197374314
v -0.3673065603 1.042246342 0.1976325959 1 1 1
vn -0.1498045921 0.9737380147 0.1714436263
v -0.3673065603 1.039537668 -0.2166900188 1 1 1
vn -0.1288693994 0.9802459478 -0.1500351131
v -0.3673065603 0.9109137058 -0.5308541059 1 1 1
vn -0.1111252606 0.8516232967 -0.5122391582
v -0.3673065603 0.63752985 -0.8422006965 1 1 1
vn -0.1294663846 0.609157145 -0.7824103832
v -0.3673065603 0.371769011 -0.9873161912 1 1 1
vn -0.2154393494 0.3293162882 -0.9193131328
v -0.3673065603 0.07588370889 -1.05168128 1 1 1
vn -0.09456266463 0.1278122067 -0.9872800708
v -0.5008158088 -0.4127826989 -0.8242556453 1 1 1
vn -0.9938247204 -0.04446901754 -0.1016610488
v -0.5008158088 -0.7141240835 -0.5792888403 1 1 1
vn -0.9896454811 -0.1045770943 -0.09831326455
v -0.3673065603 -0.9337018132 -0.5003983378 1 1 1
vn -0.1162109375 -0.8654384017 -0.4873513877
v -0.3673065603 -1.042242765 -0.1787442267 1 1 1
vn -0.1235026419 -0.9775876999 -0.1704975069
v -0.3673065603 -1.039534092 0.2355784029 1 1 1
vn -0.1391997635 -0.9789049029 0.1495612562
v -0.3673065603 -0.9337018132 0.5192866921 1 1 1
vn -0.07764350623 -0.868190825 0.4901185334
v -0.5008158088 -0.4698198736 0.7997276783 1 1 1
vn -0.9966205955 -0.04387614876 0.06944296509
v -0.3673065603 -0.1881938726 1.051681519 1 1 1
vn -0.1143442392 -0.1536071301 0.9814938903
v 0.5008274317 -0.2261348367 1.048967957 1 1 1
vn 0.09199335426 -0.1529847234 0.9839374423
v 0.5008274317 -0.7750501633 0.7312341928 1 1 1
vn 0.08259928226 -0.7414022088 0.6659580469
v 0.5008274317 -1.061126113 -0.06644739956 1 1 1
vn 0.05835850909 -0.9980868697 -0.02041794918
v 0.5008274317 -0.7522584796 -0.7428016067 1 1 1
vn 0.06868138909 -0.7626526952 -0.6431514025
v 0.5008274317 -0.2261348367 -1.030079603 1 1 1
vn 0.065884009 -0.2585359812 -0.9637522697
v 0.5008274317 0.07588370889 -1.05168128 1 1 1
vn 0.06358583272 0.04208496585 -0.9970886111
v 0.5008274317 0.752242744 -0.7428016067 1 1 1
vn 0.06861048937 0.6956132054 -0.7151327729
v 0.5008274317 1.039537668 -0.2166900188 1 1 1
vn 0.07925459743 0.9588025808 -0.2727934718
v 0.5008274317 0.978534162 0.4146080613 1 1 1
vn 0.0880016759 0.9189810157 0.3843560815
v 0.5008274317 0.5098346472 0.9431526065 1 1 1
vn 0.09318245202 0.5024825931 0.8595511913
v -0.2850399017 -0.07499013096 1.009926558 1 1 1
vn 0.9266230464 0.02361205779 -0.375249505
v -0.2850399017 -0.3665415347 0.9433775544 1 1 1
vn 0.8973002434 0.1684930176 -0.407998085
v -0.2850399017 -0.6511083841 0.7662875056 1 1 1
vn 0.7824671268 0.4220118225 -0.4578768611
v -0.2850399017 -0.9150118828 0.4088327587 1 1 1
vn 0.4121266007 0.8136740923 -0.4099831283
v -0.2850399017 -1.00329566 0.009444189258 1 1 1
vn 0.06003912538 0.993037343 -0.1013516411
v -0.2850399017 -0.9587184787 -0.2862790823 1 1 1
vn 0.204549998 0.9486664534 0.2412286401
v -0.2850399017 -0.8289530277 -0.5557280779 1 1 1
vn 0.7056385279 0.6047456264 0.3692654371
v -0.2850399017 -0.6255500317 -0.7749575377 1 1 1
vn 0.8705201149 0.3257585466 0.3688849509
v -0.2850399017 -0.3665415347 -0.9244891405 1 1 1
vn 0.9186162949 0.1555779129 0.3632349074
v -0.2850399017 -0.03749416769 -0.9882279634 1 1 1
vn 0.8912236691 0.01514581591 0.4533110857
v 0.5008274317 0.2232556045 -0.9686891437 1 1 1
vn 0.07862244546 -0.1947598457 0.9776948094
v 0.5008274317 0.5016505122 -0.8594274521 1 1 1
vn 0.0797034055 -0.5435513854 0.83558321
v 0.5008274317 0.80337888 -0.5832865834 1 1 1
vn 0.07884281874 -0.7809220552 0.6196326017
v 0.5008274317 0.9587026834 -0.2862790823 1 1 1
vn 0.07555058599 -0.9603328109 0.2684268355
v 0.5008274317 0.992077589 0.1213830784 1 1 1
vn 0.07724339515 -0.9870015979 -0.1409302056
v -0.2850399017 0.992077589 0.15897578 1 1 1
vn 0.2099195421 -0.9667985439 -0.1457201242
v -0.3673065603 0.2261384279 1.048967957 1 1 1
vn -0.1714531034 0.1489471942 0.9738678336
v -0.5008158088 0.2450992316 0.9019201398 1 1 1
vn -0.9978399277 0.02077741735 0.06231975555
v -0.3673065603 0.752242744 0.761689961 1 1 1
vn -0.1594149917 0.6760326624 0.7194210887
v -0.3673065603 0.9337053895 0.5192866921 1 1 1
vn -0.08737227321 0.8684076667 0.4880924523
v -0.5008158088 0.9296036363 -0.02618954889 1 1 1
vn -0.8063436151 0.5911694765 0.01812675782
v -0.5008158088 0.8755460382 -0.3050125539 1 1 1
vn -0.921843648 0.3602420688 -0.1429334581
v -0.5008158088 0.7141276598 -0.5792888403 1 1 1
vn -0.9887784123 0.1118002608 -0.09908537567
v -0.5008158088 0.4127862751 -0.8242556453 1 1 1
vn -0.997025907 0.03366143256 -0.06932727993
v 0.5008274317 0.1116190255 1.001561046 1 1 1
vn 0.1014514714 -0.1449872255 -0.9842185974
v -0.5008158088 1.792330295e-06 -0.9099493027 1 1 1
vn -0.9979164004 0.001937374123 -0.06449118257
v 0.5008274317 0.5310397744 0.8548784852 1 1 1
vn 0.05653814226 -0.5182124376 -0.8533810973
v -0.3673065603 -0.2261348367 -1.030079603 1 1 1
vn -0.160032317 -0.1697636843 -0.9724042416
v -0.2850399017 0.7354682088 0.6918542385 1 1 1
vn 0.5961290598 -0.579682529 -0.555516243
v -0.3673065603 -0.5098503828 -0.9242618084 1 1 1
vn -0.150780946 -0.4469203055 -0.8817750812
v -0.2850399017 0.5016505122 0.878315866 1 1 1
vn 0.9458734393 -0.1622678936 -0.2810561657
v -0.3673065603 -0.7522584796 -0.7428016067 1 1 1
vn -0.09872808307 -0.6724264026 -0.7335498929
v -0.2850399017 0.2232556045 0.987577498 1 1 1
vn 0.9179958701 -0.1067205369 -0.3819611073
v -0.5008158088 -0.8755424023 -0.3050125539 1 1 1
vn -0.921775341 -0.3635840714 -0.1346729547
v -0.5008158088 -0.9296194315 -0.02618954889 1 1 1
vn -0.8079999089 -0.5888102055 0.02094530314
v -0.5008158088 -0.8389558196 0.3855404854 1 1 1
vn -0.9709638357 -0.2093883008 0.1156968176
v -0.3673065603 -0.7522584796 0.761689961 1 1 1
vn -0.2697975934 -0.6851659417 0.6765773296
v -0.3673065603 -0.5098503828 0.9431526065 1 1 1
vn -0.09594510496 -0.5099928379 0.8548110127
v -0.5008158088 -0.07121731341 0.937012136 1 1 1
vn -0.9948289394 -0.00891260989 0.1011728421
v 0.5008274317 -0.5098503828 0.9431526065 1 1 1
vn 0.06209472194 -0.4389072061 0.8963842392
v 0.5008274317 -1.004843473 0.3440419436 1 1 1
vn 0.08472411335 -0.9367849827 0.3394932747
v 0.5008274317 -0.9785305858 -0.3957196772 1 1 1
vn 0.06264129281 -0.920748651 -0.3850947022
v 0.5008274317 -0.5098503828 -0.9242618084 1 1 1
vn 0.0659705922 -0.5195760131 -0.8518735766
v 0.5008274317 0.4051632583 -0.969085753 1 1 1
vn 0.05412700027 0.385650903 -0.9210557342
v 0.5008274317 0.9337053895 -0.5003983378 1 1 1
vn 0.1045421436 0.8728707433 -0.4766210318
v 0.5008274317 1.061129689 0.08533819765 1 1 1
vn 0.03991390765 0.9976543784 0.05561101809
v 0.5008274317 0.752242744 0.761689961 1 1 1
vn 0.09505980462 0.7609960437 0.6417543888
v 0.5008274317 0.1881781071 1.051681519 1 1 1
vn 0.03829262406 0.1477237195 0.9882870913
v 0.5008274317 -0.2232520133 0.987577498 1 1 1
vn 0.07119195908 0.2047678083 -0.976218164
v 0.5008274317 -0.5016469359 0.878315866 1 1 1
vn 0.07512041181 0.5088768005 -0.857555449
v 0.5008274317 -0.7354646325 0.6918542385 1 1 1
vn 0.04765310138 0.7853919268 -0.6171618104
v 0.5008274317 -0.9424082637 0.3390381336 1 1 1
vn 0.07612707466 0.9471037984 -0.3117676079
v 0.5008274317 -1.00329566 0.009444189258 1 1 1
vn 0.08372929692 0.9960194826 0.03057208657
v 0.5008274317 -0.9587184787 -0.2862790823 1 1 1
vn 0.07938739657 0.9366157651 0.3412455916
v 0.5008274317 -0.8289530277 -0.5557280779 1 1 1
vn 0.08065337688 0.7943384647 0.6020975709
v 0.5008274317 -0.6255500317 -0.7749575377 1 1 1
vn 0.08252339065 0.5814769864 0.809366703
v 0.5008274317 -0.3665415347 -0.9244891405 1 1 1
vn 0.08410517126 0.3020747006 0.9495668411
v 0.5008274317 -0.07499013096 -0.9910382032 1 1 1
vn 0.1306930333 0.0740897581 0.98865062
v -0.2850399017 0.3665451109 -0.9244891405 1 1 1
vn 0.9121097326 -0.1395534724 0.385461688
v -0.2850399017 0.6511119604 -0.7473990917 1 1 1
vn 0.8289451003 -0.3794289231 0.410954684
v -0.2850399017 0.9039291739 -0.4258659184 1 1 1
vn 0.3756926954 -0.8124353886 0.445874095
v -0.2850399017 0.992077589 -0.1400873959 1 1 1
vn 0.02669842541 -0.9922338128 0.1214877442
# mm_gid 0
g mmGroup0
f 20//20 78//78 54//54 
f 69//69 78//78 20//20 
f 69//69 79//79 78//78 
f 21//21 79//79 69//69 
f 21//21 80//80 79//79 
f 21//21 81//81 80//80 
f 70//70 81//81 21//21 
f 70//70 82//82 81//81 
f 22//22 82//82 70//70 
f 22//22 83//83 82//82 
f 71//71 83//83 22//22 
f 71//71 84//84 83//83 
f 23//23 84//84 71//71 
f 23//23 85//85 84//84 
f 72//72 85//85 23//23 
f 72//72 86//86 85//85 
f 24//24 86//86 72//72 
f 24//24 87//87 86//86 
f 25//25 87//87 24//24 
f 25//25 40//40 87//87 
f 73//73 40//40 25//25 
f 73//73 41//41 40//40 
f 26//26 41//41 73//73 
f 26//26 42//42 41//41 
f 74//74 42//42 26//26 
f 74//74 43//43 42//42 
f 27//27 43//43 74//74 
f 27//27 44//44 43//43 
f 75//75 44//44 27//27 
f 28//28 44//44 75//75 
f 28//28 2//2 44//44 
f 76//76 2//2 28//28 
f 76//76 56//56 2//2 
f 29//29 56//56 76//76 
f 29//29 54//54 56//56 
f 77//77 54//54 29//29 
f 54//54 77//77 20//20 
f 35//35 33//33 34//34 
f 36//36 33//33 35//35 
f 36//36 32//32 33//33 
f 37//37 32//32 36//36 
f 37//37 31//31 32//32 
f 38//38 31//31 37//37 
f 38//38 30//30 31//31 
f 39//39 30//30 38//38 
f 45//45 90//90 91//91 
f 1//1 90//90 45//45 
f 1//1 89//89 90//90 
f 58//58 89//89 1//1 
f 60//60 89//89 58//58 
f 60//60 88//88 89//89 
f 62//62 88//88 60//60 
f 62//62 39//39 88//88 
f 30//30 39//39 62//62 
f 62//62 56//56 54//54 
f 60//60 56//56 62//62 
f 58//58 56//56 60//60 
f 58//58 2//2 56//56 
f 1//1 2//2 58//58 
f 1//1 44//44 2//2 
f 45//45 44//44 1//1 
f 91//91 44//44 45//45 
f 91//91 43//43 44//44 
f 90//90 43//43 91//91 
f 90//90 42//42 43//43 
f 89//89 42//42 90//90 
f 89//89 41//41 42//42 
f 88//88 41//41 89//89 
f 88//88 40//40 41//41 
f 39//39 40//40 88//88 
f 39//39 87//87 40//40 
f 39//39 86//86 87//87 
f 38//38 86//86 39//39 
f 38//38 85//85 86//86 
f 37//37 85//85 38//38 
f 37//37 84//84 85//85 
f 36//36 84//84 37//37 
f 36//36 83//83 84//84 
f 35//35 83//83 36//36 
f 35//35 82//82 83//83 
f 34//34 82//82 35//35 
f 34//34 81//81 82//82 
f 33//33 81//81 34//34 
f 33//33 80//80 81//81 
f 32//32 80//80 33//33 
f 32//32 79//79 80//80 
f 31//31 79//79 32//32 
f 31//31 78//78 79//79 
f 30//30 78//78 31//31 
f 30//30 54//54 78//78 
f 62//62 54//54 30//30 
f 51//51 5//5 50//50 
f 52//52 5//5 51//51 
f 52//52 4//4 5//5 
f 53//53 4//4 52//52 
f 53//53 47//47 4//4 
f 55//55 47//47 53//53 
f 65//65 63//63 64//64 
f 65//65 13//13 63//63 
f 18//18 13//13 65//65 
f 18//18 12//12 13//13 
f 18//18 55//55 12//12 
f 68//68 55//55 18//18 
f 47//47 55//55 68//68 
f 77//77 3//3 46//46 
f 29//29 3//3 77//77 
f 29//29 48//48 3//3 
f 76//76 48//48 29//29 
f 76//76 49//49 48//48 
f 28//28 49//49 76//76 
f 28//28 6//6 49//49 
f 75//75 6//6 28//28 
f 75//75 7//7 6//6 
f 27//27 7//7 75//75 
f 27//27 8//8 7//7 
f 74//74 8//8 27//27 
f 26//26 8//8 74//74 
f 26//26 9//9 8//8 
f 73//73 9//9 26//26 
f 73//73 10//10 9//9 
f 73//73 11//11 10//10 
f 25//25 11//11 73//73 
f 25//25 57//57 11//11 
f 24//24 57//57 25//25 
f 24//24 59//59 57//57 
f 72//72 59//59 24//24 
f 72//72 61//61 59//59 
f 23//23 61//61 72//72 
f 23//23 14//14 61//61 
f 71//71 14//14 23//23 
f 71//71 15//15 14//14 
f 22//22 15//15 71//71 
f 22//22 16//16 15//15 
f 70//70 16//16 22//22 
f 70//70 17//17 16//16 
f 21//21 17//17 70//70 
f 21//21 66//66 17//17 
f 21//21 67//67 66//66 
f 69//69 67//67 21//21 
f 69//69 19//19 67//67 
f 20//20 19//19 69//69 
f 77//77 19//19 20//20 
f 77//77 46//46 19//19 
f 18//18 19//19 68//68 
f 18//18 67//67 19//19 
f 18//18 66//66 67//67 
f 65//65 66//66 18//18 
f 65//65 17//17 66//66 
f 65//65 16//16 17//17 
f 64//64 16//16 65//65 
f 64//64 15//15 16//16 
f 63//63 15//15 64//64 
f 63//63 14//14 15//15 
f 13//13 14//14 63//63 
f 13//13 61//61 14//14 
f 13//13 59//59 61//61 
f 12//12 59//59 13//13 
f 12//12 57//57 59//59 
f 55//55 57//57 12//12 
f 55//55 11//11 57//57 
f 55//55 10//10 11//11 
f 53//53 10//10 55//55 
f 53//53 9//9 10//10 
f 52//52 9//9 53//53 
f 52//52 8//8 9//9 
f 51//51 8//8 52//52 
f 51//51 7//7 8//8 
f 50//50 7//7 51//51 
f 50//50 6//6 7//7 
f 5//5 6//6 50//50 
f 5//5 49//49 6//6 
f 5//5 48//48 49//49 
f 4//4 48//48 5//5 
f 4//4 3//3 48//48 
f 47//47 3//3 4//4 
f 47//47 46//46 3//3 
f 68//68 46//46 47//47 
f 68//68 19//19 46//46 
