v -0.02223925292 -0.3902038336 0.7198649645 1 1 1
vn -0.699809134 0.662085712 0.2681597471
v 0.02225092426 -0.3902038336 0.7198649645 1 1 1
vn 0.6535997987 0.7567640543 0.01074741036
v -0.02223925292 -0.4690072834 0.8563537002 1 1 1
vn -0.6536132097 0.3877140284 0.649975121
v 0.02225092426 -0.4690072834 0.8563537002 1 1 1
vn 0.6998132467 0.5633015037 0.4392639995
v -0.02223925292 -0.5071223378 0.8343480825 1 1 1
vn -0.699809134 -0.662085712 -0.2681597471
v 0.02225092426 -0.4283189476 0.6978568435 1 1 1
vn 0.6998132467 -0.5633015037 -0.4392639995
v -0.02223925292 -0.4283189476 0.6978568435 1 1 1
vn -0.6536132097 -0.3877140284 -0.649975121
v 0.02225092426 -0.5071223378 0.8343480825 1 1 1
vn 0.6535997987 -0.7567640543 -0.01074741036
v -0.02223925292 0.02201954462 0.8185216188 1 1 1
vn -0.6998772025 0.707397759 -0.09879424423
v 0.02225092426 0.02201954462 0.8185216188 1 1 1
vn 0.6536614895 0.66068542 -0.3690818548
v -0.02223925292 0.02201954462 0.9761260152 1 1 1
vn -0.6536614895 0.66068542 0.3690818548
v 0.02225092426 0.02201954462 0.9761260152 1 1 1
vn 0.6998772025 0.707397759 0.09879424423
v -0.02223925292 -0.02201595902 0.9761260152 1 1 1
vn -0.6998772025 -0.707397759 0.09879424423
v 0.02225092426 -0.02201595902 0.8185216188 1 1 1
vn 0.6998772025 -0.707397759 -0.09879424423
v -0.02223925292 -0.02201595902 0.8185216188 1 1 1
vn -0.6536614895 -0.66068542 -0.3690818548
v 0.02225092426 -0.02201595902 0.9761260152 1 1 1
vn 0.6536614895 -0.66068542 0.3690818548
v -0.02223925292 -0.6978526115 0.4283183813 1 1 1
vn -0.6998620033 0.439260453 0.5632436872
v 0.02225092426 -0.6978526115 0.4283183813 1 1 1
vn 0.6536755562 0.6499732137 0.387612015
v -0.02223925292 -0.8343510628 0.5071218014 1 1 1
vn -0.6536077261 0.0107698068 0.7567569017
v 0.02225092426 -0.8343510628 0.5071218014 1 1 1
vn 0.699837625 0.2681623697 0.6620545387
v -0.02223925292 -0.8563687801 0.4690043032 1 1 1
vn -0.6998633146 -0.4392569959 -0.56324476
v 0.02225092426 -0.7198703289 0.3902032971 1 1 1
vn 0.6998384595 -0.268158406 -0.6620553136
v -0.02223925292 -0.7198703289 0.3902032971 1 1 1
vn -0.6535913348 -0.01077800617 -0.7567709088
v 0.02225092426 -0.8563687801 0.4690043032 1 1 1
vn 0.6536839604 -0.649969101 -0.3876048028
v -0.02223925292 -0.8185245991 0.02200572193 1 1 1
vn -0.6998016238 0.09878117591 0.7074743509
v 0.02225092426 -0.8185245991 0.02200572193 1 1 1
vn 0.6536019444 0.3690392673 0.6607681513
v -0.02223925292 -0.9761314392 0.02200572193 1 1 1
vn -0.6536019444 -0.3690392673 0.6607681513
v 0.02225092426 -0.9761314392 0.02200572193 1 1 1
vn 0.6998016238 -0.09878117591 0.7074743509
v -0.02223925292 -0.9761314392 -0.02200559527 1 1 1
vn -0.6998016238 -0.09878117591 -0.7074743509
v 0.02225092426 -0.8185245991 -0.02200559527 1 1 1
vn 0.6998016238 0.09878117591 -0.7074743509
v -0.02223925292 -0.8185245991 -0.02200559527 1 1 1
vn -0.6536019444 0.3690392673 -0.6607681513
v 0.02225092426 -0.9761314392 -0.02200559527 1 1 1
vn 0.6536019444 -0.3690392673 -0.6607681513
v -0.02223925292 -0.7198703289 -0.3902031481 1 1 1
vn -0.6998455524 -0.2681593597 0.6620473862
v 0.02225092426 -0.7198703289 -0.3902031481 1 1 1
vn 0.6536075473 -0.01076980866 0.756757021
v -0.02223925292 -0.8563687801 -0.469004184 1 1 1
vn -0.6536830664 -0.6499719024 0.3876015246
v 0.02225092426 -0.8563687801 -0.469004184 1 1 1
vn 0.6998686194 -0.4392590821 0.5632365346
v -0.02223925292 -0.8343510628 -0.5071216822 1 1 1
vn -0.6998455524 0.2681595087 -0.6620473266
v 0.02225092426 -0.6978526115 -0.4283182621 1 1 1
vn 0.6998685598 0.4392592311 -0.563236475
v -0.02223925292 -0.6978526115 -0.4283182621 1 1 1
vn -0.6536827087 0.6499720812 -0.3876018226
v 0.02225092426 -0.8343510628 -0.5071216822 1 1 1
vn 0.6536082029 0.01076948363 -0.7567564845
v -0.02223925292 0.4283225238 0.6978568435 1 1 1
vn -0.6998134255 0.5633013248 -0.4392639101
v 0.02225092426 0.4283225238 0.6978568435 1 1 1
vn 0.6536131501 0.3877140284 -0.649975121
v -0.02223925292 0.5071259737 0.8343480825 1 1 1
vn -0.6536003351 0.7567635775 -0.01074686926
v 0.02225092426 0.5071259737 0.8343480825 1 1 1
vn 0.6998093724 0.6620855927 -0.2681595981
v -0.02223925292 0.4690108597 0.8563537002 1 1 1
vn -0.6998134851 -0.5633013248 0.4392637908
v 0.02225092426 0.3902074397 0.7198649645 1 1 1
vn 0.6998093724 -0.6620855927 0.2681594193
v -0.02223925292 0.3902074397 0.7198649645 1 1 1
vn -0.6535996795 -0.7567641735 0.01074719336
v 0.02225092426 0.4690108597 0.8563537002 1 1 1
vn 0.6536135077 -0.3877137303 0.6499749422
v -0.02223925292 -0.4283189476 -0.6978567243 1 1 1
vn -0.6998134255 -0.5633012652 0.4392640293
v 0.02225092426 -0.4283189476 -0.6978567243 1 1 1
vn 0.6536133885 -0.3877136409 0.6499751806
v -0.02223925292 -0.5071223378 -0.8343479633 1 1 1
vn -0.6535997987 -0.7567640543 0.01074740849
v 0.02225092426 -0.5071223378 -0.8343479633 1 1 1
vn 0.6998092532 -0.6620856524 0.2681597471
v -0.02223925292 -0.4690072834 -0.856353581 1 1 1
vn -0.6998134255 0.5633012652 -0.4392640293
v 0.02225092426 -0.3902038336 -0.7198648453 1 1 1
vn 0.6998092532 0.6620856524 -0.2681597471
v -0.02223925292 -0.3902038336 -0.7198648453 1 1 1
vn -0.6535997987 0.7567640543 -0.01074740849
v 0.02225092426 -0.4690072834 -0.856353581 1 1 1
vn 0.6536133885 0.3877136409 -0.6499751806
v -0.02223925292 -0.02201595902 -0.81852144 1 1 1
vn -0.6998772025 -0.707397759 0.09879419953
v 0.02225092426 -0.02201595902 -0.81852144 1 1 1
vn 0.6536615491 -0.6606854796 0.3690817058
v -0.02223925292 -0.02201595902 -0.976125896 1 1 1
vn -0.6536615491 -0.6606854796 -0.3690817058
v 0.02225092426 -0.02201595902 -0.976125896 1 1 1
vn 0.6998772025 -0.707397759 -0.09879419953
v -0.02223925292 0.02201954462 -0.976125896 1 1 1
vn -0.6998772025 0.707397759 -0.09879419953
v 0.02225092426 0.02201954462 -0.81852144 1 1 1
vn 0.6998772025 0.707397759 0.09879419953
v -0.02223925292 0.02201954462 -0.81852144 1 1 1
vn -0.6536615491 0.6606854796 0.3690817058
v 0.02225092426 0.02201954462 -0.976125896 1 1 1
vn 0.6536615491 0.6606854796 -0.3690817058
v -0.02223925292 0.3902074397 -0.7198648453 1 1 1
vn -0.6998094916 -0.6620854735 -0.2681594193
v 0.02225092426 0.3902074397 -0.7198648453 1 1 1
vn 0.6535996795 -0.7567641735 -0.0107471915
v -0.02223925292 0.4690108597 -0.856353581 1 1 1
vn -0.6536136866 -0.3877133429 -0.6499750018
v 0.02225092426 0.4690108597 -0.856353581 1 1 1
vn 0.699813664 -0.563301146 -0.4392637908
v -0.02223925292 0.5071259737 -0.8343479633 1 1 1
vn -0.699809432 0.6620854735 0.2681595683
v 0.02225092426 0.4283225238 -0.6978567243 1 1 1
vn 0.6998136044 0.5633010864 0.4392639399
v -0.02223925292 0.4283225238 -0.6978567243 1 1 1
vn -0.6536133289 0.3877136409 0.6499751806
v 0.02225092426 0.5071259737 -0.8343479633 1 1 1
vn 0.6536003351 0.7567635775 0.01074686646
v -0.02223925292 0.6978561878 -0.4283182621 1 1 1
vn -0.6998228431 -0.439286828 -0.5632717609
v 0.02225092426 0.6978561878 -0.4283182621 1 1 1
vn 0.6536827087 -0.6499721408 -0.387601763
v -0.02223925292 0.8343352675 -0.5071216822 1 1 1
vn -0.6536065936 -0.01077131741 -0.7567578554
v 0.02225092426 0.8343352675 -0.5071216822 1 1 1
vn 0.6998156309 -0.2681823969 -0.6620696783
v -0.02223925292 0.8563530445 -0.469004184 1 1 1
vn -0.6998363733 0.4392951131 0.5632485151
v 0.02225092426 0.7198739052 -0.3902031481 1 1 1
vn 0.6998314857 0.2681882977 0.6620505452
v -0.02223925292 0.7198739052 -0.3902031481 1 1 1
vn -0.6536077857 0.01077071298 0.7567567825
v 0.02225092426 0.8563530445 -0.469004184 1 1 1
vn 0.6535710692 0.6500270367 0.3876979947
v -0.02223925292 0.8185281754 -0.02200559527 1 1 1
vn -0.6998016238 -0.09878120571 -0.7074743509
v 0.02225092426 0.8185281754 -0.02200559527 1 1 1
vn 0.6536018848 -0.3690393567 -0.6607680917
v -0.02223925292 0.9761350155 -0.02200559527 1 1 1
vn -0.6536018848 0.3690393567 -0.6607680917
v 0.02225092426 0.9761350155 -0.02200559527 1 1 1
vn 0.6998016238 0.09878120571 -0.7074743509
v -0.02223925292 0.9761350155 0.02200572193 1 1 1
vn -0.6998016238 0.09878120571 0.7074743509
v 0.02225092426 0.8185281754 0.02200572193 1 1 1
vn 0.6998016238 -0.09878120571 0.7074743509
v -0.02223925292 0.8185281754 0.02200572193 1 1 1
vn -0.6536018848 -0.3690393567 0.6607680917
v 0.02225092426 0.9761350155 0.02200572193 1 1 1
vn 0.6536018848 0.3690393567 0.6607680917
v -0.02223925292 0.7198739052 0.3902032971 1 1 1
vn -0.6998243332 0.2681873441 -0.6620584726
v 0.02225092426 0.7198739052 0.3902032971 1 1 1
vn 0.6535915732 0.01077891048 -0.7567706704
v -0.02223925292 0.8563530445 0.4690043032 1 1 1
vn -0.6535719633 0.6500241756 -0.387701273
v 0.02225092426 0.8563530445 0.4690043032 1 1 1
vn 0.6998310685 0.4392929971 -0.5632567406
v -0.02223925292 0.8343352675 0.5071218014 1 1 1
vn -0.6998077035 -0.2681852877 0.6620768905
v 0.02225092426 0.6978561878 0.4283183813 1 1 1
vn 0.6998162866 -0.4392880201 0.5632789731
v -0.02223925292 0.6978561878 0.4283183813 1 1 1
vn -0.6536755562 -0.6499732733 0.3876119852
v 0.02225092426 0.8343352675 0.5071218014 1 1 1
vn 0.6536061168 -0.01077163965 0.756758213
# mm_gid 0
g mmGroup0
f 2//2 7//7 1//1 
f 6//6 7//7 2//2 
f 5//5 1//1 7//7 
f 3//3 1//1 5//5 
f 4//4 1//1 3//3 
f 2//2 1//1 4//4 
f 8//8 3//3 5//5 
f 4//4 3//3 8//8 
f 6//6 5//5 7//7 
f 8//8 5//5 6//6 
f 4//4 6//6 2//2 
f 8//8 6//6 4//4 
# mm_gid 2
g mmGroup2
f 10//10 15//15 9//9 
f 14//14 15//15 10//10 
f 13//13 9//9 15//15 
f 11//11 9//9 13//13 
f 12//12 9//9 11//11 
f 10//10 9//9 12//12 
f 16//16 11//11 13//13 
f 12//12 11//11 16//16 
f 14//14 13//13 15//15 
f 16//16 13//13 14//14 
f 12//12 14//14 10//10 
f 16//16 14//14 12//12 
# mm_gid 4
g mmGroup4
f 18//18 23//23 17//17 
f 22//22 23//23 18//18 
f 21//21 17//17 23//23 
f 19//19 17//17 21//21 
f 20//20 17//17 19//19 
f 18//18 17//17 20//20 
f 24//24 19//19 21//21 
f 20//20 19//19 24//24 
f 22//22 21//21 23//23 
f 24//24 21//21 22//22 
f 20//20 22//22 18//18 
f 24//24 22//22 20//20 
# mm_gid 6
g mmGroup6
f 26//26 31//31 25//25 
f 30//30 31//31 26//26 
f 29//29 25//25 31//31 
f 27//27 25//25 29//29 
f 28//28 25//25 27//27 
f 26//26 25//25 28//28 
f 32//32 27//27 29//29 
f 28//28 27//27 32//32 
f 30//30 29//29 31//31 
f 32//32 29//29 30//30 
f 28//28 30//30 26//26 
f 32//32 30//30 28//28 
# mm_gid 8
g mmGroup8
f 34//34 39//39 33//33 
f 38//38 39//39 34//34 
f 37//37 33//33 39//39 
f 35//35 33//33 37//37 
f 36//36 33//33 35//35 
f 34//34 33//33 36//36 
f 40//40 35//35 37//37 
f 36//36 35//35 40//40 
f 38//38 37//37 39//39 
f 40//40 37//37 38//38 
f 36//36 38//38 34//34 
f 40//40 38//38 36//36 
# mm_gid 10
g mmGroup10
f 42//42 47//47 41//41 
f 46//46 47//47 42//42 
f 45//45 41//41 47//47 
f 43//43 41//41 45//45 
f 44//44 41//41 43//43 
f 42//42 41//41 44//44 
f 48//48 43//43 45//45 
f 44//44 43//43 48//48 
f 46//46 45//45 47//47 
f 48//48 45//45 46//46 
f 44//44 46//46 42//42 
f 48//48 46//46 44//44 
# mm_gid 12
g mmGroup12
f 50//50 55//55 49//49 
f 54//54 55//55 50//50 
f 53//53 49//49 55//55 
f 51//51 49//49 53//53 
f 52//52 49//49 51//51 
f 50//50 49//49 52//52 
f 56//56 51//51 53//53 
f 52//52 51//51 56//56 
f 54//54 53//53 55//55 
f 56//56 53//53 54//54 
f 52//52 54//54 50//50 
f 56//56 54//54 52//52 
# mm_gid 14
g mmGroup14
f 58//58 63//63 57//57 
f 62//62 63//63 58//58 
f 61//61 57//57 63//63 
f 59//59 57//57 61//61 
f 60//60 57//57 59//59 
f 58//58 57//57 60//60 
f 64//64 59//59 61//61 
f 60//60 59//59 64//64 
f 62//62 61//61 63//63 
f 64//64 61//61 62//62 
f 60//60 62//62 58//58 
f 64//64 62//62 60//60 
# mm_gid 16
g mmGroup16
f 66//66 71//71 65//65 
f 70//70 71//71 66//66 
f 69//69 65//65 71//71 
f 67//67 65//65 69//69 
f 68//68 65//65 67//67 
f 66//66 65//65 68//68 
f 72//72 67//67 69//69 
f 68//68 67//67 72//72 
f 70//70 69//69 71//71 
f 72//72 69//69 70//70 
f 68//68 70//70 66//66 
f 72//72 70//70 68//68 
# mm_gid 18
g mmGroup18
f 74//74 79//79 73//73 
f 78//78 79//79 74//74 
f 77//77 73//73 79//79 
f 75//75 73//73 77//77 
f 76//76 73//73 75//75 
f 74//74 73//73 76//76 
f 80//80 75//75 77//77 
f 76//76 75//75 80//80 
f 78//78 77//77 79//79 
f 80//80 77//77 78//78 
f 76//76 78//78 74//74 
f 80//80 78//78 76//76 
# mm_gid 20
g mmGroup20
f 82//82 87//87 81//81 
f 86//86 87//87 82//82 
f 85//85 81//81 87//87 
f 83//83 81//81 85//85 
f 84//84 81//81 83//83 
f 82//82 81//81 84//84 
f 88//88 83//83 85//85 
f 84//84 83//83 88//88 
f 86//86 85//85 87//87 
f 88//88 85//85 86//86 
f 84//84 86//86 82//82 
f 88//88 86//86 84//84 
# mm_gid 22
g mmGroup22
f 90//90 95//95 89//89 
f 94//94 95//95 90//90 
f 93//93 89//89 95//95 
f 91//91 89//89 93//93 
f 92//92 89//89 91//91 
f 90//90 89//89 92//92 
f 96//96 91//91 93//93 
f 92//92 91//91 96//96 
f 94//94 93//93 95//95 
f 96//96 93//93 94//94 
f 92//92 94//94 90//90 
f 96//96 94//94 92//92 
