v -0.03320965171 -0.76820755 3.643948793 1 1 1
vn -0.09295586497 -0.9955769181 0.01362940203
v -0.6818297505 0.3416686058 -3.64394927 1 1 1
vn -0.8187377453 0.4072376788 -0.4047542214
v 0.5386336446 0.5643448234 -7.476102155e-07 1 1 1
vn 0.6613543034 0.7500736713 -2.955610214e-18
v 0.6854485869 -0.3731900156 -7.476102155e-07 1 1 1
vn 0.9134067893 -0.4070442021 -0.001762595377
v 0.7711993456 -0.03454548493 -3.64394927 1 1 1
vn 0.8882145286 -0.03949207067 -0.4577283859
v 0.5052722096 0.5851390362 -3.64394927 1 1 1
vn 0.5445327759 0.8149818182 -0.1982137114
v -0.187844798 0.7524411678 -7.476102155e-07 1 1 1
vn -0.2045303285 0.9788578749 0.0021470387
v 0.7164540887 0.3088614643 -7.476102155e-07 1 1 1
vn 0.9301026464 0.3672939837 0.002048985101
v 0.7019098997 -0.294699043 3.643948793 1 1 1
vn 0.8681442738 -0.4117690921 0.2770770788
v -0.3345457911 -0.6901866198 -7.476102155e-07 1 1 1
vn -0.4319895506 -0.9018778801 0.001142460504
v -0.7552912235 -0.1524766237 -7.476102155e-07 1 1 1
vn -0.9771463275 -0.2125568688 0.002142556245
v 0.2744738162 -0.7210737467 -7.476102155e-07 1 1 1
vn 0.3473010957 -0.9377530217 -0.001085866825
v -0.4673069417 0.6153568625 -3.64394927 1 1 1
vn -0.6403733492 0.7566153407 -0.13211824
v 0.7711993456 -0.03454547748 -7.476102155e-07 1 1 1
vn 0.9932388663 -0.1160884053 0.0001950842998
v -0.6818297505 -0.3337465525 -3.64394927 1 1 1
vn -0.8369927406 -0.4160600901 -0.3554393053
v -0.5997707844 -0.4652844667 -7.476102155e-07 1 1 1
vn -0.7857176065 -0.6185851693 0.0004289072822
v -0.4929131866 0.5855293274 3.643948793 1 1 1
vn -0.6120057702 0.752472043 0.2433819771
v 0.7477833629 0.1957231313 3.643948793 1 1 1
vn 0.875298202 0.1798781902 0.4488840103
v 0.5052722096 0.5851390362 3.643948793 1 1 1
vn 0.648786664 0.752738893 0.1116246879
v 0.3078352213 -0.7002794743 3.643948793 1 1 1
vn 0.4610388875 -0.8792742491 0.1196659505
v -0.187844798 0.7524411678 3.643948793 1 1 1
vn -0.1879539788 0.9801707268 0.06275821477
v 0.7164540887 0.3088614643 -3.64394927 1 1 1
vn 0.8670269251 0.4396197796 -0.2345181853
v 0.123028636 0.7682074904 3.643948793 1 1 1
vn 0.2345760614 0.9718268514 0.02294900082
v -0.03320965171 -0.76820755 -7.476102155e-07 1 1 1
vn 0.002119444078 -0.9999975562 0.0006195102469
v -0.7357312441 -0.188384831 3.643948793 1 1 1
vn -0.9267500043 -0.1904519796 0.3238247633
v -0.7357312441 0.1963068843 -7.476102155e-07 1 1 1
vn -0.978138268 0.2079485506 0.001725916401
v 0.1598930359 -0.7466315627 -3.64394927 1 1 1
vn 0.3366761506 -0.9396355152 -0.0611083582
v -0.187844798 -0.7445191145 -3.64394927 1 1 1
vn -0.2277549058 -0.9735899568 -0.01582257636
v -0.5806928277 0.5075759888 -7.476102155e-07 1 1 1
vn -0.8133398294 0.5817882419 0.0009140646434
v -0.5806928277 -0.4996561706 3.643948793 1 1 1
vn -0.7198099494 -0.5754806995 0.3881953657
v -0.1878447682 0.7524411678 -3.64394927 1 1 1
vn -0.28616184 0.9557595253 -0.06808147579
v -0.7711994052 0.00396103831 -3.64394927 1 1 1
vn -0.9626688361 0.01838493347 -0.2700569332
v -0.3345457911 -0.6901866198 3.643948793 1 1 1
vn -0.5184286833 -0.8538417816 0.04675380141
v -0.4051336348 0.6634827256 -7.476102155e-07 1 1 1
vn -0.507170558 0.8618448377 0.00120961736
v -0.4673069417 -0.6074371338 -3.64394927 1 1 1
vn -0.6328277588 -0.7558097243 -0.1681686342
v 0.1230286285 0.7682074904 -3.64394927 1 1 1
vn 0.1567240804 0.9875203371 -0.01552878227
v 0.5386336446 -0.55642277 -7.476102155e-07 1 1 1
vn 0.6382832527 -0.7697999477 0.001592330402
v 0.1598930806 0.7545546889 -7.476102155e-07 1 1 1
vn 0.2761922181 0.9611024261 -1.546474754e-10
v -0.7317541838 0.235416308 3.643948793 1 1 1
vn -0.9049917459 0.3317934573 0.2662763298
v 0.6120410562 -0.4648064077 -3.64394927 1 1 1
vn 0.806697011 -0.551676929 -0.2118784338
# mm_gid 2
g mmGroup2
f 15//15 11//11 32//32 
f 32//32 5//5 15//15 
f 15//15 16//16 11//11 
f 32//32 11//11 26//26 
f 32//32 26//26 2//2 
f 2//2 5//5 32//32 
f 5//5 14//14 40//40 
f 15//15 5//5 40//40 
f 9//9 30//30 20//20 
f 20//20 37//37 9//9 
f 9//9 25//25 30//30 
f 25//25 16//16 30//30 
f 25//25 11//11 16//16 
f 9//9 4//4 14//14 
f 25//25 26//26 11//11 
f 22//22 8//8 5//5 
f 5//5 2//2 22//22 
f 5//5 8//8 14//14 
f 40//40 14//14 4//4 
f 15//15 40//40 35//35 
f 35//35 16//16 15//15 
f 30//30 16//16 33//33 
f 20//20 30//30 33//33 
f 20//20 12//12 37//37 
f 27//27 24//24 28//28 
f 27//27 37//37 12//12 
f 40//40 37//37 27//27 
f 35//35 40//40 27//27 
f 35//35 27//27 28//28 
f 28//28 10//10 35//35 
f 40//40 4//4 37//37 
f 9//9 37//37 4//4 
f 35//35 10//10 16//16 
f 33//33 16//16 10//10 
f 27//27 12//12 24//24 
f 28//28 24//24 10//10 
f 33//33 10//10 1//1 
f 20//20 33//33 1//1 
f 1//1 24//24 20//20 
f 20//20 24//24 12//12 
f 1//1 10//10 24//24 
f 9//9 14//14 18//18 
f 25//25 9//9 18//18 
f 25//25 18//18 39//39 
f 39//39 26//26 25//25 
f 22//22 2//2 6//6 
f 6//6 3//3 22//22 
f 22//22 3//3 8//8 
f 18//18 8//8 19//19 
f 17//17 18//18 19//19 
f 17//17 29//29 39//39 
f 39//39 18//18 17//17 
f 18//18 14//14 8//8 
f 2//2 26//26 29//29 
f 2//2 29//29 13//13 
f 6//6 2//2 13//13 
f 17//17 19//19 21//21 
f 21//21 7//7 17//17 
f 17//17 7//7 34//34 
f 19//19 8//8 3//3 
f 17//17 34//34 29//29 
f 31//31 34//34 7//7 
f 36//36 38//38 6//6 
f 6//6 31//31 36//36 
f 6//6 13//13 31//31 
f 13//13 34//34 31//31 
f 13//13 29//29 34//34 
f 6//6 38//38 3//3 
f 19//19 3//3 38//38 
f 19//19 38//38 23//23 
f 21//21 19//19 23//23 
f 36//36 7//7 38//38 
f 31//31 7//7 36//36 
f 23//23 38//38 21//21 
f 21//21 38//38 7//7 
f 39//39 29//29 26//26 
