v 0.2452325076 0.08925761282 -0.1668519527 1 1 1
vn 0.5237159729 0.2262398005 -0.8213021159
v 0.2452325076 0.08925761282 0.1668513119 1 1 1
vn 0.5928112864 0.1771345437 0.7856196165
v 0.2609712183 1.419669232e-14 -0.1668519527 1 1 1
vn 0.5461570621 0.0321011506 -0.8370674849
v 0.2609712183 1.419669232e-14 0.1668513119 1 1 1
vn 0.5461570621 -0.0321011506 0.8370674849
v 0.2452325076 -0.08925760537 -0.1668519527 1 1 1
vn 0.5928112864 -0.1771345437 -0.7856196165
v 0.2452325076 -0.08925760537 0.1668513119 1 1 1
vn 0.5237159729 -0.2262398005 0.8213021159
v 0.1999153942 -0.1677486449 -0.1668519527 1 1 1
vn 0.6325107813 -0.4703678489 -0.6153732538
v 0.1999153942 -0.1677486449 0.1668513119 1 1 1
vn 0.5036619306 -0.4756875932 0.7211421132
v 0.1304858327 -0.226006791 -0.1668519527 1 1 1
vn 0.5279604197 -0.8017975092 -0.2799616456
v 0.1304858327 -0.226006791 0.1668513119 1 1 1
vn 0.3976885378 -0.7929053307 0.4616762102
v 0.04531711712 -0.2570063174 -0.1668519527 1 1 1
vn 0.2310232073 -0.9724422693 -0.03137312457
v 0.04531711712 -0.2570063174 0.1668513119 1 1 1
vn 0.1147213802 -0.9860162139 0.1208760366
v -0.04531711712 -0.2570063174 -0.1668519527 1 1 1
vn -0.1147214398 -0.9860162139 -0.1208761036
v -0.04531711712 -0.2570063174 0.1668513119 1 1 1
vn -0.2310234457 -0.9724422097 0.0313731581
v -0.1304856837 -0.226006791 -0.1668519527 1 1 1
vn -0.3976889849 -0.7929047942 -0.4616767466
v -0.1304856837 -0.226006791 0.1668513119 1 1 1
vn -0.5279610157 -0.8017969728 0.2799620032
v -0.1999151111 -0.1677486449 -0.1668519527 1 1 1
vn -0.5036621094 -0.475687027 -0.7211423516
v -0.1999151111 -0.1677486449 0.1668513119 1 1 1
vn -0.6325109005 -0.470367521 0.615373373
v -0.2452322245 -0.08925760537 -0.1668519527 1 1 1
vn -0.5237159133 -0.2262400836 -0.8213020563
v -0.2452322245 -0.08925760537 0.1668513119 1 1 1
vn -0.5928112268 -0.1771351844 0.7856194973
v -0.2609710991 1.419669232e-14 -0.1668519527 1 1 1
vn -0.5461570621 -0.03210144117 -0.8370674849
v -0.2609710991 1.419669232e-14 0.1668513119 1 1 1
vn -0.5461570621 0.03210144117 0.8370674849
v -0.2452322245 0.08925761282 -0.1668519527 1 1 1
vn -0.5928112268 0.1771351844 -0.7856194973
v -0.2452322245 0.08925761282 0.1668513119 1 1 1
vn -0.5237159133 0.2262400836 0.8213020563
v -0.1999151111 0.16774863 -0.1668519527 1 1 1
vn -0.6325109005 0.4703676999 -0.6153731942
v -0.1999151111 0.16774863 0.1668513119 1 1 1
vn -0.5036619306 0.475687176 0.7211424112
v -0.1304856837 0.2260067165 -0.1668519527 1 1 1
vn -0.5279607177 0.8017972708 -0.279961884
v -0.1304856837 0.2260067165 0.1668513119 1 1 1
vn -0.3976888657 0.7929050922 0.4616764188
v -0.04531711712 0.257006228 -0.1668519527 1 1 1
vn -0.2310234457 0.9724422097 -0.0313731581
v -0.04531711712 0.257006228 0.1668513119 1 1 1
vn -0.1147214398 0.9860162139 0.1208761036
v 0.04531711712 0.257006228 -0.1668519527 1 1 1
vn 0.1147213802 0.9860162139 -0.1208760366
v 0.04531711712 0.257006228 0.1668513119 1 1 1
vn 0.2310232073 0.9724422693 0.03137312457
v 0.1304858327 0.2260067165 -0.1668519527 1 1 1
vn 0.3976884186 0.7929055691 -0.4616759121
v 0.1304858327 0.2260067165 0.1668513119 1 1 1
vn 0.527960062 0.8017978072 0.2799615562
v 0.1999153942 0.16774863 -0.1668519527 1 1 1
vn 0.5036617517 0.4756877422 -0.7211421728
v 0.1999153942 0.16774863 0.1668513119 1 1 1
vn 0.6325107813 0.4703680277 0.615373075
# mm_gid 33
g mmGroup33
f 1//1 2//2 3//3 
f 3//3 21//21 1//1 
f 1//1 21//21 23//23 
f 1//1 23//23 35//35 
f 35//35 36//36 1//1 
f 1//1 36//36 2//2 
f 26//26 2//2 36//36 
f 26//26 36//36 28//28 
f 27//27 26//26 28//28 
f 27//27 28//28 29//29 
f 31//31 27//27 29//29 
f 29//29 30//30 31//31 
f 31//31 30//30 32//32 
f 31//31 32//32 33//33 
f 33//33 27//27 31//31 
f 33//33 25//25 27//27 
f 25//25 26//26 27//27 
f 25//25 24//24 26//26 
f 24//24 2//2 26//26 
f 24//24 4//4 2//2 
f 3//3 2//2 4//4 
f 3//3 4//4 5//5 
f 5//5 19//19 3//3 
f 3//3 19//19 21//21 
f 19//19 20//20 21//21 
f 21//21 20//20 22//22 
f 21//21 22//22 23//23 
f 23//23 22//22 24//24 
f 23//23 24//24 25//25 
f 35//35 23//23 25//25 
f 35//35 25//25 33//33 
f 33//33 34//34 35//35 
f 35//35 34//34 36//36 
f 28//28 36//36 34//34 
f 28//28 34//34 30//30 
f 29//29 28//28 30//30 
f 30//30 34//34 32//32 
f 33//33 32//32 34//34 
f 22//22 4//4 24//24 
f 22//22 6//6 4//4 
f 5//5 4//4 6//6 
f 5//5 6//6 7//7 
f 17//17 5//5 7//7 
f 17//17 7//7 15//15 
f 15//15 16//16 17//17 
f 17//17 16//16 18//18 
f 17//17 18//18 19//19 
f 19//19 5//5 17//17 
f 19//19 18//18 20//20 
f 8//8 20//20 18//18 
f 8//8 18//18 10//10 
f 9//9 8//8 10//10 
f 9//9 10//10 11//11 
f 13//13 9//9 11//11 
f 11//11 12//12 13//13 
f 13//13 12//12 14//14 
f 13//13 14//14 15//15 
f 15//15 9//9 13//13 
f 15//15 7//7 9//9 
f 7//7 8//8 9//9 
f 7//7 6//6 8//8 
f 6//6 20//20 8//8 
f 20//20 6//6 22//22 
f 15//15 14//14 16//16 
f 12//12 16//16 14//14 
f 10//10 16//16 12//12 
f 11//11 10//10 12//12 
f 10//10 18//18 16//16 
