v 0.07629977912 0.5944091082 1.322717309 1 1 1
vn 0.9936555624 -0.07131899148 0.08696137369
v 0.07629977912 -0.5944068432 -1.322717667 1 1 1
vn 0.9946033955 0.07138703018 -0.07528560609
v 0.246952787 -0.5944068432 1.322717309 1 1 1
vn 0.9941089749 0.1035335138 0.03206423298
v 0.05761116371 0.7617573142 1.322717309 1 1 1
vn -0.9948450923 0.08602298796 0.05369657651
v -0.2444737405 -1.413695574 -1.322717667 1 1 1
vn -0.8766323924 -0.4643982947 -0.1258963048
v -0.2444737405 -1.413695574 1.322717309 1 1 1
vn -0.9906566143 -0.1316288263 0.03568398952
v -0.2444737405 1.413695693 -1.322717667 1 1 1
vn -0.9887316227 0.1454571635 -0.03538298607
v 0.05761116371 -1.413695574 1.322717309 1 1 1
vn -0.9904396534 -0.1307448596 0.04399003088
v -0.05513338745 0.7617573142 -1.322717667 1 1 1
vn 0.9648693204 0.08343102038 -0.2491313517
v -0.05513338745 -0.6965299845 -1.322717667 1 1 1
vn 0.8674915433 -0.2727541327 -0.4160090983
v -0.05513338745 -0.6965299845 1.322717309 1 1 1
vn 0.9770632982 -0.0768013373 0.1986174732
v -0.2444737405 1.413695693 1.322717309 1 1 1
vn -0.8574209809 0.4996663928 0.1231372729
v 0.246952787 1.413695693 -1.322717667 1 1 1
vn 0.9003096819 0.4161330462 -0.1275765151
v 0.246952787 0.5944091082 -1.322717667 1 1 1
vn 0.9941089749 -0.103533797 -0.03206423298
v -0.05513338745 -1.413695574 -1.322717667 1 1 1
vn 0.990776062 -0.1307884008 -0.03545615077
v 0.246952787 -0.5944068432 -1.322717667 1 1 1
vn 0.9214703441 0.3838736415 -0.05944265798
v -0.2444737405 -0.6965299845 1.322717309 1 1 1
vn -0.9161381125 -0.003167032264 0.400850296
v -0.05513338745 0.7617573142 1.322717309 1 1 1
vn 0.8264421821 0.2858456075 0.4850625396
v -0.2469529361 -0.6965299845 1.322717309 1 1 1
vn -0.9999998808 -0.0004250428465 0.0002343034575
v 0.05761116371 -0.6965299845 -1.322717667 1 1 1
vn -0.9969035387 -0.07836087048 -0.00654630689
v 0.05761116371 0.7617573142 -1.322717667 1 1 1
vn -0.9401874542 0.3251872361 -0.1014928818
v 0.05761116371 -0.6965299845 1.322717309 1 1 1
vn -0.9538829923 -0.2999170721 0.01252761204
v 0.05761116371 -1.413695574 -1.322717667 1 1 1
vn -0.881577909 -0.4654974639 -0.07830995321
v -0.05513338745 1.413695693 -1.322717667 1 1 1
vn 0.8581191897 0.498441577 -0.1232375503
v -0.05513338745 1.413695693 1.322717309 1 1 1
vn 0.98900038 0.1436160952 0.03539260477
v -0.05513338745 -1.413695574 1.322717309 1 1 1
vn 0.877294302 -0.4632324874 0.1255802512
v 0.246952787 -1.413695574 1.322717309 1 1 1
vn 0.900880456 -0.416395694 0.1225931123
v 0.05761116371 1.413695693 -1.322717667 1 1 1
vn -0.9890002608 0.1436170489 -0.03539283946
v 0.246952787 0.5944091082 1.322717309 1 1 1
vn 0.9214699864 -0.3838745654 0.0594426319
v 0.246952787 1.413695693 1.322717309 1 1 1
vn 0.9909384847 0.114505671 0.07020944357
v 0.246952787 -1.413695574 -1.322717667 1 1 1
vn 0.9911285043 -0.1145273075 -0.06743710488
v 0.05761116371 1.413695693 1.322717309 1 1 1
vn -0.8630579114 0.5013136268 0.06177160889
v -0.2457134128 -0.6965299845 -1.322717667 1 1 1
vn -0.9959183931 -0.00128039252 -0.09024899453
v -0.2457134128 0.7617573142 -1.322717667 1 1 1
vn -0.9984427691 0.0006936604041 -0.05578139052
v 0.07629977912 0.5944091082 -1.322717667 1 1 1
vn 0.9478517175 -0.2721258104 -0.165905565
v 0.07629977912 -0.5944068432 1.322717309 1 1 1
vn 0.9511552453 0.2730742395 0.1439936608
v -0.2457134128 0.7617573142 1.322717309 1 1 1
vn -0.99846071 0.001344287302 0.05544692278
# mm_gid 4
g mmGroup4
f 1//1 35//35 29//29 
f 30//30 14//14 13//13 
f 13//13 32//32 30//30 
f 36//36 11//11 22//22 
f 33//33 10//10 5//5 
f 6//6 33//33 5//5 
f 6//6 5//5 26//26 
f 6//6 26//26 17//17 
f 17//17 33//33 6//6 
f 18//18 12//12 37//37 
f 7//7 37//37 12//12 
f 7//7 12//12 24//24 
f 7//7 24//24 34//34 
f 34//34 37//37 7//7 
f 37//37 34//34 19//19 
f 19//19 34//34 33//33 
f 33//33 17//17 19//19 
f 17//17 37//37 19//19 
f 18//18 37//37 17//17 
f 17//17 11//11 18//18 
f 17//17 26//26 11//11 
f 15//15 11//11 26//26 
f 26//26 5//5 15//15 
f 5//5 10//10 15//15 
f 10//10 11//11 15//15 
f 10//10 22//22 11//11 
f 10//10 2//2 20//20 
f 20//20 22//22 10//10 
f 22//22 20//20 8//8 
f 36//36 22//22 8//8 
f 8//8 27//27 36//36 
f 8//8 23//23 27//27 
f 8//8 20//20 23//23 
f 20//20 2//2 23//23 
f 23//23 2//2 31//31 
f 27//27 23//23 31//31 
f 27//27 31//31 3//3 
f 36//36 27//27 3//3 
f 16//16 36//36 3//3 
f 3//3 31//31 16//16 
f 31//31 2//2 16//16 
f 2//2 36//36 16//16 
f 2//2 1//1 36//36 
f 1//1 11//11 36//36 
f 18//18 11//11 1//1 
f 18//18 1//1 4//4 
f 4//4 21//21 18//18 
f 21//21 4//4 28//28 
f 28//28 13//13 21//21 
f 28//28 32//32 13//13 
f 28//28 4//4 32//32 
f 4//4 30//30 32//32 
f 4//4 1//1 30//30 
f 1//1 29//29 30//30 
f 29//29 14//14 30//30 
f 29//29 35//35 14//14 
f 13//13 14//14 35//35 
f 21//21 13//13 35//35 
f 21//21 35//35 9//9 
f 18//18 21//21 9//9 
f 18//18 9//9 25//25 
f 25//25 12//12 18//18 
f 24//24 12//12 25//25 
f 25//25 9//9 24//24 
f 34//34 24//24 9//9 
f 9//9 33//33 34//34 
f 9//9 10//10 33//33 
f 9//9 35//35 10//10 
f 35//35 2//2 10//10 
f 35//35 1//1 2//2 
