v -0.09467024356 0.4096444249 -1.322717667 1 1 1
vn -0.9927629232 0.1147153974 -0.03552725166
v -0.09467024356 0.4096444249 1.322717309 1 1 1
vn -0.9001613259 0.4160605073 0.1288535595
v 0.09467010945 0.4096444249 -1.322717667 1 1 1
vn 0.9001613259 0.4160605073 -0.1288535595
v 0.09467010945 0.4096444249 1.322717309 1 1 1
vn 0.9927629232 0.1147153974 0.03552725166
v -0.09467024356 -0.4096443653 1.322717309 1 1 1
vn -0.9927629232 -0.1147153974 0.03552725166
v 0.09467010945 -0.4096443653 1.322717309 1 1 1
vn 0.9001613259 -0.4160605073 0.1288535595
v -0.09467024356 -0.4096443653 -1.322717667 1 1 1
vn -0.9001613259 -0.4160605073 -0.1288535595
v 0.09467010945 -0.4096443653 -1.322717667 1 1 1
vn 0.9927629232 -0.1147153974 -0.03552725166
# mm_gid 4
g mmGroup4
f 1//1 2//2 3//3 
f 3//3 7//7 1//1 
f 5//5 1//1 7//7 
f 5//5 7//7 6//6 
f 5//5 6//6 2//2 
f 2//2 1//1 5//5 
f 2//2 6//6 4//4 
f 3//3 2//2 4//4 
f 4//4 8//8 3//3 
f 8//8 7//7 3//3 
f 6//6 7//7 8//8 
f 6//6 8//8 4//4 
