v 0.1218742132 -0.1093106493 0.05736940354 1 1 1
vn 0.9894970655 -0.1306010187 0.06195955351
v 0.09440413862 -0.119478941 0.01450638939 1 1 1
vn -0.3338495791 -0.9273167253 0.169198364
v 0.1218742132 -0.1234516501 -1.805153715e-07 1 1 1
vn 0.993447423 -0.1141971648 -0.004612739198
v 0.09440413862 -0.1125343665 -0.04267973825 1 1 1
vn -0.3338593841 -0.8997217417 -0.2811382711
v 0.1218742132 -0.1093106493 -0.05737089738 1 1 1
vn 0.9894973636 -0.125178054 -0.07228672504
v 0.09440413862 -0.07981158048 -0.09008773416 1 1 1
vn -0.3338557184 -0.6660195589 -0.667051971
v 0.1218742132 -0.0701270178 -0.1015991941 1 1 1
vn 0.9453675151 -0.1742141396 -0.2755535245
v 0.09440413862 -0.02880395204 -0.116858013 1 1 1
vn -0.3338573277 -0.2797291875 -0.9001615644
v 0.1218742132 -0.01488120668 -0.1225505099 1 1 1
vn 0.2554545403 -0.07770446688 -0.96369344
v 0.09440413862 0.02880161256 -0.116858013 1 1 1
vn -0.3338565826 0.1706258655 -0.9270526171
v 0.1218742132 0.04377730936 -0.1154283658 1 1 1
vn 0.7721992731 0.2490918487 -0.5845182538
v 0.09440413862 0.07981151342 -0.09008773416 1 1 1
vn -0.3338586092 0.5818957686 -0.7415764928
v 0.1218742132 0.09240477532 -0.08186315745 1 1 1
vn 0.9800550938 0.153945908 -0.1256688833
v 0.09440413862 0.1125343069 -0.04267973825 1 1 1
vn -0.3338587284 0.8598799706 -0.3861926198
v 0.1218742132 0.1198634356 -0.02954412065 1 1 1
vn 0.9926503897 0.1185737178 -0.02419628203
v 0.09440413862 0.1194788069 0.01450638939 1 1 1
vn -0.3338624835 0.9408572912 0.05764896423
v 0.1218742132 0.1198634356 0.02954319306 1 1 1
vn 0.9926502705 0.1162373871 0.03368022665
v 0.09440413862 0.09905013442 0.06836906075 1 1 1
vn -0.3338675499 0.8062942624 0.4882847667
v 0.1218742132 0.09240477532 0.08186222613 1 1 1
vn 0.9800546169 0.143311426 0.1376762986
v 0.09440413862 0.05593185499 0.1065685675 1 1 1
vn -0.3338643014 0.487029314 0.8070545793
v 0.1218742132 0.04377730936 0.1154271513 1 1 1
vn 0.7722109556 0.2011502534 0.602684617
v 0.09440413862 -7.088684129e-08 0.1203552112 1 1 1
vn -0.3338563144 0.05618895218 0.9409477711
v 0.1218742132 -0.01488120668 0.1225507185 1 1 1
vn 0.2554839551 -0.1551684439 0.9542801976
v 0.09440413862 -0.05593200028 0.1065685675 1 1 1
vn -0.3338581324 -0.3875367045 0.859275341
v 0.1218742132 -0.0701270178 0.1015979797 1 1 1
vn 0.9453672171 -0.1958712041 0.2606056333
v 0.09440413862 -0.09905020148 0.06836906075 1 1 1
vn -0.333846122 -0.7424679995 0.5807650089
v -5.670949008e-07 -0.009832998738 0.01703081094 1 1 1
vn -3.993170732e-17 -0.5952686071 0.8035267591
v 0.01064919028 -0.02489191853 0.04742737859 1 1 1
vn -0.8423724771 -0.2928857207 0.4523566365
v -5.670949008e-07 -7.088684129e-08 0.01966496743 1 1 1
vn -3.369386156e-16 2.17066235e-16 1
v 0.01064919028 -7.088684129e-08 0.05356334522 1 1 1
vn -0.8349984288 -0.05497093499 0.5474996567
v 0.01064919028 0.02489184961 0.04742737859 1 1 1
vn -0.8420778513 0.2000101656 0.5009000301
v 0.04490384459 -7.088684129e-08 0.0965173766 1 1 1
vn -0.6016343236 -0.03384779021 0.7980541587
v 0.04490384459 0.04485259205 0.08546129614 1 1 1
vn -0.6016339064 0.3409119546 0.7223681211
v 0.01064919028 -0.04408113658 0.03042700887 1 1 1
vn -0.8421446681 -0.4701458514 0.2641122043
v -5.670949008e-07 -0.01703184284 0.009832110256 1 1 1
vn 0 -0.9079455733 0.4190880358
v 0.01064919028 -0.05317393318 0.006455060095 1 1 1
vn -0.841953218 -0.5393479466 0.01478500199
v -5.670949008e-07 -0.0196661409 -1.805153715e-07 1 1 1
vn 7.961052236e-17 -0.9976613522 -0.06835098565
v 0.01064919028 -0.05008305237 -0.01899445429 1 1 1
vn -0.8418013453 -0.4843907058 -0.2381934226
v -5.670949008e-07 -0.01703184284 -0.009833037853 1 1 1
vn -7.95300013e-17 -0.8423271179 -0.5389666557
v 0.01064919028 -0.03551906347 -0.0400926508 1 1 1
vn -0.8416956663 -0.317828685 -0.4365012944
v -5.670949008e-07 -0.009832998738 -0.01703117229 1 1 1
vn -1.589590998e-16 -0.4801408648 -0.8771914244
v 0.01064919028 -0.01281825732 -0.05200731382 1 1 1
vn -0.8416265249 -0.07800530642 -0.5343968868
v -5.670949008e-07 -7.088684129e-08 -0.01966589503 1 1 1
vn -1.589340064e-16 5.463356554e-17 -1
v 0.01064919028 0.01281818654 -0.05200731382 1 1 1
vn -0.8415991068 0.1798668802 -0.5092728734
v -5.670949008e-07 0.009832928888 -0.01703117229 1 1 1
vn 3.179177761e-16 0.4801402092 -0.877191782
v 0.01064919028 0.03551899269 -0.0400926508 1 1 1
vn -0.8416138887 0.3963279128 -0.3668927252
v -5.670949008e-07 0.01703177206 -0.009833037853 1 1 1
vn 7.95300013e-17 0.8423271179 -0.5389666557
v 0.01064919028 0.05008297786 -0.01899445429 1 1 1
vn -0.8416672945 0.521512568 -0.1400741786
v -5.670949008e-07 0.01966607012 -1.805153715e-07 1 1 1
vn 7.961078045e-17 0.9976645708 -0.06830417365
v 0.01064919028 0.05317173153 0.006455060095 1 1 1
vn -0.8417623043 0.5265945792 0.1188880578
v -5.670949008e-07 0.01703177206 0.009832110256 1 1 1
vn -3.985971349e-16 0.9079635143 0.4190492332
v 0.01064919028 0.04408105835 0.03042700887 1 1 1
vn -0.8418988585 0.4104813337 0.3503018916
v -5.670949008e-07 0.009832928888 0.01703081094 1 1 1
vn -4.79179879e-16 0.5952678919 0.8035273552
v 0.04490384459 -0.04485493526 0.08546129614 1 1 1
vn -0.6016327739 -0.4008460343 0.6909127831
v 0.04490384459 -0.07943361253 0.05482739955 1 1 1
vn -0.6016336083 -0.6760089397 0.425498426
v 0.04490384459 -0.09581527859 0.01163405366 1 1 1
vn -0.6016409993 -0.796310842 0.06258710474
v 0.04490384459 -0.09024527669 -0.03422548994 1 1 1
vn -0.6016356945 -0.7341895103 -0.3146429956
v 0.04490384459 -0.06400360167 -0.07224465907 1 1 1
vn -0.6016378999 -0.5038722754 -0.6197939515
v 0.04490384459 -0.02309897728 -0.09371317178 1 1 1
vn -0.6016336679 -0.1581257284 -0.7829643488
v 0.04490384459 0.02309663966 -0.09371317178 1 1 1
vn -0.6016280055 0.2238433063 -0.7667710781
v 0.04490384459 0.06400352716 -0.07224465907 1 1 1
vn -0.6016444564 0.5545371175 -0.5749021769
v 0.04490384459 0.09024520963 -0.03422548994 1 1 1
vn -0.6016401649 0.7581930757 -0.2513410747
v 0.04490384459 0.09581301361 0.01163405366 1 1 1
vn -0.6016432643 0.7881467938 0.1298075765
v 0.04490384459 0.07943134755 0.05482739955 1 1 1
vn -0.6016402841 0.637552917 0.4812018871
v -0.1218742058 0.1093106493 -0.05737089738 1 1 1
vn -0.9894965291 0.1251830608 -0.07228973508
v -0.1218742058 -0.1198635772 -0.02954412065 1 1 1
vn -0.9926497936 -0.1185784712 -0.0241973009
v -0.1218742058 0.1234517321 -1.805153715e-07 1 1 1
vn -0.9934468865 0.114201799 -0.004612879362
v -0.1218742058 -0.1198635772 0.02954319306 1 1 1
vn -0.9926496744 -0.1162420362 0.03368162736
v -0.1218742058 0.1093106493 0.05736940354 1 1 1
vn -0.9894961715 0.1306062788 0.06196210906
v -0.1218742058 -0.09240490943 0.08186222613 1 1 1
vn -0.9800530672 -0.1433170587 0.1376817077
v -0.1218742058 0.07012694329 0.1015979797 1 1 1
vn -0.9453629851 0.1958784312 0.2606156468
v -0.1218742058 -0.04377738386 0.1154271513 1 1 1
vn -0.7721982598 -0.2011551559 0.6026992798
v -0.1218742058 0.01488106512 0.1225507185 1 1 1
vn -0.2554737031 0.1551688761 0.9542828798
v -0.1218742058 -0.09240490943 -0.08186315745 1 1 1
vn -0.9800534844 -0.1539519876 -0.1256739199
v -0.1218742058 0.07012694329 -0.1015991941 1 1 1
vn -0.9453616738 0.1742211282 -0.2755691409
v -0.1218742058 -0.04377738386 -0.1154283658 1 1 1
vn -0.7721940279 -0.249097392 -0.5845227242
v -0.1218742058 0.01488106512 -0.1225505099 1 1 1
vn -0.2554386854 0.07770480216 -0.9636976123
v -0.01064904872 0.02489184961 0.04742737859 1 1 1
vn 0.8423716426 0.2928872406 0.4523572922
v -0.01064904872 -7.088684129e-08 0.05356334522 1 1 1
vn 0.8350019455 0.05497243255 0.5474941134
v -0.01064904872 -0.02489191853 0.04742737859 1 1 1
vn 0.8420832157 -0.2000029832 0.5008938313
v -0.04490384459 -7.088684129e-08 0.0965173766 1 1 1
vn 0.6016414762 0.03384684026 0.7980488539
v -0.04490384459 -0.04485493526 0.08546129614 1 1 1
vn 0.6016411185 -0.3409053683 0.7223652005
v -0.09440299869 -7.088684129e-08 0.1203552112 1 1 1
vn 0.3338548243 -0.05618809909 0.9409483671
v -0.09440299869 -0.05593200028 0.1065685675 1 1 1
vn 0.3338516355 -0.4870314896 0.8070585132
v -0.01064904872 0.04408105835 0.03042700887 1 1 1
vn 0.8421438932 0.4701531827 0.2641015649
v -0.01064904872 0.05317173153 0.006455060095 1 1 1
vn 0.8419513106 0.5393506885 0.01479422022
v -0.01064904872 0.05008297786 -0.01899445429 1 1 1
vn 0.8418049812 0.4843903184 -0.2381813526
v -0.01064904872 0.03551899269 -0.0400926508 1 1 1
vn 0.8416974545 0.3178209364 -0.4365033805
v -0.01064904872 0.01281818654 -0.05200731382 1 1 1
vn 0.8416293859 0.07800355554 -0.5343925357
v -0.01064904872 -0.01281825732 -0.05200731382 1 1 1
vn 0.8416057229 -0.179867819 -0.5092615485
v -0.01064904872 -0.03551906347 -0.0400926508 1 1 1
vn 0.8416178226 -0.3963240683 -0.3668878376
v -0.01064904872 -0.05008305237 -0.01899445429 1 1 1
vn 0.8416710496 -0.5215012431 -0.1400938332
v -0.01064904872 -0.05317393318 0.006455060095 1 1 1
vn 0.8417744637 -0.526575923 0.118884705
v -0.01064904872 -0.04408113658 0.03042700887 1 1 1
vn 0.8419091702 -0.4104622006 0.3502995074
v -0.09440299869 0.1194788069 0.01450638939 1 1 1
vn 0.3338732719 0.9273085594 0.1691966057
v -0.09440299869 0.1125343069 -0.04267973825 1 1 1
vn 0.3338680565 0.899721086 -0.2811300159
v -0.09440299869 0.07981151342 -0.09008773416 1 1 1
vn 0.3338571191 0.6660122275 -0.6670585871
v -0.09440299869 0.02880161256 -0.116858013 1 1 1
vn 0.3338615 0.2797221839 -0.90016222
v -0.09440299869 -0.02880395204 -0.116858013 1 1 1
vn 0.3338518739 -0.17062895 -0.9270537496
v -0.09440299869 -0.07981158048 -0.09008773416 1 1 1
vn 0.333853811 -0.58190763 -0.7415693998
v -0.09440299869 -0.1125343665 -0.04267973825 1 1 1
vn 0.3338590264 -0.8598799109 -0.3861925304
v -0.09440299869 -0.119478941 0.01450638939 1 1 1
vn 0.33384794 -0.9408628941 0.05764149129
v -0.09440299869 -0.09905020148 0.06836906075 1 1 1
vn 0.3338478506 -0.8063000441 0.4882887304
v -0.09440299869 0.09905013442 0.06836906075 1 1 1
vn 0.3338645399 0.7424629331 0.5807609558
v -0.09440299869 0.05593185499 0.1065685675 1 1 1
vn 0.3338644505 0.3875389993 0.8592718244
v -0.04490384459 0.04485259205 0.08546129614 1 1 1
vn 0.6016411781 0.400847584 0.6909045577
v -0.04490384459 0.07943134755 0.05482739955 1 1 1
vn 0.6016423106 0.6760029197 0.4254956841
v -0.04490384459 0.09581301361 0.01163405366 1 1 1
vn 0.601650238 0.7963032126 0.06259545684
v -0.04490384459 0.09024520963 -0.03422548994 1 1 1
vn 0.6016423702 0.7341918349 -0.3146247864
v -0.04490384459 0.06400352716 -0.07224465907 1 1 1
vn 0.601642549 0.5038600564 -0.6197994351
v -0.04490384459 0.02309663966 -0.09371317178 1 1 1
vn 0.6016368866 0.1581233144 -0.7829623818
v -0.04490384459 -0.02309897728 -0.09371317178 1 1 1
vn 0.601636827 -0.2238465846 -0.7667632103
v -0.04490384459 -0.06400360167 -0.07224465907 1 1 1
vn 0.6016503572 -0.5545402765 -0.5748929381
v -0.04490384459 -0.09024527669 -0.03422548994 1 1 1
vn 0.6016401052 -0.7581889033 -0.2513538897
v -0.04490384459 -0.09581527859 0.01163405366 1 1 1
vn 0.6016367674 -0.7881546617 0.1297899783
v -0.04490384459 -0.07943361253 0.05482739955 1 1 1
vn 0.6016406417 -0.6375509501 0.4812040329
# mm_gid 5
g mmGroup5
f 1//1 2//2 3//3 
f 3//3 17//17 1//1 
f 1//1 17//17 19//19 
f 1//1 19//19 25//25 
f 25//25 26//26 1//1 
f 1//1 26//26 2//2 
f 26//26 55//55 2//2 
f 2//2 55//55 56//56 
f 2//2 56//56 4//4 
f 3//3 2//2 4//4 
f 3//3 4//4 5//5 
f 5//5 15//15 3//3 
f 3//3 15//15 17//17 
f 15//15 16//16 17//17 
f 17//17 16//16 18//18 
f 17//17 18//18 19//19 
f 19//19 18//18 20//20 
f 19//19 20//20 21//21 
f 25//25 19//19 21//21 
f 25//25 21//21 23//23 
f 23//23 24//24 25//25 
f 25//25 24//24 26//26 
f 24//24 54//54 26//26 
f 26//26 54//54 55//55 
f 54//54 28//28 55//55 
f 55//55 28//28 34//34 
f 55//55 34//34 56//56 
f 56//56 34//34 36//36 
f 56//56 36//36 57//57 
f 4//4 56//56 57//57 
f 4//4 57//57 6//6 
f 5//5 4//4 6//6 
f 5//5 6//6 7//7 
f 13//13 5//5 7//7 
f 13//13 7//7 11//11 
f 11//11 12//12 13//13 
f 13//13 12//12 14//14 
f 13//13 14//14 15//15 
f 15//15 5//5 13//13 
f 15//15 14//14 16//16 
f 14//14 62//62 16//16 
f 16//16 62//62 63//63 
f 16//16 63//63 18//18 
f 18//18 63//63 64//64 
f 18//18 64//64 20//20 
f 20//20 64//64 33//33 
f 33//33 22//22 20//20 
f 21//21 20//20 22//22 
f 21//21 22//22 23//23 
f 23//23 22//22 24//24 
f 22//22 32//32 24//24 
f 24//24 32//32 54//54 
f 32//32 30//30 54//54 
f 54//54 30//30 28//28 
f 29//29 28//28 30//30 
f 29//29 30//30 31//31 
f 31//31 53//53 29//29 
f 53//53 78//78 29//29 
f 29//29 78//78 79//79 
f 29//29 79//79 80//80 
f 80//80 27//27 29//29 
f 27//27 28//28 29//29 
f 28//28 27//27 34//34 
f 34//34 27//27 35//35 
f 34//34 35//35 36//36 
f 36//36 35//35 37//37 
f 36//36 37//37 38//38 
f 57//57 36//36 38//38 
f 57//57 38//38 58//58 
f 6//6 57//57 58//58 
f 6//6 58//58 8//8 
f 7//7 6//6 8//8 
f 7//7 8//8 9//9 
f 11//11 7//7 9//9 
f 9//9 10//10 11//11 
f 11//11 10//10 12//12 
f 10//10 60//60 12//12 
f 12//12 60//60 61//61 
f 12//12 61//61 14//14 
f 14//14 61//61 62//62 
f 61//61 46//46 62//62 
f 62//62 46//46 48//48 
f 62//62 48//48 63//63 
f 63//63 48//48 50//50 
f 63//63 50//50 64//64 
f 64//64 50//50 52//52 
f 64//64 52//52 33//33 
f 33//33 52//52 31//31 
f 31//31 32//32 33//33 
f 33//33 32//32 22//22 
f 31//31 30//30 32//32 
f 52//52 53//53 31//31 
f 52//52 51//51 53//53 
f 85//85 53//53 51//51 
f 85//85 51//51 86//86 
f 108//108 85//85 86//86 
f 108//108 86//86 109//109 
f 96//96 108//108 109//109 
f 97//97 96//96 109//109 
f 97//97 109//109 110//110 
f 98//98 97//97 110//110 
f 98//98 110//110 111//111 
f 99//99 98//98 111//111 
f 99//99 111//111 112//112 
f 100//100 99//99 112//112 
f 100//100 112//112 113//113 
f 101//101 100//100 113//113 
f 101//101 113//113 114//114 
f 102//102 101//101 114//114 
f 102//102 114//114 115//115 
f 103//103 102//102 115//115 
f 103//103 115//115 116//116 
f 84//84 103//103 116//116 
f 84//84 116//116 82//82 
f 82//82 83//83 84//84 
f 84//84 83//83 72//72 
f 84//84 72//72 70//70 
f 70//70 103//103 84//84 
f 68//68 103//103 70//70 
f 69//69 68//68 70//70 
f 69//69 70//70 71//71 
f 104//104 69//69 71//71 
f 104//104 71//71 105//105 
f 104//104 105//105 106//106 
f 104//104 106//106 107//107 
f 95//95 104//104 107//107 
f 95//95 107//107 108//108 
f 96//96 95//95 108//108 
f 67//67 95//95 96//96 
f 67//67 96//96 65//65 
f 65//65 66//66 67//67 
f 67//67 66//66 68//68 
f 67//67 68//68 69//69 
f 69//69 95//95 67//67 
f 95//95 69//69 104//104 
f 66//66 102//102 68//68 
f 68//68 102//102 103//103 
f 66//66 101//101 102//102 
f 74//74 101//101 66//66 
f 66//66 65//65 74//74 
f 74//74 65//65 75//75 
f 74//74 75//75 76//76 
f 76//76 100//100 74//74 
f 74//74 100//100 101//101 
f 76//76 99//99 100//100 
f 77//77 99//99 76//76 
f 76//76 75//75 77//77 
f 75//75 98//98 77//77 
f 77//77 98//98 99//99 
f 75//75 97//97 98//98 
f 65//65 97//97 75//75 
f 65//65 96//96 97//97 
f 107//107 85//85 108//108 
f 107//107 78//78 85//85 
f 78//78 53//53 85//85 
f 106//106 78//78 107//107 
f 106//106 79//79 78//78 
f 81//81 79//79 106//106 
f 106//106 105//105 81//81 
f 105//105 83//83 81//81 
f 82//82 81//81 83//83 
f 80//80 81//81 82//82 
f 82//82 94//94 80//80 
f 94//94 27//27 80//80 
f 94//94 35//35 27//27 
f 93//93 35//35 94//94 
f 116//116 93//93 94//94 
f 116//116 94//94 82//82 
f 115//115 93//93 116//116 
f 115//115 92//92 93//93 
f 92//92 37//37 93//93 
f 93//93 37//37 35//35 
f 92//92 39//39 37//37 
f 38//38 37//37 39//39 
f 38//38 39//39 40//40 
f 58//58 38//38 40//40 
f 58//58 40//40 59//59 
f 8//8 58//58 59//59 
f 8//8 59//59 10//10 
f 9//9 8//8 10//10 
f 10//10 59//59 60//60 
f 59//59 42//42 60//60 
f 60//60 42//42 44//44 
f 60//60 44//44 61//61 
f 61//61 44//44 46//46 
f 44//44 45//45 46//46 
f 46//46 45//45 47//47 
f 46//46 47//47 48//48 
f 48//48 47//47 49//49 
f 48//48 49//49 50//50 
f 50//50 49//49 51//51 
f 50//50 51//51 52//52 
f 86//86 51//51 49//49 
f 86//86 49//49 87//87 
f 109//109 86//86 87//87 
f 109//109 87//87 110//110 
f 110//110 87//87 88//88 
f 110//110 88//88 111//111 
f 111//111 88//88 89//89 
f 111//111 89//89 112//112 
f 112//112 89//89 90//90 
f 112//112 90//90 113//113 
f 113//113 90//90 91//91 
f 113//113 91//91 114//114 
f 114//114 91//91 92//92 
f 114//114 92//92 115//115 
f 91//91 39//39 92//92 
f 91//91 41//41 39//39 
f 40//40 39//39 41//41 
f 40//40 41//41 42//42 
f 59//59 40//40 42//42 
f 42//42 41//41 43//43 
f 42//42 43//43 44//44 
f 44//44 43//43 45//45 
f 89//89 45//45 43//43 
f 89//89 43//43 90//90 
f 90//90 43//43 41//41 
f 90//90 41//41 91//91 
f 88//88 45//45 89//89 
f 88//88 47//47 45//45 
f 87//87 47//47 88//88 
f 87//87 49//49 47//47 
f 80//80 79//79 81//81 
f 105//105 73//73 83//83 
f 83//83 73//73 72//72 
f 71//71 72//72 73//73 
f 105//105 71//71 73//73 
f 71//71 70//70 72//72 
