v 1.787674546 0.1150887087 1.280873179 1 1 1
vn -0.2326749265 0.5648530722 0.791709125
v 1.894520044 0.01064846851 1.063090801 1 1 1
vn 0.76208359 -0.1794197559 -0.6221231222
v 1.309572339 -0.1347616017 1.005177975 1 1 1
vn -0.6547182202 -0.7552793622 -0.02995340526
v 1.729197145 -1.133296728 1.045814037 1 1 1
vn 0.9805102944 -0.1961563975 0.01105550583
v 1.729197145 1.065790534 0.7056824565 1 1 1
vn 0.9225891232 0.03075410798 -0.3845562935
v 1.724080443 0.2129392922 1.045616388 1 1 1
vn 0.9979274273 -0.06332027912 0.01146221813
v 1.891395926 0.1176195219 1.069458485 1 1 1
vn 0.7422486544 0.3483102322 -0.5724918842
v 1.729197145 -0.01065980736 0.9901800156 1 1 1
vn 0.9988508821 -0.01743264496 -0.04464299232
v 2.034909725 -0.011511283 1.474835753 1 1 1
vn -0.1156969965 -0.3272255063 0.9378367066
v 2.115190506 0.1918992698 1.311199069 1 1 1
vn 0.3690686226 0.9286497235 0.03739099577
v 2.06904912 0.1708553135 1.423300147 1 1 1
vn 0.04428315535 0.8855270147 0.4624726176
v 2.162965298 0.1399794966 1.263138056 1 1 1
vn 0.5885722637 0.5822743773 -0.5608379841
v 2.097107887 0.1220400035 1.455065966 1 1 1
vn 0.6566755772 0.2545489073 0.7099169493
v 1.998441339 0.1655158997 1.406766534 1 1 1
vn -0.7553269267 0.5789835453 0.3070167005
v 2.054661751 0.07104703039 1.483890772 1 1 1
vn -0.1830947101 0.2390203178 0.9535961747
v 1.979806662 -0.0198494494 1.444750547 1 1 1
vn -0.7687526941 -0.6004105806 0.2202871442
v 2.047785521 -0.09847208112 1.306188822 1 1 1
vn -0.4667643607 -0.7824418545 -0.4122084081
v 1.712869406 0.4655976593 -1.468677163 1 1 1
vn 0.9074940085 0.3932498693 -0.1476791799
v 1.728083611 0.4655976593 0.7056824565 1 1 1
vn 0.9928148389 0.1133057773 -0.0384770669
v 1.488444209 -0.1003291234 0.9413018227 1 1 1
vn -0.9983978868 -0.03695439547 -0.0428483896
v 1.382629991 -0.06294516474 0.8562665582 1 1 1
vn -0.5839255452 -0.3888576627 -0.7126153708
v 1.77083683 -0.105665192 1.315192342 1 1 1
vn -0.09984164685 -0.7832938433 0.6135815978
v 1.26728487 -0.05740326643 1.118337512 1 1 1
vn -0.06932435185 -0.6642870903 0.7442558408
v 1.729197145 -1.133296728 0.7731899619 1 1 1
vn 0.9265617728 -0.3715941608 -0.05831845105
v 1.729197145 1.133296728 0.7731899619 1 1 1
vn 0.9271376729 0.3701898754 -0.05809675902
v 1.729197145 1.133296728 1.045814037 1 1 1
vn 0.9768745303 0.2127249539 0.0215452034
v 1.309572339 0.2273733467 1.005177975 1 1 1
vn -0.650167942 0.7590077519 0.03448015451
v 1.367875099 0.1954693943 0.8863406777 1 1 1
vn -0.4624425173 0.627630353 -0.6262803674
v 2.107718468 -0.1031602547 1.326429605 1 1 1
vn 0.4243293405 -0.9025082588 -0.0736444369
v 2.091823339 -0.0842320621 1.408144474 1 1 1
vn 0.1279161125 -0.8295075297 0.5436494946
v 1.40033102 0.08097343147 0.8201870918 1 1 1
vn 0.1318959892 0.263060689 -0.9557209611
v 1.729197145 0.1131371781 0.991356492 1 1 1
vn 0.9870600104 0.05515991896 -0.1505655199
v 1.488444209 0.2327183783 1.045491338 1 1 1
vn -0.3404900134 -0.4278250039 -0.8372766972
v 1.605016589 0.2201025933 1.045814037 1 1 1
vn 0.0835685879 0.9958190918 0.0368867591
v 1.860289097 0.1982769072 1.132864833 1 1 1
vn 0.4923556447 0.8256688714 -0.2754212618
v 1.815562963 0.2326599061 1.224029183 1 1 1
vn 0.06590450555 0.9583617449 0.2778477371
v 1.755283237 0.1579482108 1.346895456 1 1 1
vn -0.1509079337 0.6537879705 0.741476953
v 1.635925412 -0.1199636906 1.045655847 1 1 1
vn 0.1357841045 -0.9800407887 -0.1451988816
v 1.26728487 0.0660540238 1.160254836 1 1 1
vn 0.04975354299 0.1457137614 0.9880749583
v 1.842722178 -0.02585027553 1.168670535 1 1 1
vn 0.7103447318 -0.6952383518 -0.1097909138
v 2.187224627 0.06562098116 1.281055689 1 1 1
vn 0.9914418459 0.03392538428 0.1260638535
v 2.140208483 0.1487759948 1.37688911 1 1 1
vn 0.8826659322 0.2306887656 0.409491837
v 2.166772127 -0.03652803227 1.255378485 1 1 1
vn 0.5750083923 -0.6259813905 -0.526794672
v 2.103466511 0.002639866434 1.451779604 1 1 1
vn 0.764983654 -0.1289414316 0.6310103536
v 2.163275242 0.03760662675 1.213190675 1 1 1
vn 0.7240875959 0.04587065056 -0.6881809235
v 2.156924009 -0.05014771596 1.342818022 1 1 1
vn 0.9035742283 -0.2116253823 0.3725161552
v 2.104146719 0.03062947653 1.191310644 1 1 1
vn -0.3397604227 -0.04050725698 -0.9396393299
v 2.061249971 0.1841077656 1.278745413 1 1 1
vn -0.4282290637 0.7031435966 -0.5676345229
v 1.712869406 -0.3536866009 -1.468677163 1 1 1
vn 0.9758631587 -0.2136497945 -0.04521980137
v 1.728083611 -0.3536866009 0.7056824565 1 1 1
vn 0.9717045426 -0.2217931002 -0.08122850209
v 1.488444209 0.06321164966 0.866576314 1 1 1
vn -0.9957843423 -0.01160575263 -0.09098817408
v 1.488444209 0.1929408461 0.9413018227 1 1 1
vn -0.9958409071 0.06327212602 -0.06555552036
v 1.736605763 0.01064846851 1.384966254 1 1 1
vn -0.2909367681 -0.1872968972 0.9382300973
v 1.26728487 0.163716197 1.112039924 1 1 1
vn -0.4405375421 0.7574068308 0.4819352329
v 1.541080594 -0.3536866009 -1.483891129 1 1 1
vn -0.9664946198 -0.2055120766 -0.1537950486
v 1.541080594 -0.3536866009 0.7056824565 1 1 1
vn -0.9707567096 -0.2062720954 -0.122813791
v 1.815562963 -0.1400504261 1.224029183 1 1 1
vn 0.1531240344 -0.9794124365 0.1315457076
v 1.729197145 -1.065786123 0.7056824565 1 1 1
vn 0.897636652 -0.03015427664 -0.4397034943
v 1.860289097 -0.105665192 1.132864833 1 1 1
vn 0.5765191913 -0.7187001705 -0.3887102604
v 1.729197145 -0.1255775839 1.04557693 1 1 1
vn 0.9977478981 0.06405939162 0.01988746598
v 1.541080594 0.4655976593 0.7056824565 1 1 1
vn -0.9086386561 0.389300257 -0.1510667056
v 1.541080594 0.4655976593 -1.483891129 1 1 1
vn -0.9937500954 0.1045487374 -0.03911954537
v -1.487372398 -1.043937922 1.044523835 1 1 1
vn -0.4259209335 -0.8920841813 -0.1509211957
v 1.829060078 0.1402663141 1.196518064 1 1 1
vn 0.49093467 0.8539330959 0.1725728512
v 2.048719645 0.1402663141 1.304285645 1 1 1
vn 0.05240452662 0.8174815178 -0.5735658407
v 2.07752943 0.03371706232 1.245561838 1 1 1
vn 0.2355515808 -0.2534956038 -0.9382193089
v 1.85935545 0.07148233056 1.134766221 1 1 1
vn 0.7899395823 0.2939100564 -0.5381564498
v 1.703000546 -0.4506626129 1.259080529 1 1 1
vn 0.7071136236 -3.544586798e-18 0.7070999146
v 1.726148963 -0.4506626129 1.218984127 1 1 1
vn 0.8964978456 -2.989511177e-18 0.4430480599
v -1.7882967 -0.8595331311 1.285276055 1 1 1
vn -0.5928130746 -0.6940980554 0.4084121585
v 1.488444209 1.099543691 0.7394362092 1 1 1
vn -0.9149664044 0.1114968434 -0.3878208101
v 1.488444209 -0.1442392021 1.045491338 1 1 1
vn -0.3633261621 0.4526844323 -0.814291656
v 1.488444209 -1.133292317 1.044523835 1 1 1
vn -0.1355682909 -0.422745198 -0.8960511684
v -2.152568817 0.2650947273 1.044523835 1 1 1
vn -0.04071309417 0.01352817751 -0.9990792871
v -1.7882967 0.8595342636 1.044523835 1 1 1
vn -0.5928147435 0.6940982342 -0.4084095359
v -1.487372398 1.04394114 1.044523835 1 1 1
vn -0.3296246827 0.9319710135 -0.1509224176
v -2.152568817 -0.2650926113 1.044523835 1 1 1
vn -0.04919128492 -0.01174109057 -0.9987203479
v -2.017507315 -0.5911618471 1.044523835 1 1 1
vn -0.6133266687 -0.3758453727 -0.6946730614
v -2.017507315 0.5911639929 1.044523835 1 1 1
vn -0.3920241892 0.2402320504 -0.8880347013
v 1.786188841 -0.009888190776 1.283901095 1 1 1
vn 0.14709948 -0.6183020473 0.7720520496
v 1.984700561 0.05111889169 1.434775352 1 1 1
vn -0.6239774227 -0.09958676249 0.7750707269
v 2.032086134 -0.04427906126 1.338189721 1 1 1
vn -0.3342688382 -0.9405064583 -0.06092553958
v 1.723205805 0.2334562689 1.218195558 1 1 1
vn 0.8917495012 -0.2232497483 0.3936271966
v -1.487372398 -1.043937922 1.285276055 1 1 1
vn -0.3296210766 -0.9319725037 0.1509211361
v 1.662905812 -0.4506626129 1.282229066 1 1 1
vn 0.4430428743 2.570322306e-18 0.8965004086
v 2.007334709 0.1150887087 1.388640404 1 1 1
vn -0.3130902946 0.8935202956 0.3218632638
v -1.14419198 -1.126327515 1.044523835 1 1 1
vn -0.006814779714 -0.1316972822 -0.9912665486
v -1.7882967 -0.8595331311 1.044523835 1 1 1
vn -0.4839650989 -0.566652894 -0.6668450236
v -2.187224627 1.07970925e-06 1.044523835 1 1 1
vn -0.1039705798 0.004530733451 -0.9945700765
v -2.152568817 -0.2650926113 1.285276055 1 1 1
vn -0.1074789464 -0.03571318462 0.9935657382
v -1.487372398 1.04394114 1.285276055 1 1 1
vn -0.4259250164 0.8920820355 0.150922358
v -2.017507315 -0.5911618471 1.285276055 1 1 1
vn -0.04220877215 -0.0258654505 0.9987739325
v -1.14419198 1.126331925 1.044523835 1 1 1
vn -0.00373992743 0.1245511323 -0.9922061563
v 1.488444209 -1.099541426 0.7394362092 1 1 1
vn -0.9246433973 -0.1101436019 -0.3645586669
v 1.488444209 1.133296728 1.044523835 1 1 1
vn -0.1329639256 0.4545405805 -0.8807459474
v -2.152568817 0.2650947273 1.285276055 1 1 1
vn -0.06143797562 0.01466416009 0.9980031848
v 1.26728487 -0.149111852 1.285276055 1 1 1
vn 0.0109734768 0.01381451357 0.9998443723
v 1.723205805 -0.149111852 1.218195558 1 1 1
vn 0.933730185 0.3195635676 0.1613289863
v 1.26728487 0.2334562689 1.285276055 1 1 1
vn 0.01293975301 -0.0179111585 0.9997558594
v -2.017507315 0.5911639929 1.285276055 1 1 1
vn -0.08625350893 0.05285606533 0.9948701262
v 1.662117243 -1.133292317 1.279284716 1 1 1
vn 0.02045477927 -0.05798972398 0.9981076121
v -1.7882967 0.8595342636 1.285276055 1 1 1
vn -0.483967483 0.5666542053 0.6668421626
v 1.723205805 1.133296728 1.218195558 1 1 1
vn 0.4503740668 0.8895466328 0.07661616057
v 1.26728487 0.2334562689 1.044523835 1 1 1
vn 0.008786696941 -0.007801216561 -0.9999309778
v 1.662117243 1.133296728 1.279284716 1 1 1
vn 0.04014631361 0.06193293259 0.9972725511
v -1.14419198 1.126331925 1.285276055 1 1 1
vn -0.007564116269 0.3011482954 0.9535472989
v -1.14419198 -1.126327515 1.285276055 1 1 1
vn -0.003294390161 -0.2697020769 0.9629381895
v 1.723205805 -1.133292317 1.218195558 1 1 1
vn 0.4908999205 -0.8674645424 0.08076231927
v 1.662117243 0.2334562689 1.279284716 1 1 1
vn 0.1399936825 -0.2740059793 0.9514843822
v -2.187224627 1.07970925e-06 1.285276055 1 1 1
vn -0.1039705798 -0.004530733451 0.9945700765
v 1.662117243 -0.149111852 1.279284716 1 1 1
vn 0.06533993036 0.2721192837 0.9600425959
v 1.26728487 -0.149111852 1.044523835 1 1 1
vn 0.005559768528 0.005932852626 -0.9999669194
# mm_gid 3
g mmGroup3
f 30//30 46//46 44//44 
f 30//30 44//44 9//9 
f 15//15 44//44 13//13 
f 44//44 42//42 13//13 
f 15//15 13//13 11//11 
f 9//9 44//44 15//15 
f 46//46 42//42 44//44 
f 13//13 42//42 11//11 
f 14//14 11//11 48//48 
f 14//14 15//15 11//11 
f 81//81 15//15 14//14 
f 81//81 9//9 15//15 
f 16//16 9//9 81//81 
f 16//16 30//30 9//9 
f 29//29 46//46 30//30 
f 46//46 29//29 43//43 
f 41//41 46//46 43//43 
f 42//42 46//46 41//41 
f 11//11 42//42 10//10 
f 48//48 11//11 10//10 
f 10//10 42//42 12//12 
f 42//42 41//41 12//12 
f 41//41 43//43 45//45 
f 41//41 45//45 12//12 
f 48//48 10//10 12//12 
f 48//48 66//66 65//65 
f 67//67 65//65 66//66 
f 105//105 109//109 83//83 
f 106//106 93//93 76//76 
f 91//91 76//76 75//75 
f 100//100 74//74 96//96 
f 100//100 79//79 74//74 
f 100//100 75//75 79//79 
f 102//102 75//75 100//100 
f 100//100 106//106 102//102 
f 91//91 75//75 102//102 
f 102//102 106//106 91//91 
f 106//106 76//76 91//91 
f 75//75 76//76 93//93 
f 93//93 79//79 75//75 
f 93//93 74//74 79//79 
f 93//93 104//104 74//74 
f 95//95 104//104 93//93 
f 93//93 106//106 95//95 
f 26//26 32//32 25//25 
f 51//51 52//52 71//71 
f 58//58 50//50 5//5 
f 50//50 49//49 19//19 
f 5//5 50//50 19//19 
f 18//18 55//55 62//62 
f 62//62 61//61 18//18 
f 18//18 61//61 19//19 
f 5//5 19//19 61//61 
f 5//5 61//61 71//71 
f 5//5 71//71 25//25 
f 31//31 52//52 51//51 
f 28//28 52//52 31//31 
f 71//71 52//52 95//95 
f 95//95 25//25 71//71 
f 95//95 26//26 25//25 
f 103//103 26//26 95//95 
f 95//95 106//106 103//103 
f 106//106 105//105 103//103 
f 105//105 83//83 103//103 
f 33//33 83//83 109//109 
f 33//33 34//34 6//6 
f 6//6 83//83 33//33 
f 6//6 103//103 83//83 
f 26//26 103//103 6//6 
f 6//6 32//32 26//26 
f 35//35 32//32 6//6 
f 7//7 32//32 35//35 
f 35//35 67//67 7//7 
f 35//35 64//64 67//67 
f 64//64 65//65 67//67 
f 65//65 14//14 48//48 
f 86//86 14//14 65//65 
f 86//86 81//81 14//14 
f 80//80 82//82 81//81 
f 82//82 16//16 81//81 
f 82//82 17//17 16//16 
f 17//17 30//30 16//16 
f 17//17 29//29 30//30 
f 47//47 12//12 45//45 
f 48//48 12//12 47//47 
f 47//47 66//66 48//48 
f 7//7 67//67 2//2 
f 2//2 32//32 7//7 
f 2//2 8//8 32//32 
f 25//25 32//32 8//8 
f 5//5 25//25 8//8 
f 8//8 58//58 5//5 
f 8//8 24//24 58//58 
f 24//24 94//94 58//58 
f 56//56 58//58 94//94 
f 50//50 58//58 56//56 
f 49//49 50//50 56//56 
f 19//19 49//49 18//18 
f 49//49 55//55 18//18 
f 49//49 56//56 55//55 
f 56//56 62//62 55//55 
f 61//61 62//62 56//56 
f 71//71 61//61 56//56 
f 56//56 94//94 71//71 
f 51//51 71//71 94//94 
f 94//94 20//20 51//51 
f 21//21 51//51 20//20 
f 31//31 51//51 21//21 
f 21//21 28//28 31//31 
f 21//21 27//27 28//28 
f 33//33 28//28 27//27 
f 52//52 28//28 33//33 
f 95//95 52//52 33//33 
f 33//33 104//104 95//95 
f 35//35 34//34 33//33 
f 35//35 6//6 34//34 
f 64//64 86//86 65//65 
f 37//37 1//1 64//64 
f 1//1 86//86 64//64 
f 1//1 81//81 86//86 
f 80//80 81//81 1//1 
f 37//37 80//80 1//1 
f 53//53 80//80 37//37 
f 22//22 80//80 53//53 
f 17//17 43//43 29//29 
f 47//47 43//43 17//17 
f 47//47 45//45 43//43 
f 67//67 66//66 40//40 
f 38//38 60//60 59//59 
f 60//60 8//8 59//59 
f 59//59 8//8 2//2 
f 2//2 40//40 59//59 
f 2//2 67//67 40//40 
f 24//24 8//8 4//4 
f 73//73 24//24 4//4 
f 94//94 24//24 73//73 
f 73//73 20//20 94//94 
f 72//72 73//73 112//112 
f 72//72 20//20 73//73 
f 21//21 20//20 72//72 
f 21//21 72//72 3//3 
f 3//3 27//27 21//21 
f 33//33 27//27 36//36 
f 36//36 35//35 33//33 
f 36//36 64//64 35//35 
f 37//37 64//64 36//36 
f 36//36 27//27 37//37 
f 37//37 27//27 54//54 
f 37//37 54//54 39//39 
f 39//39 53//53 37//37 
f 23//23 53//53 39//39 
f 97//97 23//23 39//39 
f 23//23 22//22 53//53 
f 23//23 97//97 112//112 
f 104//104 54//54 23//23 
f 23//23 112//112 104//104 
f 74//74 104//104 112//112 
f 100//100 96//96 99//99 
f 99//99 106//106 100//100 
f 99//99 105//105 106//106 
f 109//109 105//105 99//99 
f 33//33 109//109 99//99 
f 99//99 104//104 33//33 
f 99//99 54//54 104//104 
f 99//99 39//39 54//54 
f 97//97 39//39 99//99 
f 99//99 96//96 97//97 
f 110//110 77//77 90//90 
f 110//110 90//90 97//97 
f 97//97 96//96 110//110 
f 96//96 89//89 110//110 
f 96//96 74//74 89//89 
f 74//74 112//112 89//89 
f 89//89 77//77 110//110 
f 89//89 112//112 77//77 
f 98//98 108//108 60//60 
f 108//108 98//98 69//69 
f 111//111 97//97 101//101 
f 85//85 111//111 101//101 
f 101//101 108//108 68//68 
f 85//85 101//101 68//68 
f 68//68 111//111 85//85 
f 68//68 98//98 111//111 
f 69//69 98//98 68//68 
f 68//68 108//108 69//69 
f 108//108 101//101 107//107 
f 101//101 97//97 107//107 
f 92//92 78//78 70//70 
f 70//70 78//78 88//88 
f 78//78 87//87 88//88 
f 70//70 63//63 84//84 
f 70//70 88//88 63//63 
f 88//88 87//87 63//63 
f 84//84 87//87 107//107 
f 84//84 63//63 87//87 
f 107//107 70//70 84//84 
f 92//92 70//70 107//107 
f 107//107 97//97 92//92 
f 97//97 90//90 92//92 
f 90//90 78//78 92//92 
f 90//90 77//77 78//78 
f 77//77 87//87 78//78 
f 77//77 112//112 87//87 
f 112//112 73//73 87//87 
f 73//73 107//107 87//87 
f 108//108 107//107 73//73 
f 73//73 4//4 108//108 
f 60//60 108//108 4//4 
f 4//4 8//8 60//60 
f 60//60 38//38 72//72 
f 72//72 98//98 60//60 
f 111//111 98//98 72//72 
f 72//72 97//97 111//111 
f 72//72 112//112 97//97 
f 72//72 38//38 57//57 
f 3//3 72//72 57//57 
f 3//3 54//54 27//27 
f 23//23 54//54 3//3 
f 3//3 22//22 23//23 
f 3//3 57//57 22//22 
f 40//40 22//22 57//57 
f 80//80 22//22 40//40 
f 40//40 82//82 80//80 
f 82//82 47//47 17//17 
f 66//66 47//47 82//82 
f 40//40 66//66 82//82 
f 57//57 38//38 59//59 
f 40//40 57//57 59//59 
