v -0.05601011589 1.299853086 -0.2413892001 1 1 1
vn -0.9931098819 0.02139636688 -0.1152170599
v -0.05601011589 1.299853086 0.2413888425 1 1 1
vn -0.9043262601 0.07793416083 0.4196668267
v 0.05601025745 1.299853086 -0.2413892001 1 1 1
vn 0.9043262601 0.07793416083 -0.4196668267
v 0.05601025745 1.299853086 0.2413888425 1 1 1
vn 0.9931098819 0.02139636688 0.1152170599
v -0.05601011589 -1.299853086 0.2413888425 1 1 1
vn -0.9931098819 -0.02139636688 0.1152170599
v 0.05601025745 -1.299853086 0.2413888425 1 1 1
vn 0.9043262601 -0.07793416083 0.4196668267
v -0.05601011589 -1.299853086 -0.2413892001 1 1 1
vn -0.9043262601 -0.07793416083 -0.4196668267
v 0.05601025745 -1.299853086 -0.2413892001 1 1 1
vn 0.9931098819 -0.02139636688 -0.1152170599
# mm_gid 4
g mmGroup4
f 1//1 2//2 3//3 
f 3//3 7//7 1//1 
f 5//5 1//1 7//7 
f 5//5 7//7 6//6 
f 5//5 6//6 2//2 
f 2//2 1//1 5//5 
f 2//2 6//6 4//4 
f 3//3 2//2 4//4 
f 4//4 8//8 3//3 
f 8//8 7//7 3//3 
f 6//6 7//7 8//8 
f 6//6 8//8 4//4 
