v -0.9137171507 0.06093292311 -0.116094701 1 1 1
vn -0.2151125073 0.4538443089 -0.8647265434
v 2.83547422e-07 0.03137756884 -0.1273016334 1 1 1
vn 0.0007122012903 0.2787669003 -0.9603585005
v -0.9137171507 1.419669232e-14 -0.131112501 1 1 1
vn -0.2684213817 0 -0.963301599
v 2.83547422e-07 -0.03137749806 -0.1273016334 1 1 1
vn 0.0007121932576 -0.1994577944 -0.9799061418
v -0.9137171507 -0.06093278527 -0.116094701 1 1 1
vn -0.2151124775 -0.4538444579 -0.8647264242
v 2.83547422e-07 -0.08694272488 -0.09813934565 1 1 1
vn 0.000712519919 -0.6320074797 -0.7749619484
v -0.9137171507 -0.1079046056 -0.07448014617 1 1 1
vn -0.09513024241 -0.8192581534 -0.5654788017
v 2.83547422e-07 -0.1225899532 -0.0464928858 1 1 1
vn 0.0007129519363 -0.9197509289 -0.3925019205
v -0.9137171507 -0.1301577687 -0.0158034116 1 1 1
vn -0.01226577256 -0.9926341176 -0.1205280274
v 2.83547422e-07 -0.1301577687 0.01580446959 1 1 1
vn 0.0007109664148 -0.9968047738 0.07987316698
v -0.9137171507 -0.1225899532 0.04649365693 1 1 1
vn -0.04229318351 -0.9341753125 0.3542989194
v 2.83547422e-07 -0.1079046056 0.07448120415 1 1 1
vn 0.0007101104129 -0.8454993367 0.5339759588
v -0.9137171507 -0.08694272488 0.09813898802 1 1 1
vn -0.1577834189 -0.6548217535 0.7391297817
v 2.83547422e-07 -0.06093278527 0.1160943434 1 1 1
vn 0.0007110970328 -0.5004950762 0.8657391071
v -0.9137171507 -0.03137749806 0.1273029745 1 1 1
vn -0.2545015216 -0.2314377576 0.9389704466
v 2.83547422e-07 1.419669232e-14 0.1311127096 1 1 1
vn 0.0007116754423 -0.04084117338 0.9991654158
v -0.9137171507 0.03137756884 0.1273029745 1 1 1
vn -0.2545015216 0.2314375788 0.9389705062
v 2.83547422e-07 0.06093292311 0.1160943434 1 1 1
vn 0.0007110816659 0.4281674325 0.9036991596
v -0.9137171507 0.08694279939 0.09813898802 1 1 1
vn -0.1577844471 0.6548096538 0.7391403317
v 2.83547422e-07 0.1079046801 0.07448120415 1 1 1
vn 0.0007112380699 0.7990921736 0.6012081504
v -0.9137171507 0.1225946397 0.04649365693 1 1 1
vn -0.04229312018 0.9341756105 0.354298234
v 2.83547422e-07 0.1301577687 0.01580446959 1 1 1
vn 0.0007117752684 0.9869570136 0.160982579
v -0.9137171507 0.1301577687 -0.0158034116 1 1 1
vn -0.01226573437 0.9926341772 -0.1205276474
v 2.83547422e-07 0.1225946397 -0.0464928858 1 1 1
vn 0.0007113778265 0.9487162828 -0.3161280453
v -0.9137171507 0.1079046801 -0.07448014617 1 1 1
vn -0.09513411671 0.8192465901 -0.565494895
v 2.83547422e-07 0.08694279939 -0.09813934565 1 1 1
vn 0.0007121855742 0.6931318045 -0.7208105326
v 0.9137170911 0.06093292311 0.1160943434 1 1 1
vn 0.2151361257 0.5231169462 0.8246605992
v 0.9137170911 1.419669232e-14 0.1311127096 1 1 1
vn 0.2687841654 0.07886890322 0.9599660039
v 0.9137170911 -0.06093278527 0.1160943434 1 1 1
vn 0.2151328027 -0.3815038502 0.8989842534
v 0.9137170911 -0.1079046056 0.07448120415 1 1 1
vn 0.0943473056 -0.7702538967 0.6307198405
v 0.9137170911 -0.1301577687 0.01580446959 1 1 1
vn 0.01092142053 -0.9794507027 0.2013878822
v 0.9137170911 -0.1225899532 -0.0464928858 1 1 1
vn 0.04114514217 -0.960090816 -0.2766453624
v 0.9137170911 -0.08694272488 -0.09813934565 1 1 1
vn 0.1574205756 -0.7131935358 -0.683062017
v 0.9137170911 -0.03137749806 -0.1273016334 1 1 1
vn 0.2547818124 -0.3075178564 -0.916798234
v 0.9137170911 0.03137756884 -0.1273016334 1 1 1
vn 0.2547795177 0.1537574232 -0.9546968341
v 0.9137170911 0.08694279939 -0.09813934565 1 1 1
vn 0.1574227661 0.5921239853 -0.7903209925
v 0.9137170911 0.1225946397 -0.0464928858 1 1 1
vn 0.04114799201 0.9020653367 -0.4296334982
v 0.9137170911 0.1301577687 0.01580446959 1 1 1
vn 0.01091971807 0.9991852045 0.03885513917
v 0.9137170911 0.1079046801 0.07448120415 1 1 1
vn 0.09434967488 0.8628699183 0.4965417087
# mm_gid 3
g mmGroup3
f 1//1 2//2 3//3 
f 3//3 17//17 1//1 
f 1//1 17//17 19//19 
f 1//1 19//19 25//25 
f 25//25 26//26 1//1 
f 1//1 26//26 2//2 
f 36//36 2//2 26//26 
f 36//36 26//26 37//37 
f 39//39 36//36 37//37 
f 39//39 37//37 38//38 
f 38//38 22//22 39//39 
f 39//39 22//22 20//20 
f 39//39 20//20 27//27 
f 27//27 36//36 39//39 
f 27//27 35//35 36//36 
f 35//35 2//2 36//36 
f 35//35 4//4 2//2 
f 3//3 2//2 4//4 
f 3//3 4//4 5//5 
f 5//5 15//15 3//3 
f 3//3 15//15 17//17 
f 15//15 16//16 17//17 
f 17//17 16//16 18//18 
f 17//17 18//18 19//19 
f 19//19 18//18 20//20 
f 19//19 20//20 21//21 
f 25//25 19//19 21//21 
f 25//25 21//21 23//23 
f 23//23 24//24 25//25 
f 25//25 24//24 26//26 
f 37//37 26//26 24//24 
f 37//37 24//24 38//38 
f 38//38 24//24 22//22 
f 23//23 22//22 24//24 
f 21//21 22//22 23//23 
f 21//21 20//20 22//22 
f 27//27 20//20 18//18 
f 27//27 18//18 28//28 
f 28//28 35//35 27//27 
f 28//28 34//34 35//35 
f 34//34 4//4 35//35 
f 34//34 6//6 4//4 
f 5//5 4//4 6//6 
f 5//5 6//6 7//7 
f 13//13 5//5 7//7 
f 13//13 7//7 11//11 
f 11//11 12//12 13//13 
f 13//13 12//12 14//14 
f 13//13 14//14 15//15 
f 15//15 5//5 13//13 
f 15//15 14//14 16//16 
f 29//29 16//16 14//14 
f 29//29 14//14 30//30 
f 33//33 29//29 30//30 
f 33//33 30//30 32//32 
f 32//32 8//8 33//33 
f 33//33 8//8 6//6 
f 33//33 6//6 34//34 
f 34//34 29//29 33//33 
f 29//29 34//34 28//28 
f 28//28 16//16 29//29 
f 28//28 18//18 16//16 
f 7//7 6//6 8//8 
f 7//7 8//8 9//9 
f 11//11 7//7 9//9 
f 9//9 10//10 11//11 
f 11//11 10//10 12//12 
f 31//31 12//12 10//10 
f 31//31 10//10 32//32 
f 32//32 30//30 31//31 
f 30//30 12//12 31//31 
f 30//30 14//14 12//12 
f 32//32 10//10 8//8 
f 9//9 8//8 10//10 
