v -5.336642265 6.407888889 0.564522326 1 1 1
vn 0.1579829007 -0.1315719634 0.9786369205
v -5.336642265 6.407888889 0.1069114506 1 1 1
vn 0.04280777276 -0.03565134481 0.9984470606
v 5.336651802 6.407888889 0.564522326 1 1 1
vn -0.2255158871 -0.1878150553 0.9559645057
v 5.336651802 6.407888889 0.1069114506 1 1 1
vn -0.04280777276 -0.03565134481 0.9984470606
v 5.336651802 -6.407895088 0.564522326 1 1 1
vn -0.2426053584 0.2020475864 0.948851645
v 5.336651802 -6.407895088 0.1069114506 1 1 1
vn -0.04280777276 0.03565134481 0.9984470606
v -5.336642265 -6.407895088 0.1069114506 1 1 1
vn 0.04280777276 0.03565134481 0.9984470606
v -5.336642265 -6.407895088 0.564522326 1 1 1
vn 0.2976566851 0.247895658 0.9219263792
v 6.231529713 -7.482403278 0.564522326 1 1 1
vn 0.2835905254 -0.4723621309 0.8345360756
v -6.231527328 -7.482403278 0.564522326 1 1 1
vn -0.6382516623 -0.2657757401 0.7224943638
v -6.231527328 7.482400417 0.564522326 1 1 1
vn -0.335201025 0.5583270788 0.7588881254
v 6.231529713 7.482400417 0.564522326 1 1 1
vn 0.7450224757 0.3102363944 0.590503931
v 6.231529713 -7.482403278 -0.5645221472 1 1 1
vn 0.177790761 -0.07403422892 -0.9812794328
v -6.231527328 -7.482403278 -0.5645221472 1 1 1
vn -0.04512127861 -0.0751561895 -0.9961503744
v 6.231529713 7.482400417 -0.5645221472 1 1 1
vn 0.04512127861 0.0751561895 -0.9961503744
v -6.231527328 7.482400417 -0.5645221472 1 1 1
vn -0.177790761 0.07403422892 -0.9812794328
# mm_gid 0
g mmGroup0
f 1//1 2//2 3//3 
f 3//3 2//2 4//4 
f 5//5 3//3 6//6 
f 6//6 3//3 4//4 
f 4//4 2//2 6//6 
f 6//6 2//2 7//7 
f 5//5 6//6 8//8 
f 8//8 6//6 7//7 
f 1//1 8//8 2//2 
f 2//2 8//8 7//7 
f 3//3 5//5 9//9 
f 9//9 5//5 8//8 
f 9//9 8//8 10//10 
f 10//10 8//8 1//1 
f 10//10 1//1 11//11 
f 11//11 1//1 3//3 
f 11//11 3//3 12//12 
f 12//12 3//3 9//9 
f 13//13 14//14 15//15 
f 15//15 14//14 16//16 
f 10//10 14//14 9//9 
f 9//9 14//14 13//13 
f 11//11 16//16 10//10 
f 10//10 16//16 14//14 
f 12//12 15//15 11//11 
f 11//11 15//15 16//16 
f 9//9 13//13 12//12 
f 12//12 13//13 15//15 
