v -0.4693236947 0.515976429 0.2465911359 1 1 1
vn -0.8919267654 0.436947912 0.1163752899
v -0.4693237245 0.4264578819 -0.3361105025 1 1 1
vn -0.07372677326 0.1398822516 -0.9874195457
v -0.4693237245 -0.4264570475 -0.3361105025 1 1 1
vn -0.1319973022 -0.05666272715 -0.9896292686
v -0.4693236649 -0.4264570475 0.3361105621 1 1 1
vn -0.0566637665 -0.1075087935 0.9925880432
v -0.4693237245 0.515976429 -0.246591121 1 1 1
vn -0.612960577 0.7873926759 -0.06551466882
v -0.4693236649 0.4264578819 0.3361105621 1 1 1
vn -0.1743579656 0.07484705746 0.9818335772
v 0.3397975266 -0.515976429 -0.2465912104 1 1 1
vn 0.05047696829 -0.9952859282 -0.08281318843
v -0.4693236947 -0.515976429 0.2465911359 1 1 1
vn -0.612960577 -0.7873925567 0.06551538408
v 0.3397975266 0.4264578819 -0.3361105621 1 1 1
vn 0.8389022946 0.1460442543 -0.5243224502
v 0.3397975266 0.515976429 -0.2465912104 1 1 1
vn 0.07819540054 0.9633554816 -0.2565768659
v 0.4693237543 0.1945875287 0.3361105025 1 1 1
vn 0.8447303176 0.5098410845 0.1627658457
v 0.3397975862 0.1945875287 0.3361105025 1 1 1
vn 0.2267442495 0.06333130598 0.9718930721
v -0.4693237245 -0.515976429 -0.246591121 1 1 1
vn -0.8919266462 -0.4369478226 -0.1163762286
v 0.3397975862 -0.4264570475 0.3361105025 1 1 1
vn 0.6207171679 -0.2377173603 0.7471282482
v 0.4693237543 -0.2346233726 0.3361105025 1 1 1
vn 0.971334219 -0.146563381 0.1871603578
v 0.4693236947 -0.2346233726 -0.3361105621 1 1 1
vn 0.8447303176 -0.5098410845 -0.1627659947
v 0.3397975564 0.515976429 0.2465910614 1 1 1
vn 0.1185868979 0.9895243645 0.08233300596
v 0.3397975266 -0.4264570475 -0.3361105621 1 1 1
vn 0.7359703183 -0.2943269014 -0.6096879244
v 0.3397975564 -0.515976429 0.2465910614 1 1 1
vn 0.1822431386 -0.9501313567 0.2530570626
v 0.3397975862 -0.2346233726 0.3361105025 1 1 1
vn 0.4036186635 -0.272523433 0.8733973503
v 0.3397975862 0.4264578819 0.3361105025 1 1 1
vn 0.5117872953 0.3431685269 0.7875970602
v 0.3397975266 0.1945875287 -0.3361105621 1 1 1
vn 0.1197371408 0.1337739229 -0.9837517738
v 0.4693236947 0.1945875287 -0.3361105621 1 1 1
vn 0.971334219 0.146563381 -0.1871605366
v 0.3397975266 -0.2346233726 -0.3361105621 1 1 1
vn 0.2036854029 -0.1375285089 -0.9693287015
# mm_gid 14
g mmGroup14
f 5//5 17//17 10//10 
f 1//1 17//17 5//5 
f 8//8 7//7 19//19 
f 13//13 7//7 8//8 
f 2//2 10//10 9//9 
f 5//5 10//10 2//2 
f 21//21 1//1 6//6 
f 17//17 1//1 21//21 
f 19//19 4//4 8//8 
f 14//14 4//4 19//19 
f 6//6 8//8 4//4 
f 1//1 8//8 6//6 
f 1//1 13//13 8//8 
f 5//5 13//13 1//1 
f 5//5 3//3 13//13 
f 2//2 3//3 5//5 
f 23//23 16//16 24//24 
f 22//22 2//2 9//9 
f 3//3 2//2 22//22 
f 24//24 22//22 23//23 
f 24//24 3//3 22//22 
f 18//18 3//3 24//24 
f 13//13 18//18 7//7 
f 3//3 18//18 13//13 
f 12//12 15//15 11//11 
f 20//20 15//15 12//12 
f 20//20 4//4 14//14 
f 12//12 4//4 20//20 
f 12//12 6//6 4//4 
f 21//21 6//6 12//12 
f 19//19 7//7 18//18 
f 18//18 14//14 19//19 
f 18//18 20//20 14//14 
f 24//24 20//20 18//18 
f 17//17 9//9 10//10 
f 21//21 9//9 17//17 
f 12//12 9//9 21//21 
f 22//22 9//9 12//12 
f 20//20 16//16 15//15 
f 24//24 16//16 20//20 
f 23//23 15//15 16//16 
f 11//11 15//15 23//23 
f 22//22 11//11 23//23 
f 12//12 11//11 22//22 
