v -1.084173203 3.003219843 0.1202206761
vn -0.01408702414 0.4300273955 0.9027059078
v -1.079384327 -3.004176378 0.1209599897
vn -0.009227709845 -0.452106297 0.8919163346
v -1.080596685 -3.050191879 0.08596279472
vn -0.01295535546 -0.7627914548 0.6465147734
v -1.102395654 -2.99872303 0.1117435694
vn -0.6811502576 -0.3905596435 0.6192717552
v -1.106104136 -3.051637173 0.0592430234
vn -0.7498925924 -0.5480377078 0.3705614507
v -1.117167592 -2.986791849 0.08873461187
vn -0.9793755412 -0.005055483896 0.201985091
v -1.117696524 -3.037942171 0.03768416122
vn -0.9999930859 -0.002699654782 0.002550369827
v -1.115080476 -3.055155516 -0.1367788315
vn -0.9846174717 -0.00962521974 -0.174458608
v -1.086347222 -3.082621574 -0.1367788315
vn -0.001113891252 -0.09187037498 -0.9957703352
v 1.090712667 3.080022573 -0.1367788315
vn 0.0004261816794 0.04851256683 -0.9988225102
v 1.116302133 3.053652287 -0.1367788315
vn 0.9879376888 0.01278932858 -0.1543230414
v 1.118638873 -0.7706340551 0.09855721891
vn 0.9996873736 0.0001322188327 0.02500232868
v 1.111978054 -1.06926322 0.1143893972
vn 0.7838198543 -0.0003912231477 0.6209881306
v 1.115589023 3.021474361 0.07292858511
vn 0.9997709394 0.007620471995 0.01999991201
v 1.116387725 3.047400236 0.02488291822
vn 0.9999693036 0.003437308827 0.007038845215
v 1.09956181 3.058128357 0.06181040406
vn 0.6322790384 0.664718926 0.397959739
v 1.102570176 3.073613644 0.006176701281
vn 0.6955459118 0.7173009515 0.04117312282
v 1.098622918 3.015153408 0.1056127623
vn 0.6256139278 0.4022401571 0.6684385538
v 1.077053308 3.009607315 0.1196549013
vn 0.006133245304 0.4590535462 0.8883874416
v 1.074953079 3.054167986 0.08368543535
vn 0.009535149671 0.7911855578 0.6115018129
v 1.08061552 3.080818892 0.02487103269
vn 0.006129304878 0.9961741567 0.08717468381
v 1.08858037 -0.5490382314 0.132981509
vn 0.006544474047 0.000136312854 0.9999786019
v 1.112970471 -3.057528019 -0.1367788315
vn 0.9735982418 -0.02390482649 -0.2270133495
v 1.078345299 -3.011457682 0.1167927459
vn 0.01022222079 -0.442777127 0.8965734243
v 1.118496299 -2.988161087 0.08299128711
vn 0.9948003888 -0.007694623899 0.1015528217
v 1.093339562 1.66135478 0.1303974837
vn 0.6826075912 0.001358678099 0.7307838798
v 1.078514099 -3.085471869 -0.1367788315
vn 0.0002583732712 -0.02265473455 -0.9997433424
v 1.080213785 -3.084233522 0.004255920183
vn 0.009064527228 -0.9989540577 0.04481745139
v 1.103511572 -3.06767869 0.03026015311
vn 0.6760867238 -0.727371335 0.11763376
v 1.116632581 -3.047367811 0.02299541794
vn 0.9999403954 -0.004618757404 -0.009895541705
v 1.083598971 -2.948849201 0.1341463327
vn 0.01463876106 -0.00524566276 0.9998790622
v 1.077037811 -3.066715717 0.06420662254
vn 0.01111674402 -0.8655266762 0.5007394552
v 1.098728657 -2.986335516 0.1199663132
vn 0.6735877395 -0.02177044936 0.7387865782
v 1.099196911 -3.04124403 0.08442236483
vn 0.7269833684 -0.4880737066 0.4829898775
v 1.113021612 -2.9722054 0.1069154665
vn 0.881539464 -0.01288543455 0.4719345272
v 1.115449905 2.969482422 0.1013409272
vn 0.8955550194 0.004016776569 0.4449326098
v -0.2120199353 -3.079588413 0.03424434736
vn -0.0004664476728 -0.9504870176 0.3107638955
v -1.074438572 -2.948875427 0.1366019845
vn -0.0001055952889 -0.001895774389 0.9999982119
v 0.08090387285 -3.063209534 0.07244601101
vn -0.0007778294967 -0.8320153952 0.5547519922
v -1.080757141 -3.075323582 0.04319214076
vn -0.0186561197 -0.928493917 0.3708787262
v 0.3905667663 -3.032241583 0.1061000898
vn 0.001012106775 -0.5968558788 0.8023478389
v -0.129722327 -2.97635603 0.1312152445
vn 0.0008748628316 -0.3041789234 0.9526145458
v -1.074820161 0.03880858794 0.1367802769
vn -0.001507911365 8.118464757e-05 0.9999988675
v -0.1562245935 3.085473537 0.01259039715
vn -0.001130725956 0.9674755931 0.2529619634
v -0.0669522658 3.069270372 0.06170580536
vn -0.0004601380788 0.8787008524 0.4773725569
v -1.084465623 3.072355986 0.04756619781
vn -0.01584033109 0.9232240915 0.3839353323
v -1.087256432 -3.081837177 0.006409666967
vn -0.01642857119 -0.9991760254 0.03711288795
v -1.114070177 -3.0602355 -0.001544456929
vn -0.7633879781 -0.6453291178 0.02809165418
v -1.082662463 1.779516101 0.1349260658
vn -0.4659522176 -5.598432108e-05 0.8848098516
v -1.107963085 0.01057454012 0.1197499931
vn -0.6252183318 7.228009054e-05 0.7804499269
v -1.117694139 0.7073472738 0.1016570926
vn -0.996363163 -0.0001469430572 0.08520811051
v -1.081624866 -1.714445829 0.1353729814
vn -0.4338974357 0.0002150547807 0.9009622335
v -1.077605009 1.639743686 0.1365948617
vn -0.195281446 0.0001649306505 0.9807472229
v -1.099991202 -2.952776432 0.125372082
vn -0.7874222398 -0.003775750753 0.6164024472
v -1.108864069 3.019275427 0.09170374274
vn -0.7738464475 0.3926326931 0.4969922006
v -1.118828058 2.98145175 0.08713237941
vn -0.9795194268 0.004607873037 0.2012970597
v -1.120026231 0.0001195973091 -0.1367788315
vn -0.09123838693 -1.187476573e-05 -0.9958291054
v 1.120027184 0.0001195973091 -0.1367788315
vn 0.1702266484 -3.302735786e-05 -0.9854049087
v -1.08451438 3.08391881 -0.1367788315
vn -0.0005524915759 0.0457958281 -0.9989506602
v -0.05579366907 3.036186934 0.1018971875
vn -0.0008423813269 0.6045782566 0.7965452671
v 0.04463725165 2.97832346 0.1311867237
vn -0.0003591821005 0.3313923776 0.943492949
v -1.115804315 3.053402662 -0.1367788315
vn -0.9817537069 0.02033128589 -0.1890669167
v -1.109997988 3.056980371 0.03631013632
vn -0.763027668 0.6259558797 0.1611457765
v -1.118529797 3.036935568 0.03518096358
vn -0.9999957085 0.002459879266 -0.001598911011
v -1.100649595 2.960399151 0.1239386275
vn -0.7537491918 0.005862652324 0.6571360826
v -1.075728178 2.950153589 0.1361099035
vn -0.001019352581 0.004109024536 0.9999910593
v -1.084995747 3.083029747 0.004534053151
vn -0.01262450125 0.999910295 0.004471627064
v -1.08154285 3.043142557 0.09277585894
vn -0.02219577879 0.7411302924 0.6709942222
v 1.084346533 2.958804131 0.1327105016
vn 0.00533271255 0.001668830635 0.9999843836
# mm_gid 0
g mmGroup0
f 12//12 14//14 36//36 
f 12//12 15//15 14//14 
f 58//58 15//15 12//12 
f 11//11 15//15 58//58 
f 30//30 12//12 25//25 
f 30//30 58//58 12//12 
f 23//23 58//58 30//30 
f 58//58 10//10 11//11 
f 57//57 9//9 8//8 
f 27//27 9//9 57//57 
f 59//59 57//57 62//62 
f 10//10 57//57 59//59 
f 58//58 57//57 10//10 
f 58//58 27//27 57//57 
f 23//23 27//27 58//58 
f 64//64 62//62 57//57 
f 51//51 7//7 6//6 
f 64//64 51//51 56//56 
f 57//57 51//51 64//64 
f 57//57 7//7 51//51 
f 8//8 7//7 57//57 
f 48//48 9//9 47//47 
f 48//48 8//8 9//9 
f 7//7 8//8 48//48 
f 54//54 6//6 4//4 
f 47//47 7//7 48//48 
f 47//47 5//5 7//7 
f 6//6 7//7 5//5 
f 5//5 4//4 6//6 
f 47//47 40//40 5//5 
f 40//40 3//3 5//5 
f 4//4 5//5 3//3 
f 3//3 2//2 4//4 
f 2//2 54//54 4//4 
f 38//38 54//54 2//2 
f 43//43 53//53 49//49 
f 49//49 53//53 66//66 
f 50//50 43//43 49//49 
f 43//43 50//50 52//52 
f 65//65 49//49 66//66 
f 65//65 50//50 49//49 
f 65//65 51//51 50//50 
f 56//56 51//51 65//65 
f 66//66 53//53 43//43 
f 43//43 52//52 38//38 
f 54//54 51//51 6//6 
f 54//54 50//50 51//51 
f 54//54 52//52 50//50 
f 38//38 52//52 54//54 
f 55//55 64//64 56//56 
f 65//65 55//55 56//56 
f 55//55 63//63 64//64 
f 55//55 65//65 1//1 
f 1//1 68//68 55//55 
f 63//63 55//55 68//68 
f 46//46 63//63 68//68 
f 46//46 67//67 63//63 
f 1//1 65//65 66//66 
f 63//63 62//62 64//64 
f 67//67 62//62 63//63 
f 67//67 59//59 62//62 
f 67//67 10//10 59//59 
f 21//21 10//10 67//67 
f 66//66 69//69 61//61 
f 61//61 1//1 66//66 
f 60//60 1//1 61//61 
f 60//60 68//68 1//1 
f 45//45 68//68 60//60 
f 45//45 46//46 68//68 
f 44//44 46//46 45//45 
f 44//44 67//67 46//46 
f 19//19 61//61 69//69 
f 19//19 60//60 61//61 
f 20//20 60//60 19//19 
f 20//20 45//45 60//60 
f 21//21 45//45 20//20 
f 21//21 44//44 45//45 
f 67//67 44//44 21//21 
f 43//43 69//69 66//66 
f 43//43 22//22 69//69 
f 38//38 22//22 43//43 
f 31//31 22//22 38//38 
f 47//47 28//28 37//37 
f 37//37 40//40 47//47 
f 37//37 3//3 40//40 
f 39//39 3//3 37//37 
f 41//41 3//3 39//39 
f 41//41 2//2 3//3 
f 42//42 2//2 41//41 
f 42//42 38//38 2//2 
f 32//32 37//37 28//28 
f 32//32 39//39 37//37 
f 32//32 41//41 39//39 
f 24//24 41//41 32//32 
f 24//24 42//42 41//41 
f 31//31 42//42 24//24 
f 38//38 42//42 31//31 
f 9//9 28//28 47//47 
f 27//27 28//28 9//9 
f 17//17 10//10 21//21 
f 17//17 11//11 10//10 
f 15//15 11//11 17//17 
f 14//14 15//15 16//16 
f 36//36 14//14 18//18 
f 16//16 15//15 17//17 
f 16//16 18//18 14//14 
f 16//16 17//17 21//21 
f 69//69 36//36 18//18 
f 18//18 16//16 20//20 
f 69//69 18//18 19//19 
f 20//20 16//16 21//21 
f 19//19 18//18 20//20 
f 13//13 26//26 22//22 
f 22//22 26//26 69//69 
f 31//31 13//13 22//22 
f 33//33 13//13 31//31 
f 35//35 13//13 33//33 
f 25//25 13//13 35//35 
f 25//25 12//12 13//13 
f 36//36 13//13 12//12 
f 36//36 26//26 13//13 
f 69//69 26//26 36//36 
f 35//35 34//34 25//25 
f 30//30 25//25 34//34 
f 34//34 29//29 30//30 
f 33//33 34//34 35//35 
f 34//34 33//33 24//24 
f 24//24 32//32 34//34 
f 29//29 34//34 32//32 
f 24//24 33//33 31//31 
f 32//32 28//28 29//29 
f 29//29 23//23 30//30 
f 28//28 23//23 29//29 
f 28//28 27//27 23//23 
