v -0.2298861891 0.1161630079 -0.01495112479 1 1 1
vn -0.5430023074 0.8387082815 -0.04143594205
v -0.2215290219 0.1191258505 0.01495111641 1 1 1
vn -0.004523855634 0.9580414295 0.2865940928
v -0.2284739465 0.1169776767 0.01495111641 1 1 1
vn -0.5233928561 0.8498274088 0.06207468733
v -0.2215290219 0.1191258505 -0.01495112479 1 1 1
vn -0.005709272809 0.8698617816 -0.4932624698
v -0.2215290219 -0.1191258579 -0.01495112479 1 1 1
vn -0.00545308087 -0.9619751573 -0.2730824351
v -0.2215290219 -0.1191258579 0.01495111641 1 1 1
vn -0.005706972443 -0.8698604703 0.4932648242
v -0.2284739465 -0.1169776842 -0.01495112479 1 1 1
vn -0.5233397484 -0.8498589993 -0.06209051982
v -0.2298861891 -0.1161642075 0.01495111641 1 1 1
vn -0.5429052711 -0.838772893 0.04139946774
v -0.235566169 -0.1104818434 -0.01495112479 1 1 1
vn -0.8334473968 -0.5394493937 -0.1198321804
v -0.2363814414 -0.1090707853 0.01495111641 1 1 1
vn -0.8264635801 -0.5088604689 0.2408713251
v -0.2385308146 0.1021240577 0.01495111641 1 1 1
vn -0.05645541474 0.0007872363203 0.9984048009
v -0.235566169 0.1104806364 0.01495111641 1 1 1
vn -0.8334408402 0.5394673347 0.1197972
v -0.2385308146 0.1021240577 -0.01495112479 1 1 1
vn -0.06006362289 0.0007247991161 -0.9981942773
v -0.2363814414 0.1090671942 -0.01495112479 1 1 1
vn -0.8264519572 0.5088964105 -0.2408351004
v -0.2385308146 -0.1021240726 -0.01495112479 1 1 1
vn -0.05608608574 -0.0007820818573 -0.9984256029
v 0.2385308295 -0.102128841 0.01495111641 1 1 1
vn 0.06007906049 -0.0007748898352 0.9981933236
v 0.2385308295 -0.102128841 -0.01495112479 1 1 1
vn 0.06241343543 -0.0007207139279 -0.9980500937
v 0.2355661839 -0.1104818434 0.01495111641 1 1 1
vn 0.8334192634 -0.5395076275 0.1197658032
v 0.2363802493 -0.1090707853 -0.01495112479 1 1 1
vn 0.8264300823 -0.5089684129 -0.2407581508
v 0.2298862189 -0.1161653996 -0.01495112479 1 1 1
vn 0.5429837108 -0.8387201428 -0.04143958166
v 0.2215314358 -0.1191258579 0.01495111641 1 1 1
vn 0.004890053999 -0.8632526994 0.5047482848
v 0.2284751534 -0.1169800609 0.01495111641 1 1 1
vn 0.5234040618 -0.8498183489 0.06210492924
v 0.2215314358 0.1191258505 -0.01495112479 1 1 1
vn 0.002890898613 0.8671119809 -0.4981048405
v 0.2215314358 -0.1191258579 -0.01495112479 1 1 1
vn 0.004265622701 -0.6504286528 -0.7595553994
v 0.2246684283 0.1182861477 0.01495111641 1 1 1
vn 0.01188925374 0.6680837274 0.7439911366
v 0.2284751534 0.1169776767 -0.01495112479 1 1 1
vn 0.5170328617 0.8552569747 -0.03482066467
v 0.2335939556 0.1130510643 0.01495111641 1 1 1
vn 0.7229821682 0.6856793165 0.08450242877
v 0.2355661839 0.1104806364 -0.01495112479 1 1 1
vn 0.8526717424 0.5042893291 -0.1365398467
v 0.2383185327 0.1029136777 0.01495111641 1 1 1
vn 0.06299099326 0.001163479756 0.9980134368
v 0.2385308295 0.1021240577 -0.01495112479 1 1 1
vn 0.06009420753 0.0008379583014 -0.9981923699
v -0.2385308146 -0.1021240726 0.01495111641 1 1 1
vn -0.05997033045 -0.0007236651727 0.9981998801
# mm_gid 3
g mmGroup3
f 8//8 5//5 6//6 
f 8//8 7//7 5//5 
f 8//8 9//9 7//7 
f 10//10 9//9 8//8 
f 31//31 9//9 10//10 
f 31//31 15//15 9//9 
f 9//9 15//15 5//5 
f 7//7 9//9 5//5 
f 18//18 20//20 19//19 
f 21//21 24//24 20//20 
f 24//24 19//19 20//20 
f 24//24 17//17 19//19 
f 18//18 19//19 17//17 
f 18//18 21//21 22//22 
f 22//22 20//20 18//18 
f 21//21 20//20 22//22 
f 21//21 5//5 24//24 
f 16//16 31//31 21//21 
f 21//21 31//31 6//6 
f 6//6 5//5 21//21 
f 6//6 10//10 8//8 
f 6//6 31//31 10//10 
f 2//2 4//4 1//1 
f 2//2 1//1 3//3 
f 3//3 1//1 12//12 
f 12//12 1//1 14//14 
f 3//3 12//12 2//2 
f 14//14 1//1 4//4 
f 13//13 14//14 4//4 
f 12//12 14//14 13//13 
f 12//12 11//11 2//2 
f 12//12 13//13 11//11 
f 13//13 4//4 23//23 
f 4//4 2//2 23//23 
f 25//25 29//29 27//27 
f 29//29 28//28 27//27 
f 28//28 23//23 26//26 
f 27//27 28//28 26//26 
f 27//27 26//26 25//25 
f 25//25 26//26 23//23 
f 23//23 2//2 25//25 
f 2//2 11//11 25//25 
f 11//11 13//13 31//31 
f 13//13 17//17 15//15 
f 31//31 13//13 15//15 
f 15//15 24//24 5//5 
f 15//15 17//17 24//24 
f 18//18 17//17 16//16 
f 16//16 21//21 18//18 
f 17//17 29//29 16//16 
f 29//29 31//31 16//16 
f 11//11 31//31 29//29 
f 25//25 11//11 29//29 
f 29//29 30//30 28//28 
f 30//30 23//23 28//28 
f 13//13 23//23 30//30 
f 30//30 17//17 13//13 
f 30//30 29//29 17//17 
