v -0.2853784859 -0.1447344571 -0.02995205298 1 1 1
vn -0.1073799431 -0.05414245278 -0.9927427173
v -0.2705555558 -0.1697530746 0.03224211186 1 1 1
vn -0.1671056896 -0.12139716 0.9784367085
v -0.09638438374 -0.3050597608 0.03121145442 1 1 1
vn -0.2080467939 -0.7029975057 0.6800816059
v -0.1236471981 -0.29468593 -0.03094219416 1 1 1
vn -0.219746381 -0.506506443 -0.8337641954
v -0.1544928849 -0.2796729505 0.03152870014 1 1 1
vn -0.203157261 -0.3626219332 0.9095231891
v -0.2149617523 -0.235673666 0.03188287094 1 1 1
vn -0.1081625596 -0.1209198087 0.9867518544
v 0.04031456262 -0.3173608482 -0.03177148476 1 1 1
vn 0.1636993885 -0.9632793665 -0.2128271312
v 0.08588603884 -0.3083292246 0.03031782433 1 1 1
vn 0.2205087245 -0.8376621008 0.4996979833
v 0.2115397602 -0.2398296297 0.02979684249 1 1 1
vn 0.1940302104 -0.1940747797 0.9616066217
v 0.1701623648 -0.2711602747 0.02995620295 1 1 1
vn 0.1559775174 -0.2319956124 0.9601296782
v 0.2024491429 -0.2472110093 -0.03246851638 1 1 1
vn 0.1102441624 -0.1463276297 -0.9830739498
v 0.1498519629 -0.2826296985 -0.03225940466 1 1 1
vn 0.1576819271 -0.2954351902 -0.942260325
v 0.2968592048 -0.1182145327 -0.03275595978 1 1 1
vn 0.138579905 -0.05941369385 -0.9885674715
v 0.3127390146 -0.06878913939 0.02953262627 1 1 1
vn 0.09198851883 -0.02343462966 0.9954842925
v 0.3110780418 0.07431474328 0.02973280661 1 1 1
vn 0.09661673009 0.02136608772 0.9950923324
v 0.3193756938 0.02308063768 0.02962377109 1 1 1
vn 0.09260133654 0.00526760472 0.9956893325
v 0.3165720999 0.04613148794 -0.03263115138 1 1 1
vn 0.09761163592 0.01596139371 -0.9950965643
v 0.3194930255 -0.005685860291 -0.03271485493 1 1 1
vn 0.08314729482 -0.0009179343469 -0.9965368509
v 0.264762491 0.1793357581 0.03009977564 1 1 1
vn 0.1207599565 0.07760684937 0.9896434546
v 0.2111858577 0.2398772836 -0.03185727075 1 1 1
vn 0.1344966441 0.1569870114 -0.9783995748
v 0.08559769392 0.3074618578 0.03114473075 1 1 1
vn 0.1751924902 0.7555920482 0.631180048
v 0.1500962228 0.2826630473 0.03079740703 1 1 1
vn 0.1984684318 0.4087180495 0.8908197284
v 0.1072598398 0.3005862236 -0.03126955777 1 1 1
vn 0.1851062179 0.5529096127 -0.812420249
v 0.1698013395 0.2711983919 -0.03161420301 1 1 1
vn 0.1596313864 0.2769979537 -0.9475178123
v -0.07969676703 0.3093908727 0.03195406124 1 1 1
vn -0.2108841091 0.9027510285 0.3749246895
v -0.1185082421 0.2972649336 -0.03017248027 1 1 1
vn -0.2879293263 0.7446334958 -0.6021774411
v -0.2323588878 0.2200530469 -0.02972089872 1 1 1
vn -0.141844064 0.1211864427 -0.9824429154
v -0.1982711405 0.2512013316 -0.02984541096 1 1 1
vn -0.162773937 0.199196279 -0.9663464427
v -0.2195484489 0.2319633216 0.03253223747 1 1 1
vn -0.09100275487 0.09648822993 0.9911652207
v -0.1793286055 0.2647666633 0.03238032013 1 1 1
vn -0.1682306677 0.2489732653 0.9537875652
v -0.3181329072 0.03460010514 -0.02955170907 1 1 1
vn -0.1127626076 0.0090056872 -0.9935811162
v -0.3145071566 0.05737929046 0.03276101127 1 1 1
vn -0.09045176208 0.01514420751 0.9957857132
v -0.3183348477 -0.02881177329 -0.02963570692 1 1 1
vn -0.1056870446 -0.01006527245 -0.994348526
v -0.1600560248 0.277117759 -0.02999673598 1 1 1
vn -0.1830406338 0.3103310764 -0.9328401685
v -0.309845984 0.08002622426 -0.02953085862 1 1 1
vn -0.1161677986 0.03166696429 -0.9927246571
v -0.2951082885 0.1237866208 -0.0295439586 1 1 1
vn -0.06885443628 0.02913334407 -0.9972012639
v -0.2966483235 0.1182258651 0.03275564313 1 1 1
vn -0.1151658297 0.04924808815 0.9921247363
v -0.1393416971 0.2878580093 0.03221588582 1 1 1
vn -0.1974280626 0.4384811819 0.8767875433
v -0.2708939314 0.1696928889 -0.02960085683 1 1 1
vn -0.1338348538 0.07932753861 -0.9878235459
v 0.1892276257 0.2581526041 0.03057399206 1 1 1
vn 0.1554851234 0.2022166252 0.9669192433
v -0.2642828822 0.179286316 0.03267968073 1 1 1
vn -0.1112851799 0.08049469441 0.9905232191
v -0.02892735042 0.3186965287 -0.03058116697 1 1 1
vn -0.09992975742 0.994893074 -0.01420788746
v -0.07449287176 0.3112210333 -0.03036788851 1 1 1
vn -0.167602703 0.6870779395 -0.7069888711
v 0.224423483 0.2282625139 0.03036191687 1 1 1
vn 0.2188261449 0.2026150674 0.9544957876
v -0.005539301783 0.3190319538 0.03160584345 1 1 1
vn 0.00905807782 0.9866227508 0.1627681404
v 0.3193804622 -0.02309374325 0.02956180833 1 1 1
vn 0.1672263592 -0.01568555646 0.9857937694
v 0.02297400124 0.3188067377 -0.03083406389 1 1 1
vn 0.126312241 0.9745934606 -0.1849671453
v 0.2822972536 0.14977929 -0.03232553229 1 1 1
vn 0.1034991965 0.05853002518 -0.9929059148
v 0.2546471953 0.1937017292 -0.03213131428 1 1 1
vn 0.116258055 0.09839553386 -0.988333106
v 0.3124351799 -0.06870573014 -0.03276579455 1 1 1
vn 0.08246208727 -0.01481929608 -0.9964840412
v 0.2906258702 0.1343385875 0.02991331182 1 1 1
vn 0.1116506755 0.04480566457 0.9927369356
v 0.1293676198 -0.2927931845 0.03012599796 1 1 1
vn 0.1982035339 -0.4478909671 0.8718423247
v 0.3066408634 0.09122636169 -0.03252273053 1 1 1
vn 0.108664237 0.03928307816 -0.9933020473
v 0.2675982714 -0.1743028462 0.02961126901 1 1 1
vn 0.1140046716 -0.07320798934 0.9907792807
v 0.2995895743 -0.1130523458 0.02953739092 1 1 1
vn 0.07798894495 -0.03262554854 0.9964202642
v 0.1020339057 -0.3028101921 -0.03205326945 1 1 1
vn 0.211086303 -0.6524055004 -0.7278802395
v 0.2679932415 -0.1746745855 -0.03269132227 1 1 1
vn 0.06675835699 -0.04230525717 -0.9968718886
v -0.1841148734 -0.2612254918 -0.03060172126 1 1 1
vn -0.1787559092 -0.2330452651 -0.9558954835
v 0.2400536537 -0.2114384621 -0.03260374814 1 1 1
vn 0.2251747996 -0.201150462 -0.9533282518
v -0.0284817256 -0.3178720176 0.03086294048 1 1 1
vn -0.09032379836 -0.9653309584 0.244903475
v 0.0406183973 -0.3174454272 0.03052634373 1 1 1
vn 0.07502320409 -0.9944107533 0.07428825647
v -0.2469411194 -0.2021584362 -0.03021656722 1 1 1
vn -0.1288288683 -0.1053279117 -0.9860574007
v -0.005791902542 -0.3198677897 -0.03155045956 1 1 1
vn -0.01551253535 -0.9995621443 -0.02519627474
v -0.05740014091 -0.314365983 -0.03129130602 1 1 1
vn -0.1812796593 -0.8750038147 -0.4488942027
v -0.3095266819 -0.0800941363 0.03255249932 1 1 1
vn -0.1107868701 -0.02544327639 0.9935184717
v -0.2947770655 -0.1238509566 0.03242142126 1 1 1
vn -0.09346760809 -0.04291002452 0.9946972132
v -0.3046921492 -0.09655953199 -0.02979269065 1 1 1
vn -0.1027930602 -0.02792891115 -0.9943106174
v -0.3186589777 -0.01159870159 0.0326892212 1 1 1
vn -0.08084147424 -0.003376034554 0.9967212677
# mm_gid 2
g mmGroup2
f 63//63 61//61 60//60 
f 8//8 3//3 60//60 
f 8//8 60//60 61//61 
f 7//7 8//8 61//61 
f 64//64 7//7 63//63 
f 63//63 60//60 64//64 
f 7//7 61//61 63//63 
f 64//64 56//56 7//7 
f 56//56 8//8 7//7 
f 4//4 56//56 64//64 
f 64//64 3//3 4//4 
f 64//64 60//60 3//3 
f 56//56 52//52 8//8 
f 52//52 3//3 8//8 
f 52//52 5//5 3//3 
f 4//4 3//3 5//5 
f 4//4 12//12 56//56 
f 12//12 52//52 56//56 
f 12//12 10//10 52//52 
f 10//10 5//5 52//52 
f 9//9 6//6 10//10 
f 11//11 9//9 10//10 
f 11//11 10//10 12//12 
f 58//58 11//11 12//12 
f 58//58 12//12 4//4 
f 4//4 5//5 58//58 
f 10//10 6//6 5//5 
f 58//58 5//5 6//6 
f 54//54 2//2 6//6 
f 54//54 6//6 9//9 
f 59//59 54//54 9//9 
f 59//59 9//9 11//11 
f 62//62 59//59 11//11 
f 62//62 11//11 58//58 
f 58//58 6//6 62//62 
f 54//54 66//66 2//2 
f 62//62 6//6 2//2 
f 62//62 57//57 59//59 
f 57//57 54//54 59//59 
f 62//62 2//2 1//1 
f 1//1 57//57 62//62 
f 1//1 13//13 57//57 
f 13//13 54//54 57//57 
f 13//13 55//55 54//54 
f 55//55 66//66 54//54 
f 14//14 65//65 55//55 
f 13//13 14//14 55//55 
f 67//67 13//13 1//1 
f 1//1 66//66 67//67 
f 1//1 2//2 66//66 
f 55//55 65//65 66//66 
f 67//67 66//66 65//65 
f 67//67 50//50 13//13 
f 50//50 14//14 13//13 
f 14//14 68//68 65//65 
f 33//33 65//65 68//68 
f 42//42 45//45 47//47 
f 42//42 25//25 45//45 
f 25//25 21//21 45//45 
f 23//23 43//43 47//47 
f 47//47 21//21 23//23 
f 47//47 45//45 21//21 
f 47//47 43//43 42//42 
f 43//43 25//25 42//42 
f 23//23 26//26 43//43 
f 26//26 25//25 43//43 
f 26//26 38//38 25//25 
f 38//38 21//21 25//25 
f 38//38 22//22 21//21 
f 23//23 21//21 22//22 
f 30//30 40//40 22//22 
f 30//30 22//22 38//38 
f 34//34 30//30 38//38 
f 34//34 38//38 26//26 
f 23//23 34//34 26//26 
f 23//23 22//22 24//24 
f 24//24 34//34 23//23 
f 20//20 28//28 24//24 
f 24//24 40//40 20//20 
f 24//24 22//22 40//40 
f 24//24 28//28 34//34 
f 28//28 30//30 34//34 
f 28//28 29//29 30//30 
f 29//29 40//40 30//30 
f 29//29 44//44 40//40 
f 20//20 40//40 44//44 
f 20//20 27//27 28//28 
f 27//27 29//29 28//28 
f 29//29 19//19 44//44 
f 49//49 44//44 19//19 
f 39//39 41//41 27//27 
f 49//49 39//39 27//27 
f 49//49 27//27 20//20 
f 20//20 44//44 49//49 
f 27//27 41//41 29//29 
f 41//41 19//19 29//29 
f 41//41 51//51 19//19 
f 48//48 19//19 51//51 
f 37//37 15//15 51//51 
f 36//36 37//37 39//39 
f 48//48 36//36 39//39 
f 49//49 19//19 48//48 
f 48//48 39//39 49//49 
f 39//39 37//37 41//41 
f 37//37 51//51 41//41 
f 32//32 16//16 15//15 
f 53//53 51//51 15//15 
f 48//48 51//51 53//53 
f 53//53 36//36 48//48 
f 53//53 35//35 36//36 
f 35//35 37//37 36//36 
f 35//35 32//32 37//37 
f 32//32 15//15 37//37 
f 53//53 15//15 17//17 
f 17//17 35//35 53//53 
f 17//17 31//31 35//35 
f 31//31 32//32 35//35 
f 31//31 68//68 32//32 
f 68//68 16//16 32//32 
f 18//18 31//31 17//17 
f 17//17 16//16 18//18 
f 17//17 15//15 16//16 
f 68//68 46//46 16//16 
f 18//18 16//16 46//46 
f 31//31 18//18 33//33 
f 33//33 68//68 31//31 
f 18//18 46//46 50//50 
f 33//33 18//18 50//50 
f 33//33 50//50 67//67 
f 67//67 65//65 33//33 
f 50//50 46//46 14//14 
f 46//46 68//68 14//14 
