v -0.138597846 -0.4194678962 -0.1131868288 1 1 1
vn -0.3261951506 -0.8768031597 -0.3532887995
v -0.2289426923 -0.3771750927 -0.1131868288 1 1 1
vn -0.2920384109 -0.4566318095 -0.8403576016
v -0.05413014814 -0.438065052 -0.1131868288 1 1 1
vn -0.1212644726 -0.9754444361 -0.18385607
v -0.29833588 -0.3255482316 -0.1131868288 1 1 1
vn -0.1715108156 -0.1905984432 -0.9665693045
v 0.3466480374 -0.2734090388 -0.1131868288 1 1 1
vn 0.3081530929 -0.2300128341 -0.9231119752
v 0.4019111395 -0.18258515 -0.1131868288 1 1 1
vn 0.2081006616 -0.09679746628 -0.973305881
v 0.2575505972 0.3582918048 -0.1131868288 1 1 1
vn 0.2607100308 0.3607631028 -0.8954776525
v 0.1824388951 0.4011770487 -0.1131868288 1 1 1
vn 0.3247843981 0.6857150197 -0.6513907909
v -0.3625710309 0.2515798211 -0.1131868288 1 1 1
vn -0.220171243 0.156684801 -0.9627951384
v -0.3106361628 0.3122832477 -0.1131868288 1 1 1
vn -0.3078095913 0.3366789818 -0.889887929
v -0.3989432752 0.1879435182 -0.1131868288 1 1 1
vn -0.2146459967 0.1001735702 -0.9715412259
v -0.2267613262 0.3776085675 -0.1131868288 1 1 1
vn -0.2886747122 0.4568865299 -0.841380775
v -0.3520471752 -0.2663990259 -0.1131868288 1 1 1
vn -0.2113396078 -0.1613406539 -0.9640045762
v -0.3866027594 -0.01284729503 0.1131868437 1 1 1
vn -0.06729931384 -0.002631802345 0.9977293611
v -0.2690067291 0.2776292562 0.1131868437 1 1 1
vn -0.0956851989 0.09796505421 0.9905792475
v -0.2449602187 0.366612196 0.05926761031 1 1 1
vn -0.5718379617 0.7885425687 0.2262784243
v -0.302534014 0.3212535977 0.05926761031 1 1 1
vn -0.6487492323 0.7253069282 0.2303352356
v 0.1441458315 0.4164277911 0.05926761031 1 1 1
vn 0.3387617469 0.9109164476 0.2355242968
v 0.09868124872 0.374764055 0.1131868437 1 1 1
vn 0.1251274049 0.5119553208 0.8498499393
v 0.4153697789 0.1498417109 0.05926761031 1 1 1
vn 0.9058818221 0.3322494328 0.2626564503
v 0.3851014078 0.2165997773 0.05926761031 1 1 1
vn 0.866835475 0.4707488418 0.1642919034
v 0.3445615768 0.1756846905 0.1131868437 1 1 1
vn 0.07458287477 0.0378452763 0.996496439
v 0.2993705571 0.2460132539 0.1131868437 1 1 1
vn 0.0653893128 0.05394022167 0.9964008927
v 0.4370536506 -0.06691634655 0.05926761031 1 1 1
vn 0.9502295852 -0.1353519708 0.2806129158
v 0.3642584383 -0.1310966611 0.1131868437 1 1 1
vn 0.06252460927 -0.0194514636 0.9978538752
v 0.1850344837 -0.3411148787 0.1131868437 1 1 1
vn 0.1457688361 -0.2484237701 0.9576205015
v 0.1690514982 -0.4078657627 0.05926761031 1 1 1
vn 0.3771012425 -0.899063468 0.2224398553
v -0.2163487226 -0.3845517039 0.05926761031 1 1 1
vn -0.4662376642 -0.8667994738 0.1768647879
v -0.09789640456 -0.3748753667 0.1131868437 1 1 1
vn -0.1159201637 -0.4448207617 0.8880861402
v -0.1896611452 -0.3377215862 0.1131868437 1 1 1
vn -0.1120979264 -0.2067663521 0.971947372
v -0.1181294546 -0.4252371788 0.05926761031 1 1 1
vn -0.2731473148 -0.930801332 0.2428979725
v -0.3461280763 -0.1741674095 0.1131868437 1 1 1
vn -0.07178417593 -0.03730336204 0.9967224002
v -0.4071316123 -0.1691977531 0.05926761031 1 1 1
vn -0.9131573439 -0.3526011705 0.2044897228
v -0.439694494 -0.04042549431 0.05926761031 1 1 1
vn -0.9855490327 -0.07119328529 0.1537031531
v -0.02456208318 -0.387532413 0.1131868437 1 1 1
vn -0.04225163534 -0.6581074595 0.751737535
v -0.3729533851 -0.1047389731 0.1131868437 1 1 1
vn -0.09691787511 -0.0265453551 0.994938314
v -0.3019792736 -0.3215461075 0.05926761031 1 1 1
vn -0.6550868154 -0.721462667 0.224394545
v -0.2511539459 -0.2958044112 0.1131868437 1 1 1
vn -0.0865451619 -0.1016615927 0.9910473824
v 0.122518152 -0.3685689569 0.1131868437 1 1 1
vn 0.1022113562 -0.3383513391 0.9354524016
v 0.04978955537 -0.384357065 0.1131868437 1 1 1
vn 0.05690991879 -0.6058042049 0.7935758233
v 0.4236883819 -0.1253876686 0.05926761031 1 1 1
vn 0.9352073073 -0.3121604919 0.1671620756
v 0.3031097353 -0.3221370876 0.05926761031 1 1 1
vn 0.6915307045 -0.7064096332 0.1508998275
v 0.3518658578 0.2665266395 0.05926761031 1 1 1
vn 0.7676116228 0.5949557424 0.2383275777
v 0.3436386883 -0.2779084742 0.05926761031 1 1 1
vn 0.7554531097 -0.570322156 0.3225263059
v 0.432248801 0.09228266031 0.05926761031 1 1 1
vn 0.9675300717 0.1765487641 0.1808760017
v 0.3794505 0.07973300666 0.1131868437 1 1 1
vn 0.1083291247 0.0227419585 0.9938549399
v 0.2397254258 0.3698911369 0.05926761031 1 1 1
vn 0.4974773526 0.8358559012 0.2320802063
v 0.1764663458 0.343919307 0.1131868437 1 1 1
vn 0.1248025373 0.2478947788 0.9607145786
v -0.1896611452 0.3368397653 0.1131868437 1 1 1
vn -0.1041411236 0.2013383508 0.973969996
v 0.06011640653 0.4369340837 0.05926761031 1 1 1
vn 0.1409063041 0.9572803378 0.2525069714
v -0.4398964942 0.03287142888 0.05926761031 1 1 1
vn -0.9685980678 0.08609094471 0.2332511693
v -0.01969747059 0.4405555427 0.05926761031 1 1 1
vn -0.07322877645 0.9721342921 0.2226936072
v -0.3739985228 0.2336219847 0.05926761031 1 1 1
vn -0.8499317765 0.4974480271 0.1736705899
v -0.1551784426 0.4130997956 -0.1131868288 1 1 1
vn -0.3055639863 0.7799014449 -0.5462456942
v -0.3411253393 0.1811546683 0.1131868437 1 1 1
vn -0.08744279295 0.05017621443 0.9949050546
v -0.4275816977 0.1063300818 -0.1131868288 1 1 1
vn -0.1987239718 0.04615833983 -0.978967905
v -0.4410786629 0.007496275473 -0.1131868288 1 1 1
vn -0.1878464371 0.004306365736 -0.98218894
v 0.1072542891 0.4282126427 -0.1131868288 1 1 1
vn 0.2336862832 0.9177168608 -0.3212265074
v 0.03485868499 0.4396475554 -0.1131868288 1 1 1
vn 0.07514784485 0.9940772653 -0.0785060972
v 0.4289484024 -0.1074057892 -0.1131868288 1 1 1
vn 0.1665421575 -0.04189962894 -0.9851437211
v 0.3680408597 0.24375543 -0.1131868288 1 1 1
vn 0.2058213651 0.1367618889 -0.9689859152
v 0.4060335457 0.1734663993 -0.1131868288 1 1 1
vn 0.1915452331 0.08514701575 -0.9777834415
v 0.0521848239 -0.4383723438 -0.1131868288 1 1 1
vn 0.09338844568 -0.9940596819 -0.05589259788
v 0.1554821432 -0.4132255912 -0.1131868288 1 1 1
vn 0.2413326651 -0.7645904422 -0.597628653
v 0.2277607918 -0.3791799843 -0.1131868288 1 1 1
vn 0.3848579228 -0.6737565398 -0.6308220625
v 0.429551959 0.1040479541 -0.1131868288 1 1 1
vn 0.2788120508 0.07527066767 -0.9573913217
v 0.4394069612 0.04488397017 -0.1131868288 1 1 1
vn 0.1785511076 0.01606905647 -0.9837993979
v -0.02511183172 0.4406310618 -0.1131868288 1 1 1
vn -0.07256639749 0.9969646931 -0.02820543759
v -0.4337053895 -0.07868164033 -0.1131868288 1 1 1
vn -0.2347146571 -0.0528480038 -0.9706266522
v -0.4100516438 0.1623182446 0.05926761031 1 1 1
vn -0.9027636647 0.3513436317 0.2481440008
v -0.377099365 0.08569711447 0.1131868437 1 1 1
vn -0.05743309483 0.01337457821 0.9982597828
v -0.1181294546 0.424354136 0.05926761031 1 1 1
vn -0.2545364201 0.9291170835 0.2682400048
v -0.09789640456 0.3739956617 0.1131868437 1 1 1
vn -0.08601227403 0.3820555806 0.9201279283
v 0.3031097353 0.3212535977 0.05926761031 1 1 1
vn 0.6560471654 0.7193500996 0.2283364683
v 0.4410786331 0.01287895534 0.05926761031 1 1 1
vn 0.9690018892 0.02957997844 0.2452761382
v 0.2670924962 -0.280369252 0.1131868437 1 1 1
vn 0.08465626836 -0.0901388675 0.9923247099
v 0.394227773 -0.1996545196 0.05926761031 1 1 1
vn 0.8575006723 -0.4675039053 0.2147852182
v 0.06664336473 -0.4364153147 0.05926761031 1 1 1
vn 0.1795017272 -0.9609214067 0.2107348144
v -0.3667643666 -0.2456890792 0.05926761031 1 1 1
vn -0.8153162599 -0.5361238122 0.2187023014
v -0.4316664636 -0.0931661427 0.05926761031 1 1 1
vn -0.9185941219 -0.2183631212 0.3293969929
v -0.3023532331 -0.2417860627 0.1131868437 1 1 1
vn -0.08080458641 -0.06536541134 0.994584322
v -0.03301816434 -0.4406310618 0.05926761031 1 1 1
vn -0.04391570389 -0.9667470455 0.251935631
v 0.3284336925 -0.2066183239 0.1131868437 1 1 1
vn 0.07846092433 -0.05095229298 0.9956142306
v 0.2565208673 -0.3599080145 0.05926761031 1 1 1
vn 0.5372601748 -0.8026863933 0.2589325905
v 0.3871850967 -0.01284729503 0.1131868437 1 1 1
vn 0.06151132658 -0.004067324568 0.9980980754
v 0.2467487901 0.2986366749 0.1131868437 1 1 1
vn 0.08964075893 0.1139527634 0.989433825
v -0.1931149215 0.3967759311 0.05926761031 1 1 1
vn -0.4173029363 0.8927089572 0.170085296
v 0.003373885294 0.3862563968 0.1131868437 1 1 1
vn 0.006616190542 0.6409509778 0.7675533295
v -0.4316664636 0.09228266031 0.05926761031 1 1 1
vn -0.9480050206 0.2185690701 0.2313309461
v -0.3390999436 0.2824091315 0.05926761031 1 1 1
vn -0.7435469031 0.6077437401 0.2789005637
v -0.4023704231 -0.1802689731 -0.1131868288 1 1 1
vn -0.2048422098 -0.09460689873 -0.97421211
v -0.09762652963 0.4300043285 -0.1131868288 1 1 1
vn -0.1857584864 0.9705687165 -0.1532650739
v 0.4403833449 -0.03501351923 -0.1131868288 1 1 1
vn 0.1881581396 -0.01174222585 -0.9820685387
v 0.3180008233 0.3060435355 -0.1131868288 1 1 1
vn 0.2373514175 0.223304987 -0.9454095364
v 0.287037909 -0.336073488 -0.1131868288 1 1 1
vn 0.2614014745 -0.301345557 -0.9169842601
# mm_gid 15
g mmGroup15
f 63//63 78//78 82//82 
f 63//63 82//82 3//3 
f 29//29 31//31 82//82 
f 29//29 82//82 35//35 
f 40//40 29//29 35//35 
f 40//40 82//82 78//78 
f 35//35 82//82 40//40 
f 64//64 27//27 78//78 
f 64//64 78//78 63//63 
f 3//3 64//64 63//63 
f 3//3 82//82 31//31 
f 3//3 31//31 1//1 
f 1//1 64//64 3//3 
f 30//30 28//28 31//31 
f 30//30 31//31 29//29 
f 39//39 30//30 29//29 
f 39//39 78//78 27//27 
f 40//40 78//78 39//39 
f 39//39 29//29 40//40 
f 39//39 27//27 26//26 
f 26//26 30//30 39//39 
f 65//65 84//84 27//27 
f 65//65 27//27 64//64 
f 2//2 65//65 64//64 
f 2//2 64//64 1//1 
f 1//1 28//28 2//2 
f 1//1 31//31 28//28 
f 95//95 84//84 65//65 
f 2//2 95//95 65//65 
f 26//26 27//27 84//84 
f 30//30 37//37 28//28 
f 2//2 28//28 37//37 
f 95//95 42//42 84//84 
f 76//76 84//84 42//42 
f 26//26 84//84 76//76 
f 76//76 30//30 26//26 
f 76//76 38//38 30//30 
f 38//38 37//37 30//30 
f 2//2 37//37 4//4 
f 4//4 95//95 2//2 
f 76//76 81//81 38//38 
f 81//81 37//37 38//38 
f 4//4 5//5 95//95 
f 5//5 42//42 95//95 
f 5//5 44//44 42//42 
f 76//76 42//42 44//44 
f 81//81 79//79 37//37 
f 13//13 37//37 79//79 
f 4//4 37//37 13//13 
f 13//13 5//5 4//4 
f 83//83 81//81 76//76 
f 76//76 44//44 83//83 
f 5//5 77//77 44//44 
f 83//83 44//44 77//77 
f 83//83 32//32 81//81 
f 32//32 79//79 81//81 
f 32//32 33//33 79//79 
f 91//91 79//79 33//33 
f 91//91 6//6 13//13 
f 13//13 79//79 91//91 
f 13//13 6//6 5//5 
f 6//6 77//77 5//5 
f 83//83 77//77 25//25 
f 25//25 32//32 83//83 
f 6//6 41//41 77//77 
f 25//25 77//77 41//41 
f 25//25 36//36 32//32 
f 36//36 33//33 32//32 
f 36//36 80//80 33//33 
f 69//69 33//33 80//80 
f 91//91 33//33 69//69 
f 60//60 91//91 69//69 
f 6//6 91//91 60//60 
f 60//60 41//41 6//6 
f 93//93 24//24 60//60 
f 60//60 69//69 93//93 
f 60//60 24//24 41//41 
f 25//25 41//41 24//24 
f 25//25 14//14 36//36 
f 14//14 80//80 36//36 
f 14//14 34//34 80//80 
f 69//69 80//80 34//34 
f 93//93 75//75 24//24 
f 85//85 24//24 75//75 
f 25//25 24//24 85//85 
f 85//85 14//14 25//25 
f 88//88 50//50 52//52 
f 59//59 52//52 50//50 
f 68//68 52//52 59//59 
f 59//59 92//92 68//68 
f 92//92 52//52 68//68 
f 92//92 72//72 52//52 
f 73//73 52//52 72//72 
f 88//88 52//52 73//73 
f 73//73 19//19 88//88 
f 19//19 50//50 88//88 
f 19//19 18//18 50//50 
f 58//58 50//50 18//18 
f 58//58 92//92 59//59 
f 59//59 50//50 58//58 
f 58//58 54//54 92//92 
f 54//54 72//72 92//92 
f 73//73 48//48 19//19 
f 48//48 18//18 19//19 
f 58//58 18//18 8//8 
f 8//8 54//54 58//58 
f 54//54 87//87 72//72 
f 49//49 72//72 87//87 
f 73//73 72//72 49//49 
f 49//49 48//48 73//73 
f 48//48 47//47 18//18 
f 8//8 18//18 47//47 
f 12//12 16//16 87//87 
f 8//8 12//12 54//54 
f 12//12 87//87 54//54 
f 8//8 47//47 7//7 
f 7//7 12//12 8//8 
f 86//86 74//74 47//47 
f 49//49 87//87 16//16 
f 49//49 86//86 48//48 
f 86//86 47//47 48//48 
f 7//7 10//10 12//12 
f 10//10 16//16 12//12 
f 10//10 17//17 16//16 
f 15//15 16//16 17//17 
f 49//49 16//16 15//15 
f 15//15 86//86 49//49 
f 10//10 90//90 17//17 
f 94//94 10//10 7//7 
f 7//7 74//74 94//94 
f 7//7 47//47 74//74 
f 15//15 23//23 86//86 
f 23//23 74//74 86//86 
f 23//23 43//43 74//74 
f 94//94 74//74 43//43 
f 15//15 17//17 90//90 
f 94//94 9//9 10//10 
f 9//9 90//90 10//10 
f 9//9 53//53 90//90 
f 55//55 90//90 53//53 
f 15//15 90//90 55//55 
f 55//55 23//23 15//15 
f 55//55 22//22 23//23 
f 22//22 43//43 23//23 
f 22//22 21//21 43//43 
f 61//61 43//43 21//21 
f 11//11 53//53 9//9 
f 61//61 11//11 9//9 
f 94//94 43//43 61//61 
f 61//61 9//9 94//94 
f 11//11 70//70 53//53 
f 55//55 53//53 70//70 
f 22//22 20//20 21//21 
f 62//62 21//21 20//20 
f 61//61 21//21 62//62 
f 62//62 11//11 61//61 
f 56//56 89//89 70//70 
f 62//62 56//56 11//11 
f 56//56 70//70 11//11 
f 55//55 70//70 71//71 
f 71//71 22//22 55//55 
f 71//71 46//46 22//22 
f 46//46 20//20 22//22 
f 46//46 45//45 20//20 
f 66//66 20//20 45//45 
f 62//62 20//20 66//66 
f 66//66 56//56 62//62 
f 46//46 75//75 45//45 
f 71//71 70//70 89//89 
f 56//56 51//51 89//89 
f 71//71 89//89 51//51 
f 71//71 85//85 46//46 
f 85//85 75//75 46//46 
f 14//14 51//51 34//34 
f 57//57 34//34 51//51 
f 69//69 34//34 57//57 
f 93//93 69//69 57//57 
f 93//93 57//57 67//67 
f 67//67 75//75 93//93 
f 67//67 45//45 75//75 
f 66//66 45//45 67//67 
f 67//67 56//56 66//66 
f 67//67 57//57 56//56 
f 57//57 51//51 56//56 
f 71//71 51//51 14//14 
f 14//14 85//85 71//71 
