v -0.2932905853 0.04801538214 -0.1391573548 1 1 1
vn -0.1141279265 0.9644002914 0.2385516912
v 0.05685778335 -0.006006984506 -0.1624792963 1 1 1
vn 0.07673513144 0.0008895337232 -0.9970511198
v 0.3375420272 -0.04801537842 -0.1257242262 1 1 1
vn 0.1697904319 -0.9745640159 -0.1462744772
v 0.05857061595 -0.04801537842 -0.1624792963 1 1 1
vn 0.05987207964 -0.8172507882 -0.573163569
v 0.0585439615 0.04801538214 -0.1624792963 1 1 1
vn 0.1236705631 0.7362838387 -0.6652756929
v 0.05857061595 -0.04801537842 -0.1257242262 1 1 1
vn 0.01963315718 -0.9914916158 -0.1286814064
v 0.3361814916 -0.03833951429 0.1320508569 1 1 1
vn -0.0005860745441 -0.9587093592 0.2843870819
v -0.2932905853 0.04801538214 -0.1624792963 1 1 1
vn -0.02847193927 0.2349065691 -0.9716008902
v -0.3348333538 3.572414926e-06 -0.1143343374 1 1 1
vn -0.4148748219 2.911358024e-05 0.9098784924
v -0.3375420868 7.621722943e-06 -0.1624792963 1 1 1
vn -0.1794939935 0 -0.9837590456
v 0.336165756 0.03834141791 0.1320375353 1 1 1
vn -0.0003291380126 0.9547320008 0.2974670827
v -0.2932905853 -0.04801537842 -0.1391573548 1 1 1
vn -0.1141396612 -0.9643950462 0.2385672629
v -0.2932905853 -0.04801537842 -0.1624792963 1 1 1
vn -0.03225278854 -0.2660337389 -0.963424027
v 0.3334446549 -0.002294988139 0.1624792963 1 1 1
vn 0.01702278294 0.0001772819087 0.9998551011
v 0.0585439615 0.04801538214 -0.1257242262 1 1 1
vn 0.008183193393 0.9939332008 -0.1096805483
v 0.3375210762 0.04801538214 -0.1257242262 1 1 1
vn 0.1697775573 0.9745650291 -0.1462825239
v 0.05685778335 0.006010080688 -0.1257242262 1 1 1
vn 0.2027984262 -0.002242861316 -0.9792179465
v 0.3341668248 -4.764170853e-07 -0.1257242262 1 1 1
vn 0.6602297425 0.0001408148964 -0.7510637045
# mm_gid 11
g mmGroup11
f 3//3 18//18 7//7 
f 7//7 6//6 3//3 
f 6//6 18//18 3//3 
f 17//17 18//18 6//6 
f 13//13 2//2 4//4 
f 6//6 4//4 2//2 
f 2//2 17//17 6//6 
f 9//9 10//10 12//12 
f 7//7 9//9 12//12 
f 14//14 9//9 7//7 
f 7//7 18//18 14//14 
f 12//12 6//6 7//7 
f 12//12 4//4 6//6 
f 13//13 4//4 12//12 
f 12//12 10//10 13//13 
f 10//10 2//2 13//13 
f 5//5 17//17 2//2 
f 15//15 1//1 11//11 
f 5//5 1//1 15//15 
f 15//15 17//17 5//5 
f 15//15 18//18 17//17 
f 16//16 18//18 15//15 
f 15//15 11//11 16//16 
f 11//11 18//18 16//16 
f 1//1 10//10 9//9 
f 11//11 1//1 9//9 
f 11//11 9//9 14//14 
f 14//14 18//18 11//11 
f 8//8 2//2 10//10 
f 8//8 5//5 2//2 
f 8//8 1//1 5//5 
f 8//8 10//10 1//1 
