v -0.5110353231 -0.2299779356 -0.7054780126 1 1 1
vn -0.1198583543 -0.4974059165 -0.8591980934
v -0.5110353231 0.2717697024 -0.7054780126 1 1 1
vn -0.1367644817 0.1418919712 -0.9803887606
v 0.5300779343 -0.2299779356 -0.7054780126 1 1 1
vn 0.1367639154 -0.1418919861 -0.9803888202
v 0.5300779343 0.2717654407 -0.7054780126 1 1 1
vn 0.1198601052 0.4974089861 -0.8591960669
v 0.5300779343 -0.2299779356 -0.5602424741 1 1 1
vn 0.119858101 -0.4974091053 0.8591962457
v 0.5300779343 0.2717654407 -0.5602424741 1 1 1
vn 0.1367644817 0.1418919712 0.9803887606
v -0.5110353231 -0.2299779356 -0.5602424741 1 1 1
vn -0.1367650479 -0.1418919563 0.980388701
v -0.5110353231 0.2717697024 -0.5602424741 1 1 1
vn -0.1198563427 0.4974060357 0.8591982722
# mm_gid 4
g mmGroup4
f 1//1 2//2 3//3 
f 3//3 5//5 1//1 
f 1//1 5//5 7//7 
f 1//1 7//7 2//2 
f 2//2 7//7 8//8 
f 2//2 8//8 4//4 
f 3//3 2//2 4//4 
f 4//4 6//6 3//3 
f 3//3 6//6 5//5 
f 5//5 6//6 7//7 
f 7//7 6//6 8//8 
f 4//4 8//8 6//6 
