v 0.1192456856 -0.1652156413 -0.05791371316 1 1 1
vn 0.4523336291 -0.6519479752 0.6085705757
v 0.1342152655 -0.1516821384 -0.1764070243 1 1 1
vn 0.3252879679 -0.3138778508 -0.8920024633
v -0.05147686601 0.1944084316 -0.05791371316 1 1 1
vn -0.226292327 0.7153778076 0.6610797048
v -0.07309595495 0.1886345148 -0.1764070243 1 1 1
vn -0.4082946479 0.7496454716 -0.5208907723
v -0.05050003529 0.07976158708 -0.05791371316 1 1 1
vn -0.4674324691 0.726569891 0.5035901666
v -0.02511392348 0.08951927722 0.1764070243 1 1 1
vn -0.3253823519 0.9175799489 0.2284148186
v -0.006237145979 0.0940296948 -0.05791371316 1 1 1
vn -0.01435832866 0.8727546334 0.4879479408
v -0.07791435719 0.05173368007 -0.05791371316 1 1 1
vn -0.7430911064 0.3855533004 0.5469591022
v 0.06743065268 -0.06808873266 -0.05791371316 1 1 1
vn 0.6393845677 -0.6131134033 0.4639820457
v 0.09282808006 -0.01759483665 -0.05791371316 1 1 1
vn 0.7773525715 -0.1521103531 0.6103977561
v 0.04254307225 -0.08545012772 0.1764070243 1 1 1
vn 0.4252220392 -0.8884361982 0.1728215367
v -0.07791435719 0.05173368007 0.1764070243 1 1 1
vn -0.6872237325 0.6369305849 0.3493464291
v 0.02670600079 -0.09055138379 -0.05791371316 1 1 1
vn 0.1319307536 -0.7920259833 0.5960612893
v 0.05035174638 0.08101447672 -0.05791371316 1 1 1
vn 0.4258697033 0.678833425 0.5981807113
v 0.02823531255 0.09080325812 0.1764070243 1 1 1
vn 0.3042905331 0.9504602551 0.06350278109
v -0.142574057 0.1409174651 -0.05791371316 1 1 1
vn -0.5271161199 0.609134376 0.5925402045
v -0.1486687064 0.1344051659 -0.1764070243 1 1 1
vn -0.3796613812 0.3143620193 -0.8700768352
v 0.1672923863 -0.1154711246 -0.05791371316 1 1 1
vn 0.6852687597 -0.4368547499 0.5827217698
v 0.1786928922 0.09910164773 -0.1764070243 1 1 1
vn 0.2190341949 0.135491088 -0.9662640095
v -0.1777826548 -0.09463365376 -0.05791371316 1 1 1
vn -0.6551823616 -0.34640944 0.671369195
v -0.1199432388 -0.1622010916 -0.1764070243 1 1 1
vn -0.3230324388 -0.3858546317 -0.8641563654
v -0.09244221449 0.01532352902 0.1764070243 1 1 1
vn -0.7759459019 0.1565468758 0.6110655069
v -0.08840532601 -0.02964750864 0.1764070243 1 1 1
vn -0.7913023233 -0.2509604096 0.5575477481
v -0.0622391291 -0.06984778494 0.1764070243 1 1 1
vn -0.6053720713 -0.730684936 0.3156329095
v -0.1226857901 -0.1584199965 -0.05791371316 1 1 1
vn -0.4957585037 -0.6599016786 0.5645824075
v -0.003146353411 -0.2024501711 -0.1764070243 1 1 1
vn 0.0443401821 -0.998494029 -0.0323048532
v -0.06056201458 -0.1932873875 -0.1764070243 1 1 1
vn -0.350012362 -0.9229599833 -0.1601129621
v -0.02531448007 -0.1993895024 -0.05791371316 1 1 1
vn -0.1220902279 -0.7162035108 0.6871291995
v -0.1744691581 -0.09792583436 -0.1764070243 1 1 1
vn -0.3892569244 -0.2040067762 -0.8982540369
v 0.2008193433 0.0335800536 -0.1764070243 1 1 1
vn 0.3702144027 0.05673156679 -0.9272124171
v 0.2008193433 0.03583193198 -0.05791371316 1 1 1
vn 0.5934171677 0.131642431 0.7940568924
v 0.1217405051 0.1614184827 -0.1764070243 1 1 1
vn 0.4067764282 0.494392693 -0.7681853771
v 0.2008193433 -0.03552848846 -0.05791371316 1 1 1
vn 0.8594019413 -0.1443075985 0.490513593
v -0.1906867474 0.06631536782 -0.1764070243 1 1 1
vn -0.2101293057 0.07772567868 -0.9745790958
v -0.1916742921 0.06192047894 -0.05791371316 1 1 1
vn -0.7971349955 0.2998950481 0.5240599513
v 0.08411200345 0.04507023841 -0.05791371316 1 1 1
vn 0.8119065762 0.3200175166 0.4882586598
v 0.07948450744 0.05093025416 0.1764070243 1 1 1
vn 0.6620460749 0.5303515196 0.5295490623
v -0.01361611858 -0.09184060991 0.1764070243 1 1 1
vn -0.1115845963 -0.9927193522 0.04535645619
v -0.03257972002 -0.08771200478 -0.05791371316 1 1 1
vn -0.3224700987 -0.7923731208 0.5178396106
v -0.07839693874 -0.04998274148 -0.05791371316 1 1 1
vn -0.6499734521 -0.4197436869 0.6335216761
v 0.09589206427 0.0001470745337 0.1764070243 1 1 1
vn 0.8224136233 0.04992874712 0.5666947365
v 0.08068083972 -0.04967940599 0.1764070243 1 1 1
vn 0.7650880218 -0.4427030683 0.4676048458
v -0.2006236613 -0.01101202052 -0.05791371316 1 1 1
vn -0.7800496817 -0.1266275644 0.6127706766
v -0.2008193284 -0.006582704838 -0.1764070243 1 1 1
vn -0.2675329149 -0.0081985984 -0.9635138512
v 0.1930344701 -0.06114314497 -0.1764070243 1 1 1
vn 0.2861760855 -0.108048968 -0.9520654678
v -0.09302674234 0.00620836718 -0.05791371316 1 1 1
vn -0.874871552 -0.02119858004 0.4838909209
v 0.1677875817 0.1133719012 -0.05791371316 1 1 1
vn 0.7027981281 0.4696345627 0.5343389511
v 0.1000568718 0.1771221757 -0.05791371316 1 1 1
vn 0.4343623221 0.7336816192 0.5225329399
v 0.03259256855 0.2003759891 -0.05791371316 1 1 1
vn 0.07762379944 0.7397904396 0.6683447361
v 0.05016524345 0.1968288273 -0.1764070243 1 1 1
vn 0.2888801992 0.9249203801 -0.247124508
v -0.01662092097 0.202450186 -0.1764070243 1 1 1
vn -0.06809762865 0.9969528317 -0.03804904968
v 0.06735443324 -0.1914406717 -0.05791371316 1 1 1
vn 0.1738761365 -0.8276048303 0.5337014794
v 0.06735443324 -0.1914406717 -0.1764070243 1 1 1
vn 0.3198857307 -0.7862953544 -0.5285950899
# mm_gid 1
g mmGroup1
f 38//38 39//39 13//13 
f 28//28 13//13 39//39 
f 26//26 52//52 28//28 
f 52//52 13//13 28//28 
f 53//53 52//52 26//26 
f 38//38 13//13 11//11 
f 28//28 39//39 25//25 
f 26//26 28//28 27//27 
f 27//27 53//53 26//26 
f 11//11 24//24 38//38 
f 24//24 39//39 38//38 
f 2//2 1//1 53//53 
f 21//21 2//2 53//53 
f 21//21 53//53 27//27 
f 27//27 25//25 21//21 
f 27//27 28//28 25//25 
f 53//53 1//1 52//52 
f 1//1 13//13 52//52 
f 1//1 9//9 13//13 
f 11//11 13//13 9//9 
f 24//24 40//40 39//39 
f 25//25 39//39 40//40 
f 2//2 18//18 1//1 
f 18//18 9//9 1//1 
f 11//11 9//9 42//42 
f 42//42 24//24 11//11 
f 29//29 2//2 21//21 
f 21//21 25//25 29//29 
f 18//18 10//10 9//9 
f 42//42 9//9 10//10 
f 42//42 23//23 24//24 
f 23//23 40//40 24//24 
f 25//25 40//40 20//20 
f 29//29 25//25 20//20 
f 29//29 45//45 2//2 
f 45//45 18//18 2//2 
f 20//20 40//40 43//43 
f 33//33 10//10 18//18 
f 45//45 33//33 18//18 
f 23//23 46//46 40//40 
f 43//43 40//40 46//46 
f 15//15 7//7 6//6 
f 51//51 49//49 50//50 
f 51//51 3//3 49//49 
f 3//3 7//7 49//49 
f 15//15 14//14 7//7 
f 49//49 7//7 14//14 
f 50//50 4//4 51//51 
f 4//4 3//3 51//51 
f 3//3 5//5 7//7 
f 6//6 7//7 5//5 
f 49//49 14//14 48//48 
f 50//50 49//49 48//48 
f 6//6 37//37 15//15 
f 37//37 14//14 15//15 
f 17//17 16//16 4//4 
f 32//32 17//17 4//4 
f 50//50 48//48 32//32 
f 32//32 4//4 50//50 
f 4//4 16//16 3//3 
f 16//16 5//5 3//3 
f 37//37 36//36 14//14 
f 47//47 14//14 36//36 
f 48//48 14//14 47//47 
f 32//32 48//48 47//47 
f 16//16 8//8 5//5 
f 12//12 5//5 8//8 
f 6//6 5//5 12//12 
f 12//12 37//37 6//6 
f 32//32 47//47 19//19 
f 19//19 17//17 32//32 
f 17//17 35//35 16//16 
f 35//35 8//8 16//16 
f 31//31 36//36 10//10 
f 44//44 30//30 45//45 
f 30//30 33//33 45//45 
f 30//30 31//31 33//33 
f 31//31 10//10 33//33 
f 44//44 45//45 29//29 
f 29//29 43//43 44//44 
f 29//29 20//20 43//43 
f 42//42 10//10 41//41 
f 41//41 23//23 42//42 
f 47//47 36//36 31//31 
f 19//19 34//34 17//17 
f 34//34 35//35 17//17 
f 35//35 46//46 8//8 
f 22//22 8//8 46//46 
f 12//12 8//8 22//22 
f 22//22 37//37 12//12 
f 22//22 41//41 37//37 
f 41//41 36//36 37//37 
f 41//41 10//10 36//36 
f 23//23 41//41 22//22 
f 22//22 46//46 23//23 
f 43//43 46//46 35//35 
f 44//44 43//43 35//35 
f 44//44 35//35 34//34 
f 30//30 44//44 34//34 
f 30//30 47//47 31//31 
f 19//19 47//47 30//30 
f 30//30 34//34 19//19 
