v -0.7792873979 -0.4359494746 1.028421283 1 1 1
vn -0.04870117083 -0.9561449885 0.2888165414
v 0.7749015093 0.2915694118 0.6952781081 1 1 1
vn -0.6517598033 -0.7584224939 0.002117941389
v -0.7574017644 -0.2914483845 0.6952781081 1 1 1
vn 0.6868584156 0.7267867327 -0.002562547568
v -0.7195454836 -0.3295638561 0.6952781081 1 1 1
vn 0.7227296829 0.6911296844 -0.001231406699
v -0.7210865021 -0.3288304806 1.028421283 1 1 1
vn 0.007374772802 0.9948698878 0.1008938104
v -0.7556568384 -0.2942617238 1.028421283 1 1 1
vn 0.9837414622 0.02809939906 0.177378729
v 0.7763200402 -0.2852008939 1.028421283 1 1 1
vn -0.98353827 -0.00325995707 0.1806705147
v 0.8301364779 -0.415712595 0.3621306121 1 1 1
vn 0.04941501841 -0.9855147004 -0.1622311175
v 0.8836619854 -0.3427761495 0.3621306121 1 1 1
vn 0.9861789346 -0.03705841303 -0.1614861935
v 0.8836619854 0.3429003656 0.3621306121 1 1 1
vn 0.9809628129 0.05127497017 -0.1873042136
v 0.761608541 0.3076457083 0.3621306121 1 1 1
vn -0.5800397396 -0.7349947095 -0.3511931896
v -0.795352459 0.4280222356 0.3621306121 1 1 1
vn -0.04591356963 0.9464973807 -0.3194285929
v 0.8093619943 0.4290062487 0.3621306121 1 1 1
vn 0.02483639307 0.9941570163 -0.1050477698
v -0.8631507754 0.3491028547 0.3621306121 1 1 1
vn -0.9859807491 0.04132258892 -0.1616614908
v 0.7731506824 -0.2942638993 0.3621306121 1 1 1
vn -0.9863888025 0.0392258428 -0.1596822441
v -0.7362479568 0.3177409172 0.3621306121 1 1 1
vn 0.009840696119 -0.9964398146 -0.08373081684
v 0.7385883331 -0.3288315535 0.3621306121 1 1 1
vn 0.0007047022227 0.9875873327 -0.1570693105
v 0.7358318567 0.3306841254 1.028421283 1 1 1
vn 0.004387081601 -0.9811210036 0.1933450699
v 0.7370433807 -0.3295649588 0.6952781081 1 1 1
vn -0.7019475698 0.7122099996 0.005149785429
v 0.7483360171 -0.32353881 1.028421283 1 1 1
vn -0.02343288995 0.9445717335 0.3274677992
v 0.7727636099 -0.2975575924 0.6952781081 1 1 1
vn -0.7522116303 0.6589209437 0.0009364327416
v 0.7942229509 -0.4358674288 1.028421283 1 1 1
vn 0.02764307149 -0.9974091649 0.06641378999
v 0.8792698383 -0.3508205712 1.028421283 1 1 1
vn 0.9799873233 -0.08823701739 0.1784351319
v -0.7799624801 0.432751298 1.028421283 1 1 1
vn -0.02774063125 0.9867064357 0.1601275504
v -0.8661632538 0.3429014385 1.028421283 1 1 1
vn -0.9794629216 0.08480390161 0.1829224825
v -0.8609563112 -0.3516303599 1.028421283 1 1 1
vn -0.9844588041 -0.04806787893 0.1689094156
v -0.8347991109 -0.3889288306 0.6952759624 1 1 1
vn -0.7375199199 -0.6753231883 0.001722507295
v 0.879638195 0.3565082848 0.6952759624 1 1 1
vn 0.7827830911 0.6222290993 -0.009034607559
v 0.824947536 0.4216021597 0.6952759624 1 1 1
vn 0.7002419829 0.7138335109 0.01014502719
v 0.7923804522 0.4373699427 1.028421283 1 1 1
vn 0.02998587862 0.9877016544 0.15344809
v 0.8784552813 0.3517591357 1.028421283 1 1 1
vn 0.9850243926 0.04856797308 0.1654331088
v 0.8522928357 -0.3889318109 0.6952759624 1 1 1
vn 0.7517523766 -0.6593869925 0.008784195408
v -0.7357541323 0.315467447 0.6952781081 1 1 1
vn 0.8320428133 -0.5547113419 -0.0003061073076
v -0.8347991109 0.3890562952 0.6952759624 1 1 1
vn -0.7386701107 0.6740241647 0.007605752442
v -0.7448321581 0.3044973314 1.028421283 1 1 1
vn 0.6180095077 -0.7459062338 0.2483709008
v 0.7370433807 0.3296864629 0.6952781081 1 1 1
vn -0.6957371831 -0.718291223 0.00274213776
v -0.744112134 -0.3075214624 0.3621306121 1 1 1
vn 0.6133431196 0.7544590831 -0.2336701304
v -0.8661632538 -0.342771858 0.3621306121 1 1 1
vn -0.9807146192 -0.07856238633 -0.1789603084
v -0.7933670282 -0.4271440208 0.3621306121 1 1 1
vn -0.02199663036 -0.9849892855 -0.1712080836
v -0.7599041462 0.2822576463 0.3621306121 1 1 1
vn 0.9844593406 -0.01977970824 -0.1744953394
v 0.767860651 0.3041335642 1.028421283 1 1 1
vn -0.9823302627 -0.05375581607 0.1792695522
# mm_gid 28
g mmGroup28
f 6//6 4//4 3//3 
f 5//5 4//4 6//6 
f 6//6 26//26 5//5 
f 34//34 12//12 14//14 
f 16//16 14//14 12//12 
f 16//16 12//12 11//11 
f 11//11 12//12 13//13 
f 7//7 21//21 20//20 
f 20//20 21//21 19//19 
f 32//32 8//8 9//9 
f 17//17 9//9 8//8 
f 23//23 7//7 20//20 
f 15//15 19//19 21//21 
f 17//17 19//19 15//15 
f 15//15 9//9 17//17 
f 9//9 23//23 32//32 
f 23//23 9//9 31//31 
f 41//41 36//36 2//2 
f 41//41 2//2 11//11 
f 41//41 11//11 7//7 
f 7//7 31//31 41//41 
f 7//7 23//23 31//31 
f 15//15 21//21 7//7 
f 7//7 11//11 15//15 
f 11//11 9//9 15//15 
f 11//11 10//10 9//9 
f 31//31 9//9 10//10 
f 28//28 31//31 10//10 
f 41//41 31//31 18//18 
f 18//18 36//36 41//41 
f 11//11 2//2 36//36 
f 10//10 11//11 13//13 
f 10//10 13//13 28//28 
f 29//29 31//31 28//28 
f 28//28 13//13 29//29 
f 29//29 30//30 31//31 
f 18//18 31//31 30//30 
f 11//11 36//36 18//18 
f 18//18 16//16 11//11 
f 35//35 16//16 18//18 
f 35//35 33//33 16//16 
f 34//34 25//25 24//24 
f 34//34 24//24 12//12 
f 24//24 13//13 12//12 
f 30//30 13//13 24//24 
f 13//13 30//30 29//29 
f 30//30 24//24 18//18 
f 24//24 35//35 18//18 
f 16//16 33//33 40//40 
f 40//40 14//14 16//16 
f 14//14 25//25 34//34 
f 25//25 14//14 26//26 
f 26//26 14//14 38//38 
f 27//27 26//26 38//38 
f 38//38 39//39 27//27 
f 27//27 1//1 26//26 
f 5//5 26//26 1//1 
f 5//5 17//17 37//37 
f 37//37 4//4 5//5 
f 37//37 3//3 4//4 
f 6//6 3//3 37//37 
f 6//6 37//37 35//35 
f 35//35 26//26 6//6 
f 25//25 26//26 35//35 
f 35//35 24//24 25//25 
f 40//40 33//33 35//35 
f 35//35 37//37 40//40 
f 37//37 14//14 40//40 
f 38//38 14//14 37//37 
f 37//37 39//39 38//38 
f 5//5 1//1 20//20 
f 20//20 17//17 5//5 
f 20//20 19//19 17//17 
f 32//32 23//23 22//22 
f 23//23 20//20 22//22 
f 20//20 1//1 22//22 
f 1//1 39//39 22//22 
f 22//22 39//39 8//8 
f 32//32 22//22 8//8 
f 8//8 39//39 17//17 
f 39//39 37//37 17//17 
f 39//39 1//1 27//27 
