v 0.8501107097 -0.406720072 0.6952759624 1 1 1
vn 0.7136198878 -0.7005264759 -0.003051057691
v 0.8354831934 -0.4177419245 1.028421283 1 1 1
vn 0.5687215924 -0.7743717432 0.2773159742
v -0.7618314028 -0.4410765767 1.028421283 1 1 1
vn -0.02159852721 -0.9511137605 0.3080846667
v 0.879638195 -0.3563840985 0.6952759624 1 1 1
vn 0.9067670107 -0.4216287732 -0.00167009444
v -0.7089934945 0.3335693479 0.6952781081 1 1 1
vn -0.8993362188 0.4371383786 0.01021644752
v -0.7532358766 0.3002271056 0.6952781081 1 1 1
vn 0.8039501309 -0.5946893096 -0.002969996072
v 0.7370433807 0.3296864629 0.6952781081 1 1 1
vn -0.7123942971 -0.7017794251 2.928605662e-18
v 0.7385883331 0.328951478 1.028421283 1 1 1
vn -0.0007237237878 -0.9830076098 0.1835633516
v -0.71832937 -0.3305609822 1.028421283 1 1 1
vn 0.007422730327 0.9954386353 0.09511479735
v -0.7574017644 -0.2914483845 0.6952781081 1 1 1
vn 0.7086927891 0.7055172324 9.501032764e-05
v 0.767860651 -0.3040120006 1.028421283 1 1 1
vn -0.9825818539 0.03299100697 0.1828784496
v -0.8141962886 0.415038079 0.3621306121 1 1 1
vn -0.6807434559 0.6930855513 -0.2371093184
v 0.861143291 0.3922038972 0.3621306121 1 1 1
vn 0.7424334288 0.5723970532 -0.3480720818
v -0.7195454836 -0.3295638561 0.6952781081 1 1 1
vn 0.7073912024 0.7068222165 1.861300552e-05
v 0.7749015093 0.2915694118 0.6952781081 1 1 1
vn -0.699072361 -0.7150509357 1.115678463e-18
v 0.8013352156 0.4354218245 0.3621306121 1 1 1
vn 0.01603760198 0.9965994358 -0.08082336932
v -0.7507629991 0.444281131 0.3621306121 1 1 1
vn -0.007393422071 0.9485033154 -0.3166808188
v -0.8690811992 0.3294886351 0.3621306121 1 1 1
vn -0.9863590598 0.02383320592 -0.1628737003
v -0.7362479568 0.3177409172 0.3621306121 1 1 1
vn 0.01246802881 -0.9947782159 -0.1012960374
v 0.761936903 -0.3094237745 0.3621306121 1 1 1
vn -0.977914989 0.05411988869 -0.2018746138
v -0.7308354378 -0.3235377669 0.3621306121 1 1 1
vn 0.02795446664 0.9856472611 -0.1664871871
v 0.8013352156 -0.4353013337 0.3621306121 1 1 1
vn 0.03074460477 -0.9855720401 -0.1664406657
v 0.8663411736 -0.3818785548 0.3621306121 1 1 1
vn 0.7624732852 -0.5489505529 -0.3424730599
v 0.7731506824 0.2943859696 0.3621306121 1 1 1
vn -0.9814106822 -0.01426038425 -0.1913889498
v 0.8875592947 -0.3248624206 0.3621306121 1 1 1
vn 0.9876838326 -0.009614665061 -0.1561674029
v 0.8852734566 0.3385848999 0.3621306121 1 1 1
vn 0.9858946204 0.02479022555 -0.1655211002
v -0.8469985723 -0.3832546473 1.028421283 1 1 1
vn -0.6930667758 -0.6648340821 0.2786648273
v -0.7822883129 0.4363610446 0.6952759624 1 1 1
vn -0.4351958334 0.9003282785 -0.003684950294
v -0.8223739266 0.412553072 1.028421283 1 1 1
vn -0.6828570366 0.6932160854 0.2305596024
v -0.862142086 -0.3563808799 0.6952759624 1 1 1
vn -0.8932404518 -0.4495612681 -0.004023753572
v -0.8700616956 -0.324858129 1.028421283 1 1 1
vn -0.9871518016 -0.01171818841 0.159354791
v 0.7950376272 0.4351741076 1.028421283 1 1 1
vn 0.03844198585 0.9853651524 0.1660654247
v 0.7997843623 0.4363610446 0.6952759624 1 1 1
vn 0.4805683792 0.8769437671 0.004868227057
v -0.8326237798 -0.406720072 0.6952759624 1 1 1
vn -0.7070938945 -0.7071032524 0.004820538685
v -0.862142086 0.3565104306 0.6952759624 1 1 1
vn -0.8691673279 0.4944509566 -0.008148851804
v -0.8661632538 0.3429014385 1.028421283 1 1 1
vn -0.984205842 0.04257749766 0.1718315035
v -0.7643601894 0.4419931173 1.028421283 1 1 1
vn -0.001812492381 0.9861037731 0.1661205292
v -0.8326237798 0.4068432748 0.6952759624 1 1 1
vn -0.7070798874 0.707107842 -0.006041036919
v 0.7295242548 -0.332003057 1.028421283 1 1 1
vn -0.01186235622 0.9419442415 0.335559696
v 0.7444209456 -0.326412797 0.6952781081 1 1 1
vn -0.623883307 0.7815173864 0.0004072029842
v -0.7503651381 -0.3040098846 1.028421283 1 1 1
vn 0.9797491431 0.06350247562 0.1898921132
v 0.7731506824 0.2943859696 1.028421283 1 1 1
vn -0.9855470657 -0.04549221322 0.1631792933
v 0.7385883331 0.328951478 0.3621306121 1 1 1
vn -0.003357488429 -0.9376536608 -0.3475547731
v -0.8661632538 -0.342771858 0.3621306121 1 1 1
vn -0.9838766456 -0.04150844738 -0.1739648283
v -0.7599041462 0.2822576463 0.3621306121 1 1 1
vn 0.9859108329 -0.025045285 -0.1653861701
v -0.7573888898 -0.2915052176 0.3621306121 1 1 1
vn 0.9786777496 0.0172995422 -0.2046718001
v 0.7264536023 -0.3330794871 0.3621306121 1 1 1
vn -0.002337170765 0.9852392077 -0.1711674035
v -0.8223739266 -0.4124213159 0.3621306121 1 1 1
vn -0.6837574244 -0.6941095591 -0.2251394093
v -0.7643601894 -0.4418667257 0.3621306121 1 1 1
vn -0.004852281883 -0.9857729673 -0.168012321
v 0.7997843623 -0.4362389445 0.6952759624 1 1 1
vn 0.4320906103 -0.9018287659 0.001621761476
v -0.7822883129 -0.4362335801 0.6952759624 1 1 1
vn -0.4855394363 -0.8741261363 0.01244876999
v 0.7727657557 -0.4431790411 1.028421283 1 1 1
vn 0.006398016587 -0.9967837334 0.0798830092
v 0.8501107097 0.4068432748 0.6952759624 1 1 1
vn 0.6875500083 0.7259338498 0.01717583463
v 0.8806508183 0.3491022885 1.028421283 1 1 1
vn 0.983379364 0.04148808867 0.1767590642
v 0.8787021637 -0.3579338789 1.028421283 1 1 1
vn 0.9803817868 -0.05275312066 0.1899175793
v 0.879638195 0.3565082848 0.6952759624 1 1 1
vn 0.8943761587 0.4473071694 0.002750431187
v -0.7275515795 0.3278461099 0.6952781081 1 1 1
vn 0.6018514633 -0.798607707 -0.0007241594139
v 0.7749015093 -0.2914494574 0.6952781081 1 1 1
vn -0.6931943893 0.7207506299 0.0003087922814
v -0.7247669101 0.3257891536 1.028421283 1 1 1
vn 0.01874412969 -0.9823457599 0.1861327738
v -0.7588288784 0.2853294015 1.028421283 1 1 1
vn 0.9799124599 -0.009950094856 0.1991796941
# mm_gid 30
g mmGroup30
f 50//50 2//2 52//52 
f 20//20 40//40 58//58 
f 11//11 58//58 40//40 
f 55//55 25//25 54//54 
f 11//11 55//55 54//54 
f 24//24 15//15 7//7 
f 24//24 7//7 43//43 
f 35//35 12//12 18//18 
f 44//44 48//48 30//30 
f 9//9 14//14 41//41 
f 27//27 9//9 41//41 
f 30//30 27//27 31//31 
f 27//27 41//41 31//31 
f 41//41 14//14 10//10 
f 30//30 31//31 44//44 
f 31//31 18//18 44//44 
f 36//36 18//18 31//31 
f 19//19 57//57 6//6 
f 59//59 6//6 57//57 
f 60//60 6//6 59//59 
f 59//59 37//37 60//60 
f 19//19 6//6 45//45 
f 45//45 18//18 19//19 
f 18//18 36//36 35//35 
f 35//35 36//36 29//29 
f 38//38 12//12 35//35 
f 35//35 29//29 38//38 
f 17//17 12//12 28//28 
f 28//28 29//29 37//37 
f 28//28 12//12 38//38 
f 38//38 29//29 28//28 
f 19//19 5//5 57//57 
f 19//19 18//18 12//12 
f 59//59 57//57 5//5 
f 16//16 32//32 33//33 
f 32//32 16//16 37//37 
f 37//37 16//16 17//17 
f 28//28 37//37 17//17 
f 19//19 12//12 17//17 
f 59//59 5//5 19//19 
f 59//59 19//19 8//8 
f 8//8 37//37 59//59 
f 32//32 37//37 8//8 
f 33//33 32//32 53//53 
f 53//53 16//16 33//33 
f 53//53 13//13 16//16 
f 43//43 17//17 16//16 
f 19//19 17//17 43//43 
f 8//8 19//19 43//43 
f 43//43 7//7 8//8 
f 8//8 54//54 32//32 
f 53//53 32//32 54//54 
f 13//13 43//43 16//16 
f 26//26 13//13 56//56 
f 13//13 26//26 24//24 
f 53//53 54//54 56//56 
f 56//56 13//13 53//53 
f 24//24 43//43 13//13 
f 42//42 15//15 24//24 
f 42//42 24//24 11//11 
f 11//11 54//54 42//42 
f 42//42 7//7 15//15 
f 8//8 7//7 42//42 
f 42//42 54//54 8//8 
f 56//56 54//54 26//26 
f 54//54 25//25 26//26 
f 24//24 26//26 25//25 
f 24//24 25//25 20//20 
f 11//11 24//24 20//20 
f 20//20 58//58 11//11 
f 25//25 55//55 4//4 
f 4//4 23//23 25//25 
f 20//20 25//25 23//23 
f 47//47 40//40 20//20 
f 20//20 23//23 47//47 
f 11//11 40//40 39//39 
f 39//39 55//55 11//11 
f 55//55 39//39 2//2 
f 1//1 55//55 2//2 
f 4//4 55//55 1//1 
f 1//1 23//23 4//4 
f 2//2 39//39 52//52 
f 1//1 2//2 50//50 
f 50//50 22//22 1//1 
f 22//22 23//23 1//1 
f 47//47 23//23 22//22 
f 39//39 40//40 47//47 
f 39//39 47//47 9//9 
f 9//9 47//47 21//21 
f 21//21 14//14 9//9 
f 21//21 10//10 14//14 
f 46//46 10//10 21//21 
f 41//41 10//10 46//46 
f 41//41 46//46 60//60 
f 60//60 31//31 41//41 
f 60//60 36//36 31//31 
f 29//29 36//36 60//60 
f 60//60 37//37 29//29 
f 45//45 6//6 60//60 
f 60//60 46//46 45//45 
f 46//46 18//18 45//45 
f 44//44 18//18 46//46 
f 46//46 48//48 44//44 
f 30//30 48//48 34//34 
f 34//34 27//27 30//30 
f 34//34 48//48 51//51 
f 51//51 27//27 34//34 
f 51//51 3//3 27//27 
f 3//3 9//9 27//27 
f 3//3 39//39 9//9 
f 52//52 39//39 3//3 
f 3//3 49//49 52//52 
f 52//52 49//49 22//22 
f 50//50 52//52 22//22 
f 22//22 49//49 47//47 
f 49//49 21//21 47//47 
f 49//49 46//46 21//21 
f 49//49 48//48 46//46 
f 51//51 48//48 49//49 
f 49//49 3//3 51//51 
