v -0.7737560272 0.4454648197 0.4529258609 1 1 1
vn 0.01579254866 -0.995233655 -0.09623209387
v -0.8662791252 0.3631337583 0.4529258609 1 1 1
vn 0.902567029 -0.06225785986 -0.4260243773
v -0.866846025 -0.3558946252 0.4529258609 1 1 1
vn 0.9923002124 0.08104038984 -0.09366295487
v -0.834048748 0.4147204161 0.4529258609 1 1 1
vn 0.6471285224 -0.6989096403 -0.304548949
v -0.9219780564 -0.4984416962 0.7176338434 1 1 1
vn -0.6867601275 -0.6312410831 0.3604097962
v -0.9219780564 0.4990130365 0.7176338434 1 1 1
vn -0.2515005171 0.9385064244 0.2365441918
v 0.9451259375 -0.5040962696 0.4529258609 1 1 1
vn 0.7023276091 -0.655606091 -0.2773384154
v 0.9451259375 0.504665494 0.4529258609 1 1 1
vn 0.2576843798 0.9538901448 -0.1539232731
v -0.9276294708 -0.5040962696 0.4529258609 1 1 1
vn -0.2492299229 -0.9225936532 -0.2944578826
v -0.7988020778 -0.4346017241 0.4529258609 1 1 1
vn 0.0630146414 0.9767771959 -0.2047814429
v 0.7912510037 -0.4453373551 0.4529258609 1 1 1
vn -0.006329562981 0.9740698934 -0.2261587977
v 0.8446019292 -0.4206131995 0.4529258609 1 1 1
vn -0.6028841734 0.7354106903 -0.3093571365
v 0.8552163839 -0.4118171334 0.7064275146 1 1 1
vn -0.7095553279 0.7045257092 0.01321815327
v 0.8837772608 -0.363008976 0.4529258609 1 1 1
vn -0.9767107368 0.09110708535 -0.1942565888
v 0.7869398594 0.4470698237 0.4529258609 1 1 1
vn -0.02500025183 -0.9102196693 -0.4133704305
v 0.8405555487 0.4229428768 0.4529258609 1 1 1
vn -0.6560997367 -0.6709908843 -0.3454046547
v -0.8194957376 0.4334790707 0.7176338434 1 1 1
vn 0.4941236973 -0.8283652067 0.2639183402
v -0.8544254899 0.3978000581 0.7176338434 1 1 1
vn 0.8133881092 -0.5112716556 0.277490586
v -0.7727835774 0.4517203271 0.7176338434 1 1 1
vn 0.01162077487 -0.9787956476 0.2045092732
v -0.8788108826 0.3394249082 0.7176338434 1 1 1
vn 0.9701526761 -0.01566721685 0.2419882864
v 0.8929533958 0.3519583344 0.7155515552 1 1 1
vn -0.9043124318 -0.03697305545 0.4252669513
v 0.8415722847 0.4286985099 0.714163363 1 1 1
vn -0.4862513244 -0.7818177938 0.3902827203
v 0.7881175876 0.4521304369 0.7155515552 1 1 1
vn -0.006373944692 -0.9765896797 0.2150160819
v 0.8954080343 -0.3447170854 0.7155515552 1 1 1
vn -0.9914966226 0.01396366581 0.129380852
v 0.805670917 -0.4465872347 0.7148573995 1 1 1
vn -0.03682362661 0.9273349047 0.3724163771
v 0.8726661205 -0.3972499073 0.714163363 1 1 1
vn -0.6826244593 0.4169710875 0.6001324654
v -0.7630432248 -0.4537087977 0.7176338434 1 1 1
vn 0.007837241516 0.9920343161 0.125723958
v -0.8774963021 -0.3468761146 0.7176338434 1 1 1
vn 0.9757695198 0.02603244968 0.2172468454
v -0.8592547774 -0.3935914636 0.7176338434 1 1 1
vn 0.7416670918 0.5138298273 0.431171447
v -0.8180841804 -0.4326321781 0.7176338434 1 1 1
vn 0.622792244 0.7368807793 0.2629383206
v 0.8844312429 0.3585856259 0.4529258609 1 1 1
vn -0.9686940908 -0.044279553 -0.2442767173
v 0.866474092 0.3962958455 0.7029570341 1 1 1
vn -0.8287866116 -0.5593855977 0.01416031364
v 0.9394778013 0.4990130365 0.7176338434 1 1 1
vn 0.7141658068 0.6599457264 0.2333211899
v 0.9394778013 -0.4984416962 0.7176338434 1 1 1
vn 0.2501913011 -0.9456600547 0.2076809704
v -0.9276294708 0.504665494 0.4529258609 1 1 1
vn -0.6893024445 0.6434474587 -0.3329226375
# mm_gid 0
g mmGroup0
f 25//25 26//26 13//13 
f 23//23 1//1 15//15 
f 32//32 21//21 22//22 
f 32//32 22//22 16//16 
f 32//32 16//16 31//31 
f 31//31 21//21 32//32 
f 33//33 22//22 21//21 
f 33//33 23//23 22//22 
f 15//15 16//16 22//22 
f 22//22 23//23 15//15 
f 19//19 1//1 23//23 
f 1//1 19//19 17//17 
f 1//1 17//17 4//4 
f 4//4 17//17 18//18 
f 4//4 18//18 2//2 
f 2//2 18//18 20//20 
f 35//35 4//4 2//2 
f 35//35 1//1 4//4 
f 35//35 15//15 1//1 
f 6//6 8//8 35//35 
f 8//8 15//15 35//35 
f 16//16 15//15 8//8 
f 8//8 31//31 16//16 
f 21//21 31//31 24//24 
f 24//24 31//31 14//14 
f 26//26 24//24 14//14 
f 14//14 12//12 13//13 
f 13//13 26//26 14//14 
f 12//12 25//25 13//13 
f 11//11 25//25 12//12 
f 34//34 26//26 25//25 
f 34//34 24//24 26//26 
f 34//34 21//21 24//24 
f 33//33 21//21 34//34 
f 33//33 8//8 6//6 
f 33//33 7//7 8//8 
f 7//7 31//31 8//8 
f 14//14 31//31 7//7 
f 7//7 12//12 14//14 
f 7//7 11//11 12//12 
f 25//25 11//11 27//27 
f 27//27 11//11 10//10 
f 10//10 30//30 27//27 
f 3//3 30//30 10//10 
f 3//3 29//29 30//30 
f 3//3 28//28 29//29 
f 29//29 28//28 5//5 
f 5//5 30//30 29//29 
f 27//27 30//30 5//5 
f 5//5 25//25 27//27 
f 34//34 25//25 5//5 
f 34//34 7//7 33//33 
f 34//34 9//9 7//7 
f 9//9 11//11 7//7 
f 9//9 10//10 11//11 
f 9//9 3//3 10//10 
f 35//35 2//2 9//9 
f 9//9 2//2 3//3 
f 20//20 3//3 2//2 
f 28//28 3//3 20//20 
f 5//5 28//28 20//20 
f 5//5 20//20 6//6 
f 5//5 9//9 34//34 
f 5//5 35//35 9//9 
f 6//6 35//35 5//5 
f 6//6 23//23 33//33 
f 19//19 23//23 6//6 
f 6//6 17//17 19//19 
f 18//18 17//17 6//6 
f 6//6 20//20 18//18 
