v 0.2812369466 0.7290653586 0.4529258609 1 1 1
vn 0.7372678518 0.4098449945 0.5370876789
v 0.02387223393 0.7465545535 0.4529258609 1 1 1
vn -0.1447999775 0.86454916 0.4812356532
v 0.04333525524 0.7572590113 0.4529258609 1 1 1
vn -0.2345674783 0.2799212337 0.9309254289
v 0.05523735657 0.7760090232 0.4529258609 1 1 1
vn -0.5329347849 0.1683746576 0.8292348981
v 1.176808119 0.5552201867 0.4529258609 1 1 1
vn 0.9551472664 0.05358060822 0.291243583
v -1.044829965 -0.6870763898 -0.5602424741 1 1 1
vn -0.04825327918 -0.9761609435 -0.2116161287
v -0.03109661303 -0.7981805205 0.3003974557 1 1 1
vn 0.4965924919 0.1369642019 -0.8571094871
v -0.02164011262 -0.8182814717 0.3003974557 1 1 1
vn 0.5560730696 0.5680512786 -0.6067128181
v -0.2305429578 -0.7799494863 0.3003974557 1 1 1
vn -0.5540021062 -0.4292544723 -0.7133178115
v -0.1996056139 -0.8136003613 0.3003974557 1 1 1
vn -0.5245582461 -0.5691090822 -0.6332088709
v -0.1635411978 -0.8417062163 0.3003974557 1 1 1
vn -0.4848581851 -0.6879972219 -0.5399743915
v -0.2637982965 -0.7289615273 0.3003974557 1 1 1
vn -0.58505404 -0.326013267 -0.7425813675
v 0.004548597615 -0.8330740929 0.3003974557 1 1 1
vn 0.1539063603 0.4592132866 -0.8748919964
v -0.2637425661 0.7290675044 0.3003974557 1 1 1
vn -0.6077581048 0.3586654067 -0.7085120082
v 0.02920411155 -0.8313319087 0.3003974557 1 1 1
vn -0.2981382012 0.756919682 -0.5815378428
v -0.230483979 0.7800275683 0.3003974557 1 1 1
vn -0.5188683271 0.433168292 -0.7369809151
v 0.05137702078 -0.8110025525 0.3003974557 1 1 1
vn -0.5653146505 0.3769311011 -0.7337180972
v -0.1878300458 0.8234266043 0.3003974557 1 1 1
vn -0.5230737925 0.6392855644 -0.5636557341
v -0.1374543458 0.8575600982 0.3003974557 1 1 1
vn -0.4246397018 0.8258074522 -0.3711107969
v 0.05733451247 -0.7870020866 0.3003974557 1 1 1
vn -0.5861545801 0.004907255061 -0.8101843596
v -0.08133398741 0.8810898662 0.3003974557 1 1 1
vn -0.2462239712 0.9086430669 -0.3372558951
v 0.05047158524 -0.7658804655 0.3003974557 1 1 1
vn -0.392976284 -0.2914770246 -0.8721300364
v -0.02167978324 0.8930938244 0.3003974557 1 1 1
vn -0.07834073156 0.9641870856 -0.2533889115
v 0.02634357661 -0.7479163408 0.3003974557 1 1 1
vn -0.1927422285 -0.6249698997 -0.7564806938
v 0.02399874851 0.8945991993 0.3003974557 1 1 1
vn 0.08598062396 0.9252557755 -0.369471401
v 0.001660183887 -0.7465558052 0.3003974557 1 1 1
vn 0.02796776965 -0.1321401596 -0.9908363819
v 0.09135539085 0.8825898767 0.3003974557 1 1 1
vn 0.2524480522 0.9316235781 -0.2614334524
v -0.01780390553 -0.757260263 0.3003974557 1 1 1
vn 0.3342454135 -0.3912175894 -0.8574548364
v 0.1549476683 0.857558012 0.3003974557 1 1 1
vn 0.4555806816 0.8208303452 -0.344505161
v -0.02970601246 -0.7760038972 0.3003974557 1 1 1
vn 0.7506929636 -0.2273213416 -0.6203104854
v 0.2053265721 0.8234202266 0.3003974557 1 1 1
vn 0.5422051549 0.6083580256 -0.5795809031
v 1.044833064 0.6872037649 -0.5602424741 1 1 1
vn 0.04175500572 0.9954094291 -0.08611983806
v 0.2479826808 0.7800210714 0.3003974557 1 1 1
vn 0.6138180494 0.4611309767 -0.6407695413
v 0.2995795608 0.6872037649 0.3003974557 1 1 1
vn 0.009282182902 0.9993906021 -0.03364929184
v 0.2812369466 0.7290653586 0.3003974557 1 1 1
vn 0.4613621831 0.2564698756 -0.8493339419
v -0.2820787132 0.6872037649 0.3003974557 1 1 1
vn -0.003998226952 0.9998914003 -0.01418642979
v 0.01836344786 0.8341140151 0.3003974557 1 1 1
vn -0.04150118679 -0.3282444775 -0.9436807036
v -1.044829965 0.6872037649 -0.5602424741 1 1 1
vn -0.0918668434 0.9751807451 -0.2014521509
v 0.0390165709 0.8259333968 0.3003974557 1 1 1
vn -0.3638582826 -0.6029075384 -0.7100068331
v 0.2812937796 -0.7289615273 0.3003974557 1 1 1
vn 0.5809602141 -0.3236852884 -0.7468019128
v 0.0531745106 0.8088216186 0.3003974557 1 1 1
vn -0.7666160464 -0.4151402414 -0.4898555279
v 0.2480437756 -0.7799494863 0.3003974557 1 1 1
vn 0.6264210939 -0.5260571241 -0.57520473
v 0.05733451247 0.7870030999 0.3003974557 1 1 1
vn -0.5572337508 0.03966928646 -0.8294075727
v 0.2053823173 -0.8233721256 0.3003974557 1 1 1
vn 0.5186068416 -0.6656941175 -0.5365615487
v 0.04841464013 0.7639493346 0.3003974557 1 1 1
vn -0.3930705786 0.3012135327 -0.8687726855
v 0.1549937725 -0.8575334549 0.3003974557 1 1 1
vn 0.3969029188 -0.8160212636 -0.4202111363
v 0.02387223393 0.7465545535 0.3003974557 1 1 1
vn -0.2153692245 0.5075694919 -0.8342597485
v 0.09886054695 -0.8810760379 0.3003974557 1 1 1
vn 0.2599335313 -0.8466968536 -0.4642617702
v 0.001660183887 0.7465566993 0.3003974557 1 1 1
vn 0.03216400743 0.1918908507 -0.980889082
v -0.01780390553 0.757261157 0.3003974557 1 1 1
vn 0.2921526134 0.3697455823 -0.8820062876
v 0.03918489814 -0.8930864334 0.3003974557 1 1 1
vn 0.1141988263 -0.9655724168 -0.2337274849
v -0.02970601246 0.7760155201 0.3003974557 1 1 1
vn 0.710226059 0.2998597622 -0.6369168162
v -0.03109661303 0.7981814742 0.3003974557 1 1 1
vn 0.5294629335 -0.0548601225 -0.8465573788
v -0.02168728784 -0.8930864334 0.3003974557 1 1 1
vn -0.07861830294 -0.9650526643 -0.2499849796
v -0.02164011262 0.8182738423 0.3003974557 1 1 1
vn 0.5346327424 -0.3703500032 -0.7596108913
v -0.06678149104 -0.885555625 0.3003974557 1 1 1
vn -0.2560218275 -0.9318819046 -0.2569998205
v -0.1100176275 -0.8706974983 0.3003974557 1 1 1
vn -0.4129260182 -0.8519396782 -0.3220107555
v 0.2479826808 0.7800210714 0.4529258609 1 1 1
vn 0.5803382993 0.4995039403 0.6431977153
v -1.044829965 -0.6870763898 0.4529258609 1 1 1
vn -0.222289145 -0.961350739 0.1624570489
v 1.176808119 -0.5551056266 -0.5602424741 1 1 1
vn 0.3793060482 -0.02127793245 -0.9250265956
v 1.176808119 -0.5551056266 0.4529258609 1 1 1
vn 0.9436730742 -0.1812475771 0.2768220305
v 0.2996138632 -0.6870763898 0.4529258609 1 1 1
vn 0.01331583969 -0.355409503 0.9346158504
v 0.2995795608 0.6872037649 0.4529258609 1 1 1
vn 0.01951110549 0.3559014499 0.9343197942
v 0.8545323014 0.4939952791 0.4529258609 1 1 1
vn -0.2514187396 -0.8796904683 0.4036499858
v 1.176808119 0.5552201867 -0.5602424741 1 1 1
vn 0.3978535235 0.07641274482 -0.9142612815
v 0.2384854257 -0.7918354273 0.4529258609 1 1 1
vn 0.5385814309 -0.4789699912 0.6931939125
v 1.044833064 0.6872037649 0.4529258609 1 1 1
vn 0.2260089964 0.9601429105 0.164455086
v -0.8737252951 0.4940038919 -0.1518868804 1 1 1
vn 0.2161253244 -0.7562218904 0.6175907254
v 0.8545323014 0.4939952791 -0.1518868804 1 1 1
vn -0.3173320889 -0.2775823772 0.9067791104
v -1.176807165 -0.5551056266 -0.5602424741 1 1 1
vn -0.4284839332 -0.08229777217 -0.8997936249
v -0.003671694314 0.831330657 0.3003974557 1 1 1
vn 0.3127597868 -0.7898598909 -0.5275440216
v -1.176807165 0.5552330613 -0.5602424741 1 1 1
vn -0.3952990472 0.02217520215 -0.9182847738
v 0.8545323014 -0.4938721359 -0.1518868804 1 1 1
vn -0.2161278427 0.7562240958 0.6175871491
v -0.8737252951 -0.4938721359 -0.1518868804 1 1 1
vn 0.3173333108 0.277582258 0.9067787528
v 0.2053823173 -0.8233721256 0.4529258609 1 1 1
vn 0.545424819 -0.6305593252 0.5521835685
v 0.0390165709 -0.8259432316 0.4529258609 1 1 1
vn -0.561960876 0.7711296678 0.2992641032
v 0.008748268709 -0.8946003318 0.4529258609 1 1 1
vn 0.02816905081 -0.9607120752 0.2761136889
v -0.01935854554 -0.8199390769 0.4529258609 1 1 1
vn 0.6120487452 0.5965960622 0.5191044807
v -0.1635411978 -0.8417062163 0.4529258609 1 1 1
vn -0.4747303426 -0.7529479861 0.4557416141
v -0.2484363317 -0.7552831769 0.4529258609 1 1 1
vn -0.6648634672 -0.4509105682 0.5955134034
v -0.0008116932004 -0.7479163408 0.4529258609 1 1 1
vn 0.08489174396 -0.2752645016 0.9576131105
v -0.8737252951 -0.4938721359 0.4529258609 1 1 1
vn 0.2567773461 0.8984475136 0.3561705649
v -1.176807165 -0.5551056266 0.4529258609 1 1 1
vn -0.9598122835 -0.05384286121 0.2754294276
v -0.8737252951 0.4940038919 0.4529258609 1 1 1
vn 0.6067728996 -0.5307672024 0.5917032957
v -1.044829965 0.6872037649 0.4529258609 1 1 1
vn -0.1273529083 0.974232316 0.1861522347
v 0.001660183887 0.7465566993 0.4529258609 1 1 1
vn 0.07920011878 0.2261593044 0.9708652496
v -0.2820787132 0.6872037649 0.4529258609 1 1 1
vn -0.009776587598 0.1824099571 0.9831739664
v -0.2637425661 0.7290675044 0.4529258609 1 1 1
vn -0.6520399451 0.3385444283 0.6784036756
v -0.230483979 0.7800275683 0.4529258609 1 1 1
vn -0.6121353507 0.4400975108 0.6569661498
v -0.1995455921 0.8136592507 0.4529258609 1 1 1
vn -0.604239583 0.6302788854 0.4874864221
v -0.163490802 0.841745615 0.4529258609 1 1 1
vn -0.4827182889 0.7123848796 0.5094024539
v -0.1240415499 0.8648229837 0.4529258609 1 1 1
vn -0.3403435349 0.7106897235 0.6156999469
v -0.003671694314 0.831330657 0.4529258609 1 1 1
vn 0.2476319671 -0.6253826618 0.7399830818
v 0.01836344786 0.8341140151 0.4529258609 1 1 1
vn -0.1127867475 -0.8920618296 0.4376126826
v 0.0390165709 0.8259333968 0.4529258609 1 1 1
vn -0.5059691668 -0.5132306218 0.6932456493
v 0.05543142185 0.8007246256 0.4529258609 1 1 1
vn -0.5631060004 -0.1599676907 0.8107539415
v 0.2053265721 0.8234202266 0.4529258609 1 1 1
vn 0.5204767585 0.6480646133 0.5559821725
v 0.2883196771 -0.7154200077 0.4529258609 1 1 1
vn 0.6982930899 -0.3298197389 0.6352997422
v -1.176807165 0.5552330613 0.4529258609 1 1 1
vn -0.9477981925 0.1820410937 0.2618007958
v -0.01780390553 0.757261157 0.4529258609 1 1 1
vn 0.2379383743 0.2135349512 0.9475168586
v -0.02970601246 0.7760155201 0.4529258609 1 1 1
vn 0.4384706914 0.1020539626 0.8929324746
v -0.03109661303 0.7981814742 0.4529258609 1 1 1
vn 0.6716011167 -0.1887398511 0.7164699435
v -0.02164011262 0.8182738423 0.4529258609 1 1 1
vn 0.5527577996 -0.5430361032 0.6321160197
v -0.08133398741 0.8810898662 0.4529258609 1 1 1
vn -0.2915208638 0.8918976784 0.34573704
v -0.02167978324 0.8930938244 0.4529258609 1 1 1
vn -0.125732556 0.9437929392 0.3056898117
v 0.03917524964 0.8930873871 0.4529258609 1 1 1
vn 0.07989437878 0.969797492 0.2304553986
v 0.08425229788 0.8855587244 0.4529258609 1 1 1
vn 0.2244256139 0.8858596683 0.4060612619
v 0.1274734139 0.8707177043 0.4529258609 1 1 1
vn 0.3475657701 0.8513529301 0.3929328024
v 0.1683572382 0.8502929807 0.4529258609 1 1 1
vn 0.4338980317 0.7142097354 0.5492148995
v 0.2659350038 -0.7552831769 0.4529258609 1 1 1
vn 0.6329095364 -0.412742734 0.6550335884
v 0.04333525524 -0.757260263 0.4529258609 1 1 1
vn -0.2766191363 -0.3237657547 0.904796958
v 0.02387223393 -0.7465558052 0.4529258609 1 1 1
vn -0.1647629589 -0.7784510851 0.6056955457
v 0.05523735657 -0.7760038972 0.4529258609 1 1 1
vn -0.4315567613 -0.1063489243 0.8957949877
v 0.1549937725 -0.8575334549 0.4529258609 1 1 1
vn 0.456723094 -0.804117322 0.3805250823
v 0.05370255187 -0.8060577512 0.4529258609 1 1 1
vn -0.5193991661 0.1557940692 0.8402099013
v 0.09138219804 -0.8825803399 0.4529258609 1 1 1
vn 0.2509713471 -0.9056491852 0.341779083
v 0.009968393482 -0.833758235 0.4529258609 1 1 1
vn 0.03563586995 0.6942602992 0.7188411951
v -0.05182371289 -0.8885641098 0.4529258609 1 1 1
vn -0.1732089818 -0.9029177427 0.3933677077
v -0.1100176275 -0.8706974983 0.4529258609 1 1 1
vn -0.3208187521 -0.8054968119 0.4982471764
v -0.03127298504 -0.7897737026 0.4529258609 1 1 1
vn 0.473765403 0.02603898197 0.8802660704
v -0.210295096 -0.8027179241 0.4529258609 1 1 1
vn -0.5763655305 -0.59082371 0.5645619035
v -0.02493916638 -0.7658804655 0.4529258609 1 1 1
vn 0.3006539345 -0.2101732641 0.9302873015
v -0.2708252668 -0.7154200077 0.4529258609 1 1 1
vn -0.5899633765 -0.2786818147 0.7578124404
v 1.044833064 -0.6870763898 0.4529258609 1 1 1
vn 0.1298340559 -0.9733652472 0.1889530122
v 1.044833064 -0.6870763898 -0.5602424741 1 1 1
vn 0.07997623831 -0.9933788776 -0.08247562498
v 0.2996138632 -0.6870763898 0.3003974557 1 1 1
vn 0.007792055141 -0.9993886948 -0.03408133611
v 0.8545323014 -0.4938721359 0.4529258609 1 1 1
vn -0.5792799592 0.5067203045 0.6384897828
v -0.282119453 -0.6870763898 0.4529258609 1 1 1
vn -0.00667976262 -0.1824099272 0.9831998944
v -0.282119453 -0.6870763898 0.3003974557 1 1 1
vn -0.003354744054 -0.9998930693 -0.01423207577
# mm_gid 1
g mmGroup1
f 72//72 83//83 99//99 
f 70//70 83//83 72//72 
f 64//64 68//68 69//69 
f 84//84 68//68 64//64 
f 84//84 74//74 68//68 
f 82//82 74//74 84//84 
f 74//74 69//69 68//68 
f 73//73 69//69 74//74 
f 82//82 73//73 74//74 
f 127//127 73//73 82//82 
f 127//127 69//69 73//73 
f 64//64 69//69 127//127 
f 65//65 38//38 32//32 
f 65//65 72//72 38//38 
f 60//60 72//72 65//65 
f 60//60 70//70 72//72 
f 60//60 6//6 70//70 
f 125//125 6//6 60//60 
f 38//38 99//99 85//85 
f 72//72 99//99 38//38 
f 70//70 59//59 83//83 
f 6//6 59//59 70//70 
f 45//45 33//33 35//35 
f 43//43 33//33 45//45 
f 43//43 31//31 33//33 
f 41//41 31//31 43//43 
f 39//39 31//31 41//41 
f 39//39 29//29 31//31 
f 37//37 29//29 39//39 
f 37//37 27//27 29//29 
f 37//37 25//25 27//27 
f 23//23 25//25 37//37 
f 37//37 21//21 23//23 
f 71//71 21//21 37//37 
f 71//71 19//19 21//21 
f 55//55 19//19 71//71 
f 55//55 18//18 19//19 
f 53//53 18//18 55//55 
f 53//53 16//16 18//18 
f 52//52 16//16 53//53 
f 50//50 16//16 52//52 
f 50//50 14//14 16//16 
f 49//49 14//14 50//50 
f 36//36 14//14 49//49 
f 35//35 47//47 45//45 
f 34//34 47//47 35//35 
f 34//34 49//49 47//47 
f 36//36 49//49 34//34 
f 93//93 71//71 94//94 
f 103//103 71//71 93//93 
f 103//103 55//55 71//71 
f 102//102 55//55 103//103 
f 102//102 53//53 55//55 
f 101//101 53//53 102//102 
f 101//101 52//52 53//53 
f 100//100 52//52 101//101 
f 100//100 50//50 52//52 
f 86//86 50//50 100//100 
f 86//86 49//49 50//50 
f 2//2 49//49 86//86 
f 2//2 47//47 49//49 
f 3//3 47//47 2//2 
f 3//3 45//45 47//47 
f 4//4 45//45 3//3 
f 4//4 43//43 45//45 
f 96//96 43//43 4//4 
f 96//96 41//41 43//43 
f 95//95 41//41 96//96 
f 95//95 39//39 41//41 
f 94//94 39//39 95//95 
f 94//94 37//37 39//39 
f 71//71 37//37 94//94 
f 34//34 1//1 63//63 
f 35//35 1//1 34//34 
f 33//33 1//1 35//35 
f 33//33 58//58 1//1 
f 31//31 58//58 33//33 
f 31//31 97//97 58//58 
f 29//29 97//97 31//31 
f 29//29 109//109 97//97 
f 29//29 108//108 109//109 
f 27//27 108//108 29//29 
f 27//27 107//107 108//108 
f 27//27 106//106 107//107 
f 25//25 106//106 27//27 
f 23//23 106//106 25//25 
f 23//23 105//105 106//106 
f 21//21 105//105 23//23 
f 21//21 104//104 105//105 
f 19//19 104//104 21//21 
f 19//19 92//92 104//104 
f 19//19 91//91 92//92 
f 18//18 91//91 19//19 
f 18//18 90//90 91//91 
f 16//16 90//90 18//18 
f 16//16 89//89 90//90 
f 14//14 89//89 16//16 
f 14//14 88//88 89//89 
f 36//36 88//88 14//14 
f 87//87 88//88 36//36 
f 28//28 12//12 26//26 
f 28//28 9//9 12//12 
f 30//30 9//9 28//28 
f 7//7 9//9 30//30 
f 7//7 10//10 9//9 
f 7//7 11//11 10//10 
f 8//8 11//11 7//7 
f 13//13 11//11 8//8 
f 13//13 57//57 11//11 
f 13//13 56//56 57//57 
f 13//13 54//54 56//56 
f 51//51 54//54 13//13 
f 13//13 48//48 51//51 
f 15//15 48//48 13//13 
f 15//15 46//46 48//48 
f 17//17 46//46 15//15 
f 17//17 44//44 46//46 
f 20//20 44//44 17//17 
f 20//20 42//42 44//44 
f 22//22 42//42 20//20 
f 22//22 40//40 42//42 
f 24//24 40//40 22//22 
f 24//24 126//126 40//40 
f 26//26 126//126 24//24 
f 26//26 129//129 126//126 
f 12//12 129//129 26//26 
f 13//13 78//78 117//117 
f 8//8 78//78 13//13 
f 7//7 78//78 8//8 
f 7//7 120//120 78//78 
f 30//30 120//120 7//7 
f 30//30 122//122 120//120 
f 28//28 122//122 30//30 
f 28//28 81//81 122//122 
f 26//26 81//81 28//28 
f 24//24 81//81 26//26 
f 24//24 112//112 81//81 
f 24//24 111//111 112//112 
f 22//22 111//111 24//24 
f 22//22 113//113 111//111 
f 20//20 113//113 22//22 
f 20//20 115//115 113//113 
f 17//17 115//115 20//20 
f 17//17 76//76 115//115 
f 15//15 76//76 17//17 
f 15//15 117//117 76//76 
f 13//13 117//117 15//15 
f 129//129 123//123 128//128 
f 12//12 123//123 129//129 
f 12//12 80//80 123//123 
f 9//9 80//80 12//12 
f 9//9 121//121 80//80 
f 10//10 121//121 9//9 
f 11//11 121//121 10//10 
f 11//11 79//79 121//121 
f 57//57 79//79 11//11 
f 57//57 119//119 79//79 
f 56//56 119//119 57//57 
f 56//56 118//118 119//119 
f 54//54 118//118 56//56 
f 54//54 77//77 118//118 
f 51//51 77//77 54//54 
f 51//51 116//116 77//77 
f 48//48 116//116 51//51 
f 46//46 116//116 48//48 
f 46//46 114//114 116//116 
f 44//44 114//114 46//46 
f 44//44 75//75 114//114 
f 42//42 75//75 44//44 
f 42//42 66//66 75//75 
f 42//42 110//110 66//66 
f 40//40 110//110 42//42 
f 40//40 98//98 110//110 
f 126//126 98//98 40//40 
f 62//62 98//98 126//126 
f 5//5 60//60 65//65 
f 61//61 60//60 5//5 
f 85//85 87//87 36//36 
f 36//36 38//38 85//85 
f 36//36 32//32 38//38 
f 34//34 32//32 36//36 
f 34//34 67//67 32//32 
f 63//63 67//67 34//34 
f 67//67 65//65 32//32 
f 5//5 65//65 67//67 
f 127//127 82//82 128//128 
f 128//128 62//62 127//127 
f 81//81 62//62 128//128 
f 112//112 62//62 81//81 
f 111//111 62//62 112//112 
f 111//111 98//98 62//62 
f 111//111 110//110 98//98 
f 113//113 110//110 111//111 
f 113//113 66//66 110//110 
f 113//113 75//75 66//66 
f 115//115 75//75 113//113 
f 115//115 114//114 75//75 
f 115//115 116//116 114//114 
f 76//76 116//116 115//115 
f 117//117 116//116 76//76 
f 117//117 77//77 116//116 
f 117//117 118//118 77//77 
f 78//78 118//118 117//117 
f 78//78 119//119 118//118 
f 120//120 119//119 78//78 
f 120//120 79//79 119//119 
f 120//120 121//121 79//79 
f 122//122 121//121 120//120 
f 122//122 80//80 121//121 
f 122//122 123//123 80//80 
f 81//81 123//123 122//122 
f 123//123 81//81 128//128 
f 82//82 59//59 128//128 
f 82//82 83//83 59//59 
f 84//84 83//83 82//82 
f 84//84 99//99 83//83 
f 85//85 99//99 84//84 
f 87//87 64//64 63//63 
f 87//87 84//84 64//64 
f 85//85 84//84 87//87 
f 86//86 63//63 2//2 
f 86//86 87//87 63//63 
f 100//100 87//87 86//86 
f 100//100 88//88 87//87 
f 100//100 89//89 88//88 
f 101//101 89//89 100//100 
f 101//101 90//90 89//89 
f 101//101 91//91 90//90 
f 102//102 91//91 101//101 
f 102//102 92//92 91//91 
f 103//103 92//92 102//102 
f 103//103 104//104 92//92 
f 93//93 104//104 103//103 
f 93//93 105//105 104//104 
f 94//94 105//105 93//93 
f 94//94 106//106 105//105 
f 95//95 106//106 94//94 
f 95//95 107//107 106//106 
f 95//95 108//108 107//107 
f 96//96 108//108 95//95 
f 96//96 109//109 108//108 
f 96//96 97//97 109//109 
f 4//4 97//97 96//96 
f 4//4 58//58 97//97 
f 3//3 58//58 4//4 
f 3//3 1//1 58//58 
f 63//63 3//3 2//2 
f 1//1 3//3 63//63 
f 64//64 67//67 63//63 
f 64//64 5//5 67//67 
f 127//127 5//5 64//64 
f 127//127 61//61 5//5 
f 127//127 124//124 61//61 
f 62//62 124//124 127//127 
f 124//124 62//62 126//126 
f 59//59 129//129 128//128 
f 6//6 129//129 59//59 
f 125//125 129//129 6//6 
f 125//125 126//126 129//129 
f 124//124 126//126 125//125 
f 125//125 61//61 124//124 
f 60//60 61//61 125//125 
