v -0.2739501894 0.2078622133 0.3720128536 1 1 1
vn -0.02217618003 0.01799272746 0.999592185
v -0.180197835 0.2906938493 0.3720128536 1 1 1
vn -0.04275659844 0.06895051152 0.9967034459
v 0.3600809574 0.0001594028872 0.3541074395 1 1 1
vn 0.9975441694 0.02383140847 0.065861471
v 0.2794992328 -0.1972168982 0.3720128536 1 1 1
vn 0.0403261669 -0.02605844662 0.9988467097
v -0.2665021122 0.2016079873 -0.3720128238 1 1 1
vn -0.06842193007 0.05138719082 -0.9963321686
v -0.1590448916 0.2907353342 -0.3720128238 1 1 1
vn -0.06340511888 0.117369853 -0.9910621047
v -0.1019199416 -0.3168604374 -0.3720128238 1 1 1
vn -0.07021247596 -0.2895821631 -0.9545744658
v -0.1994217783 -0.2682451904 -0.3720128238 1 1 1
vn -0.0520491302 -0.07395262271 -0.9959025383
v -0.04830274358 -0.3581681848 0.004679530859 1 1 1
vn -0.140274629 -0.9901126623 -1.148151402e-18
v 0.04215430468 -0.3593734503 0.004679530859 1 1 1
vn 0.1283137351 -0.9917330742 0.001033203094
v 0.3592793047 -0.02381744049 -0.3447549939 1 1 1
vn 0.9960396886 -0.02755009569 -0.08453381807
v 0.3564570844 0.06034369767 0.004679530859 1 1 1
vn 0.9851434231 0.1717336774 -4.875801824e-05
v 0.3355320692 -0.1355443895 -0.3447549939 1 1 1
vn 0.9350915551 -0.3505093157 -0.05241212994
v 0.3516410589 -0.08362455666 0.004679530859 1 1 1
vn 0.9701517224 -0.2424975187 0.0007897873875
v -0.300755918 -0.1655036807 0.3720128536 1 1 1
vn -0.02550269477 -0.01118001249 0.9996122122
v -0.3518461585 -0.08362455666 0.3541074395 1 1 1
vn -0.9717287421 -0.2246249765 0.07271078229
v -0.3396858871 -0.03181548044 0.3720128536 1 1 1
vn -0.02797392942 -0.000918417878 0.9996082187
v -0.3566583395 0.06034369767 0.004679530859 1 1 1
vn -0.9799055457 0.1994621456 7.565477426e-05
v 0.02404760383 0.3609875739 -0.3447549939 1 1 1
vn 0.05659659579 0.9968676567 -0.05524230003
v 0.1096481457 0.3437953889 0.004679530859 1 1 1
vn 0.3203926682 0.9472825527 0.002086045919
v -0.3154089451 -0.1760131121 0.3541074395 1 1 1
vn -0.8675126433 -0.4951982796 0.04690889269
v 0.3117727041 -0.1810054034 0.004679530859 1 1 1
vn 0.858065486 -0.5135364532 0.001977372915
v -0.2431227714 -0.2428135574 0.3720128536 1 1 1
vn -0.03731902689 -0.0341601558 0.9987193942
v -0.2426561564 -0.267975986 0.3541074395 1 1 1
vn -0.7032795548 -0.7083781362 0.05998568237
v -0.1793840528 -0.3143459558 0.3541074395 1 1 1
vn -0.4906382859 -0.8707356453 0.03306906298
v -0.09563855827 -0.3485456407 0.3541074395 1 1 1
vn -0.2583939135 -0.9644310474 0.05572588369
v 0.3401346803 0.1183855683 -0.3447549939 1 1 1
vn 0.9346757531 0.3448308706 -0.08644601703
v -0.2426561564 -0.267975986 -0.3447549939 1 1 1
vn -0.6793818474 -0.7292369604 -0.08157107234
v 0.3621015251 -0.01190922968 0.004679530859 1 1 1
vn 0.999440968 -0.03343338519 6.176053375e-07
v -0.1412665397 -0.3326987028 0.004679530859 1 1 1
vn -0.384326756 -0.9231970906 0.0003017889103
v -0.09563855827 -0.3485456407 -0.3447549939 1 1 1
vn -0.246234268 -0.9677805305 -0.05262656882
v 0.1677237153 -0.2885320485 -0.3720128238 1 1 1
vn 0.07462096959 -0.1378364712 -0.9876400232
v 0.05145692825 -0.3287397027 -0.3720128238 1 1 1
vn 0.05454955995 -0.4576599896 -0.887452364
v -0.3201307356 0.09391006082 -0.3720128238 1 1 1
vn -0.03136091307 0.00735944882 -0.9994810224
v 0.3306902349 0.08081255108 0.3720128536 1 1 1
vn 0.02247560956 0.005654072389 0.9997314215
v 0.331512928 0.1407731771 0.3541074395 1 1 1
vn 0.9249178171 0.3741785884 0.06721147895
v 0.2724336088 0.2385338396 0.3541074395 1 1 1
vn 0.7736682892 0.6313742995 0.05295116827
v 0.2516833246 0.2313320637 0.3720128536 1 1 1
vn 0.0427319333 0.03439898416 0.9984942079
v -0.3459682465 0.104344815 0.3541074395 1 1 1
vn -0.9562482834 0.2831610441 0.07354626805
v -0.3221049011 0.1177586317 0.3720128536 1 1 1
vn -0.03505461663 0.01112588402 0.9993234873
v -0.3621015549 0.00625463808 0.3541074395 1 1 1
vn -0.9979218245 0.04058806598 0.05004620552
v -0.3084821701 0.1898908019 0.3541074395 1 1 1
vn -0.8550436497 0.5160624385 0.05079260841
v -0.1897859275 0.3085827529 0.3541074395 1 1 1
vn -0.5075958967 0.8609015942 0.03456698731
v -0.2600280344 0.2515772581 0.3541074395 1 1 1
vn -0.6896101832 0.7213180065 0.06432840228
v -0.02425908484 0.3609875739 0.3541074395 1 1 1
vn -0.03551349044 0.9974145889 0.06247362122
v 0.3349019587 -0.07241937518 0.3720128536 1 1 1
vn 0.0250707604 -0.004297500476 0.999676466
v 0.3046815693 -0.1943656206 0.3541074395 1 1 1
vn 0.8065913916 -0.5904307961 0.02831671573
v 0.3452567756 -0.1069305316 0.3541074395 1 1 1
vn 0.9485274553 -0.3106041849 0.06181192026
v 0.08050917089 -0.3305953741 0.3720128536 1 1 1
vn 0.04496354237 -0.2021246552 0.9783270955
v 0.1525254697 0.2972480953 -0.3720128238 1 1 1
vn 0.08561915904 0.1673417091 -0.9821741581
v 0.01703985594 0.330925107 -0.3720128238 1 1 1
vn -0.003316931194 0.4340937436 -0.9008616209
v -0.2665021122 -0.201206401 -0.3720128238 1 1 1
vn -0.04464697093 -0.02961532585 -0.9985637665
v -0.3263505697 -0.05668244511 -0.3720128238 1 1 1
vn -0.05115089938 -0.01043855678 -0.9986363649
v -0.0001051463914 -0.3613918722 -0.3447549939 1 1 1
vn 0.004658799618 -0.9944939017 -0.1046910957
v 0.1212093234 -0.3400195837 0.004679530859 1 1 1
vn 0.4240563214 -0.9056337476 0.001931850798
v 0.3355320692 0.1359475255 0.004679530859 1 1 1
vn 0.9103171825 0.4139064252 -0.002028799849
v 0.2776584923 0.2311028093 -0.3447549939 1 1 1
vn 0.7658709288 0.6408757567 -0.0521536544
v -0.1187168211 0.3417896926 0.004679530859 1 1 1
vn -0.3184737265 0.947927475 -0.002832235768
v -0.2047487199 0.2983116508 0.004679530859 1 1 1
vn -0.5450033545 0.8384293914 -0.002728947671
v -0.1068570837 0.344199717 -0.3447549939 1 1 1
vn -0.2770657837 0.9568687677 -0.08738803118
v -0.003107327269 0.361391902 0.004679530859 1 1 1
vn -0.03548510745 0.9993690252 -0.001534525771
v -0.3617001772 -0.017938843 0.004679530859 1 1 1
vn -0.9974855185 -0.07070929557 -0.004772580694
v -0.3357440829 0.1359475255 -0.3447549939 1 1 1
vn -0.9289950132 0.36117962 -0.08073128015
v -0.3591792583 0.03934045136 -0.3447549939 1 1 1
vn -0.9926568866 0.05937435105 -0.1053896472
v 0.2045372576 0.2983116508 0.004679530859 1 1 1
vn 0.5882178545 0.8087016344 0.001216038596
v 0.1185058132 0.3417896926 -0.3447549939 1 1 1
vn 0.3209464252 0.9379725456 -0.1311520487
v 0.2213868946 -0.2851218283 -0.3447549939 1 1 1
vn 0.546828568 -0.8342021108 -0.07131156325
v 0.2910054922 -0.2142892629 -0.3447549939 1 1 1
vn 0.7818419337 -0.6206080914 -0.05973957106
v -0.3490766585 -0.08915742487 -0.3447549939 1 1 1
vn -0.9678243399 -0.2446325123 -0.05891523883
v -0.0001051463914 -0.3613918722 0.3541074395 1 1 1
vn 0.01908867434 -0.9974269271 0.06910262257
v -0.1658068299 -0.3004493117 0.3720128536 1 1 1
vn -0.05681634694 -0.106918402 0.9926431179
v -0.05849739537 -0.3384786844 0.3720128536 1 1 1
vn -0.05120557547 -0.4071567655 0.9119217992
v -0.2768568397 -0.2337786704 0.004679530859 1 1 1
vn -0.7685407996 -0.6397972107 0.00213937345
v -0.1687630415 -0.3201649785 -0.3447549939 1 1 1
vn -0.4878827035 -0.8692781925 -0.07953528315
v 0.3320613801 -0.01416670065 -0.3720128238 1 1 1
vn 0.03946580738 0.000498810201 -0.9992207885
v -0.2242019176 -0.2835790813 0.004679530859 1 1 1
vn -0.5874198079 -0.8092821836 -0.0005525954766
v 0.3059694767 -0.1343855858 -0.3720128238 1 1 1
vn 0.04850192741 -0.01796187274 -0.9986615777
v 0.2555321753 -0.2147022784 -0.3720128238 1 1 1
vn 0.05338773504 -0.04932641238 -0.9973548055
v 0.1474993527 0.3105683029 0.3720128536 1 1 1
vn 0.05469927564 0.1106795892 0.9923497438
v 0.2018337697 0.2996783853 0.3541074395 1 1 1
vn 0.5450459123 0.8373457193 0.04215595871
v 0.09242453426 0.3493528962 0.3541074395 1 1 1
vn 0.2284117043 0.9724928141 0.04567103088
v 0.03790315986 0.3413819373 0.3720128536 1 1 1
vn 0.06465112418 0.5222266912 0.8503525853
v 0.320391804 0.09703800827 -0.3720128238 1 1 1
vn 0.04076011851 0.013088868 -0.999083221
v 0.1123516336 -0.3420264423 0.3541074395 1 1 1
vn 0.3256559074 -0.9432687163 0.06474804133
v -0.3172054887 -0.1735733151 0.004679530859 1 1 1
vn -0.8937954903 -0.4484625459 -0.003311213572
v -0.3476403952 -0.1012763157 0.004679530859 1 1 1
vn -0.9549610615 -0.2967303395 -0.0007295918767
v 0.2260985821 -0.2814010382 0.004679530859 1 1 1
vn 0.6685381532 -0.7436743975 0.002270615892
v 0.2045372576 0.2983116508 -0.3447549939 1 1 1
vn 0.5282248259 0.8445338011 -0.08798410743
v -0.2812923491 0.2261100411 -0.3447549939 1 1 1
vn -0.7903707027 0.605460763 -0.09344207495
v -0.3264747858 0.1549606621 0.004679530859 1 1 1
vn -0.8984926939 0.4389860332 -0.001478022547
v -0.2726432085 0.2385338396 0.004679530859 1 1 1
vn -0.7521882057 0.6589403152 -0.003246757668
v -0.2047487199 0.2983116508 -0.3447549939 1 1 1
vn -0.5889265537 0.8056904674 -0.06346932054
v 0.281085819 0.2261100411 0.004679530859 1 1 1
vn 0.7955700755 0.6058582067 -0.00201150286
v 0.1038652882 -0.3451883197 -0.3447549939 1 1 1
vn 0.3039445579 -0.9488861561 -0.08504575491
v -0.3048890531 -0.1943656206 -0.3447549939 1 1 1
vn -0.850513339 -0.5141419768 -0.1108382419
v 0.2075591832 -0.2736421227 0.3720128536 1 1 1
vn 0.04229209572 -0.06731570512 0.9968349934
v 0.2350749969 -0.2732836604 0.3541074395 1 1 1
vn 0.5732297897 -0.8180373311 0.04714369774
v 0.2615996599 0.2052585334 -0.3720128238 1 1 1
vn 0.04767948017 0.03806266561 -0.9981372356
v -0.05849739537 0.338881135 0.3720128536 1 1 1
vn -0.05204657093 0.2327736914 0.9711372256
v -0.1187168211 0.3417896926 0.3541074395 1 1 1
vn -0.2519821227 0.966155231 0.05521864817
# mm_gid 6
g mmGroup6
f 60//60 61//61 19//19 
f 19//19 51//51 60//60 
f 45//45 99//99 82//82 
f 60//60 58//58 61//61 
f 100//100 61//61 58//58 
f 99//99 79//79 82//82 
f 100//100 99//99 45//45 
f 45//45 61//61 100//100 
f 45//45 82//82 81//81 
f 81//81 61//61 45//45 
f 81//81 20//20 61//61 
f 19//19 61//61 20//20 
f 60//60 51//51 6//6 
f 100//100 2//2 99//99 
f 2//2 79//79 99//99 
f 81//81 82//82 79//79 
f 50//50 6//6 51//51 
f 66//66 50//50 51//51 
f 19//19 20//20 66//66 
f 66//66 51//51 19//19 
f 81//81 79//79 80//80 
f 80//80 20//20 81//81 
f 80//80 65//65 20//20 
f 88//88 20//20 65//65 
f 88//88 50//50 66//66 
f 66//66 20//20 88//88 
f 60//60 6//6 92//92 
f 92//92 59//59 60//60 
f 60//60 59//59 58//58 
f 43//43 58//58 59//59 
f 100//100 58//58 43//43 
f 43//43 2//2 100//100 
f 2//2 38//38 79//79 
f 80//80 79//79 38//38 
f 43//43 59//59 44//44 
f 44//44 2//2 43//43 
f 80//80 38//38 37//37 
f 37//37 93//93 80//80 
f 80//80 93//93 65//65 
f 88//88 98//98 50//50 
f 98//98 6//6 50//50 
f 92//92 91//91 59//59 
f 44//44 59//59 91//91 
f 44//44 1//1 2//2 
f 1//1 38//38 2//2 
f 57//57 65//65 93//93 
f 88//88 65//65 57//57 
f 57//57 98//98 88//88 
f 98//98 5//5 6//6 
f 89//89 6//6 5//5 
f 92//92 6//6 89//89 
f 89//89 91//91 92//92 
f 89//89 90//90 91//91 
f 37//37 38//38 36//36 
f 36//36 93//93 37//37 
f 40//40 35//35 1//1 
f 42//42 40//40 1//1 
f 42//42 91//91 90//90 
f 44//44 91//91 42//42 
f 42//42 1//1 44//44 
f 1//1 35//35 38//38 
f 36//36 38//38 35//35 
f 36//36 56//56 93//93 
f 27//27 93//93 56//56 
f 57//57 93//93 27//27 
f 27//27 98//98 57//57 
f 98//98 34//34 5//5 
f 63//63 5//5 34//34 
f 89//89 5//5 63//63 
f 63//63 90//90 89//89 
f 42//42 90//90 39//39 
f 39//39 40//40 42//42 
f 27//27 56//56 12//12 
f 36//36 12//12 56//56 
f 27//27 83//83 98//98 
f 83//83 34//34 98//98 
f 36//36 35//35 3//3 
f 3//3 12//12 36//36 
f 24//24 71//71 23//23 
f 96//96 23//23 71//71 
f 70//70 49//49 72//72 
f 70//70 9//9 10//10 
f 54//54 10//10 9//9 
f 26//26 9//9 70//70 
f 70//70 72//72 26//26 
f 31//31 7//7 54//54 
f 54//54 9//9 31//31 
f 54//54 7//7 33//33 
f 70//70 10//10 84//84 
f 84//84 49//49 70//70 
f 26//26 30//30 9//9 
f 31//31 9//9 30//30 
f 7//7 32//32 33//33 
f 54//54 33//33 94//94 
f 94//94 10//10 54//54 
f 94//94 55//55 10//10 
f 84//84 10//10 55//55 
f 49//49 71//71 72//72 
f 26//26 72//72 71//71 
f 94//94 33//33 32//32 
f 31//31 30//30 74//74 
f 74//74 7//7 31//31 
f 94//94 32//32 67//67 
f 67//67 55//55 94//94 
f 67//67 87//87 55//55 
f 97//97 55//55 87//87 
f 84//84 55//55 97//97 
f 97//97 96//96 84//84 
f 96//96 71//71 49//49 
f 84//84 96//96 49//49 
f 25//25 76//76 30//30 
f 26//26 71//71 25//25 
f 25//25 30//30 26//26 
f 74//74 8//8 7//7 
f 8//8 32//32 7//7 
f 24//24 76//76 25//25 
f 25//25 71//71 24//24 
f 8//8 78//78 32//32 
f 28//28 8//8 74//74 
f 74//74 76//76 28//28 
f 74//74 30//30 76//76 
f 24//24 73//73 76//76 
f 28//28 76//76 73//73 
f 52//52 78//78 8//8 
f 28//28 52//52 8//8 
f 67//67 32//32 78//78 
f 97//97 4//4 96//96 
f 4//4 23//23 96//96 
f 28//28 73//73 95//95 
f 95//95 52//52 28//28 
f 67//67 78//78 68//68 
f 68//68 87//87 67//67 
f 68//68 22//22 87//87 
f 47//47 87//87 22//22 
f 47//47 4//4 97//97 
f 97//97 87//87 47//47 
f 4//4 15//15 23//23 
f 21//21 23//23 15//15 
f 24//24 23//23 21//21 
f 21//21 73//73 24//24 
f 21//21 85//85 73//73 
f 95//95 73//73 85//85 
f 52//52 77//77 78//78 
f 68//68 78//78 77//77 
f 68//68 77//77 13//13 
f 13//13 22//22 68//68 
f 47//47 22//22 48//48 
f 48//48 4//4 47//47 
f 48//48 46//46 4//4 
f 46//46 15//15 4//4 
f 46//46 17//17 15//15 
f 16//16 15//15 17//17 
f 21//21 15//15 16//16 
f 16//16 86//86 21//21 
f 21//21 86//86 85//85 
f 69//69 53//53 95//95 
f 95//95 85//85 69//69 
f 95//95 53//53 52//52 
f 53//53 77//77 52//52 
f 13//13 14//14 22//22 
f 48//48 22//22 14//14 
f 16//16 62//62 86//86 
f 69//69 85//85 86//86 
f 53//53 75//75 77//77 
f 11//11 77//77 75//75 
f 11//11 14//14 13//13 
f 13//13 77//77 11//11 
f 69//69 86//86 62//62 
f 53//53 69//69 64//64 
f 69//69 62//62 64//64 
f 75//75 53//53 34//34 
f 27//27 75//75 83//83 
f 75//75 34//34 83//83 
f 63//63 18//18 90//90 
f 39//39 90//90 18//18 
f 27//27 12//12 11//11 
f 11//11 75//75 27//27 
f 11//11 12//12 29//29 
f 11//11 29//29 14//14 
f 3//3 46//46 48//48 
f 48//48 14//14 3//3 
f 16//16 17//17 41//41 
f 41//41 62//62 16//16 
f 41//41 18//18 62//62 
f 64//64 62//62 18//18 
f 64//64 34//34 53//53 
f 63//63 34//34 64//64 
f 64//64 18//18 63//63 
f 39//39 17//17 40//40 
f 17//17 35//35 40//40 
f 3//3 29//29 12//12 
f 3//3 14//14 29//29 
f 3//3 35//35 46//46 
f 17//17 46//46 35//35 
f 41//41 17//17 39//39 
f 39//39 18//18 41//41 
