v -0.2362151891 -0.009763169102 0.03583246842 1 1 1
vn -0.9750167131 -0.01947162673 -0.2212765664
v -0.09927434474 -0.2066147327 0.01306352858 1 1 1
vn -0.3521883786 -0.8161022663 -0.4581926167
v 0.03376013786 -0.1524437666 -0.05140043423 1 1 1
vn 0.0546316579 -0.3079193234 -0.9498426318
v -0.1971572936 0.1129623279 0.009801754728 1 1 1
vn -0.7937643528 0.448287189 -0.4110678136
v -0.1630211771 0.04630455375 -0.0466003716 1 1 1
vn -0.3655272722 0.1104815826 -0.924220562
v -0.1616270244 -0.155674234 0.003770257114 1 1 1
vn -0.6228742599 -0.6359862089 -0.4555756748
v -0.1576163322 -0.1300245672 -0.02241571248 1 1 1
vn -0.5325002074 -0.4644272923 -0.7076374888
v -0.2301182896 -0.04533762112 0.02919639274 1 1 1
vn -0.9533841014 -0.2160357535 -0.210682869
v -0.1056683585 -0.07048581541 -0.05627194792 1 1 1
vn -0.01932852715 -0.01139294449 -0.9997482896
v -0.2058521658 -0.0678376779 -0.007856924087 1 1 1
vn -0.7749270201 -0.258675009 -0.5766934752
v -0.187210843 -0.08110381663 -0.02361574396 1 1 1
vn -0.6115083098 -0.2985858023 -0.732737422
v -0.1832782775 0.02071609907 -0.03856190667 1 1 1
vn -0.5597938299 0.04648298398 -0.8273271322
v -0.1463066489 0.02034350671 -0.05341269821 1 1 1
vn -0.2119550258 0.02161875553 -0.9770402908
v 0.01425000373 -0.2277827114 0.009801754728 1 1 1
vn 0.02757777832 -0.8984422088 -0.4382248819
v 0.01489646267 -0.1815176755 -0.04031210765 1 1 1
vn 0.04680370539 -0.5116320848 -0.8579289317
v -0.156020686 -0.1804542691 0.0563236773 1 1 1
vn -0.07881934941 -0.09084515274 0.9927409887
v -0.08992575854 -0.2210475653 0.0563236773 1 1 1
vn -0.1358324885 -0.3304270804 0.9340061545
v -0.02890909836 -0.2374161631 0.0563236773 1 1 1
vn -0.08972670883 -0.9491574168 0.301743865
v 0.1478333026 0.1850487739 0.03583246842 1 1 1
vn 0.5645856261 0.7956855297 -0.2193801254
v 0.02460401319 0.237416178 0.0563236773 1 1 1
vn 0.07852778584 0.9228342772 0.3771078587
v -0.03109963611 0.2351851314 0.03920671344 1 1 1
vn -0.1103203893 0.9716819525 -0.2089582831
v 0.09945871681 0.2170806974 0.0563236773 1 1 1
vn 0.148284182 0.3519308567 0.9242058396
v -0.03078152984 -0.2336714268 0.03420155123 1 1 1
vn -0.09658636153 -0.9750253558 -0.1999914497
v 0.1759498119 0.1586193889 0.03583246842 1 1 1
vn 0.7278103828 0.653981328 -0.2063987851
v 0.1531826258 0.1838501841 0.0563236773 1 1 1
vn 0.06219743937 0.06964685023 0.9956308603
v 0.0898366794 -0.2193806767 0.03583246842 1 1 1
vn 0.3495618999 -0.9154769778 -0.1992694885
v 0.04617701471 -0.2339137644 0.0563236773 1 1 1
vn 0.1134147719 -0.7183141708 0.6864122748
v 0.03632666543 -0.2336123586 0.03583246842 1 1 1
vn 0.1204507947 -0.9742607474 -0.1905455738
v 0.1172181293 -0.2090733796 0.0563236773 1 1 1
vn 0.06140203029 -0.1221826598 0.9906064868
v -0.112166062 0.2110086977 0.0563236773 1 1 1
vn -0.1017829105 0.1884911656 0.9767861962
v -0.1693246961 0.1628478914 0.03088354506 1 1 1
vn -0.7346761227 0.6336743832 -0.2422968298
v -0.1670807004 0.1707703024 0.0563236773 1 1 1
vn -0.06415814906 0.06615488976 0.995744586
v -0.2061640769 0.1154258475 0.03583246842 1 1 1
vn -0.8328516483 0.5128713846 -0.2081372589
v -0.2240992785 0.07590787113 0.03583246842 1 1 1
vn -0.9226818085 0.3122300208 -0.2262092978
v -0.2133644074 0.1055234522 0.0563236773 1 1 1
vn -0.05347212031 0.02955688909 0.9981318116
v 0.2329915017 -0.01423464343 0.02437588014 1 1 1
vn 0.9485789537 -0.03238865361 -0.314879179
v -0.08499921113 0.2183842212 0.0292525664 1 1 1
vn -0.3456227183 0.8833549619 -0.3165895045
v 0.103667587 0.1300084889 -0.04799430072 1 1 1
vn 0.200745821 0.24245134 -0.9491672516
v 0.1757420897 0.1458134055 0.009801754728 1 1 1
vn 0.7088627219 0.5760973096 -0.406971097
v 0.1337318867 0.1139258221 -0.04345623776 1 1 1
vn 0.3286513388 0.3103975654 -0.891987443
v 0.2180114537 0.07860707492 0.01949907281 1 1 1
vn 0.8903375268 0.3310964704 -0.3125287592
v 0.05833574384 0.1452520788 -0.05140043423 1 1 1
vn 0.09574061632 0.2092264593 -0.9731690884
v 0.03832928464 0.1173600703 -0.05632373691 1 1 1
vn 0.01661331207 0.03565627709 -0.9992260337
v 0.1599505097 0.1096696779 -0.03261372447 1 1 1
vn 0.5175151825 0.3515990674 -0.7801001072
v 0.2033617347 0.1190369576 0.03257063404 1 1 1
vn 0.8267083168 0.4846488833 -0.2857776284
v 0.189528361 0.11092709 -0.004942901898 1 1 1
vn 0.7232866287 0.4104359448 -0.5553365946
v -0.1349245459 0.1220358089 -0.04031210765 1 1 1
vn -0.3547053635 0.3338243961 -0.8733529449
v -0.02894422971 0.1672499329 -0.0466003716 1 1 1
vn -0.08754134178 0.3593680263 -0.9290807843
v -0.1061288193 0.1579504162 -0.03471265361 1 1 1
vn -0.3634183109 0.5187778473 -0.7738195658
v -0.1235829592 0.03379523754 -0.0561683625 1 1 1
vn -0.0137013616 0.01084367279 -0.9998473525
v -0.1641437709 0.1484159082 -0.00226130127 1 1 1
vn -0.6534592509 0.5833121538 -0.4824292064
v -0.1654931456 0.08829532564 -0.0364629142 1 1 1
vn -0.5131875277 0.2489953637 -0.8213646412
v -0.1977190673 0.04091532528 -0.02481577545 1 1 1
vn -0.6950973272 0.1538492739 -0.702260673
v -0.1250492483 0.09379734844 -0.05140043423 1 1 1
vn -0.2290749699 0.1617189199 -0.9598810673
v 0.1616333574 0.1427399963 -0.01077094581 1 1 1
vn 0.5802718997 0.5168052316 -0.6294417381
v 0.1386233419 0.1768732965 0.003770257114 1 1 1
vn 0.5309888721 0.6900280118 -0.4918456674
v 0.04218329862 0.1938151717 -0.02811473422 1 1 1
vn 0.1299286485 0.6596764326 -0.7402334213
v -0.1526993215 -0.09837399423 -0.04031210765 1 1 1
vn -0.4142239988 -0.2846381664 -0.8645227551
v 0.03250486031 0.2239704132 0.006887733005 1 1 1
vn 0.1311532408 0.8313453197 -0.5400590897
v -0.2161568701 -0.09361370653 0.03257063404 1 1 1
vn -0.8749104738 -0.381447047 -0.298378706
v -0.08369552344 0.1468347907 -0.0466003716 1 1 1
vn -0.1901670545 0.3238756955 -0.9267907143
v -0.1404774785 -0.0632738322 -0.05170601234 1 1 1
vn -0.2288865894 -0.08863198012 -0.9694097638
v -0.06374491751 0.1827820092 -0.03261372447 1 1 1
vn -0.2029940337 0.5713291168 -0.7952210307
v -0.1878308654 -0.1130397543 -0.005175385624 1 1 1
vn -0.7359777093 -0.4209285378 -0.5302414298
v -0.08031839877 0.1133993268 -0.05484235287 1 1 1
vn -0.02841160074 0.04697945341 -0.9984917045
v -0.1104755476 -0.1151487827 -0.05000656471 1 1 1
vn -0.2125377506 -0.2354917526 -0.9483519197
v -0.06693503261 0.2042945027 -0.01053846162 1 1 1
vn -0.237094 0.7584958076 -0.6070176959
v -0.1909099668 -0.1313258111 0.01929848082 1 1 1
vn -0.7768668532 -0.5134604573 -0.364467144
v -0.1013690159 0.1882489026 -0.01173849218 1 1 1
vn -0.3858239055 0.7299822569 -0.5641505718
v -0.07708239555 -0.1651540548 -0.04031210765 1 1 1
vn -0.2203641981 -0.4446233511 -0.8681876063
v -0.189985171 0.09755149484 -0.01199550275 1 1 1
vn -0.6821097732 0.3435124457 -0.6455427408
v -0.07314227521 -0.1961493194 -0.01719334535 1 1 1
vn -0.2523697317 -0.6967502832 -0.6714525819
v 0.232291922 -0.04804503545 0.03583246842 1 1 1
vn 0.9571114182 -0.237931326 -0.1653069556
v 0.1900746375 -0.1061144173 -0.007856924087 1 1 1
vn 0.6947686672 -0.3577389717 -0.6239545941
v 0.1870445907 -0.13113074 0.009801754728 1 1 1
vn 0.7615366578 -0.5316280127 -0.3707202971
v 0.102897875 -0.2023903877 0.008344713598 1 1 1
vn 0.4266008735 -0.7854785919 -0.448369354
v 0.0773800239 -0.1679629534 -0.03821317852 1 1 1
vn 0.2336821854 -0.4606976807 -0.8562419415
v 0.08267202228 -0.09901633114 -0.05627194792 1 1 1
vn 0.02792376839 -0.02590054274 -0.9992744327
v -0.01019928884 -0.2059807926 -0.0209341459 1 1 1
vn -0.06682284176 -0.7231163383 -0.6874863505
v -0.07985532284 -0.2218194306 0.03257063404 1 1 1
vn -0.3019447625 -0.9157516956 -0.2650060952
v -0.05096843094 -0.1464872062 -0.05140043423 1 1 1
vn -0.07237102836 -0.2639996111 -0.9618038535
v -0.1227626577 -0.1792376786 -0.007856924087 1 1 1
vn -0.4729574919 -0.6652405262 -0.5777250528
v -0.1546729952 -0.1789848506 0.03583246842 1 1 1
vn -0.6532523036 -0.7093337774 -0.2647773325
v 0.213029176 -0.1024955511 0.03583246842 1 1 1
vn 0.8924129009 -0.4196767211 -0.1657429188
v 0.1484563351 -0.06068224087 -0.05000656471 1 1 1
vn 0.2814218104 -0.1243857965 -0.9514882565
v 0.1230929866 -0.03352293 -0.05627194792 1 1 1
vn 0.01708357036 0.001444415189 -0.9998530149
v 0.1645005941 -0.1365686655 -0.01345254388 1 1 1
vn 0.5722336173 -0.4925867021 -0.6556729674
v 0.0745774582 -0.1996142566 -0.01345254388 1 1 1
vn 0.2979369164 -0.7063759565 -0.6420798898
v 0.05682387576 -0.1853456795 -0.03261372447 1 1 1
vn 0.1670300066 -0.604831934 -0.7786393762
v 0.02832368761 -0.1300532073 -0.05596107617 1 1 1
vn 0.02081298269 -0.1295059919 -0.9913601875
v -0.03482175618 -0.1786628067 -0.04031210765 1 1 1
vn -0.08489731699 -0.4873797297 -0.869053185
v -0.03602105752 -0.2214250863 0.003770257114 1 1 1
vn -0.1732515991 -0.8587694168 -0.4821814299
v -0.05497614294 -0.1194785237 -0.0560647212 1 1 1
vn -0.03110083006 -0.06175717339 -0.9976065159
v -0.1136404648 -0.155911833 -0.03261372447 1 1 1
vn -0.3683592379 -0.4766970575 -0.7981675267
v -0.2203608453 -0.05051128939 0.006684279069 1 1 1
vn -0.868170619 -0.1828352362 -0.461357832
v 0.2214413136 -0.0554163903 0.009801754728 1 1 1
vn 0.890186727 -0.2058137506 -0.4064582288
v -0.1683820635 -0.01925848797 -0.0466003716 1 1 1
vn -0.3694392741 -0.03621180728 -0.9285490513
v -0.1809504181 -0.04903353751 -0.0364629142 1 1 1
vn -0.5512031913 -0.1327220649 -0.8237474561
v -0.2155012488 0.05628864467 0.0008561745053 1 1 1
vn -0.8383554816 0.2357580513 -0.4915060699
v 0.2072588503 -0.05192900822 -0.01345254388 1 1 1
vn 0.7570907474 -0.198244676 -0.622505188
v 0.2095047235 -0.09061723948 0.009801754728 1 1 1
vn 0.8225342035 -0.3583748937 -0.4415935874
v -0.1538584977 0.1335316002 -0.02361574396 1 1 1
vn -0.523003161 0.457842201 -0.7189216018
v -0.1364823282 0.1714641452 -0.004942901898 1 1 1
vn -0.4914832115 0.6417229772 -0.5887578726
v -0.04297426343 0.2204205245 0.003770257114 1 1 1
vn -0.1908755302 0.8793235421 -0.4362988174
v -0.1302426308 0.194357574 0.02756547555 1 1 1
vn -0.5354542136 0.7839093804 -0.3142846525
v -0.05281793699 0.2326699495 0.0563236773 1 1 1
vn -0.1360296607 0.564881742 0.8138824105
v -0.1894697398 -0.1420636624 0.03920671344 1 1 1
vn -0.7798982859 -0.6072490215 -0.1516817063
v -0.2084265649 -0.1140434965 0.0563236773 1 1 1
vn -0.04449557513 -0.02097258531 0.9987894297
v -0.1229278445 -0.2008675188 0.03257063404 1 1 1
vn -0.525854826 -0.8102465272 -0.2587997317
v -0.2364262491 -0.0340821743 0.0563236773 1 1 1
vn -0.0643107295 -0.01310368907 0.9978438616
v -0.2366246432 0.02909226902 0.0563236773 1 1 1
vn -0.04902629927 0.007594880182 0.9987686276
v 0.1931311339 -0.01763472706 -0.03261372447 1 1 1
vn 0.6451765895 -0.04320847243 -0.7628107071
v 0.2173851132 -0.006538514979 -0.007856924087 1 1 1
vn 0.8287545443 -0.03329642862 -0.5586208701
v 0.186751008 0.0228856802 -0.0364629142 1 1 1
vn 0.5284947753 0.06922125071 -0.8461097479
v 0.1687080264 -0.02076684311 -0.0466003716 1 1 1
vn 0.4309853613 -0.068905361 -0.8997242451
v 0.1638424844 -0.1739242077 0.0563236773 1 1 1
vn 0.04368516803 -0.04407286644 0.9980727434
v 0.2109591514 -0.1123047024 0.0563236773 1 1 1
vn 0.06956097484 -0.03837973252 0.9968391657
v 0.1707876921 -0.1637061089 0.03583246842 1 1 1
vn 0.7520874143 -0.6324286461 -0.1854683608
v 0.2366246432 -0.02666127868 0.0563236773 1 1 1
vn 0.05032905564 -0.006540070754 0.998711288
v 0.2344521135 0.03360923752 0.03583246842 1 1 1
vn 0.9784545302 0.1067876518 -0.1767006367
v 0.2334495336 0.05316665396 0.0563236773 1 1 1
vn 0.05383982137 0.01516298857 0.9984344244
v 0.2020790875 0.1267567873 0.0563236773 1 1 1
vn 0.07433190942 0.04121695086 0.996381402
v 0.1306470931 -0.1983682662 0.03920671344 1 1 1
vn 0.5533528924 -0.7950342894 -0.2484371662
v 0.02789655142 -0.2069623768 -0.01853414439 1 1 1
vn 0.1130067632 -0.7494140863 -0.6523863673
v 0.05819479376 -0.2219830453 0.01291923039 1 1 1
vn 0.2306529135 -0.8679087162 -0.4399246871
v 0.1008744165 -0.1193194166 -0.05140043423 1 1 1
vn 0.1680983752 -0.2342394739 -0.9575358033
v 0.123464033 -0.1414839029 -0.0364629142 1 1 1
vn 0.3777847588 -0.4244704247 -0.8228630424
v 0.1312438846 -0.1787504703 -0.00226130127 1 1 1
vn 0.499812752 -0.6988443732 -0.5116676092
v 0.1591076553 -0.1655385047 0.01291923039 1 1 1
vn 0.6010018587 -0.6831100583 -0.4149185717
v 0.1314722598 -0.1127051562 -0.04520644248 1 1 1
vn 0.3382414281 -0.2563890219 -0.9054597616
v 0.1305490732 -0.1629346013 -0.01853414439 1 1 1
vn 0.4190751016 -0.6027475595 -0.6790224314
v 0.1660917103 -0.09962831438 -0.03261372447 1 1 1
vn 0.5065746307 -0.3106859922 -0.8042737842
v 0.1892067939 -0.06207697466 -0.02811473422 1 1 1
vn 0.562708199 -0.2028183937 -0.8013889194
v -0.2079190761 -0.01494207606 -0.01853414439 1 1 1
vn -0.7220542431 -0.05675642937 -0.6895044446
v -0.2241866887 0.006681662053 0.003770257114 1 1 1
vn -0.8742435575 0.01876944862 -0.485124588
v -0.2326244265 0.03339819983 0.03088348359 1 1 1
vn -0.9467911124 0.1376987696 -0.2909049392
v 0.121894069 0.06950310618 -0.05476457626 1 1 1
vn 0.03632241115 0.02994487993 -0.9988913536
v 0.1586639285 0.06086838245 -0.0466003716 1 1 1
vn 0.3702631593 0.1521076113 -0.9163888097
v 0.1847901046 0.06656083465 -0.03051473573 1 1 1
vn 0.5934336185 0.2301306129 -0.7712823749
v 0.1996047497 0.07661387324 -0.01345254388 1 1 1
vn 0.7682674527 0.2770810425 -0.5770539045
v 0.2106384188 0.03467253223 -0.01345254388 1 1 1
vn 0.7557848096 0.1304818243 -0.6416882277
v 0.2252609581 0.03687069565 0.009801754728 1 1 1
vn 0.8969807625 0.1152351052 -0.4267860949
v 0.1529342085 0.0118300803 -0.05240656808 1 1 1
vn 0.2456053793 0.01952428743 -0.9691732526
v 0.03389876708 0.2336644083 0.03583246842 1 1 1
vn 0.1547995508 0.9681417942 -0.1968210191
v -0.01040068548 0.2108045518 -0.01613414288 1 1 1
vn -0.01599732973 0.7623884678 -0.6469218731
v 0.01772964746 0.1690211147 -0.0466003716 1 1 1
vn 0.06212185696 0.4280549884 -0.9016151428
v 0.0690305382 0.2175127715 0.009801754728 1 1 1
vn 0.2822361588 0.8736389279 -0.3963555992
v -0.004355471581 0.2280630618 0.009801754728 1 1 1
vn -0.01644582115 0.9233410358 -0.3836285472
v -0.0117355166 0.1926371008 -0.03261372447 1 1 1
vn -0.05104009062 0.6116125584 -0.789509356
v -0.01130852569 0.1437589079 -0.05432948843 1 1 1
vn -0.01408627164 0.17343539 -0.9847444892
v 0.09414939582 0.2170931995 0.03583246842 1 1 1
vn 0.3784041703 0.9037612677 -0.2000647187
v 0.08073996753 0.1969940215 -0.01345254388 1 1 1
vn 0.3110148013 0.7022784948 -0.6403707862
v 0.1128760055 0.200913474 0.01618100516 1 1 1
vn 0.4435991347 0.7978073359 -0.4083176553
v 0.1287946701 0.1580043584 -0.02361574396 1 1 1
vn 0.4049929678 0.5339297056 -0.7422261834
v 0.08016533405 0.1647420079 -0.03926264495 1 1 1
vn 0.2482905835 0.4876689613 -0.8369771838
# mm_gid 1
g mmGroup1
f 50//50 86//86 9//9 
f 98//98 12//12 97//97 
f 12//12 98//98 134//134 
f 134//134 53//53 12//12 
f 62//62 58//58 98//98 
f 66//66 62//62 9//9 
f 18//18 23//23 27//27 
f 79//79 91//91 15//15 
f 91//91 81//81 3//3 
f 3//3 15//15 91//91 
f 79//79 14//14 92//92 
f 23//23 92//92 14//14 
f 14//14 28//28 23//23 
f 27//27 23//23 28//28 
f 92//92 72//72 79//79 
f 91//91 79//79 72//72 
f 90//90 81//81 93//93 
f 3//3 81//81 90//90 
f 93//93 78//78 90//90 
f 15//15 124//124 79//79 
f 14//14 79//79 124//124 
f 27//27 17//17 18//18 
f 17//17 23//23 18//18 
f 17//17 80//80 23//23 
f 92//92 23//23 80//80 
f 124//124 15//15 89//89 
f 124//124 125//125 14//14 
f 28//28 14//14 125//125 
f 27//27 28//28 26//26 
f 80//80 2//2 92//92 
f 72//72 92//92 2//2 
f 72//72 70//70 91//91 
f 81//81 91//91 70//70 
f 125//125 26//26 28//28 
f 88//88 76//76 125//125 
f 3//3 77//77 15//15 
f 89//89 15//15 77//77 
f 89//89 88//88 124//124 
f 125//125 124//124 88//88 
f 26//26 125//125 76//76 
f 88//88 89//89 77//77 
f 77//77 3//3 126//126 
f 76//76 123//123 26//26 
f 29//29 26//26 123//123 
f 29//29 17//17 27//27 
f 27//27 26//26 29//29 
f 17//17 109//109 80//80 
f 80//80 109//109 2//2 
f 70//70 72//72 94//94 
f 78//78 126//126 90//90 
f 126//126 3//3 90//90 
f 126//126 127//127 77//77 
f 127//127 131//131 77//77 
f 88//88 77//77 131//131 
f 76//76 88//88 131//131 
f 131//131 128//128 76//76 
f 29//29 16//16 17//17 
f 16//16 109//109 17//17 
f 16//16 83//83 109//109 
f 81//81 70//70 66//66 
f 94//94 66//66 70//70 
f 109//109 82//82 2//2 
f 72//72 2//2 82//82 
f 94//94 72//72 82//82 
f 9//9 78//78 93//93 
f 128//128 129//129 76//76 
f 123//123 76//76 129//129 
f 129//129 118//118 123//123 
f 29//29 123//123 116//116 
f 116//116 16//16 29//29 
f 83//83 6//6 109//109 
f 82//82 109//109 6//6 
f 94//94 82//82 7//7 
f 9//9 93//93 66//66 
f 81//81 66//66 93//93 
f 126//126 130//130 127//127 
f 131//131 129//129 128//128 
f 116//116 123//123 118//118 
f 16//16 107//107 83//83 
f 7//7 82//82 6//6 
f 9//9 86//86 78//78 
f 127//127 87//87 131//131 
f 129//129 131//131 87//87 
f 6//6 83//83 107//107 
f 107//107 68//68 6//6 
f 7//7 58//58 94//94 
f 66//66 94//94 58//58 
f 58//58 62//62 66//66 
f 7//7 6//6 64//64 
f 68//68 64//64 6//6 
f 58//58 7//7 11//11 
f 11//11 98//98 58//58 
f 62//62 98//98 97//97 
f 97//97 13//13 62//62 
f 78//78 86//86 85//85 
f 130//130 132//132 127//127 
f 87//87 127//127 132//132 
f 87//87 75//75 129//129 
f 118//118 129//129 75//75 
f 116//116 108//108 16//16 
f 108//108 107//107 16//16 
f 108//108 60//60 107//107 
f 68//68 107//107 60//60 
f 64//64 68//68 60//60 
f 60//60 10//10 64//64 
f 64//64 11//11 7//7 
f 10//10 98//98 11//11 
f 98//98 10//10 134//134 
f 50//50 62//62 13//13 
f 50//50 9//9 62//62 
f 85//85 86//86 143//143 
f 115//115 114//114 112//112 
f 112//112 133//133 115//115 
f 85//85 115//115 133//133 
f 133//133 132//132 85//85 
f 114//114 115//115 143//143 
f 114//114 139//139 141//141 
f 141//141 112//112 114//114 
f 113//113 112//112 141//141 
f 133//133 112//112 100//100 
f 112//112 113//113 100//100 
f 100//100 74//74 133//133 
f 133//133 74//74 132//132 
f 85//85 143//143 115//115 
f 138//138 114//114 143//143 
f 139//139 114//114 138//138 
f 140//140 141//141 139//139 
f 36//36 113//113 142//142 
f 113//113 36//36 96//96 
f 100//100 113//113 96//96 
f 96//96 101//101 100//100 
f 74//74 100//100 101//101 
f 84//84 75//75 101//101 
f 74//74 101//101 75//75 
f 132//132 130//130 85//85 
f 130//130 126//126 85//85 
f 126//126 78//78 85//85 
f 132//132 74//74 87//87 
f 75//75 87//87 74//74 
f 75//75 84//84 118//118 
f 117//117 118//118 84//84 
f 116//116 118//118 117//117 
f 117//117 108//108 116//116 
f 11//11 64//64 10//10 
f 53//53 134//134 135//135 
f 5//5 97//97 12//12 
f 97//97 5//5 13//13 
f 143//143 86//86 137//137 
f 143//143 137//137 138//138 
f 86//86 50//50 137//137 
f 141//141 140//140 41//41 
f 41//41 142//142 141//141 
f 113//113 141//141 142//142 
f 22//22 151//151 144//144 
f 106//106 22//22 20//20 
f 22//22 144//144 20//20 
f 144//144 59//59 148//148 
f 145//145 148//148 59//59 
f 59//59 57//57 145//145 
f 149//149 145//145 57//57 
f 150//150 48//48 146//146 
f 149//149 146//146 48//48 
f 148//148 21//21 144//144 
f 20//20 144//144 21//21 
f 20//20 21//21 106//106 
f 146//146 149//149 57//57 
f 104//104 37//37 21//21 
f 104//104 145//145 67//67 
f 149//149 67//67 145//145 
f 48//48 63//63 149//149 
f 148//148 145//145 104//104 
f 21//21 148//148 104//104 
f 106//106 21//21 37//37 
f 151//151 153//153 147//147 
f 152//152 147//147 153//153 
f 147//147 144//144 151//151 
f 144//144 147//147 59//59 
f 147//147 152//152 59//59 
f 57//57 59//59 152//152 
f 57//57 155//155 146//146 
f 155//155 42//42 146//146 
f 150//150 146//146 42//42 
f 150//150 42//42 43//43 
f 150//150 43//43 65//65 
f 63//63 48//48 61//61 
f 67//67 149//149 63//63 
f 106//106 37//37 30//30 
f 30//30 22//22 106//106 
f 152//152 155//155 57//57 
f 155//155 38//38 42//42 
f 48//48 150//150 65//65 
f 65//65 61//61 48//48 
f 63//63 69//69 67//67 
f 37//37 104//104 67//67 
f 22//22 19//19 151//151 
f 151//151 19//19 153//153 
f 152//152 153//153 56//56 
f 56//56 154//154 152//152 
f 155//155 152//152 154//154 
f 61//61 49//49 63//63 
f 49//49 69//69 63//63 
f 37//37 67//67 69//69 
f 30//30 37//37 105//105 
f 30//30 25//25 22//22 
f 25//25 19//19 22//22 
f 19//19 56//56 153//153 
f 154//154 40//40 155//155 
f 38//38 155//155 40//40 
f 38//38 137//137 42//42 
f 42//42 137//137 43//43 
f 105//105 69//69 103//103 
f 49//49 103//103 69//69 
f 69//69 105//105 37//37 
f 49//49 61//61 47//47 
f 61//61 65//65 54//54 
f 47//47 61//61 54//54 
f 47//47 102//102 49//49 
f 103//103 49//49 102//102 
f 102//102 51//51 103//103 
f 105//105 103//103 51//51 
f 51//51 31//31 105//105 
f 32//32 105//105 31//31 
f 30//30 105//105 32//32 
f 32//32 25//25 30//30 
f 25//25 24//24 19//19 
f 154//154 56//56 55//55 
f 32//32 122//122 25//25 
f 122//122 24//24 25//25 
f 122//122 45//45 24//24 
f 44//44 55//55 46//46 
f 137//137 38//38 40//40 
f 40//40 154//154 44//44 
f 55//55 44//44 154//154 
f 56//56 19//19 24//24 
f 24//24 39//39 56//56 
f 55//55 56//56 39//39 
f 137//137 65//65 43//43 
f 50//50 54//54 65//65 
f 102//102 47//47 52//52 
f 102//102 71//71 51//51 
f 71//71 4//4 51//51 
f 31//31 51//51 4//4 
f 4//4 33//33 31//31 
f 35//35 31//31 33//33 
f 32//32 31//31 35//35 
f 35//35 122//122 32//32 
f 39//39 24//24 45//45 
f 45//45 46//46 39//39 
f 55//55 39//39 46//46 
f 46//46 139//139 44//44 
f 44//44 138//138 40//40 
f 137//137 40//40 138//138 
f 137//137 50//50 65//65 
f 54//54 52//52 47//47 
f 52//52 71//71 102//102 
f 46//46 45//45 41//41 
f 41//41 140//140 46//46 
f 139//139 46//46 140//140 
f 138//138 44//44 139//139 
f 142//142 41//41 120//120 
f 120//120 36//36 142//142 
f 108//108 8//8 60//60 
f 8//8 95//95 60//60 
f 10//10 60//60 95//95 
f 95//95 134//134 10//10 
f 95//95 135//135 134//134 
f 135//135 99//99 53//53 
f 54//54 50//50 13//13 
f 13//13 5//5 54//54 
f 52//52 54//54 5//5 
f 71//71 52//52 53//53 
f 4//4 34//34 33//33 
f 35//35 33//33 34//34 
f 122//122 41//41 45//45 
f 121//121 41//41 122//122 
f 121//121 120//120 41//41 
f 119//119 73//73 36//36 
f 96//96 36//36 73//73 
f 73//73 84//84 96//96 
f 101//101 96//96 84//84 
f 119//119 84//84 73//73 
f 117//117 84//84 119//119 
f 119//119 108//108 117//117 
f 119//119 110//110 108//108 
f 110//110 8//8 108//108 
f 135//135 95//95 8//8 
f 99//99 135//135 136//136 
f 34//34 99//99 136//136 
f 5//5 12//12 52//52 
f 53//53 52//52 12//12 
f 53//53 99//99 71//71 
f 4//4 71//71 99//99 
f 34//34 4//4 99//99 
f 35//35 121//121 122//122 
f 111//111 121//121 35//35 
f 35//35 34//34 111//111 
f 111//111 34//34 136//136 
f 119//119 120//120 121//121 
f 119//119 36//36 120//120 
f 110//110 119//119 111//111 
f 111//111 1//1 110//110 
f 111//111 136//136 1//1 
f 110//110 1//1 8//8 
f 8//8 1//1 135//135 
f 136//136 135//135 1//1 
f 111//111 119//119 121//121 
