v 0.002806700999 0.3664416671 -0.1366900206 1 1 1
vn 0.0007971749874 0.2283796519 -0.9735718369
v 0.2290289253 -0.01447394211 -0.1332367808 1 1 1
vn 0.4622000158 0.265938282 -0.8459597826
v 0.002647692105 0.3207599819 -0.1412333846 1 1 1
vn -0.001139736036 0.002378772711 -0.9999965429
v 0.002968126442 0.4125915766 -0.1192292571 1 1 1
vn 0.0016137528 0.4623206556 -0.886711359
v 0.2165368348 -0.02162788995 -0.1391993761 1 1 1
vn 0.2273101807 0.1298221201 -0.9651302099
v 0.003061888507 0.4394148886 -0.08592052758 1 1 1
vn -0.4759495556 0.87924546 -0.01998542249
v 0.003039172851 0.4330186546 -0.1016305089 1 1 1
vn 0.002712407615 0.7770867348 -0.6293876767
v -0.2501034141 0.00110336754 -0.09699484706 1 1 1
vn -0.8313149214 0.4830805063 -0.2748612761
v 0.5015410781 -0.439399004 0.1043881774 1 1 1
vn 0.8200582266 0.4177154303 0.3911755979
v 0.5061247945 -0.4394149482 0.08736915141 1 1 1
vn 0.4766357243 -0.8790422082 0.0101564955
v -0.4544157684 -0.4360619783 -0.1386749744 1 1 1
vn -0.01348853298 -0.0619376041 -0.9979888797
v -0.4813786447 -0.4359679818 -0.1274629235 1 1 1
vn -0.5282455087 0.2954375446 -0.796036005
v -0.4983558357 -0.4359085262 -0.1095473617 1 1 1
vn -0.766877234 0.4166626334 -0.4881511927
v -0.5061245561 -0.4358814657 -0.08736900985 1 1 1
vn -0.4389995039 -0.8983983994 -0.01264003105
v 0.2165368348 -0.02162788995 0.1391995102 1 1 1
vn 0.2273128182 0.1298237294 0.9651293755
v 0.2531605661 -0.0006532211555 0.09699498862 1 1 1
vn 0.8377448916 0.4797281027 0.2608532906
v 0.2479867488 -0.003616633825 0.1113901213 1 1 1
vn 0.7488911152 0.4291369915 0.504978776
v 0.2397555113 -0.008330593817 0.1237517297 1 1 1
vn 0.5970770121 0.3415439725 0.7258421183
v 0.2290289253 -0.01447394211 0.1332369298 1 1 1
vn 0.4621982574 0.2659373879 0.8459610343
v 0.2397555113 -0.008330593817 -0.1237515882 1 1 1
vn 0.5970776677 0.3415443897 -0.725841403
v 0.4908860624 -0.4393617809 0.1192294061 1 1 1
vn 0.6600180268 0.3511914611 0.6641089916
v -0.2501034141 0.00110336754 0.09699498862 1 1 1
vn -0.8313148022 0.4830804765 0.2748616338
v 0.4701994359 -0.4392895401 0.1339321584 1 1 1
vn 0.4214983582 0.2329093218 0.8764088154
v 0.4445903301 -0.4392001033 0.1406600773 1 1 1
vn 0.00322747021 -0.1413887441 0.9899488688
v -0.4544157684 -0.4360619783 0.138674885 1 1 1
vn -0.01348853298 -0.0619376041 0.9979888797
v 0.002647692105 0.3207599819 0.1412335187 1 1 1
vn -0.001139805885 0.002378806472 0.9999965429
v -0.4813786447 -0.4359679818 0.1274630576 1 1 1
vn -0.5282444954 0.2954368293 0.7960369587
v 0.002806700999 0.3664416671 0.1366899312 1 1 1
vn 0.0007971749874 0.2283796519 0.9735718369
v -0.4983558357 -0.4359085262 0.1095475033 1 1 1
vn -0.766877234 0.4166625738 0.4881511927
v -0.2367519736 -0.006667283829 0.1237517297 1 1 1
vn -0.6276860237 0.3649165928 0.6876380444
v -0.5061245561 -0.4358814657 0.08736915141 1 1 1
vn -0.9630268812 -0.2689944506 0.01487213187
v 0.003039172851 0.4330186546 0.101630412 1 1 1
vn 0.002712407615 0.7770867348 0.6293876767
v 0.2479867488 -0.003616633825 -0.1113899797 1 1 1
vn 0.7488908768 0.4291368127 -0.5049793124
v -0.2449498773 -0.00189605169 0.1113901213 1 1 1
vn -0.7483905554 0.4356584549 0.5001133084
v 0.003061888507 0.4394148886 0.08592067659 1 1 1
vn 0.4820764065 0.8759012222 0.01998542808
v 0.002968126442 0.4125915766 0.1192294061 1 1 1
vn 0.001613750472 0.4623199999 0.8867117167
v -0.2260684222 -0.01288530324 0.1332369298 1 1 1
vn -0.4415152669 0.2569084466 0.8596873283
v -0.2136270553 -0.02012648992 0.1391995102 1 1 1
vn -0.2208345234 0.1282108873 0.9668474793
v -0.2260684222 -0.01288530324 -0.1332367808 1 1 1
vn -0.4415173829 0.256909579 -0.8596858978
v -0.2449498773 -0.00189605169 -0.1113899797 1 1 1
vn -0.7483902574 0.4356582463 -0.5001139641
v -0.2367519736 -0.006667283829 -0.1237515882 1 1 1
vn -0.6276860237 0.3649165928 -0.6876380444
v -0.2136270553 -0.02012648992 -0.1391993761 1 1 1
vn -0.2208333462 0.1282100827 -0.9668478966
v 0.2531605661 -0.0006532211555 -0.09699484706 1 1 1
vn 0.8377450109 0.4797281325 -0.2608529329
v 0.4701994359 -0.4392895401 -0.1339322627 1 1 1
vn 0.4214983582 0.2329093218 -0.8764088154
v 0.4908860624 -0.4393617809 -0.1192292571 1 1 1
vn 0.6600189209 0.3511918187 -0.6641079187
v 0.4445903301 -0.4392001033 -0.1406599283 1 1 1
vn 0.003227527719 -0.1413888782 -0.9899488688
v 0.5015410781 -0.439399004 -0.1043880284 1 1 1
vn 0.8200582266 0.4177154303 -0.3911755979
v 0.5061247945 -0.4394149482 -0.08736900985 1 1 1
vn 0.9889868498 -0.147586599 -0.01109833084
# mm_gid 0
g mmGroup0
f 26//26 25//25 24//24 
f 48//48 35//35 10//10 
f 6//6 35//35 48//48 
f 6//6 31//31 35//35 
f 14//14 31//31 6//6 
f 23//23 15//15 24//24 
f 23//23 19//19 15//15 
f 23//23 18//18 19//19 
f 21//21 18//18 23//23 
f 21//21 17//17 18//18 
f 9//9 17//17 21//21 
f 9//9 16//16 17//17 
f 10//10 16//16 9//9 
f 35//35 16//16 10//10 
f 32//32 16//16 35//35 
f 32//32 17//17 16//16 
f 36//36 17//17 32//32 
f 36//36 18//18 17//17 
f 36//36 19//19 18//18 
f 28//28 19//19 36//36 
f 28//28 15//15 19//19 
f 26//26 15//15 28//28 
f 24//24 15//15 26//26 
f 29//29 22//22 31//31 
f 29//29 34//34 22//22 
f 29//29 30//30 34//34 
f 27//27 30//30 29//29 
f 27//27 37//37 30//30 
f 25//25 37//37 27//27 
f 25//25 38//38 37//37 
f 26//26 38//38 25//25 
f 28//28 38//38 26//26 
f 28//28 37//37 38//38 
f 36//36 37//37 28//28 
f 36//36 30//30 37//37 
f 36//36 34//34 30//30 
f 32//32 34//34 36//36 
f 32//32 22//22 34//34 
f 35//35 22//22 32//32 
f 35//35 31//31 22//22 
f 25//25 29//29 31//31 
f 27//27 29//29 25//25 
f 24//24 21//21 23//23 
f 24//24 9//9 21//21 
f 24//24 10//10 9//9 
f 31//31 24//24 25//25 
f 31//31 10//10 24//24 
f 14//14 10//10 31//31 
f 48//48 10//10 14//14 
f 11//11 13//13 12//12 
f 14//14 13//13 11//11 
f 45//45 46//46 44//44 
f 47//47 46//46 45//45 
f 48//48 46//46 47//47 
f 14//14 46//46 48//48 
f 14//14 11//11 46//46 
f 11//11 3//3 46//46 
f 11//11 39//39 42//42 
f 12//12 39//39 11//11 
f 12//12 41//41 39//39 
f 13//13 41//41 12//12 
f 13//13 40//40 41//41 
f 13//13 8//8 40//40 
f 14//14 8//8 13//13 
f 6//6 8//8 14//14 
f 7//7 8//8 6//6 
f 7//7 40//40 8//8 
f 4//4 40//40 7//7 
f 4//4 41//41 40//40 
f 4//4 39//39 41//41 
f 1//1 39//39 4//4 
f 1//1 42//42 39//39 
f 3//3 42//42 1//1 
f 11//11 42//42 3//3 
f 47//47 43//43 48//48 
f 47//47 33//33 43//43 
f 45//45 33//33 47//47 
f 45//45 20//20 33//33 
f 44//44 20//20 45//45 
f 44//44 2//2 20//20 
f 44//44 5//5 2//2 
f 46//46 5//5 44//44 
f 3//3 5//5 46//46 
f 1//1 5//5 3//3 
f 1//1 2//2 5//5 
f 4//4 2//2 1//1 
f 4//4 20//20 2//2 
f 4//4 33//33 20//20 
f 7//7 33//33 4//4 
f 7//7 43//43 33//33 
f 6//6 43//43 7//7 
f 6//6 48//48 43//43 
