v -0.05494241789 0.2403831929 0.1920420676 1 1 1
vn -0.6682849526 0.5572658181 0.4927981794
v -0.06649501622 0.2816276252 -0.103892073 1 1 1
vn -0.6904655099 0.6830989718 -0.2379773408
v -0.113530457 0.2403831929 0.06582113355 1 1 1
vn -0.7728974223 0.6237267852 0.1165955812
v 0.1002673358 0.3132745028 0.2231504023 1 1 1
vn -0.2396432608 0.8169619441 0.5245420337
v 0.2449009567 0.2816276252 0.2727608383 1 1 1
vn 0.1729650348 0.7222152948 0.6696926355
v 0.4200277627 0.2816276252 0.1559600532 1 1 1
vn 0.6242860556 0.7021695375 0.3423811793
v 0.1732516885 0.2403831929 -0.307918191 1 1 1
vn -0.06299585849 0.6096410751 -0.7901704311
v -0.07983545959 0.1991387755 -0.2052200139 1 1 1
vn -0.687210083 0.4996823072 -0.5273138285
v -0.163856566 0.1511110961 -0.06914270669 1 1 1
vn -0.8934874535 0.3972649276 -0.2094295621
v 0.06060252711 0.1991387755 0.318905741 1 1 1
vn -0.2982570231 0.5588291883 0.7737911344
v 0.09189813584 -0.3847192526 -0.02371862344 1 1 1
vn -0.2413233519 -0.9434369802 -0.2273537368
v 0.08838976175 -0.3847192526 0.002961469349 1 1 1
vn -0.06510511041 -0.9955260158 0.06847827137
v 0.1914745122 0.3982873261 0.002961469349 1 1 1
vn 4.085517176e-17 1 1.167290563e-17
v 0.2312994301 -0.3847192526 -0.08557499945 1 1 1
vn 0.02221825533 -0.96111691 -0.2752465606
v 0.1556480527 0.3847123682 -0.07731177658 1 1 1
vn -0.1029034704 0.9696503878 -0.2217859775
v 0.2800086141 0.3847123682 -0.03686465323 1 1 1
vn 0.2452750504 0.9661871195 -0.07951461524
v 0.2397446185 0.3847123682 0.07989981771 1 1 1
vn 0.05681436509 0.9614953995 0.2688843012
v 0.1109877974 0.3847123682 0.05328053609 1 1 1
vn -0.2042034566 0.9623978138 0.1791408062
v 0.2872998416 -0.3847192526 0.01851570792 1 1 1
vn 0.1808657646 -0.983156383 0.02628980763
v 0.3822496533 0.3449213505 -0.03481693566 1 1 1
vn 0.5774376392 0.811855197 -0.08635317534
v 0.3116667867 0.3449213505 -0.1536779553 1 1 1
vn 0.3259271681 0.8486923575 -0.4165246785
v 0.204358533 0.3449213505 -0.1910925806 1 1 1
vn 0.01123278122 0.8308335543 -0.5564076304
v 0.06336526573 0.3449213505 -0.1433669627 1 1 1
vn -0.2864178717 0.8537356853 -0.4348565638
v -0.004279237706 0.3449213505 -0.02280952036 1 1 1
vn -0.481928885 0.8740556836 -0.06141041964
v 0.01697291993 0.3449213505 0.0888293758 1 1 1
vn -0.4897236228 0.8213332891 0.2925446033
v 0.2292521 0.3449213505 0.1937384754 1 1 1
vn 0.09694585204 0.8788454533 0.4671532512
v 0.3530857563 0.3449213505 0.1111477688 1 1 1
vn 0.3847275078 0.8702854514 0.3075515628
v 0.4994146824 0.2403831929 -0.03757974133 1 1 1
vn 0.7802845836 0.6244942546 -0.03410080448
v 0.4378856719 0.2403831929 -0.1861190051 1 1 1
vn 0.6698608398 0.5994693637 -0.4380901456
v 0.3103337884 0.2403831929 -0.2839942873 1 1 1
vn 0.3695181906 0.5914500356 -0.7166889906
v 0.02149300091 0.2816276252 -0.2185600549 1 1 1
vn -0.3994021118 0.6731659174 -0.6223548651
v -0.113530457 -0.240390107 0.06582113355 1 1 1
vn -0.8034907579 -0.5687921047 0.1757217199
v 0.02149300091 -0.2816345096 -0.2185600549 1 1 1
vn -0.4885667861 -0.7266396284 -0.4830086827
v 0.09189813584 -0.3847192526 0.02964169346 1 1 1
vn -0.1433400363 -0.9598192573 0.2412481755
v 0.2577860057 -0.3132814169 -0.2238974273 1 1 1
vn 0.1677247733 -0.7897049189 -0.5901140571
v 0.1550288647 -0.2816345096 -0.273871541 1 1 1
vn -0.1070445403 -0.7343451977 -0.6702824831
v 0.07261155546 -0.240390107 0.2899172902 1 1 1
vn -0.2905229926 -0.5362023115 0.7925171852
v 0.3374369144 -0.1030860916 -0.3494283557 1 1 1
vn 0.3886075318 -0.2566097081 -0.8849495053
v 0.04550579563 -0.1030860916 -0.3494283557 1 1 1
vn -0.3681240082 -0.2851027548 -0.8849865198
v -0.163856566 -0.1511158943 -0.06914270669 1 1 1
vn -0.8777965903 -0.434240818 -0.2022575289
v -0.1111321151 -0.1030860916 0.235157758 1 1 1
vn -0.7548854351 -0.3189580739 0.5730739236
v 0.4236686826 -0.1030860916 0.3055656552 1 1 1
vn 0.5742923617 -0.3248133361 0.7514549494
v 0.5074163079 -0.1991456896 -0.1279068291 1 1 1
vn 0.8119213581 -0.4602751434 -0.3590689301
v 0.2361095101 -0.1991456896 -0.3360883296 1 1 1
vn 0.08946033567 -0.4776262343 -0.8739966154
v -0.07983545959 -0.1991456896 -0.2052200139 1 1 1
vn -0.6887173057 -0.5969385505 -0.4115006924
v 0.5305225849 -0.1991456896 0.04759824648 1 1 1
vn 0.8714277744 -0.4853705168 0.07091632485
v 0.4129931331 -0.2816345096 -0.1670180112 1 1 1
vn 0.5313953757 -0.7459236383 -0.4015181661
v 0.2320148349 -0.240390107 0.3109030426 1 1 1
vn 0.1487017721 -0.6458606124 0.7488336563
v 0.5562926531 -1.347347279e-06 0.1540753543 1 1 1
vn 0.9249134064 0.02363619022 0.3794423044
v 0.5696320534 -0.1030860916 -0.04682435095 1 1 1
vn 0.9583656788 -0.2582675815 -0.121791102
v -0.1111321151 -0.1030860916 -0.2292347699 1 1 1
vn -0.7348432541 -0.2699232399 -0.6222112179
v -0.1866883337 -0.1030860916 0.05274735764 1 1 1
vn -0.9271606803 -0.2753756642 0.2540498972
v 0.2412595451 -0.1030860916 0.3811225295 1 1 1
vn 0.108346723 -0.3207098246 0.9409602284
v 0.5438619852 -0.1030860916 0.1489261687 1 1 1
vn 0.8765533566 -0.2961988151 0.3793685734
v 0.3996526897 -0.1991456896 -0.268345952 1 1 1
vn 0.5333049893 -0.4911161959 -0.688760221
v 0.06060252711 -0.1991456896 -0.312982738 1 1 1
vn -0.3795740008 -0.4764685333 -0.7930330038
v -0.05494241789 -0.240390107 0.1920420676 1 1 1
vn -0.5636072159 -0.5877684355 0.5804094672
v 0.4683068097 -0.2816345096 -0.03348423913 1 1 1
vn 0.6933500171 -0.7190527916 -0.04721056297
v 0.3805527687 -0.240390107 0.2493760735 1 1 1
vn 0.5018774271 -0.6202210784 0.6028638482
v 0.2430147827 -1.347347279e-06 0.3944625258 1 1 1
vn 0.1384159476 0.002769519575 0.9903703332
v 0.4318611622 -1.347347279e-06 0.3162404001 1 1 1
vn 0.5736677051 -0.02185262553 0.8187965751
v 0.3805527687 -0.3449282646 0.02785444446 1 1 1
vn 0.5063565373 -0.8599336147 0.06416552514
v 0.2617868483 -0.3648237288 0.1314183921 1 1 1
vn 0.2272045463 -0.8872333765 0.4014909565
v 0.1184901595 -0.3449282646 0.179156512 1 1 1
vn -0.2023618221 -0.8471849561 0.4912507832
v 0.07537323982 -0.3449282646 -0.1483405679 1 1 1
vn -0.2134406418 -0.8915397525 -0.3994995654
v 0.3195784986 -0.3449282646 -0.1433669627 1 1 1
vn 0.3745170534 -0.8836658597 -0.2808408439
v 0.4698128104 -0.240390107 0.1426199228 1 1 1
vn 0.6237650514 -0.6956768036 0.3563017845
v 0.06694778055 -0.05154372007 0.371514231 1 1 1
vn -0.3577807546 -0.2534609437 0.8987494111
v -0.04891423881 -1.347347279e-06 0.3162404001 1 1 1
vn -0.5649479628 0.009903608821 0.8250671029
v 0.3374369144 0.1030834019 -0.3494283557 1 1 1
vn 0.3334409595 0.329793334 -0.8832063675
v 0.1416863203 0.1030834019 -0.3751994073 1 1 1
vn -0.07189350575 0.2790441215 -0.9575832486
v -0.1111321151 0.1030834019 -0.2292347699 1 1 1
vn -0.7689721584 0.2460092753 -0.5900518894
v -0.1475777626 0.05154102668 0.1987120658 1 1 1
vn -0.8657931089 0.1415154785 0.4799746275
v 0.1416863203 0.1030834019 0.3811225295 1 1 1
vn -0.1698069125 0.212502256 0.9622933269
v 0.4940769374 0.1030834019 0.235157758 1 1 1
vn 0.7350167036 0.251126647 0.6298300028
v 0.5152381659 -0.05154372007 -0.2127082944 1 1 1
vn 0.8117297888 -0.1733895391 -0.5577013493
v 0.2430147827 -1.347347279e-06 -0.3885395825 1 1 1
vn 0.2025677413 0.0133997146 -0.9791765809
v -0.04891423881 -1.347347279e-06 -0.3103172481 1 1 1
vn -0.5802564621 0.03514376283 -0.8136752248
v -0.2000277191 -1.347347279e-06 0.05450358242 1 1 1
vn -0.9991959929 -0.03156447783 0.02471867204
v 0.5696320534 0.1030834019 -0.04682435095 1 1 1
vn 0.9386338592 0.3201385438 -0.1283658594
v 0.4940769374 0.1030834019 -0.2292347699 1 1 1
vn 0.7599288821 0.2930737436 -0.580186069
v 0.0298579894 0.1511110961 -0.3215972781 1 1 1
vn -0.4204592407 0.3302607238 -0.84506917
v -0.1866883337 0.1030834019 0.05274735764 1 1 1
vn -0.9395648241 0.3061998785 0.1531653404
v -0.04072488099 0.1030834019 0.3055656552 1 1 1
vn -0.581156373 0.3079903126 0.7532591224
v 0.3374369144 0.1030834019 0.3553515375 1 1 1
vn 0.3701401651 0.2539264262 0.8935981393
v 0.5829725266 -1.347347279e-06 -0.04858057573 1 1 1
vn 0.9901986122 0.0003621554933 -0.1396658123
v 0.4318611622 -1.347347279e-06 -0.3103172481 1 1 1
vn 0.5637268424 -0.0004653426295 -0.8259611726
v 0.1399321407 -0.05154372007 -0.3817539513 1 1 1
vn -0.174755469 -0.08714273572 -0.9807479978
v -0.1733478904 -1.347347279e-06 -0.1481522173 1 1 1
vn -0.9428278804 0.01010548323 -0.3331267834
v 0.3996526897 0.1991387755 0.274268955 1 1 1
vn 0.5334721208 0.5391192436 0.6517345905
v 0.5352472663 0.1511110961 0.1181815714 1 1 1
vn 0.8551898599 0.4376549423 0.2776840329
v 0.2361095101 0.1991387755 0.3420114517 1 1 1
vn 0.1129163727 0.5016224384 0.8576857448
v -0.007671927102 -0.3449282646 0.002961469349 1 1 1
vn -0.6411480308 -0.7398170829 -0.2039603442
v -0.0008865484851 -0.3449282646 0.05450357869 1 1 1
vn -0.4912767112 -0.816619873 0.3029507399
# mm_gid 1
g mmGroup1
f 13//13 16//16 15//15 
f 13//13 18//18 17//17 
f 12//12 11//11 14//14 
f 41//41 32//32 57//57 
f 68//68 41//41 57//57 
f 57//57 37//37 68//68 
f 53//53 68//68 37//37 
f 37//37 48//48 53//53 
f 42//42 53//53 48//48 
f 48//48 59//59 42//42 
f 54//54 42//42 59//59 
f 59//59 67//67 54//54 
f 49//49 54//54 86//86 
f 80//80 49//49 86//86 
f 28//28 80//80 29//29 
f 31//31 7//7 82//82 
f 82//82 8//8 31//31 
f 2//2 31//31 8//8 
f 18//18 24//24 25//25 
f 24//24 3//3 25//25 
f 24//24 2//2 3//3 
f 2//2 9//9 3//3 
f 2//2 8//8 9//9 
f 8//8 72//72 9//9 
f 82//82 72//72 8//8 
f 82//82 7//7 71//71 
f 70//70 71//71 7//7 
f 7//7 30//30 70//70 
f 81//81 70//70 30//30 
f 30//30 29//29 81//81 
f 29//29 80//80 81//81 
f 80//80 86//86 81//81 
f 86//86 54//54 50//50 
f 54//54 46//46 50//50 
f 54//54 67//67 46//46 
f 32//32 94//94 57//57 
f 32//32 93//93 94//94 
f 94//94 64//64 57//57 
f 37//37 57//57 64//64 
f 48//48 37//37 64//64 
f 64//64 63//63 48//48 
f 59//59 48//48 63//63 
f 67//67 59//59 63//63 
f 63//63 62//62 67//67 
f 86//86 50//50 76//76 
f 81//81 86//86 76//76 
f 76//76 87//87 81//81 
f 70//70 81//81 87//87 
f 87//87 77//77 70//70 
f 71//71 70//70 77//77 
f 94//94 12//12 34//34 
f 77//77 88//88 71//71 
f 82//82 71//71 88//88 
f 93//93 11//11 12//12 
f 93//93 12//12 94//94 
f 88//88 78//78 82//82 
f 72//72 82//82 78//78 
f 78//78 89//89 72//72 
f 72//72 89//89 9//9 
f 25//25 4//4 18//18 
f 17//17 18//18 4//4 
f 4//4 26//26 17//17 
f 26//26 27//27 17//17 
f 16//16 13//13 17//17 
f 17//17 27//27 16//16 
f 5//5 6//6 27//27 
f 27//27 26//26 5//5 
f 4//4 5//5 26//26 
f 4//4 25//25 1//1 
f 25//25 3//3 1//1 
f 9//9 83//83 3//3 
f 9//9 89//89 83//83 
f 89//89 78//78 51//51 
f 39//39 51//51 78//78 
f 78//78 88//88 39//39 
f 38//38 88//88 77//77 
f 77//77 87//87 38//38 
f 76//76 38//38 87//87 
f 50//50 43//43 76//76 
f 50//50 46//46 43//43 
f 46//46 58//58 43//43 
f 46//46 67//67 58//58 
f 67//67 62//62 58//58 
f 62//62 63//63 19//19 
f 34//34 63//63 64//64 
f 64//64 94//94 34//34 
f 12//12 63//63 34//34 
f 12//12 19//19 63//63 
f 43//43 55//55 76//76 
f 38//38 76//76 55//55 
f 55//55 44//44 38//38 
f 88//88 38//38 44//44 
f 39//39 88//88 44//44 
f 44//44 56//56 39//39 
f 51//51 39//39 56//56 
f 56//56 45//45 51//51 
f 51//51 45//45 40//40 
f 89//89 51//51 40//40 
f 89//89 40//40 79//79 
f 83//83 89//89 79//79 
f 3//3 83//83 1//1 
f 1//1 10//10 4//4 
f 5//5 4//4 10//10 
f 10//10 92//92 5//5 
f 92//92 90//90 5//5 
f 6//6 5//5 90//90 
f 90//90 91//91 6//6 
f 27//27 6//6 20//20 
f 16//16 27//27 20//20 
f 20//20 6//6 28//28 
f 6//6 91//91 28//28 
f 91//91 90//90 75//75 
f 85//85 75//75 90//90 
f 90//90 92//92 85//85 
f 74//74 85//85 92//92 
f 92//92 10//10 74//74 
f 84//84 74//74 10//10 
f 10//10 1//1 84//84 
f 73//73 84//84 1//1 
f 1//1 83//83 73//73 
f 83//83 79//79 73//73 
f 79//79 40//40 52//52 
f 45//45 93//93 40//40 
f 33//33 93//93 45//45 
f 45//45 56//56 33//33 
f 36//36 33//33 56//56 
f 56//56 44//44 36//36 
f 35//35 36//36 44//44 
f 44//44 55//55 35//35 
f 47//47 35//35 55//55 
f 55//55 43//43 47//47 
f 43//43 58//58 47//47 
f 58//58 62//62 47//47 
f 62//62 19//19 66//66 
f 47//47 62//62 66//66 
f 35//35 47//47 66//66 
f 35//35 65//65 36//36 
f 33//33 36//36 65//65 
f 93//93 33//33 65//65 
f 79//79 52//52 73//73 
f 73//73 69//69 84//84 
f 74//74 84//84 69//69 
f 69//69 68//68 74//74 
f 68//68 60//60 74//74 
f 85//85 74//74 60//60 
f 60//60 61//61 85//85 
f 75//75 85//85 61//61 
f 61//61 49//49 75//75 
f 75//75 49//49 91//91 
f 20//20 21//21 16//16 
f 15//15 16//16 21//21 
f 21//21 22//22 15//15 
f 22//22 23//23 15//15 
f 18//18 13//13 15//15 
f 15//15 24//24 18//18 
f 15//15 23//23 24//24 
f 23//23 2//2 24//24 
f 31//31 2//2 23//23 
f 7//7 31//31 23//23 
f 23//23 22//22 7//7 
f 30//30 7//7 22//22 
f 22//22 21//21 30//30 
f 29//29 30//30 21//21 
f 21//21 20//20 29//29 
f 20//20 28//28 29//29 
f 28//28 91//91 80//80 
f 91//91 49//49 80//80 
f 42//42 54//54 49//49 
f 49//49 61//61 42//42 
f 53//53 42//42 61//61 
f 61//61 60//60 53//53 
f 68//68 53//53 60//60 
f 41//41 68//68 69//69 
f 69//69 73//73 41//41 
f 73//73 52//52 41//41 
f 52//52 32//32 41//41 
f 52//52 40//40 32//32 
f 40//40 93//93 32//32 
f 65//65 11//11 93//93 
f 14//14 11//11 65//65 
f 65//65 35//35 14//14 
f 35//35 66//66 14//14 
f 66//66 19//19 14//14 
f 19//19 12//12 14//14 
