v -1.530070222e-07 0.4714475572 0.1104389131 1 1 1
vn 0.02105576172 0.9969127774 0.07564087957
v -0.07135559618 0.4867653847 0.114239648 1 1 1
vn -0.7252304554 -0.6834040284 0.08366467804
v 0.2722007036 0.4084861577 0.1104389131 1 1 1
vn 0.5278571844 0.8435104489 0.09928166121
v 0.006792639382 0.4658256471 0.114239648 1 1 1
vn 0.1644680798 -0.981834054 0.09461598843
v -0.4997433126 -0.3383975029 -0.1223008484 1 1 1
vn -0.6467585564 0.004233958665 -0.7626830935
v 0.09442522377 0.5286147594 0.1043052375 1 1 1
vn 0.9271760583 -0.3726955056 0.0379812941
v -0.07752204686 0.6001750231 0.1384909302 1 1 1
vn -0.1078875437 0.05529352278 0.9926242232
v 0.04518450424 0.6286890507 0.1381463557 1 1 1
vn 0.133989498 0.1369267106 0.9814773798
v 0.001451392542 0.4869837761 0.1372660697 1 1 1
vn 0.04465404525 -0.3125786781 0.948841691
v -0.08833179623 0.533438921 0.1345546842 1 1 1
vn -0.45769611 -0.1754281968 0.8716301918
v -0.04182008654 0.5226206183 0.1407869607 1 1 1
vn -0.03326627985 -0.03499738872 0.9988335967
v -0.04506196454 0.4912234247 0.1345546842 1 1 1
vn -0.2211368084 -0.5084809661 0.8321932554
v 0.05869296566 0.5352730155 0.1390263736 1 1 1
vn 0.0830983296 -0.02485763654 0.9962312579
v -0.0284691751 0.6517587304 0.1354349703 1 1 1
vn -0.1540394127 0.3388921022 0.9281293154
v 0.10065943 0.584641397 0.1081875041 1 1 1
vn 0.987947762 0.1503894776 0.03663692251
v 0.05982886255 0.4835285842 0.1043052375 1 1 1
vn 0.5901243687 -0.8067550063 0.02999294363
v 0.4690071344 0.07301347703 0.1377684623 1 1 1
vn 0.022317959 0.0002494069049 0.9997509122
v 0.4911620915 0.1231295317 0.1104389131 1 1 1
vn 0.9553664327 0.2264059186 0.1897772104
v 0.4442135394 0.2364725173 0.1104389131 1 1 1
vn 0.8788923621 0.466573894 0.09928251803
v -0.03503115103 0.466034025 0.1120700464 1 1 1
vn -0.2933596671 -0.95459342 0.05187924951
v 0.3695297241 0.3338023722 0.1104389131 1 1 1
vn 0.7168438435 0.6693549156 0.1951894015
v -0.1053867638 0.5297597647 0.1131547093 1 1 1
vn -0.9518224001 -0.3033834696 0.04463884607
v 0.1588567644 0.4554342926 0.1104389131 1 1 1
vn 0.262260586 0.9526289701 0.1540047079
v -0.09119081497 0.6263186932 0.1219565272 1 1 1
vn -0.8188812733 0.5532194376 0.1529106349
v -0.03503115103 0.6752230525 0.1120700464 1 1 1
vn -0.2690907717 0.9569786191 0.108545348
v 0.04630442336 0.66296345 0.114239648 1 1 1
vn 0.5202987194 0.842813611 0.1376752704
v 0.005267827772 0.6676825881 0.1280086786 1 1 1
vn 0.1115089357 0.6154477 0.7802498937
v 0.07685793936 0.6349788904 0.114239648 1 1 1
vn 0.8089753985 0.5786508918 0.1035471335
v 0.08746441454 0.5714325905 0.1293643713 1 1 1
vn 0.5940859318 0.0403572768 0.803388536
v 0.007008030079 0.6782929301 0.1081875041 1 1 1
vn 0.1937052906 0.9809982777 0.01098181494
v -0.07236038893 0.655801177 0.1120700464 1 1 1
vn -0.562458992 0.8241261244 0.06675303727
v -0.1118077189 0.5844259858 0.114239648 1 1 1
vn -0.9760744572 0.1783323139 0.1244034171
v 0.04440557212 0.4926395714 0.130720064 1 1 1
vn 0.3152055442 -0.5622344017 0.7645508051
v 0.07362157106 0.5087616444 0.1241740584 1 1 1
vn 0.6386607289 -0.3830365241 0.6673795581
v -0.07861993462 0.6033732295 -0.1390385181 1 1 1
vn -0.1842775792 0.1138325334 -0.9762601852
v 0.0688323006 0.5872868299 -0.1390385181 1 1 1
vn 0.142539233 0.03359821439 -0.9892187715
v -0.005301737227 0.4900423586 -0.1376828253 1 1 1
vn 0.05575861409 -0.3423108757 -0.9379308224
v -0.08527335525 0.5507761836 -0.1385151893 1 1 1
vn -0.1238011569 -0.03870840743 -0.9915517569
v -0.09933985025 0.6239380836 -0.115132086 1 1 1
vn -0.8755427003 0.4797930717 -0.05677698553
v -0.02222119458 0.6635220051 -0.1316507757 1 1 1
vn -0.1672691703 0.5402992964 -0.8246803284
v 0.5090786219 0.001497453195 -0.1088507771 1 1 1
vn 0.9973099828 0.02114665881 -0.07018245757
v 0.09065560997 0.6110807657 -0.115132086 1 1 1
vn 0.901224494 0.4174610972 -0.1162781864
v 0.07685793936 0.5062779188 -0.115132086 1 1 1
vn 0.7740291953 -0.6173080206 -0.1407467723
v -0.02080270089 0.464993149 -0.1140471399 1 1 1
vn -0.09102357179 -0.9891157746 -0.1156059876
v -0.1046656743 0.5301759243 -0.115132086 1 1 1
vn -0.8907580376 -0.4469596148 -0.08232374489
v -0.02133484185 0.6782512069 -0.1090799347 1 1 1
vn -0.1246546283 0.9904558063 -0.05880894512
v -0.07322635502 0.4845894277 -0.1090799347 1 1 1
vn -0.5828227401 -0.8109149337 -0.05229334906
v 0.03344709054 0.4729677141 -0.115132086 1 1 1
vn 0.3607389033 -0.9276196361 -0.09689834714
v 0.09779820591 0.5568309426 -0.115132086 1 1 1
vn 0.9822434187 -0.1236104965 -0.1411322355
v 0.03778905794 0.6550619006 -0.1297334731 1 1 1
vn 0.3231011629 0.522952795 -0.7887496352
v -0.07135559618 0.6544916034 -0.115132086 1 1 1
vn -0.6426942348 0.7551869154 -0.1289836168
v -0.1118077189 0.5844259858 -0.115132086 1 1 1
vn -0.9945215583 0.0007783357869 -0.1045287922
v -0.06690455973 0.5025129914 -0.133529529 1 1 1
vn -0.3455654085 -0.4618005753 -0.8168994784
v 0.05716870725 0.5200049281 -0.1385151893 1 1 1
vn 0.1585618705 -0.1137004495 -0.9807804823
v -0.003931720275 0.6408395171 -0.1407869756 1 1 1
vn 0.02392029949 0.1246926785 -0.9919070005
v 0.05228578299 0.6596276164 -0.1090799347 1 1 1
vn 0.5204299688 0.852737546 -0.0446241498
v -0.259786576 0.3869844377 -0.1361591071 1 1 1
vn -0.09681745619 0.1737409085 -0.9800206423
v -0.4690074623 0.07301347703 -0.1386606246 1 1 1
vn -0.02375405654 0.0009061938617 -0.9997174144
v -0.4823473394 -0.6782929897 -0.1361591071 1 1 1
vn -0.005920519121 -0.02915368974 -0.9995574355
v -0.5090789199 -0.6782929897 -0.1088507771 1 1 1
vn -0.3363965154 -0.9416859746 -0.008057298139
v -0.507175684 0.001497453195 -0.1113310754 1 1 1
vn -0.9992582798 0.003391292412 -0.0383592993
v 0.4930008948 0.1236221492 -0.1088507771 1 1 1
vn 0.9493350387 0.3007073402 -0.09131296724
v 0.4823470414 -0.6782929897 0.1352669597 1 1 1
vn 0.007857938297 -0.02871836908 0.9995566607
v 0.4442135394 0.2364725173 -0.1113310754 1 1 1
vn 0.8366748691 0.5156840086 -0.1845134348
v 0.1588567644 0.4554342926 -0.1113310754 1 1 1
vn 0.1825667769 0.9783183336 -0.09778855741
v -0.1588570774 0.4554342926 -0.1113310754 1 1 1
vn -0.2474475652 0.9601796865 -0.1297100484
v -1.530070222e-07 0.4714475572 -0.1113310754 1 1 1
vn -0.03314748406 0.9831953049 -0.1795222908
v 0.2722007036 0.4084861577 -0.1113310754 1 1 1
vn 0.4628245831 0.8658695817 -0.1899031699
v 0.3708760738 0.3351481259 -0.1088507771 1 1 1
vn 0.6747908592 0.7320900559 -0.09328173846
v -0.4935212135 -0.6782929897 0.1238044277 1 1 1
vn -0.4036910236 -0.3418053091 0.8486475348
v 0.5090786219 -0.6782929897 0.1079586148 1 1 1
vn 0.3339201212 -0.9425380826 0.0109216217
v -1.530070222e-07 0.4441392422 0.1371702105 1 1 1
vn -0.00264030043 0.03226251155 0.999475956
v -0.2731518149 0.4101343751 -0.1088507771 1 1 1
vn -0.5333635807 0.8422948718 -0.07786276937
v -0.3695305884 0.3338023722 -0.1113310754 1 1 1
vn -0.7306682467 0.6673406363 -0.1441541016
v -0.4442144036 0.2364725173 -0.1113310754 1 1 1
vn -0.8814771175 0.4622744322 -0.09643886238
v -0.4911623895 0.1231295317 -0.1113310754 1 1 1
vn -0.9553765059 0.2311772555 -0.1838824451
v 0.5071747899 0.001497453195 0.1104389131 1 1 1
vn 0.9990759492 0.004745653365 0.04271739349
v 0.2051673979 0.4069464803 0.1371702105 1 1 1
vn 0.07306611538 0.1467641145 0.9864692688
v -0.15736036 0.4498473704 0.1192605644 1 1 1
vn -0.1791239083 0.9713442922 0.1562205702
v -0.44267416 0.1694398969 0.1371702105 1 1 1
vn -0.3819052279 0.1581903398 0.9105625749
v 0.499743551 -0.3383975029 0.121408686 1 1 1
vn 0.6467586756 0.004233947489 0.7626829147
v -0.4997433126 -0.3383975029 0.121408686 1 1 1
vn -0.7146171331 -4.866707968e-05 0.6995158195
v -0.2336323261 0.3978178501 0.1352669597 1 1 1
vn -0.04052547365 0.08276309818 0.9957449436
v -0.3519743383 0.3162462413 0.1352669597 1 1 1
vn -0.1826643199 0.182818383 0.9660285711
v -0.4823473394 0.001497453195 0.1352669597 1 1 1
vn -0.01735688373 -0.006491992157 0.999828279
v 0.495713383 -0.6782929897 -0.1225049421 1 1 1
vn 0.3805093765 -0.3212632835 -0.8671807647
v 0.499743551 -0.3383975029 -0.1223008484 1 1 1
vn 0.6261299253 0.003350593848 -0.7797115445
v 0.474763751 0.05910039693 -0.1361591071 1 1 1
vn 0.02049442008 -0.006405491848 -0.9997694492
v -0.07589477301 0.4365977943 -0.1380623728 1 1 1
vn -0.00168213679 0.0322028175 -0.9994799495
v -0.3853923678 0.2686553597 -0.1380623728 1 1 1
vn -0.3311799467 0.2127836496 -0.9192621708
v 0.3862684965 0.2695322335 -0.1371107399 1 1 1
vn 0.2482241094 0.2088197023 -0.9459276795
v 0.2051673979 0.4069464803 -0.1380623728 1 1 1
vn 0.04139906913 0.127242282 -0.991007328
v 0.3853915036 0.2686553597 0.1371702105 1 1 1
vn 0.2758124471 0.1961735785 0.9409800172
v -0.5090789199 0.001497453195 0.1079586148 1 1 1
vn -0.998324573 0.0205487702 0.05409108102
v -0.2731518149 0.4101343751 0.1079586148 1 1 1
vn -0.4450307488 0.8864565492 0.1270528585
v -0.3708763719 0.3351481259 0.1079586148 1 1 1
vn -0.6832148433 0.7268841863 0.06969105452
v -0.4442144036 0.2364725173 0.1104389131 1 1 1
vn -0.8394083381 0.526109159 0.136391893
v -0.4911623895 0.1231295317 0.1104389131 1 1 1
vn -0.9454716444 0.2948497832 0.138372764
# mm_gid 0
g mmGroup0
f 70//70 61//61 60//60 
f 94//94 61//61 70//70 
f 70//70 71//71 63//63 
f 86//86 60//60 59//59 
f 71//71 60//60 86//86 
f 71//71 70//70 60//60 
f 84//84 80//80 85//85 
f 85//85 83//83 84//84 
f 72//72 83//83 85//85 
f 78//78 17//17 93//93 
f 72//72 17//17 78//78 
f 85//85 17//17 72//72 
f 85//85 63//63 17//17 
f 70//70 63//63 85//85 
f 88//88 92//92 91//91 
f 89//89 92//92 88//88 
f 57//57 58//58 90//90 
f 89//89 58//58 57//57 
f 88//88 58//58 89//89 
f 88//88 59//59 58//58 
f 86//86 59//59 88//88 
f 88//88 87//87 86//86 
f 41//41 87//87 88//88 
f 86//86 87//87 41//41 
f 68//68 92//92 65//65 
f 91//91 92//92 68//68 
f 64//64 88//88 91//91 
f 68//68 69//69 91//91 
f 64//64 91//91 69//69 
f 62//62 88//88 64//64 
f 41//41 88//88 62//62 
f 67//67 92//92 89//89 
f 67//67 65//65 92//92 
f 76//76 90//90 58//58 
f 75//75 90//90 76//76 
f 75//75 74//74 90//90 
f 57//57 90//90 74//74 
f 66//66 89//89 57//57 
f 67//67 89//89 66//66 
f 74//74 73//73 57//57 
f 73//73 66//66 57//57 
f 61//61 76//76 58//58 
f 60//60 5//5 59//59 
f 61//61 5//5 60//60 
f 58//58 5//5 61//61 
f 59//59 5//5 58//58 
f 77//77 86//86 41//41 
f 71//71 86//86 77//77 
f 41//41 18//18 77//77 
f 62//62 18//18 41//41 
f 62//62 19//19 18//18 
f 64//64 19//19 62//62 
f 64//64 21//21 19//19 
f 69//69 21//21 64//64 
f 69//69 3//3 21//21 
f 68//68 3//3 69//69 
f 68//68 23//23 3//3 
f 65//65 23//23 68//68 
f 65//65 1//1 23//23 
f 67//67 1//1 65//65 
f 67//67 79//79 1//1 
f 66//66 79//79 67//67 
f 66//66 95//95 79//79 
f 73//73 95//95 66//66 
f 73//73 96//96 95//95 
f 74//74 96//96 73//73 
f 74//74 97//97 96//96 
f 75//75 97//97 74//74 
f 75//75 98//98 97//97 
f 76//76 98//98 75//75 
f 76//76 94//94 98//98 
f 61//61 94//94 76//76 
f 85//85 82//82 70//70 
f 94//94 82//82 85//85 
f 70//70 82//82 94//94 
f 84//84 97//97 80//80 
f 98//98 80//80 97//97 
f 98//98 85//85 80//80 
f 95//95 83//83 79//79 
f 95//95 96//96 84//84 
f 84//84 83//83 95//95 
f 97//97 84//84 96//96 
f 94//94 85//85 98//98 
f 72//72 79//79 83//83 
f 1//1 79//79 72//72 
f 18//18 93//93 17//17 
f 19//19 93//93 18//18 
f 19//19 21//21 93//93 
f 21//21 3//3 78//78 
f 78//78 93//93 21//21 
f 23//23 78//78 3//3 
f 23//23 72//72 78//78 
f 1//1 72//72 23//23 
f 77//77 18//18 17//17 
f 71//71 81//81 63//63 
f 77//77 81//81 71//71 
f 17//17 81//81 77//77 
f 63//63 81//81 17//17 
# mm_gid 16
g mmGroup16
f 36//36 35//35 55//55 
f 55//55 50//50 36//36 
f 50//50 42//42 36//36 
f 42//42 49//49 36//36 
f 54//54 36//36 49//49 
f 49//49 43//43 54//54 
f 37//37 54//54 43//43 
f 43//43 48//48 37//37 
f 48//48 44//44 37//37 
f 53//53 37//37 44//44 
f 44//44 47//47 53//53 
f 53//53 47//47 45//45 
f 53//53 45//45 38//38 
f 37//37 53//53 38//38 
f 38//38 54//54 37//37 
f 38//38 36//36 54//54 
f 35//35 36//36 38//38 
f 38//38 52//52 35//35 
f 35//35 52//52 39//39 
f 39//39 51//51 35//35 
f 40//40 35//35 51//51 
f 40//40 51//51 46//46 
f 50//50 40//40 46//46 
f 50//50 46//46 56//56 
f 42//42 50//50 56//56 
f 56//56 28//28 42//42 
f 42//42 28//28 15//15 
f 42//42 15//15 49//49 
f 49//49 15//15 6//6 
f 49//49 6//6 43//43 
f 43//43 6//6 16//16 
f 43//43 16//16 48//48 
f 48//48 16//16 4//4 
f 48//48 4//4 44//44 
f 44//44 4//4 20//20 
f 44//44 20//20 47//47 
f 47//47 20//20 2//2 
f 47//47 2//2 45//45 
f 45//45 2//2 22//22 
f 45//45 22//22 52//52 
f 38//38 45//45 52//52 
f 52//52 22//22 32//32 
f 52//52 32//32 39//39 
f 39//39 32//32 24//24 
f 39//39 24//24 51//51 
f 51//51 24//24 31//31 
f 51//51 31//31 46//46 
f 46//46 31//31 25//25 
f 46//46 25//25 30//30 
f 46//46 30//30 56//56 
f 56//56 30//30 26//26 
f 56//56 26//26 28//28 
f 28//28 26//26 8//8 
f 8//8 29//29 28//28 
f 29//29 15//15 28//28 
f 29//29 6//6 15//15 
f 34//34 6//6 29//29 
f 13//13 34//34 29//29 
f 13//13 29//29 8//8 
f 7//7 13//13 8//8 
f 7//7 8//8 14//14 
f 7//7 14//14 24//24 
f 24//24 32//32 7//7 
f 10//10 7//7 32//32 
f 32//32 22//22 10//10 
f 2//2 10//10 22//22 
f 10//10 2//2 12//12 
f 11//11 10//10 12//12 
f 11//11 12//12 9//9 
f 11//11 9//9 13//13 
f 11//11 13//13 7//7 
f 11//11 7//7 10//10 
f 13//13 9//9 33//33 
f 13//13 33//33 34//34 
f 33//33 16//16 34//34 
f 34//34 16//16 6//6 
f 33//33 4//4 16//16 
f 33//33 9//9 4//4 
f 12//12 4//4 9//9 
f 4//4 12//12 20//20 
f 2//2 20//20 12//12 
f 24//24 14//14 31//31 
f 25//25 31//31 14//14 
f 27//27 25//25 14//14 
f 8//8 27//27 14//14 
f 27//27 8//8 26//26 
f 26//26 30//30 27//27 
f 27//27 30//30 25//25 
f 55//55 40//40 50//50 
f 55//55 35//35 40//40 
