v -0.5241659284 -0.03660006076 -0.1230913624 1 1 1
vn -0.9457313418 0.3090935051 -0.1002669036
v -0.06740359217 0.634162724 0.1392696947 1 1 1
vn -0.1052670106 0.05134335905 0.9931176901
v 0.1017227024 0.6058033109 0.1005444676 1 1 1
vn 0.9958702922 -0.08671435714 0.02688925527
v 0.2295869589 0.3019559085 -0.1334876865 1 1 1
vn 0.4693150818 0.4681991935 -0.7486874461
v 0.5267655849 -0.7208687663 -0.1311626434 1 1 1
vn 0.9006481171 -0.2946082056 -0.3194353878
v 0.514872551 -0.07543935627 -0.1390712559 1 1 1
vn 0.06438054889 0.003382567316 -0.9979196787
v -0.4958126545 0.03184769303 0.1230910718 1 1 1
vn -0.883010745 0.4573915005 0.1052856073
v -0.09800284356 0.6227325797 0.1227046102 1 1 1
vn -0.7507134676 -0.02000905015 0.6603248715
v -0.5338352919 -0.110053353 0.1230910718 1 1 1
vn -0.9978299737 0.00716537796 0.0654520914
v 0.08944649994 -0.4597600996 -0.1412336379 1 1 1
vn -0.02425986156 -0.1936757565 -0.9807655811
v -0.05382327363 0.5693843365 -0.1388720274 1 1 1
vn -0.09612966329 -0.09678915143 -0.9906517863
v -0.06760282815 0.5335453153 -0.1019538864 1 1 1
vn -0.6930858493 -0.7193209529 -0.04700347781
v -0.0375149101 0.5328639746 -0.1294015348 1 1 1
vn -0.3556675613 -0.5500099063 -0.7556385994
v -0.4515160322 0.09142964333 -0.1216085628 1 1 1
vn -0.7160464525 0.6976032853 -0.02504274808
v 0.2390919179 0.2978861332 0.1296431571 1 1 1
vn 0.491889745 0.4894109964 0.72008425
v 0.09236681461 0.6038668156 0.1227046102 1 1 1
vn 0.7573894858 -0.1474616379 0.6360945702
v 0.4581673741 0.04818096012 0.1407453418 1 1 1
vn 0.01859579235 0.01626918837 0.999694705
v 0.03529520705 0.7146907449 -0.1005449295 1 1 1
vn 0.3939382136 0.9187700152 -0.02596860938
v 0.0152166253 0.7096256018 -0.1227047294 1 1 1
vn 0.2262047231 0.7544027567 -0.6162044406
v 0.05734389275 0.6972283721 0.1116245389 1 1 1
vn 0.5924854875 0.7959655523 0.1240957901
v -0.100760147 0.5761006474 0.1005444676 1 1 1
vn -0.9240862727 -0.378163904 0.05528671294
v -0.383508563 -0.5649096966 -0.1412336379 1 1 1
vn 0.3858886063 -0.5389133096 -0.7487739325
v -0.06789402664 0.5330398679 0.1005444676 1 1 1
vn -0.579459548 -0.8144641519 0.02957612462
v 0.0694919154 0.6278953552 -0.1375055611 1 1 1
vn 0.2452982217 0.009897243232 -0.9693971276
v 0.03256019577 0.5314975381 -0.1269817501 1 1 1
vn 0.4024175107 -0.5974124074 -0.6936559677
v -0.0752909556 -0.4553465545 0.141233176 1 1 1
vn 0.009689329192 -0.2005362511 0.9796383381
v 0.522744596 -0.03749489784 0.1283648163 1 1 1
vn 0.941364944 0.3114984632 0.1296175867
v -0.100760147 0.5761006474 -0.1005449295 1 1 1
vn -0.921938777 -0.3821000755 -0.06346996874
v 0.09665673226 0.6310725808 -0.1116250008 1 1 1
vn 0.9824051261 0.1571372002 -0.1009361818
v -0.03545006737 0.5572856069 0.1388713866 1 1 1
vn -0.0991493389 -0.1421838701 0.9848619699
v 0.05363079533 0.5660632849 -0.1358478963 1 1 1
vn 0.1768420488 -0.1217908412 -0.9766749144
v -0.04510550946 0.6791021228 0.1375050992 1 1 1
vn -0.1296157241 0.203548491 0.9704471827
v 0.003928256221 0.6932202578 0.136238426 1 1 1
vn 0.05082014948 0.3634654284 0.9302204847
v 0.08259154856 0.5551319122 0.1005444676 1 1 1
vn 0.8434029818 -0.5354927778 0.04380441085
v -0.383508563 -0.5649096966 0.141233176 1 1 1
vn 0.3214815259 -0.5628984571 0.7614427209
v -0.522898078 -0.6889814138 -0.1326356977 1 1 1
vn -0.7904228568 -0.2473594397 -0.5603972077
v 0.452631861 0.09062502533 -0.1230913624 1 1 1
vn 0.7217289209 0.6912407279 -0.03596751764
v -0.1079230085 0.6298367381 0.1005444676 1 1 1
vn -0.9889569879 0.1435195208 0.03696318343
v 0.4977337718 0.03184769303 -0.1230913624 1 1 1
vn 0.8840917945 0.4583436251 -0.09111987054
v -0.236159265 -0.4911120832 -0.1412336379 1 1 1
vn 0.1305457801 -0.3513759375 -0.9270883203
v -0.4958126545 0.03184769303 -0.1230913624 1 1 1
vn -0.8459512591 0.5315016508 -0.04327139258
v 0.05506587774 0.5325149894 0.1104146466 1 1 1
vn 0.5801433921 -0.7962316871 0.1716062427
v 0.5357550383 -0.110053353 -0.1230913624 1 1 1
vn 0.9987325072 0.002459933981 -0.05027252063
v 0.03014285304 0.517542243 0.1073402017 1 1 1
vn 0.7464367151 0.6649481058 0.02600512467
v 0.5260843039 -0.03660006076 -0.1230913624 1 1 1
vn 0.9715142846 0.2327545136 -0.04455722868
v 0.06355514377 0.5355725288 -0.1019538864 1 1 1
vn 0.6537152529 -0.7525473833 -0.07955403626
v -0.02899917215 0.516569376 -0.1093602255 1 1 1
vn -0.7918388844 0.6081461906 -0.05611951649
v 0.09255491197 0.5793045163 -0.1074939221 1 1 1
vn 0.9299954772 -0.3369881213 -0.1467901915
v 0.05829968303 0.6636687517 0.1373060346 1 1 1
vn 0.2936030328 0.2946279645 0.9093908072
v 0.07024150342 0.5607764721 0.1269812882 1 1 1
vn 0.5366493464 -0.3833748102 0.7516856194
v -0.5241659284 -0.03660006076 0.1230910718 1 1 1
vn -0.9714395404 0.2300747037 0.05805935711
v -0.09141540527 0.5984067321 -0.1288386434 1 1 1
vn -0.6236921549 -0.137421906 -0.7694954872
v -0.01853423193 0.7208688855 -0.1005449295 1 1 1
vn -0.1403954029 0.989770472 -0.02536716498
v -0.1009775028 0.6562638283 -0.1005449295 1 1 1
vn -0.8987981081 0.4377272427 -0.02359796688
v -0.0008855324122 0.6957622766 -0.1361394525 1 1 1
vn -0.007713731844 0.4219162762 -0.9066019654
v -0.04013428092 0.7055396438 -0.1227047294 1 1 1
vn -0.2759666443 0.706735909 -0.6514343619
v -0.0752909556 -0.4553465545 -0.1412336379 1 1 1
vn 0.03719671443 -0.2264167964 -0.9733200073
v 0.04275762662 0.6748238802 -0.1377048045 1 1 1
vn 0.1499160379 0.1582963765 -0.9759443998
v 0.0761127919 0.6788851023 -0.1116250008 1 1 1
vn 0.7674170732 0.6247864962 -0.1439195871
v -0.07365385443 0.6332767606 -0.1377048045 1 1 1
vn -0.09761143476 0.01871101744 -0.9950487018
v -0.06833569705 0.6995175481 -0.1005449295 1 1 1
vn -0.6152964234 0.788066566 -0.01901036873
v -0.2344622463 0.2951596677 0.1334903538 1 1 1
vn -0.507591784 0.4982136786 0.7029464841
v -0.1042531058 0.6226043701 -0.1116250008 1 1 1
vn -0.9930266738 -0.02764801867 -0.1146017611
v 0.002516861772 0.5323150158 -0.1345587671 1 1 1
vn 0.3669450283 0.2441786826 -0.8976235986
v -0.07973413169 0.6751539111 -0.1227047294 1 1 1
vn -0.6040838361 0.4015608728 -0.6883542538
v 0.4947396219 0.03011880443 0.1283648163 1 1 1
vn 0.8417037725 0.5352567434 0.07095768303
v -0.236159265 -0.4911120832 0.141233176 1 1 1
vn 0.1512645185 -0.4935711622 0.8564499617
v -0.07973413169 0.5577523708 -0.1227047294 1 1 1
vn -0.598290801 -0.473228991 -0.6466084123
v -0.04210159183 0.6738383174 -0.1388720274 1 1 1
vn -0.1411383897 0.1904880553 -0.9714907408
v -0.01662682928 0.5265364051 0.1312980205 1 1 1
vn -0.5099927783 0.3063001037 0.8037957549
v 0.08585183322 0.6533539295 0.1227046102 1 1 1
vn 0.7111364007 0.2567226291 0.6545063257
v 0.02951169573 0.517950654 -0.1084037349 1 1 1
vn 0.7508900762 0.6570411921 -0.06679043174
v 0.06587774307 0.6064255834 0.1382877678 1 1 1
vn 0.1070849523 -0.001213186188 0.9942491055
v -0.06579852849 0.544988513 0.1227046102 1 1 1
vn -0.5625865459 -0.4747202098 0.6768582463
v -0.08044610173 0.5981867909 0.1361388117 1 1 1
vn -0.4126707315 -0.1735370755 0.8941966891
v -0.5293935537 -0.4452435076 0.129648909 1 1 1
vn -0.6083891988 0.000634152093 0.793638587
v -0.5129541755 -0.07543935627 0.1390709728 1 1 1
vn -0.07839926332 0.001270250767 0.9969212413
v -0.2591971755 0.2791741788 -0.1281538457 1 1 1
vn -0.5578334928 0.5596430302 -0.6128796935
v -0.08360606432 0.6775878072 0.1116245389 1 1 1
vn -0.7803522944 0.6068497896 0.1509425789
v 0.3913567364 -0.5856678486 0.141233176 1 1 1
vn -0.4159229696 -0.5185193419 0.7470915318
v 0.3913567364 -0.5856678486 -0.1412336379 1 1 1
vn -0.355137527 -0.5407198071 -0.7625610828
v -0.5366483331 -0.110053353 -0.1163022518 1 1 1
vn -0.9997038841 0.002084213309 -0.02424441464
v 0.2481705546 -0.5040870309 0.141233176 1 1 1
vn -0.2104843855 -0.4568480849 0.8642836213
v 0.009068072774 0.7166740894 0.1116245389 1 1 1
vn 0.1188449636 0.9885736704 0.09272553027
v 0.2481705546 -0.5040870309 -0.1412336379 1 1 1
vn -0.1756025553 -0.4796128571 -0.8597297668
v 0.08944649994 -0.4597600996 0.141233176 1 1 1
vn -0.03944470733 -0.2003140748 0.9789373875
v -0.006734529044 0.5206509829 -0.1340909749 1 1 1
vn -0.007838101126 0.01803230122 -0.9998067021
v -0.5282538533 -0.6952943802 0.1278374642 1 1 1
vn -0.883081615 -0.316678375 0.3462393284
v 0.5143375397 -0.0844880268 0.1397862434 1 1 1
vn 0.0623075366 0.0001406580559 0.9980570078
v -0.5209906697 -0.08844546974 -0.1346545517 1 1 1
vn -0.06119742244 0.00332728331 -0.9981201291
v -0.4633463919 0.05430809036 -0.1370962858 1 1 1
vn -0.323392272 0.2380585074 -0.9158305526
v 0.01248718612 0.5235617161 0.1316432059 1 1 1
vn 0.5762445331 0.4136121869 0.7048881054
v 0.001076208311 0.5136281848 0.1395828277 1 1 1
vn 0.0007023842772 0.0130180316 0.9999150038
v -0.4650935829 0.04388999939 0.1394285262 1 1 1
vn -0.01877838187 0.01554427296 0.9997028112
v -0.04248195887 0.7094920278 0.1116245389 1 1 1
vn -0.3828487992 0.9151110649 0.1264852136
v 0.5246561766 -0.7180421352 0.1331644952 1 1 1
vn 0.8069682717 -0.2337471247 0.5423693061
v 0.4670133293 0.04388999939 -0.1394286305 1 1 1
vn 0.01182938647 0.01701347716 -0.9997853041
v 0.5274705887 -0.4432925582 0.1334903538 1 1 1
vn 0.6161206365 0.001802796964 0.7876496911
v 0.525975585 -0.4628946483 -0.1358364075 1 1 1
vn 0.6006674767 0.001724634203 -0.7994971275
v 0.5366495252 -0.4236901402 -0.1234616265 1 1 1
vn 0.8696839809 -0.006277017295 -0.4935690463
v -0.4507121146 0.09062502533 0.1230910718 1 1 1
vn -0.7258972526 0.6836455464 0.07551110536
v 0.03335854784 0.5526556969 0.1377041638 1 1 1
vn 0.08900243789 -0.1300854385 0.9875000715
v -0.3429320157 0.1728767157 -0.1397863626 1 1 1
vn -0.01026305277 0.01183267124 -0.9998773336
v 0.5357550383 -0.110053353 0.1230910718 1 1 1
vn 0.9994828105 0.001862700447 0.03210297972
v -0.5277884603 -0.4452435076 -0.1305757314 1 1 1
vn -0.760890305 0.000233991479 -0.6488804817
v 0.0931846723 0.6592959166 0.1005444676 1 1 1
vn 0.9060598016 0.4228915274 0.01477787551
v -0.02994102985 0.5160313845 0.108224757 1 1 1
vn -0.7347998023 0.6776643395 0.02898832411
v 0.45018664 0.08818016201 0.1283648163 1 1 1
vn 0.7211307287 0.6891030073 0.07146695256
# mm_gid 0
g mmGroup0
f 2//2 75//75 30//30 
f 73//73 49//49 33//33 
f 44//44 42//42 92//92 
f 92//92 42//42 102//102 
f 107//107 74//74 23//23 
f 107//107 70//70 74//74 
f 70//70 92//92 102//102 
f 70//70 102//102 30//30 
f 75//75 8//8 74//74 
f 30//30 75//75 74//74 
f 30//30 74//74 70//70 
f 50//50 73//73 102//102 
f 8//8 75//75 2//2 
f 8//8 2//2 79//79 
f 2//2 32//32 79//79 
f 95//95 79//79 32//32 
f 32//32 33//33 95//95 
f 84//84 95//95 33//33 
f 20//20 84//84 33//33 
f 33//33 49//49 20//20 
f 71//71 20//20 49//49 
f 49//49 73//73 71//71 
f 16//16 71//71 73//73 
f 50//50 16//16 73//73 
f 50//50 102//102 42//42 
f 8//8 38//38 21//21 
f 8//8 21//21 74//74 
f 74//74 21//21 23//23 
f 38//38 8//8 79//79 
f 106//106 20//20 71//71 
f 106//106 71//71 3//3 
f 3//3 71//71 16//16 
f 3//3 16//16 34//34 
f 34//34 16//16 50//50 
f 34//34 50//50 42//42 
f 72//72 46//46 44//44 
f 44//44 46//46 42//42 
f 42//42 46//46 34//34 
f 34//34 46//46 48//48 
f 34//34 48//48 3//3 
f 3//3 48//48 29//29 
f 3//3 29//29 106//106 
f 106//106 29//29 59//59 
f 106//106 59//59 20//20 
f 20//20 59//59 18//18 
f 20//20 18//18 84//84 
f 84//84 18//18 53//53 
f 84//84 53//53 95//95 
f 95//95 53//53 61//61 
f 95//95 61//61 79//79 
f 79//79 61//61 54//54 
f 79//79 54//54 38//38 
f 38//38 54//54 63//63 
f 38//38 63//63 21//21 
f 21//21 63//63 28//28 
f 21//21 28//28 12//12 
f 21//21 12//12 23//23 
f 23//23 12//12 47//47 
f 23//23 47//47 107//107 
f 68//68 11//11 13//13 
f 13//13 12//12 68//68 
f 47//47 13//13 87//87 
f 87//87 13//13 64//64 
f 55//55 58//58 69//69 
f 13//13 11//11 64//64 
f 46//46 72//72 25//25 
f 64//64 25//25 72//72 
f 48//48 31//31 24//24 
f 48//48 24//24 29//29 
f 29//29 24//24 59//59 
f 24//24 58//58 59//59 
f 19//19 59//59 58//58 
f 58//58 55//55 19//19 
f 56//56 19//19 55//55 
f 55//55 69//69 56//56 
f 65//65 56//56 69//69 
f 69//69 60//60 65//65 
f 63//63 65//65 60//60 
f 60//60 52//52 63//63 
f 52//52 11//11 68//68 
f 64//64 31//31 25//25 
f 52//52 60//60 11//11 
f 48//48 46//46 31//31 
f 31//31 46//46 25//25 
f 18//18 59//59 19//19 
f 18//18 19//19 53//53 
f 53//53 19//19 56//56 
f 53//53 56//56 61//61 
f 61//61 56//56 65//65 
f 61//61 65//65 54//54 
f 54//54 65//65 63//63 
f 63//63 52//52 28//28 
f 28//28 52//52 68//68 
f 28//28 68//68 12//12 
f 13//13 47//47 12//12 
f 2//2 73//73 32//32 
f 32//32 73//73 33//33 
f 73//73 2//2 102//102 
f 102//102 2//2 30//30 
f 60//60 24//24 31//31 
f 60//60 31//31 11//11 
f 11//11 31//31 64//64 
f 24//24 60//60 58//58 
f 58//58 60//60 69//69 
f 93//93 92//92 70//70 
f 107//107 62//62 70//70 
f 70//70 62//62 93//93 
f 93//93 62//62 94//94 
f 94//94 62//62 101//101 
f 101//101 62//62 107//107 
f 101//101 107//107 14//14 
f 14//14 107//107 47//47 
f 47//47 78//78 14//14 
f 14//14 78//78 91//91 
f 91//91 78//78 103//103 
f 87//87 103//103 78//78 
f 87//87 78//78 47//47 
f 101//101 7//7 94//94 
f 9//9 77//77 51//51 
f 51//51 77//77 7//7 
f 7//7 77//77 94//94 
f 88//88 76//76 9//9 
f 9//9 76//76 77//77 
f 77//77 76//76 88//88 
f 96//96 98//98 89//89 
f 89//89 98//98 104//104 
f 104//104 98//98 96//96 
f 104//104 27//27 89//89 
f 108//108 17//17 66//66 
f 66//66 17//17 27//27 
f 27//27 17//17 89//89 
f 44//44 15//15 108//108 
f 108//108 15//15 17//17 
f 93//93 15//15 92//92 
f 92//92 15//15 44//44 
f 15//15 93//93 17//17 
f 9//9 82//82 88//88 
f 88//88 82//82 36//36 
f 9//9 51//51 82//82 
f 82//82 51//51 1//1 
f 1//1 51//51 7//7 
f 1//1 7//7 41//41 
f 41//41 7//7 101//101 
f 41//41 101//101 14//14 
f 44//44 108//108 37//37 
f 44//44 37//37 72//72 
f 108//108 66//66 37//37 
f 37//37 66//66 39//39 
f 39//39 66//66 27//27 
f 39//39 27//27 45//45 
f 45//45 27//27 104//104 
f 45//45 104//104 43//43 
f 88//88 36//36 22//22 
f 88//88 22//22 35//35 
f 35//35 22//22 40//40 
f 35//35 40//40 67//67 
f 67//67 40//40 57//57 
f 67//67 57//57 26//26 
f 26//26 57//57 10//10 
f 26//26 10//10 86//86 
f 86//86 10//10 85//85 
f 86//86 85//85 83//83 
f 83//83 85//85 81//81 
f 83//83 81//81 80//80 
f 80//80 81//81 5//5 
f 80//80 5//5 96//96 
f 96//96 5//5 104//104 
f 104//104 5//5 43//43 
f 4//4 64//64 72//72 
f 4//4 72//72 37//37 
f 4//4 37//37 97//97 
f 4//4 97//97 87//87 
f 4//4 87//87 64//64 
f 37//37 39//39 97//97 
f 43//43 6//6 45//45 
f 45//45 6//6 39//39 
f 39//39 6//6 97//97 
f 5//5 100//100 43//43 
f 43//43 100//100 99//99 
f 43//43 99//99 6//6 
f 6//6 99//99 5//5 
f 5//5 99//99 100//100 
f 36//36 105//105 90//90 
f 90//90 105//105 82//82 
f 82//82 105//105 36//36 
f 82//82 1//1 90//90 
f 14//14 91//91 41//41 
f 41//41 91//91 1//1 
f 1//1 91//91 90//90 
f 88//88 35//35 77//77 
f 77//77 35//35 67//67 
f 77//77 67//67 94//94 
f 94//94 67//67 26//26 
f 94//94 26//26 93//93 
f 93//93 26//26 86//86 
f 93//93 86//86 17//17 
f 17//17 86//86 83//83 
f 17//17 83//83 89//89 
f 89//89 83//83 80//80 
f 89//89 80//80 96//96 
f 5//5 81//81 6//6 
f 6//6 81//81 85//85 
f 6//6 85//85 97//97 
f 97//97 85//85 10//10 
f 97//97 10//10 87//87 
f 87//87 10//10 57//57 
f 87//87 57//57 103//103 
f 103//103 57//57 40//40 
f 103//103 40//40 90//90 
f 90//90 40//40 22//22 
f 90//90 22//22 36//36 
f 90//90 91//91 103//103 
