v 0.418006748 -0.5163392425 0.1209505349 1 1 1
vn 0.5992013812 0.8005390167 0.009746463038
v 0.2599117756 -0.4177316129 0.1179357171 1 1 1
vn 0.3732134104 0.9277454615 -0.0003724379349
v 0.5367239118 -0.6473696828 -0.01464066841 1 1 1
vn 0.9387211204 0.3446766734 0.0008283839561
v 0.5371726155 -0.6493145227 -0.1139863059 1 1 1
vn 0.9989539981 0.02586712316 -0.03770647943
v 0.536056459 -0.7139168382 -0.1203946024 1 1 1
vn 0.995100379 -0.07238976657 -0.0673424229
v 0.5376310349 -0.710814774 -0.02703157067 1 1 1
vn 0.8324148059 -0.5541530252 -0.0002484520955
v 0.5364521742 -0.7134295106 0.1198314503 1 1 1
vn 0.9901872873 -0.1322350651 0.04520003498
v -0.5282081366 -0.6102579236 -0.1295935512 1 1 1
vn -0.6404961348 0.3337364197 -0.6916536093
v -0.5170747638 -0.6162962317 0.1397345811 1 1 1
vn -0.07713583112 0.02492596023 0.9967089891
v -0.5294329524 -0.6037242413 0.1195271686 1 1 1
vn -0.7040751576 0.7101171017 -0.003442817833
v -0.5373419523 -0.6183835864 0.1139265299 1 1 1
vn -0.9976987243 0.04505010694 0.05067315325
v 0.2072129995 -0.4001115859 0.1279811561 1 1 1
vn 0.2526340783 0.7912294269 0.5568950176
v 0.3230667114 -0.4530204237 0.1279811561 1 1 1
vn 0.388094753 0.6708057523 0.6319826841
v -0.1624810994 -0.3996080458 0.1402544975 1 1 1
vn -0.01395681873 0.06218807027 0.9979668856
v -0.4892581403 -0.5780496001 0.1383502334 1 1 1
vn -0.430347532 0.4732886851 0.7686343789
v -0.4006260931 -0.4852374792 0.1223552674 1 1 1
vn -0.6221066117 0.7819901109 0.03840435669
v -0.2687565088 -0.413356483 0.1229584441 1 1 1
vn -0.3806997836 0.9242210388 0.02971810661
v -0.06136408448 -0.36282897 0.1209505349 1 1 1
vn -0.151205644 0.9884188175 0.01284696348
v -0.5376052856 -0.6852721572 0.06092119589 1 1 1
vn -0.99565202 -0.09273130447 0.00883004535
v -0.4506216645 -0.5268988609 -0.1279813647 1 1 1
vn -0.5432825089 0.6253376007 -0.5601758957
v -0.5192304254 -0.6162091494 -0.1384897828 1 1 1
vn -0.1231585369 0.05509052053 -0.9908567071
v -0.509812355 -0.7025250196 -0.1406331956 1 1 1
vn 0.2568007708 -0.7006672621 -0.6656717062
v -0.5285718441 -0.6996511221 -0.1337211728 1 1 1
vn -0.7046111822 -0.4319599569 -0.5629686117
v -0.5367316604 -0.6875639558 -0.1198313162 1 1 1
vn -0.9862581491 -0.1454727948 -0.07831028104
v -0.04345597327 -0.3708487451 0.1356363893 1 1 1
vn -0.02684659697 0.5732383132 0.8189487457
v -0.4149015844 -0.5192065239 -0.1402545273 1 1 1
vn -0.04946575314 0.05903666839 -0.9970294833
v 0.2633479238 -0.420348078 -0.122355476 1 1 1
vn 0.453476578 0.8906993866 -0.03183788434
v 0.1200370565 -0.3754619956 -0.1229584739 1 1 1
vn 0.1876964122 0.9811908603 -0.04510629922
v -0.4364492893 -0.64643538 -0.1412333995 1 1 1
vn 0.544282496 -0.7963825464 -0.2636880577
v -0.5089247227 -0.7025595307 -0.06036090478 1 1 1
vn 0.509188354 -0.8606548905 0.0006516737049
v 0.5186235309 -0.6451848149 0.1385785788 1 1 1
vn 0.09568119049 0.04407619685 0.9944357276
v 0.2389047295 -0.5379325747 0.1412331909 1 1 1
vn -0.4004125893 -0.8920707703 0.2094743103
v -0.07494844496 -0.49239856 0.1412331909 1 1 1
vn 0.04977852106 -0.9116210341 0.4080063105
v -0.3747964501 -0.5956927538 0.1412331909 1 1 1
vn 0.5019964576 -0.8198750615 0.275326103
v 0.3789815009 -0.6146293879 -0.1412333995 1 1 1
vn -0.5247018933 -0.7980684638 -0.2962678671
v -0.5376303792 -0.6208816171 -0.1161694303 1 1 1
vn -0.9995087981 0.01906500012 -0.02487305366
v 0.5029156208 -0.726328671 0.1412331909 1 1 1
vn -0.6033201814 -0.7552760243 0.2560524642
v 0.522697866 -0.7276834249 0.1368218362 1 1 1
vn 0.5053498149 -0.7920330763 0.3424984217
v 0.5141785145 -0.7287399769 -0.1396292448 1 1 1
vn 0.4510401189 -0.7549996376 -0.4759604931
v 0.3925338089 -0.4970466197 -0.122355476 1 1 1
vn 0.6563190222 0.7536591887 -0.03525895253
v -0.09860298038 -0.3809927702 -0.1385486424 1 1 1
vn -0.01769575477 0.1321064383 -0.9910775423
v -0.09311293811 -0.3664445281 -0.122355476 1 1 1
vn -0.04071822762 0.9981252551 -0.04569429904
v 0.4729558825 -0.5708942413 -0.1279813647 1 1 1
vn 0.613304913 0.6183000207 -0.4914897382
v 0.4645786881 -0.578881979 -0.1392756552 1 1 1
vn 0.3557765186 0.3418333828 -0.8698120713
v 0.3769206405 -0.502524972 -0.1385486424 1 1 1
vn 0.07262061536 0.1054161936 -0.9917730093
v 0.5139318705 -0.6455913186 -0.14057675 1 1 1
vn 0.0488624461 0.02812963538 -0.9984093308
v -0.2310452461 -0.5261265635 -0.1412333995 1 1 1
vn 0.3790882826 -0.8539652228 -0.3564203084
v 0.5263123512 -0.6440104842 -0.1330471188 1 1 1
vn 0.6730568409 0.2052529007 -0.7105390429
v 0.2389047295 -0.5379325747 -0.1412333995 1 1 1
vn -0.3164094388 -0.8904944658 -0.326962769
v -0.2310452461 -0.5261265635 0.1412331909 1 1 1
vn 0.2641051114 -0.8849368691 0.383582145
v 0.08469877392 -0.4964093268 0.1412331909 1 1 1
vn -0.1680060029 -0.9017739296 0.3982181847
v 0.3789815009 -0.6146293879 0.1412331909 1 1 1
vn -0.5805697441 -0.7504842877 0.3157721758
v 0.5214423537 -0.6267046928 0.1268382221 1 1 1
vn 0.6865816116 0.5990837216 0.4119518697
v 0.08469877392 -0.4964093268 -0.1412333995 1 1 1
vn -0.09570484608 -0.9323507547 -0.3486583531
v -0.07494844496 -0.49239856 -0.1412333995 1 1 1
vn 0.1157305092 -0.867200911 -0.484323293
v 0.5352329612 -0.6498161554 0.1214573905 1 1 1
vn 0.9968410134 0.0133912852 0.07828557491
v 0.1168377846 -0.3925901353 -0.1402545273 1 1 1
vn 0.0172760319 0.09551238269 -0.9952782989
v -0.3468738794 -0.4530204237 -0.1279813647 1 1 1
vn -0.4040207863 0.7426031232 -0.534142077
v -0.3410856724 -0.4630447924 -0.1392756552 1 1 1
vn -0.2668868005 0.43388623 -0.8605313301
v -0.2308376282 -0.412666738 -0.1385486424 1 1 1
vn -0.0419871062 0.1385544986 -0.9894643426
v 0.01969896257 -0.3698050976 -0.1336285174 1 1 1
vn 0.03100990318 0.7221209407 -0.6910714507
v -0.2393137515 -0.4010714591 -0.122355476 1 1 1
vn -0.3116136491 0.9501019716 -0.01425254531
v 0.2596108019 -0.4337765574 -0.1385486424 1 1 1
vn 0.07743860036 0.170868203 -0.9822460413
v -0.4002066851 -0.4837404191 -0.1179355755 1 1 1
vn -0.5491099954 0.8357489705 0.001386645599
v -0.5329805613 -0.6081179976 -0.1151372641 1 1 1
vn -0.6931800842 0.7207636833 -0.001019697986
v -0.1698480546 -0.3821499944 0.1279811561 1 1 1
vn -0.189356029 0.7732821107 0.6051273346
v 0.5113401413 -0.6274449229 0.1368425637 1 1 1
vn 0.4707451761 0.4208400249 0.7754306197
v -0.5279225111 -0.6139048338 0.1314207911 1 1 1
vn -0.7259143591 0.2326807678 0.6472310424
v -0.5368278027 -0.6160994172 -0.0204651244 1 1 1
vn -0.9093106985 0.416115731 0.001337727881
v 0.4223402441 -0.5320621729 0.1356363893 1 1 1
vn 0.3523214459 0.4050412774 0.8436890244
v -0.2853980064 -0.434335649 0.1392758042 1 1 1
vn -0.2006904036 0.4699914455 0.8595530391
v -0.3931420743 -0.4968248904 0.1385486126 1 1 1
vn -0.06918053329 0.1057101637 0.991987586
v -0.4974318743 -0.570255518 0.1267749965 1 1 1
vn -0.6209046245 0.6456148624 0.4445884228
v 0.08601275831 -0.3702737987 0.1264736652 1 1 1
vn 0.1199696958 0.9925479889 0.02134889364
v 0.08403411508 -0.3834063411 0.1394741833 1 1 1
vn 0.01098892558 0.08146503568 0.9966156483
v 0.2034271061 -0.4110500216 0.1392758042 1 1 1
vn 0.1599840224 0.4003705978 0.9022796154
v 0.3195887506 -0.4726749957 0.1402544975 1 1 1
vn 0.03268520534 0.05163931102 0.9981307983
v 0.5333908796 -0.6395640969 0.1149970144 1 1 1
vn 0.7308417559 0.6825118065 -0.006928844843
v 0.5299491286 -0.6348467469 -0.1195313856 1 1 1
vn 0.7293972969 0.6840779781 0.004107073881
v 0.498806417 -0.7238397002 -0.1412333995 1 1 1
vn -0.6540108919 -0.7460802197 -0.1250363588
v 0.5081074238 -0.7282676101 -0.02703157067 1 1 1
vn -0.02713604085 -0.9996310472 -0.001184169785
v 0.5298529863 -0.723277092 -0.02703157067 1 1 1
vn 0.5585435033 -0.8294515014 -0.006276845466
v -0.5273512006 -0.7001416087 -0.04356160015 1 1 1
vn -0.4574008584 -0.8892447352 0.005319184624
v -0.508474648 -0.7015200257 0.1406359375 1 1 1
vn 0.5293674469 -0.8242330551 0.2010222077
v -0.5319745541 -0.6958004236 0.1292289644 1 1 1
vn -0.8518288732 -0.4275000989 0.30270648
v -0.4961151183 0.2272070199 -0.1230915487 1 1 1
vn -0.8401135206 0.5393840671 -0.05721988901
v 0.5345390439 -0.5361202955 0.1246955022 1 1 1
vn 0.9952195883 -0.07031564415 0.06777671725
v 0.536055088 0.08530593663 0.1203748807 1 1 1
vn 0.9988852739 0.01387327258 0.04511892796
v 0.5333574414 -0.2675353885 0.1281535923 1 1 1
vn 0.7476075292 0.002793977037 0.6641349196
v 0.5209825635 -0.2675353885 0.1388271153 1 1 1
vn 0.5851615667 0.003981356975 0.8109069467
v 0.4974325299 0.2272070199 -0.1230915487 1 1 1
vn 0.8830134869 0.4573858976 -0.1052867845
v 0.4625652134 0.2472670823 0.1385021061 1 1 1
vn 0.02062013 0.01927407086 0.9996016026
v 0.5257842541 0.1587594002 0.1230911613 1 1 1
vn 0.9474298358 0.3024253249 0.1044780463
v 0.5125761032 0.1285218596 0.139428556 1 1 1
vn 0.05155755579 0.007840748876 0.998639226
v 0.4531346262 0.2867889106 0.1216083989 1 1 1
vn 0.7175302505 0.69565171 0.03491491452
v 0.4974325299 0.2272070199 0.1230911613 1 1 1
vn 0.8456572294 0.5312259793 0.05160237104
v 0.5256741643 -0.2675353885 -0.1358363777 1 1 1
vn 0.6187900901 0.001542185899 -0.7855548859
v -0.519665122 -0.2498841733 -0.1388273239 1 1 1
vn -0.5671357512 0.002587143332 -0.8236202598
v -0.5255648494 0.1590537578 0.1216083989 1 1 1
vn -0.9756363034 0.2132305503 0.05163823441
v -0.4971002638 0.2277758867 0.1216083989 1 1 1
vn -0.8826579452 0.4614039063 0.08956230432
v -0.01528957393 0.7239164114 -0.1183758974 1 1 1
vn -0.7001479864 0.7139035463 -0.01159870438
v -0.4715436995 0.2379716486 0.1374537349 1 1 1
vn -0.01354572456 0.01220074389 0.9998338223
v -0.0002351669245 0.7286759615 -0.02167495154 1 1 1
vn -0.1090441421 0.9940356612 -0.001558080898
v -0.5139716864 0.1201119348 0.1385021061 1 1 1
vn -0.06998949498 0.007064459845 0.9975227118
v -0.4510132074 0.2859843969 -0.1230915487 1 1 1
vn -0.7173587084 0.6938242316 -0.06328038871
v -0.5243581533 -0.2498841733 0.135836333 1 1 1
vn -0.630494833 0.004334386904 0.7761813402
v -0.5244668126 0.1587594002 -0.1230915487 1 1 1
vn -0.947289288 0.300919652 -0.1099564284
v -0.5219559073 -0.4920451641 0.1362106502 1 1 1
vn 0.4059110582 -0.5628323555 0.7200388312
v 0.2553344369 0.4691499472 0.135836333 1 1 1
vn 0.4390035868 0.4336707592 0.7868961692
v -0.5362718105 -0.5091329217 0.1188236699 1 1 1
vn -0.9999134541 -0.01157000754 0.006262112409
v 0.2628825307 0.4766971767 0.1234614626 1 1 1
vn 0.5261705518 0.5246071815 0.6692771316
v 0.5148195028 -0.5101447105 0.1404377222 1 1 1
vn -0.3434693217 -0.3876760006 0.8554157615
v 0.5170322657 -0.5130469799 -0.1391927451 1 1 1
vn -0.5229824781 -0.566971004 -0.6364222169
v 0.5358976126 -0.5379716158 -0.1231326535 1 1 1
vn 0.9996159673 -0.01641421393 -0.02232697979
v -0.001706608338 0.7124891877 -0.1366208643 1 1 1
vn 0.001158068306 0.02091383934 -0.9997805953
v 0.007625061553 0.7268108726 -0.1182341203 1 1 1
vn 0.6874998808 0.7248132825 -0.04460575432
v 0.2553344369 0.4691499472 -0.1358363777 1 1 1
vn 0.3972998261 0.3966965079 -0.8275172114
v -0.5350316763 -0.2498841733 0.1234614626 1 1 1
vn -0.7965448499 -0.003068761667 0.6045717001
v -0.01477261819 0.7210163474 0.1227335781 1 1 1
vn -0.6942858696 0.7155824304 0.07686953247
v 0.005890265573 0.7106142044 0.1379198432 1 1 1
vn 0.004957249854 0.01509809401 0.9998737574
v -0.00257748994 0.7287398577 0.1193655282 1 1 1
vn -0.08497986943 0.9896927476 0.1152677238
v 0.01544627454 0.7239103317 0.1201656982 1 1 1
vn 0.6987495422 0.7152963281 0.01001136657
v -0.2322951406 0.501736939 0.1281535923 1 1 1
vn -0.530352056 0.5323683023 0.6597808003
v 0.5363476872 -0.2675353885 -0.1234614998 1 1 1
vn 0.7852503061 0.0006008552155 -0.6191781759
v -0.2072555572 0.5310058594 -0.1234614998 1 1 1
vn -0.5471015573 0.5565161109 -0.6252757311
v -0.5112587214 0.1285218596 -0.1394285858 1 1 1
vn -0.04647593945 0.007326847408 -0.9988925457
v -0.5341371298 0.08530593663 -0.1230915487 1 1 1
vn -0.998695612 0.01471818611 -0.04889227822
v -0.5341371298 0.08530593663 0.1230911613 1 1 1
vn -0.9975576401 0.01646794565 0.06787918508
v 0.5145728588 0.1199201718 -0.1390711814 1 1 1
vn 0.06069560349 0.007802063134 -0.9981258512
v 0.466711998 0.2392494082 -0.1394285858 1 1 1
vn 0.01284418628 0.01407971419 -0.9998183846
v -0.2268622369 0.496304363 -0.1358363777 1 1 1
vn -0.4273202717 0.4248499572 -0.7980600595
v 0.2628825307 0.4766971767 -0.1234614998 1 1 1
vn 0.5653821826 0.5833824873 -0.5831019282
v -0.4607224762 0.2467428148 -0.1390711814 1 1 1
vn -0.01485517435 0.01568448916 -0.9997666478
v 0.4523306191 0.2859843969 -0.1230915487 1 1 1
vn 0.7158815861 0.6973187923 -0.0354972817
v -0.53204 -0.2498841733 -0.128153801 1 1 1
vn -0.7317270041 0.0004061101936 -0.6815977097
v -0.1963911355 0.5201407671 0.1388271153 1 1 1
vn -0.3688761294 0.3714698851 0.8520214558
v -0.4510132074 0.2859843969 0.1230911613 1 1 1
vn -0.7163930535 0.696451962 0.04166149348
v 0.391056776 -0.3903084099 -0.1412333995 1 1 1
vn -0.3688047528 -0.5403348804 -0.7563208938
v -0.07559080422 -0.2599872649 -0.1412333995 1 1 1
vn 0.04287356511 -0.2250829637 -0.973395884
v 0.391056776 -0.3903084099 0.1412331909 1 1 1
vn -0.4175112844 -0.5089377761 0.7527726293
v -0.07559080422 -0.2599872649 0.1412331909 1 1 1
vn 0.02107783221 -0.2090792358 0.977671504
v -0.3101352155 -0.3326513469 0.1412331909 1 1 1
vn 0.2415553778 -0.5478253365 0.800960958
v -0.3838090301 -0.3695502579 -0.1412333995 1 1 1
vn 0.4081521034 -0.5799232721 -0.7050538063
v -0.5135787129 -0.4823212326 -0.1404112875 1 1 1
vn 0.3150527179 -0.4001646638 -0.8605870008
v 0.5257842541 0.1587594002 -0.1230915487 1 1 1
vn 0.9738429189 0.2204618007 -0.05501435325
v 0.08914653957 -0.2644007206 -0.1412333995 1 1 1
vn -0.02257644758 -0.1968896687 -0.9801656604
v 0.08914653957 -0.2644007206 0.1412331909 1 1 1
vn -0.03711890802 -0.1971360147 0.9796732068
v 0.2478699237 -0.3087275624 -0.1412333995 1 1 1
vn -0.1756029129 -0.4796117544 -0.8597303033
v 0.2478699237 -0.3087275624 0.1412331909 1 1 1
vn -0.2146911323 -0.4573872387 0.8629627228
v -0.236460045 -0.2957524657 -0.1412333995 1 1 1
vn 0.121488601 -0.3416188955 -0.9319533706
v -0.5328175426 -0.5049225092 -0.1248597801 1 1 1
vn -0.9951866865 -0.06404288858 -0.07417562604
v 0.5354545116 0.08530593663 -0.1230915487 1 1 1
vn 0.9974503517 0.01507209986 -0.06975388527
# mm_gid 0
g mmGroup0
f 34//34 9//9 84//84 
f 34//34 72//72 9//9 
f 50//50 72//72 34//34 
f 50//50 14//14 72//72 
f 33//33 14//14 50//50 
f 33//33 75//75 14//14 
f 51//51 75//75 33//33 
f 51//51 77//77 75//75 
f 32//32 77//77 51//51 
f 52//52 77//77 32//32 
f 52//52 31//31 77//77 
f 37//37 31//31 52//52 
f 52//52 80//80 37//37 
f 52//52 35//35 80//80 
f 32//32 35//35 52//52 
f 32//32 49//49 35//35 
f 51//51 49//49 32//32 
f 51//51 54//54 49//49 
f 33//33 54//54 51//51 
f 33//33 55//55 54//54 
f 50//50 55//55 33//33 
f 50//50 47//47 55//55 
f 34//34 47//47 50//50 
f 34//34 29//29 47//47 
f 84//84 29//29 34//34 
f 48//48 39//39 46//46 
f 48//48 5//5 39//39 
f 4//4 5//5 48//48 
f 5//5 56//56 7//7 
f 4//4 56//56 5//5 
f 16//16 65//65 10//10 
f 16//16 64//64 65//65 
f 17//17 64//64 16//16 
f 17//17 62//62 64//64 
f 18//18 62//62 17//17 
f 18//18 42//42 62//62 
f 74//74 42//42 18//18 
f 74//74 28//28 42//42 
f 2//2 28//28 74//74 
f 2//2 27//27 28//28 
f 1//1 27//27 2//2 
f 1//1 40//40 27//27 
f 78//78 40//40 1//1 
f 40//40 78//78 79//79 
f 80//80 46//46 39//39 
f 35//35 46//46 80//80 
f 35//35 45//45 46//46 
f 49//49 45//45 35//35 
f 49//49 63//63 45//45 
f 54//54 63//63 49//49 
f 54//54 57//57 63//63 
f 55//55 57//57 54//54 
f 55//55 41//41 57//57 
f 55//55 60//60 41//41 
f 47//47 60//60 55//55 
f 47//47 26//26 60//60 
f 29//29 26//26 47//47 
f 29//29 21//21 26//26 
f 29//29 22//22 21//21 
f 19//19 36//36 24//24 
f 11//11 36//36 19//19 
f 9//9 85//85 84//84 
f 68//68 85//85 9//9 
f 11//11 85//85 68//68 
f 11//11 19//19 85//85 
f 79//79 4//4 48//48 
f 56//56 78//78 53//53 
f 53//53 31//31 56//56 
f 53//53 67//67 31//31 
f 65//65 8//8 36//36 
f 57//57 28//28 63//63 
f 27//27 63//63 28//28 
f 28//28 57//57 61//61 
f 20//20 59//59 26//26 
f 20//20 58//58 59//59 
f 59//59 60//60 26//26 
f 62//62 60//60 58//58 
f 59//59 58//58 60//60 
f 42//42 41//41 60//60 
f 60//60 62//62 42//42 
f 57//57 41//41 61//61 
f 44//44 46//46 45//45 
f 48//48 46//46 44//44 
f 43//43 44//44 45//45 
f 43//43 48//48 44//44 
f 40//40 43//43 45//45 
f 79//79 48//48 43//43 
f 43//43 40//40 79//79 
f 28//28 61//61 42//42 
f 40//40 45//45 63//63 
f 63//63 27//27 40//40 
f 41//41 42//42 61//61 
f 58//58 64//64 62//62 
f 20//20 64//64 58//58 
f 20//20 65//65 64//64 
f 20//20 8//8 65//65 
f 26//26 8//8 20//20 
f 26//26 21//21 8//8 
f 10//10 11//11 68//68 
f 65//65 36//36 69//69 
f 69//69 10//10 65//65 
f 69//69 11//11 10//10 
f 36//36 11//11 69//69 
f 72//72 71//71 17//17 
f 71//71 14//14 66//66 
f 66//66 17//17 71//71 
f 17//17 16//16 72//72 
f 25//25 66//66 14//14 
f 18//18 25//25 74//74 
f 18//18 66//66 25//25 
f 75//75 76//76 12//12 
f 12//12 74//74 75//75 
f 76//76 77//77 13//13 
f 13//13 12//12 76//76 
f 70//70 13//13 77//77 
f 67//67 53//53 70//70 
f 70//70 1//1 13//13 
f 70//70 53//53 1//1 
f 25//25 14//14 75//75 
f 15//15 16//16 73//73 
f 15//15 72//72 16//16 
f 14//14 71//71 72//72 
f 15//15 9//9 72//72 
f 15//15 68//68 9//9 
f 73//73 68//68 15//15 
f 73//73 10//10 68//68 
f 16//16 10//10 73//73 
f 66//66 18//18 17//17 
f 78//78 1//1 53//53 
f 2//2 13//13 1//1 
f 2//2 12//12 13//13 
f 74//74 12//12 2//2 
f 75//75 74//74 25//25 
f 77//77 76//76 75//75 
f 31//31 70//70 77//77 
f 31//31 67//67 70//70 
f 78//78 56//56 3//3 
f 3//3 79//79 78//78 
f 3//3 4//4 79//79 
f 56//56 4//4 3//3 
f 83//83 85//85 19//19 
f 84//84 85//85 83//83 
f 29//29 30//30 22//22 
f 84//84 30//30 29//29 
f 83//83 30//30 84//84 
f 83//83 22//22 30//30 
f 83//83 23//23 22//22 
f 83//83 24//24 23//23 
f 19//19 24//24 83//83 
f 56//56 38//38 7//7 
f 31//31 38//38 56//56 
f 37//37 38//38 31//31 
f 39//39 82//82 81//81 
f 5//5 82//82 39//39 
f 5//5 6//6 82//82 
f 7//7 6//6 5//5 
f 7//7 82//82 6//6 
f 38//38 82//82 7//7 
f 38//38 81//81 82//82 
f 37//37 81//81 38//38 
f 80//80 81//81 37//37 
f 39//39 81//81 80//80 
f 8//8 24//24 36//36 
f 8//8 23//23 24//24 
f 21//21 23//23 8//8 
f 21//21 22//22 23//23 
f 126//126 143//143 144//144 
f 126//126 150//150 143//143 
f 133//133 150//150 126//126 
f 133//133 139//139 150//150 
f 115//115 139//139 133//133 
f 115//115 146//146 139//139 
f 130//130 146//146 115//115 
f 130//130 148//148 146//146 
f 129//129 148//148 130//130 
f 129//129 138//138 148//148 
f 113//113 138//138 129//129 
f 94//94 140//140 112//112 
f 94//94 149//149 140//140 
f 92//92 149//149 94//94 
f 92//92 147//147 149//149 
f 120//120 147//147 92//92 
f 120//120 141//141 147//147 
f 102//102 141//141 120//120 
f 102//102 142//142 141//141 
f 104//104 142//142 102//102 
f 108//108 142//142 104//104 
f 115//115 125//125 101//101 
f 115//115 131//131 125//125 
f 133//133 131//131 115//115 
f 105//105 131//131 133//133 
f 105//105 125//125 131//131 
f 101//101 125//125 105//105 
f 107//107 133//133 126//126 
f 86//86 133//133 107//107 
f 105//105 133//133 86//86 
f 127//127 107//107 126//126 
f 151//151 98//98 144//144 
f 151//151 135//135 98//98 
f 127//127 135//135 151//151 
f 127//127 98//98 135//135 
f 126//126 98//98 127//127 
f 144//144 98//98 126//126 
f 114//114 97//97 124//124 
f 113//113 97//97 114//114 
f 129//129 97//97 113//113 
f 152//152 97//97 129//129 
f 152//152 124//124 97//97 
f 114//114 124//124 152//152 
f 91//91 129//129 130//130 
f 145//145 129//129 91//91 
f 152//152 129//129 145//145 
f 134//134 91//91 130//130 
f 115//115 132//132 117//117 
f 116//116 132//132 115//115 
f 134//134 132//132 116//116 
f 134//134 117//117 132//132 
f 130//130 117//117 134//134 
f 115//115 117//117 130//130 
f 101//101 116//116 115//115 
f 88//88 114//114 152//152 
f 87//87 114//114 88//88 
f 87//87 113//113 114//114 
f 112//112 113//113 87//87 
f 140//140 113//113 112//112 
f 140//140 138//138 113//113 
f 149//149 138//138 140//140 
f 149//149 148//148 138//138 
f 147//147 148//148 149//149 
f 147//147 146//146 148//148 
f 141//141 146//146 147//147 
f 141//141 139//139 146//146 
f 142//142 139//139 141//141 
f 142//142 150//150 139//139 
f 142//142 143//143 150//150 
f 108//108 143//143 142//142 
f 151//151 108//108 110//110 
f 144//144 108//108 151//151 
f 108//108 144//144 143//143 
f 145//145 88//88 152//152 
f 145//145 93//93 88//88 
f 91//91 93//93 145//145 
f 91//91 96//96 93//93 
f 134//134 96//96 91//91 
f 95//95 96//96 134//134 
f 122//122 134//134 116//116 
f 95//95 134//134 122//122 
f 103//103 116//116 101//101 
f 122//122 116//116 103//103 
f 103//103 121//121 122//122 
f 103//103 119//119 121//121 
f 101//101 119//119 103//103 
f 137//137 101//101 105//105 
f 119//119 101//101 137//137 
f 86//86 137//137 105//105 
f 86//86 100//100 137//137 
f 107//107 100//100 86//86 
f 107//107 99//99 100//100 
f 127//127 99//99 107//107 
f 128//128 99//99 127//127 
f 110//110 127//127 151//151 
f 128//128 127//127 110//110 
f 120//120 111//111 122//122 
f 120//120 109//109 111//111 
f 92//92 109//109 120//120 
f 92//92 111//111 109//109 
f 95//95 111//111 92//92 
f 122//122 111//111 95//95 
f 93//93 92//92 94//94 
f 96//96 92//92 93//93 
f 95//95 92//92 96//96 
f 88//88 93//93 94//94 
f 87//87 90//90 112//112 
f 87//87 89//89 90//90 
f 88//88 89//89 87//87 
f 88//88 90//90 89//89 
f 94//94 90//90 88//88 
f 112//112 90//90 94//94 
f 108//108 118//118 110//110 
f 108//108 106//106 118//118 
f 104//104 106//106 108//108 
f 128//128 106//106 104//104 
f 128//128 118//118 106//106 
f 110//110 118//118 128//128 
f 100//100 104//104 102//102 
f 99//99 104//104 100//100 
f 99//99 128//128 104//104 
f 137//137 100//100 102//102 
f 119//119 136//136 120//120 
f 119//119 123//123 136//136 
f 137//137 123//123 119//119 
f 137//137 136//136 123//123 
f 102//102 136//136 137//137 
f 120//120 136//136 102//102 
f 121//121 119//119 120//120 
f 122//122 121//121 120//120 
