v -0.3596584797 0.8425990343 -14.07755852
vn 0.8732429743 -0.4859460294 0.03609964997
v -0.3596584797 -1.791505814 -14.07755852
vn 0.9544193149 0.291418314 0.06449175626
v 1.054731727 -0.1119199693 -14.07755852
vn -0.7034594417 -0.3346675634 0.6270107627
v 0.4058310986 -1.791505814 -14.07755852
vn 0.99246943 0.08687534928 0.08635430783
v 1.284352303 -0.2450288534 -14.07755852
vn -0.4978367686 -0.8588269949 0.1207258999
v 1.233306885 0.1961389035 -14.07755852
vn -0.3804924786 0.8552305102 0.3518611789
v 2.321792603 1.581200361 -14.07755852
vn 0.3373600245 -0.937906146 0.08074805886
v 1.460239291 0.06459114701 -14.07755852
vn 0.498062253 0.8592037559 0.1170596257
v -0.3596584797 -1.791505814 14.0775528
vn 0.9894653559 0.1441436112 -0.01345095038
v -0.3596584797 0.8426058888 14.0775528
vn 0.7064112425 -0.7046588063 -0.06662679464
v 0.4058310986 -1.791505814 14.0775528
vn 0.7730317712 -0.1760678738 -0.6094439626
v 2.321792603 1.581200361 14.0775528
vn 0.3310670257 -0.7404212952 -0.5849538445
v 1.284352303 -0.2450288534 -14.07756519
vn 0.8694701195 -0.4939278066 -0.007548201364
v 1.304055572 -0.2564450502 -14.07756519
vn 0.8486799598 -0.5289058685 -0.0009466772317
v 1.304055572 -0.2564450502 -2.05569768
vn 0.7742083669 -0.6329051852 0.005695525557
v 1.274052858 -0.2390594184 -2.05569768
vn -0.4152263403 -0.9002785087 -0.1307121515
v 1.054731727 -0.1119199693 -2.05569768
vn -0.9799067974 0.1817132831 -0.08223693818
v 2.345654964 2.136557579 -14.42261028
vn -0.1953972727 0.9806457758 -0.01239857264
v 2.345654964 2.136557579 14.42261124
vn -0.1954085231 0.9807023406 0.006199579686
v 2.44088316 1.790832162 -14.42261028
vn 0.8352766037 0.01773034036 -0.5495439768
v 2.44088316 1.790839076 14.42261124
vn 0.7076479197 -0.08802533895 0.7010605931
v -2.440882683 0.8181297779 14.42261124
vn -0.829067111 0.54904145 0.1058357283
v -2.440882683 0.8181229234 -14.42261028
vn -0.5026213527 0.8605189919 -0.08293883502
v -2.440882683 -2.136557341 14.42261124
vn -0.4863478243 -0.8726215363 0.04469238222
v -2.440882683 -2.136557341 -14.42261028
vn -0.9116123319 -0.408911407 -0.04188573733
v 0.209813565 -2.136557341 14.42261124
vn 0.2231753469 -0.9384511113 0.2636328042
v 2.36143899 1.650990486 11.29501057
vn 0.8715878129 -0.4902390242 0.0005904958816
v 2.321792603 1.581200361 11.29501057
vn 0.2081707567 -0.503744483 0.8383951187
v 0.209813565 -2.136557341 -14.42261028
vn 0.07309785485 -0.9854726195 -0.1532983631
v 1.460239291 0.06459114701 -14.07756519
vn 0.8694248796 -0.4939015508 -0.01271300577
v 2.36143899 1.650990486 -1.766434312
vn 0.8697260618 -0.4935348034 6.506835052e-05
v 2.36143899 1.650990486 -2.05569768
vn 0.8697522283 -0.4934886694 -0.0001452075521
v 2.321792603 1.581200361 -2.05569768
vn 0.3772719204 -0.9129460454 -0.155548647
v 2.36143899 1.650990486 11.00574017
vn 0.8698197603 -0.4933696389 -0.0001828971581
v 2.321792603 1.581200361 11.00574017
vn 0.4477826357 -0.8486483693 -0.2815789282
v 2.321792603 1.581200361 -1.766434312
vn 0.323243469 -0.9296639562 0.1767443419
v 1.48263073 0.05161380768 -14.07756519
vn 0.8992245197 -0.4374688566 -0.004036518745
v 1.48263073 0.05161380768 -2.05569768
vn 0.9045337439 -0.4263996482 0.001437148894
v 1.452628851 0.06899945438 -2.05569768
vn 0.7076746821 0.7037684321 -0.06250261515
v 1.233306885 0.1961389035 -2.05569768
vn -0.4082959592 0.8979468346 -0.1642737836
v 0.3741304874 -1.791505814 -2.05569768
vn 0.1521326452 0.9787656665 -0.1373804808
v 0.3741304874 -1.791505814 -1.766434312
vn 0.2096818835 0.9698750377 0.1239997074
v 2.367602825 1.647414327 -1.766434312
vn 0.8656620383 -0.5003869534 0.01555982511
v 2.367602825 1.647414327 -2.05569768
vn 0.8688058257 -0.4946050942 -0.0232848525
v 1.934231281 1.474444985 -1.766434312
vn 0.2583934963 -0.9659559131 0.01272816956
v 1.934231281 1.474444985 -2.05569768
vn 0.2262784243 -0.9739468098 -0.01502307225
v 0.05910841376 -1.76031065 -1.766434312
vn -0.8643120527 0.4914654791 0.106894277
v 0.05910841376 -1.76031065 -2.05569768
vn -0.8588306904 0.4603933394 -0.2246060222
v 0.112919338 -1.791505814 -1.766434312
vn -0.0007884945371 0.9954328537 0.09546074271
v 0.112919338 -1.791505814 -2.05569768
vn -0.0007215766236 0.9967107773 -0.08103758842
v 2.367602825 1.647414327 11.00574017
vn 0.8667201996 -0.4982778728 -0.02269916423
v 2.367602825 1.647414327 11.29501057
vn 0.865544796 -0.500702858 0.01135187503
v 0.112919338 -1.791505814 11.00574017
vn -0.0006933697732 0.9858064651 -0.1678842157
v 0.112919338 -1.791505814 11.29501057
vn -0.004902802408 0.8047801852 0.593552649
v 0.05910841376 -1.76031065 11.00574017
vn -0.8616764545 0.4619188607 -0.2101063877
v 0.05910841376 -1.76031065 11.29501057
vn -0.8643122911 0.4914656281 0.1068914905
v 1.934231281 1.474444985 11.29501057
vn 0.1796291322 -0.9727720022 0.1464514881
v 0.3741304874 -1.791505814 11.29501057
vn 0.7340040207 0.1175799444 0.6688894033
v 1.934231281 1.474444985 11.00574017
vn 0.2285447717 -0.9729834795 -0.0327170305
v 0.3741304874 -1.791505814 11.00574017
vn 0.5860620737 0.764998734 -0.2670358717
# mm_gid 0
g mmGroup0
f 1//1 2//2 3//3 
f 3//3 2//2 4//4 
f 3//3 4//4 5//5 
f 3//3 6//6 1//1 
f 1//1 6//6 7//7 
f 7//7 6//6 8//8 
f 9//9 10//10 11//11 
f 11//11 10//10 12//12 
f 13//13 14//14 5//5 
f 5//5 14//14 15//15 
f 5//5 15//15 16//16 
f 17//17 3//3 16//16 
f 16//16 3//3 5//5 
f 18//18 19//19 20//20 
f 20//20 19//19 21//21 
f 22//22 19//19 23//23 
f 23//23 19//19 18//18 
f 24//24 22//22 25//25 
f 25//25 22//22 23//23 
f 26//26 11//11 21//21 
f 21//21 11//11 12//12 
f 21//21 12//12 27//27 
f 27//27 12//12 28//28 
f 11//11 26//26 4//4 
f 4//4 26//26 29//29 
f 4//4 29//29 13//13 
f 13//13 29//29 20//20 
f 13//13 20//20 30//30 
f 30//30 20//20 7//7 
f 30//30 7//7 8//8 
f 21//21 31//31 20//20 
f 20//20 31//31 32//32 
f 20//20 32//32 7//7 
f 7//7 32//32 33//33 
f 27//27 34//34 21//21 
f 21//21 34//34 31//31 
f 34//34 35//35 31//31 
f 31//31 35//35 36//36 
f 13//13 5//5 4//4 
f 25//25 23//23 29//29 
f 29//29 23//23 20//20 
f 20//20 23//23 18//18 
f 26//26 24//24 29//29 
f 29//29 24//24 25//25 
f 37//37 38//38 14//14 
f 14//14 38//38 15//15 
f 6//6 39//39 8//8 
f 8//8 39//39 38//38 
f 8//8 38//38 37//37 
f 6//6 40//40 39//39 
f 37//37 30//30 8//8 
f 30//30 37//37 13//13 
f 13//13 37//37 14//14 
f 16//16 15//15 39//39 
f 39//39 15//15 38//38 
f 41//41 16//16 42//42 
f 42//42 16//16 39//39 
f 42//42 39//39 43//43 
f 43//43 39//39 44//44 
f 45//45 46//46 47//47 
f 47//47 46//46 48//48 
f 45//45 49//49 36//36 
f 36//36 49//49 42//42 
f 36//36 42//42 43//43 
f 45//45 47//47 49//49 
f 43//43 31//31 36//36 
f 50//50 49//49 48//48 
f 48//48 49//49 47//47 
f 33//33 40//40 46//46 
f 46//46 40//40 17//17 
f 46//46 17//17 48//48 
f 48//48 17//17 50//50 
f 50//50 17//17 16//16 
f 50//50 16//16 41//41 
f 32//32 44//44 33//33 
f 33//33 44//44 39//39 
f 33//33 39//39 40//40 
f 3//3 17//17 6//6 
f 6//6 17//17 40//40 
f 32//32 31//31 44//44 
f 44//44 31//31 43//43 
f 34//34 27//27 51//51 
f 51//51 27//27 52//52 
f 53//53 54//54 55//55 
f 55//55 54//54 56//56 
f 57//57 54//54 28//28 
f 28//28 54//54 58//58 
f 28//28 58//58 52//52 
f 57//57 56//56 54//54 
f 52//52 27//27 28//28 
f 55//55 59//59 53//53 
f 53//53 59//59 35//35 
f 53//53 35//35 60//60 
f 60//60 35//35 51//51 
f 51//51 35//35 34//34 
f 58//58 60//60 52//52 
f 52//52 60//60 51//51 
f 57//57 59//59 56//56 
f 56//56 59//59 55//55 
f 24//24 26//26 22//22 
f 22//22 26//26 21//21 
f 22//22 21//21 19//19 
f 2//2 1//1 9//9 
f 9//9 1//1 10//10 
f 60//60 42//42 53//53 
f 53//53 42//42 49//49 
f 53//53 49//49 9//9 
f 9//9 49//49 2//2 
f 2//2 49//49 50//50 
f 2//2 50//50 4//4 
f 4//4 50//50 41//41 
f 4//4 41//41 42//42 
f 42//42 60//60 11//11 
f 11//11 60//60 58//58 
f 11//11 58//58 54//54 
f 11//11 54//54 9//9 
f 9//9 54//54 53//53 
f 11//11 4//4 42//42 
f 28//28 12//12 57//57 
f 57//57 12//12 10//10 
f 57//57 10//10 59//59 
f 59//59 10//10 45//45 
f 59//59 45//45 36//36 
f 10//10 1//1 45//45 
f 45//45 1//1 46//46 
f 46//46 1//1 7//7 
f 46//46 7//7 33//33 
f 36//36 35//35 59//59 
