v -0.03814829141 0.214985162 -0.001889276085 1 1 1
vn -0.8835510612 0.1155812442 -0.4538485408
v -0.005730172154 0.2071407288 -0.04522989318 1 1 1
vn -0.1540503651 0.04829080403 -0.9868822098
v -0.004132884089 0.2228296101 -0.02658778802 1 1 1
vn 0.033170674 0.9773736 -0.2089031786
v -0.02948917076 0.2071407288 0.03577298298 1 1 1
vn -0.685243547 0.05279420316 0.7263979912
v 0.03236389905 -0.2228296697 -0.03446329013 1 1 1
vn 0.4708032608 -0.4596700668 -0.7530257106
v -0.005730172154 -0.06612514704 -0.04522989318 1 1 1
vn -0.4065324366 0.0108231185 -0.9135722518
v -0.02948917076 -0.2228296697 0.03577298298 1 1 1
vn -0.4881930947 -0.4513057768 0.7469877005
v -0.01467833202 -0.2228296697 -0.04316394031 1 1 1
vn -0.462202549 -0.2605696619 -0.8476274014
v -0.04572512954 -0.2228296697 -0.00765159633 1 1 1
vn -0.99201864 -0.1162890047 -0.04874288663
v 0.01623551175 0.2071407288 0.0434245877 1 1 1
vn 0.4985569715 0.05021660775 0.8654012084
v -0.03663702682 -0.06612514704 0.02988101169 1 1 1
vn -0.7787601948 -2.240661467e-18 0.6273217201
v -0.001239697216 0.2228296101 0.02943586372 1 1 1
vn -0.0260054525 0.9747581482 0.2217438072
v 0.04572512954 -0.2228296697 0.007651631255 1 1 1
vn 0.9957296848 -0.07772164792 0.04981748387
v 0.04214464128 -0.06612514704 0.0145226866 1 1 1
vn 0.9386469722 0.007303716149 0.3448022008
v 0.004443248734 -0.06612514704 0.04614711925 1 1 1
vn 0.06177996099 2.248245637e-17 0.9980897903
v 0.03236389905 -0.06612514704 -0.03446329013 1 1 1
vn 0.7290273905 0.00412961375 -0.684472084
v 0.01623551175 -0.2228296697 0.0434245877 1 1 1
vn 0.4514108598 -0.2615046203 0.8531374931
v 0.03663617 0.2071407288 -0.02988141403 1 1 1
vn 0.873449564 0.07127160579 -0.4816702008
v -0.04572512954 -0.06612514704 -0.00765159633 1 1 1
vn -0.950086236 0.02373894304 -0.3110828996
v 0.03812861815 0.214985162 0.005911676679 1 1 1
vn 0.942718327 0.2209108025 0.249961108
# mm_gid 0
g mmGroup0
f 4//4 19//19 11//11 
f 1//1 19//19 4//4 
f 10//10 20//20 12//12 
f 10//10 15//15 14//14 
f 10//10 14//14 20//20 
f 17//17 5//5 13//13 
f 5//5 16//16 13//13 
f 13//13 16//16 14//14 
f 17//17 14//14 15//15 
f 13//13 14//14 17//17 
f 3//3 1//1 12//12 
f 18//18 14//14 16//16 
f 20//20 14//14 18//18 
f 18//18 3//3 20//20 
f 3//3 12//12 20//20 
f 17//17 15//15 7//7 
f 7//7 5//5 17//17 
f 5//5 6//6 16//16 
f 2//2 16//16 6//6 
f 18//18 16//16 2//2 
f 2//2 3//3 18//18 
f 9//9 11//11 19//19 
f 8//8 7//7 9//9 
f 7//7 11//11 9//9 
f 4//4 12//12 1//1 
f 10//10 12//12 4//4 
f 4//4 15//15 10//10 
f 4//4 11//11 15//15 
f 7//7 15//15 11//11 
f 7//7 8//8 5//5 
f 8//8 6//6 5//5 
f 9//9 19//19 8//8 
f 8//8 19//19 6//6 
f 1//1 6//6 19//19 
f 2//2 6//6 1//1 
f 1//1 3//3 2//2 
