v 0.06477148831 -0.5550631285 -0.2988701463 1 1 1
vn 0.8579757214 -0.2606231868 -0.4426659942
v -0.08021641523 -0.2984985113 0.6011973023 1 1 1
vn -0.09679368883 -0.5198753476 0.8487405777
v -0.1741841286 -0.5904210806 -0.04107315838 1 1 1
vn -0.8972091079 -0.3472471237 -0.2728283107
v -0.0825080052 -0.2997086644 -0.1685186177 1 1 1
vn -0.3607576191 -0.9155808687 -0.1776671708
v -0.06286408007 -0.5550631285 -0.3012384772 1 1 1
vn -0.8429373503 -0.2405049801 -0.4812629223
v 0.001609194209 -0.301725626 -0.3354061842 1 1 1
vn 0.06498257071 0.4831773937 -0.8731076121
v 0.3700680137 -0.2984985113 -0.480543673 1 1 1
vn 0.5223764181 -0.3393757939 -0.7822703719
v -0.005356102251 -0.5904210806 -0.1789345145 1 1 1
vn -0.01807982661 -0.9418612719 -0.3355151713
v 0.1662276983 -0.5904210806 -0.05491124466 1 1 1
vn 0.9167513847 -0.145358026 -0.3720725477
v 0.1512506902 -0.5904210806 0.1072854549 1 1 1
vn 0.4674196541 -0.7155186534 0.5191839337
v 0.08021638542 -0.2984985113 -0.6011975408 1 1 1
vn 0.07060460001 -0.477907151 -0.8755682707
v 0.1038044095 0.379902482 -0.5715605617 1 1 1
vn 0.286831975 0.2375617176 -0.9280580878
v 0.09362217784 -0.2997086644 -0.1482786685 1 1 1
vn 0.3134709299 -0.941791594 -0.1215094849
v 0.5607600212 -0.2984985113 -0.2311286181 1 1 1
vn 0.8416119218 -0.4261728525 -0.3317620456
v 0.6011975408 -0.2984985113 0.08021686226 1 1 1
vn 0.8522917032 -0.5151161551 0.09085283428
v 0.1481310725 -0.2984985113 0.08519754559 1 1 1
vn 0.2436076403 -0.9519876242 0.1854045242
v 0.480543673 -0.2984985113 0.3700684905 1 1 1
vn 0.7490800619 -0.3765153885 0.5450827479
v 0.231128633 -0.2984985113 0.560760498 1 1 1
vn 0.3788155615 -0.4227425754 0.8232784867
v -0.2311286777 -0.2984985113 -0.5607609749 1 1 1
vn -0.4448433816 -0.3994517326 -0.8015938401
v -0.1596338898 0.379902482 -0.560998857 1 1 1
vn -0.2109996676 0.09345412999 -0.9730084538
v -0.1269013882 0.2145047784 -0.4089155495 1 1 1
vn -0.5265709758 0.1850363016 -0.8297497034
v -0.1563275903 0.2145047784 -0.5125988722 1 1 1
vn 0.14696078 0.7591297626 0.6341328621
v 0.1219552159 0.2145047784 -0.4166406393 1 1 1
vn 0.3220566213 0.3635987639 -0.8741140962
v 0.01694520563 0.5633291602 0.4044137895 1 1 1
vn 0.1083976924 0.3094385564 0.9447209835
v -0.545845747 0.379902482 0.2000646442 1 1 1
vn -0.9003128409 0.06298626214 0.4306616783
v 0.09663949907 0.2145047784 0.4043842554 1 1 1
vn 0.1323684752 0.3749364316 0.9175517559
v 0.5544552803 0.379902482 0.1802999973 1 1 1
vn 0.928876698 0.09668786079 0.3575465679
v 0.4818328023 0.379902482 -0.3683888614 1 1 1
vn 0.8196536899 0.06155839935 -0.5695422292
v 0.5696588159 0.379902482 -0.1199793443 1 1 1
vn 0.9819538593 0.1879417449 -0.02108315378
v -0.177925542 -0.2984985113 0.01701871492 1 1 1
vn -0.3048988283 -0.9499738812 0.06772267818
v 0.3911486566 0.379902482 0.4327478111 1 1 1
vn 0.6516121626 0.07681694627 0.7546527386
v -0.3943185508 -0.2984985113 0.4488264024 1 1 1
vn -0.6272034049 -0.3883864284 0.6751087904
v -0.4015144706 0.2145047784 -0.1205603704 1 1 1
vn -0.8401114941 0.49526456 -0.2211915255
v -0.5355904102 -0.2984985113 -0.2647173405 1 1 1
vn -0.7753862739 -0.4622819722 -0.4301993847
v -0.3876921237 0.379902482 -0.4291679561 1 1 1
vn -0.6380841732 0.1433490664 -0.7565048933
v -0.07341357321 0.5362371206 -0.4217564464 1 1 1
vn -0.1555820405 0.155820176 -0.9754559398
v -0.3274435699 0.5633291602 -0.2322537452 1 1 1
vn -0.4639571905 0.8088880181 -0.3611701429
v -0.06440769136 0.5904210806 -0.369612813 1 1 1
vn -0.04218463227 0.9795773029 -0.1965927929
v 0.2110795528 0.5633291602 -0.3478093445 1 1 1
vn 0.3928017914 0.6949675679 -0.6022680998
v 0.3509665132 0.2145047784 -0.4240464568 1 1 1
vn -0.4707325101 0.6408277154 0.6064245105
v 0.3451711833 0.379902482 -0.468067944 1 1 1
vn 0.3198661804 0.2677752674 -0.9088355303
v -0.5599506497 0.379902482 -0.2330850065 1 1 1
vn -0.886500895 0.08291226625 -0.4552380443
v 0.3662898839 0.2145047784 -0.2012598813 1 1 1
vn 0.8181690574 0.3817239404 -0.4299839735
v 0.379242301 0.5362371206 -0.2082927078 1 1 1
vn 0.8492171764 0.1674703807 -0.5007832646
v -0.06891391426 -0.5904210806 0.1567860097 1 1 1
vn -0.2681391537 -0.5265594721 0.8067443967
v 0.5515604615 0.2145047784 -0.05307126418 1 1 1
vn -0.681714654 0.7259252071 0.09109178185
v 0.3932176828 0.5633291602 -0.03894357383 1 1 1
vn 0.4271736443 0.9040222764 -0.01632189006
v 0.3015507162 0.2145047784 0.476944983 1 1 1
vn -0.2588525414 0.7952612638 -0.5482288599
v 0.1630906165 0.379902482 0.5645782948 1 1 1
vn 0.223950237 0.1456745416 0.9636520147
v -0.1162554771 0.2145047784 0.5304960012 1 1 1
vn 0.2044572085 0.7398604751 -0.6409397125
v -0.1003472656 0.379902482 0.5751404762 1 1 1
vn -0.3167543709 0.07239738107 0.9457405806
v -0.07048114389 -0.2984985113 0.1675314009 1 1 1
vn -0.06049934775 -0.9553154707 0.2893304825
v -0.6014739275 -0.2984985113 0.07811768353 1 1 1
vn -0.8962578177 -0.4142376482 0.1585217565
v -0.3733476698 0.379902482 0.4472878873 1 1 1
vn -0.5728207827 0.411578089 0.7088581324
v 0.2509914339 0.5904210806 0.2635443807 1 1 1
vn 0.05395938084 0.9965569377 0.06294960529
v -0.4913826287 0.2145047784 -0.2573193312 1 1 1
vn 0.6735864282 0.6499695778 0.3518818915
v -0.5769026279 0.379902482 -0.0607117191 1 1 1
vn -0.9815152287 0.1907847077 -0.01513259299
v 0.4982956946 0.2145047784 0.2644788623 1 1 1
vn -0.7148008347 0.588639915 -0.3775749803
v -0.5127221346 0.2145047784 0.1633639485 1 1 1
vn 0.6128998995 0.741240859 -0.2737074494
v 0.3989712298 0.2145047784 0.1452389508 1 1 1
vn 0.7873132229 0.5357918143 0.3050656617
v -0.3039754927 0.2145047784 0.2857165933 1 1 1
vn -0.6704531312 0.4003194869 0.6246894598
v -0.4071755707 0.5362371206 0.09564580023 1 1 1
vn -0.9701978564 0.09787131846 0.22166951
v -0.3567192256 0.5904210806 0.08353225887 1 1 1
vn -0.04320278764 0.9988511801 -0.02073319443
v -0.1992263198 0.5633291602 0.3480669558 1 1 1
vn -0.4144741595 0.4636606574 0.7830899954
v 0.2867106199 0.5362371206 0.3011842072 1 1 1
vn 0.7163130045 0.1163000911 0.688018918
# mm_gid 0
g mmGroup0
f 6//6 5//5 4//4 
f 4//4 5//5 8//8 
f 8//8 5//5 1//1 
f 13//13 11//11 7//7 
f 8//8 9//9 10//10 
f 8//8 10//10 45//45 
f 4//4 19//19 11//11 
f 4//4 11//11 13//13 
f 13//13 1//1 6//6 
f 1//1 5//5 6//6 
f 6//6 4//4 13//13 
f 8//8 1//1 13//13 
f 11//11 12//12 7//7 
f 7//7 12//12 41//41 
f 13//13 9//9 8//8 
f 16//16 9//9 13//13 
f 13//13 15//15 16//16 
f 16//16 10//10 9//9 
f 16//16 45//45 10//10 
f 52//52 45//45 16//16 
f 16//16 2//2 52//52 
f 19//19 35//35 20//20 
f 19//19 20//20 11//11 
f 11//11 20//20 12//12 
f 20//20 22//22 12//12 
f 12//12 22//22 40//40 
f 12//12 40//40 41//41 
f 7//7 41//41 28//28 
f 7//7 28//28 14//14 
f 13//13 7//7 14//14 
f 14//14 28//28 29//29 
f 14//14 29//29 15//15 
f 13//13 14//14 15//15 
f 15//15 29//29 27//27 
f 15//15 27//27 17//17 
f 16//16 15//15 17//17 
f 17//17 27//27 31//31 
f 17//17 31//31 18//18 
f 16//16 17//17 18//18 
f 18//18 31//31 49//49 
f 18//18 49//49 2//2 
f 16//16 18//18 2//2 
f 2//2 49//49 51//51 
f 2//2 51//51 32//32 
f 52//52 2//2 32//32 
f 30//30 53//53 34//34 
f 30//30 34//34 4//4 
f 4//4 3//3 30//30 
f 4//4 8//8 3//3 
f 8//8 45//45 3//3 
f 4//4 34//34 19//19 
f 34//34 35//35 19//19 
f 35//35 56//56 22//22 
f 35//35 22//22 20//20 
f 21//21 22//22 33//33 
f 37//37 21//21 33//33 
f 36//36 21//21 37//37 
f 36//36 37//37 38//38 
f 36//36 23//23 21//21 
f 23//23 22//22 21//21 
f 23//23 40//40 22//22 
f 36//36 38//38 39//39 
f 39//39 23//23 36//36 
f 39//39 43//43 23//23 
f 43//43 40//40 23//23 
f 29//29 28//28 41//41 
f 41//41 40//40 29//29 
f 29//29 40//40 46//46 
f 29//29 46//46 27//27 
f 27//27 58//58 31//31 
f 31//31 48//48 49//49 
f 49//49 50//50 51//51 
f 32//32 51//51 54//54 
f 30//30 3//3 45//45 
f 30//30 45//45 52//52 
f 52//52 32//32 30//30 
f 30//30 32//32 53//53 
f 53//53 25//25 57//57 
f 53//53 57//57 34//34 
f 34//34 57//57 42//42 
f 34//34 42//42 35//35 
f 35//35 42//42 57//57 
f 57//57 56//56 35//35 
f 62//62 63//63 37//37 
f 37//37 33//33 62//62 
f 33//33 22//22 56//56 
f 63//63 47//47 37//37 
f 37//37 47//47 39//39 
f 37//37 39//39 38//38 
f 43//43 46//46 40//40 
f 44//44 43//43 39//39 
f 44//44 39//39 47//47 
f 60//60 46//46 43//43 
f 47//47 60//60 43//43 
f 47//47 43//43 44//44 
f 60//60 58//58 46//46 
f 27//27 46//46 58//58 
f 65//65 60//60 47//47 
f 65//65 47//47 55//55 
f 65//65 26//26 60//60 
f 26//26 48//48 60//60 
f 60//60 48//48 58//58 
f 31//31 58//58 48//48 
f 26//26 50//50 48//48 
f 49//49 48//48 50//50 
f 24//24 26//26 65//65 
f 65//65 55//55 24//24 
f 64//64 26//26 24//24 
f 64//64 61//61 26//26 
f 61//61 50//50 26//26 
f 51//51 50//50 54//54 
f 32//32 54//54 25//25 
f 32//32 25//25 53//53 
f 54//54 59//59 25//25 
f 25//25 59//59 57//57 
f 57//57 59//59 56//56 
f 33//33 56//56 59//59 
f 63//63 55//55 47//47 
f 55//55 63//63 64//64 
f 55//55 64//64 24//24 
f 54//54 50//50 59//59 
f 61//61 59//59 50//50 
f 62//62 61//61 64//64 
f 33//33 59//59 61//61 
f 62//62 33//33 61//61 
f 62//62 64//64 63//63 
