v -0.1798612624 0.1115769967 0.04442788661 1 1 1
vn 0.05061186478 0.9987000823 -0.006045741029
v -0.1718813628 0.1070050076 -0.1715549082 1 1 1
vn -0.5631579757 0.6360485554 -0.5275370479
v 0.133352533 0.1133155823 0.1356222779 1 1 1
vn -0.04318912327 0.9989597201 -0.01463634893
v 0.1464947909 0.08120916784 0.1969447732 1 1 1
vn 0.1207764447 -0.979460597 0.1614619642
v -0.2109173387 0.09494981915 0.1285580099 1 1 1
vn -0.4034771919 -0.8813720345 0.2457427233
v -0.2447342575 0.08997966349 0.01846468262 1 1 1
vn -0.3191916943 -0.9466310143 0.044792898
v -0.09265277535 0.08120916784 0.2246393263 1 1 1
vn -0.1420444995 -0.9632157683 0.2281201333
v 0.1417279691 0.08120916784 0.02947092056 1 1 1
vn 0.8456837535 -0.5300644636 -0.06205412
v 0.1417279691 -0.1352939755 0.02947092056 1 1 1
vn 0.6893946528 -0.6678247452 0.2806156278
v -0.2240363061 0.1141161099 0.06081604585 1 1 1
vn -0.2109861672 0.9764080048 0.04595890641
v 0.1589026302 0.1120574921 0.1718773246 1 1 1
vn 0.209686324 0.9510727525 0.2269189656
v 0.1850244552 0.1131000072 0.03411411121 1 1 1
vn -0.06569408625 0.9978118539 -0.007471322082
v -0.163915813 0.1131000072 -0.09400076419 1 1 1
vn 0.01919797435 0.9997522235 0.01126767695
v 0.04966990277 0.1093828529 0.1798172444 1 1 1
vn -0.009666414931 0.9997827411 -0.01846606657
v 0.2275184095 0.1168390065 0.03062732145 1 1 1
vn 0.2527417243 0.9673464298 0.01904053614
v -0.04707676172 -0.1352939755 0.135970667 1 1 1
vn -0.401597321 -0.3863802552 0.8303191662
v 0.03742983565 0.08120916784 0.241937235 1 1 1
vn 0.04175365344 -0.9269805551 0.3727782667
v -0.2222351581 0.08120916784 -0.1066933349 1 1 1
vn -0.2673628628 -0.9531167746 -0.1417235434
v -0.03186493739 0.1084216535 0.2354080975 1 1 1
vn -0.04193859175 0.9334866405 0.3561514318
v -0.01302058622 0.08120916784 0.142715022 1 1 1
vn -0.1041467264 -0.5604128242 0.8216391802
v -0.1261706501 0.08120916784 0.07142523676 1 1 1
vn -0.6872265935 -0.5509089231 0.4735176563
v -0.1393303126 -0.1352939755 0.04842142388 1 1 1
vn -0.9547809362 -0.1164351404 0.2735620439
v -0.136097461 -0.1352939755 -0.0553705357 1 1 1
vn -0.5314679146 -0.8171004057 -0.2233579904
v -0.1302723885 0.08120916784 -0.06224770471 1 1 1
vn -0.8159676194 -0.4788098335 -0.3239412904
v -0.04801780358 0.08120916784 -0.1371091157 1 1 1
vn -0.1615542173 -0.4731942713 -0.8660181165
v -0.1437007934 0.1097368598 0.189335674 1 1 1
vn -0.2614516318 0.8969759941 0.3564787507
v -0.02687541209 0.1038579643 0.01679583825 1 1 1
vn -0.004025268834 0.9999909997 -0.001356554101
v -0.06421526521 -0.1352939755 -0.1303106397 1 1 1
vn -0.322085619 -0.7706099153 -0.5499284267
v 0.09334741533 0.1084216461 -0.2195802778 1 1 1
vn 0.1024612263 0.9372113347 -0.3333715498
v 0.06422272325 -0.1352939755 0.1303102225 1 1 1
vn 0.2586421072 -0.7773089409 0.5734937191
v 0.08828519285 0.08120916784 0.1183767319 1 1 1
vn 0.6514562368 -0.2758820951 0.7067487836
v 0.2222438902 0.08120916784 0.1066922471 1 1 1
vn 0.3342255652 -0.9303638339 0.1507196873
v 0.2228624225 0.1056848094 0.09614686668 1 1 1
vn 0.7805151343 0.5435761809 0.3087411523
v -0.2216347456 0.1070651636 -0.09288240224 1 1 1
vn -0.4031166434 0.9072930813 -0.1196505129
v 0.09205234796 0.1069637686 0.2214466035 1 1 1
vn 0.2539448142 0.6423361301 0.7231295109
v -0.008684689179 0.1038579643 -0.03138720989 1 1 1
vn -0.001821660437 0.9998641014 -0.01638563164
v 0.1506354511 0.09114946425 -0.1942401528 1 1 1
vn 0.2815175653 -0.8652450442 -0.41484797
v -0.02831003442 0.1352939755 -0.0141467629 1 1 1
vn -0.5675160289 0.7603314519 -0.3159455657
v 0.1823685467 0.1167465299 -0.1411031634 1 1 1
vn 0.1083511561 0.9869574308 -0.1190590262
v -0.09351990372 0.1124800071 -0.1654465944 1 1 1
vn 0.0426746197 0.9977487922 0.05173257366
v -0.08769843727 0.1163894013 -0.2078977823 1 1 1
vn -0.08226188272 0.9619418383 -0.2605780065
v 0.1641856432 0.1112237349 -0.08999408036 1 1 1
vn -0.0675168708 0.9974993467 0.02089255303
v -0.02026661485 0.1352939755 0.02865724638 1 1 1
vn -0.3659859598 0.4952586293 0.7878916264
v 0.01826211438 0.1038579643 0.02724689059 1 1 1
vn -0.01893651113 0.9988652468 0.04369994253
v 0.03098666109 0.1038579643 -0.01495737862 1 1 1
vn 0.02530126087 0.9996461272 -0.008213648573
v 0.04708377644 -0.1352939755 -0.1359712929 1 1 1
vn 0.2166821808 -0.3429359794 -0.9140261412
v 0.2465441376 0.09079838544 -0.01225610729 1 1 1
vn 0.2850260139 -0.9584282041 -0.01324865222
v 0.08073285222 0.08120916784 -0.1172725633 1 1 1
vn 0.4960377216 -0.6274533868 -0.6002073288
v 0.02027537115 0.1352939755 -0.0286581181 1 1 1
vn 0.3547801375 0.6856013536 -0.6356742978
v 0.01171104051 0.09363446385 -0.2433800548 1 1 1
vn 0.03516323119 -0.9341609478 -0.3551152647
v 0.2149718553 0.08500952274 -0.1219047159 1 1 1
vn 0.187733084 -0.9770317078 -0.1008233726
v -0.01493053883 0.1117281243 -0.1904409826 1 1 1
vn 0.01824316382 0.9989142418 0.04286576435
v 0.1299663186 -0.1352939755 -0.07359175384 1 1 1
vn 0.8938176036 -0.05021586642 -0.445610255
v -0.06507147104 0.09298739582 -0.2360811234 1 1 1
vn -0.08862260729 -0.9108928442 -0.4030139446
v -0.09030395746 0.1109052524 0.1596876979 1 1 1
vn 0.02211602218 0.9996800423 -0.01227515936
v -0.135033533 0.09086852521 -0.2048594058 1 1 1
vn -0.1278735846 -0.9615209103 -0.2431580871
v 0.08512274921 0.1105172336 -0.165417999 1 1 1
vn -0.02436508052 0.9993321896 0.02723044157
v 0.02301867679 0.1352939755 0.02021201514 1 1 1
vn 0.5120378733 0.8140685558 0.274061352
v 0.2277431786 0.1060597599 -0.08435475081 1 1 1
vn 0.7082313895 0.643099308 -0.2912585437
# mm_gid 0
g mmGroup0
f 35//35 19//19 17//17 
f 26//26 10//10 5//5 
f 17//17 19//19 7//7 
f 7//7 20//20 17//17 
f 17//17 20//20 4//4 
f 35//35 17//17 4//4 
f 35//35 4//4 11//11 
f 15//15 12//12 11//11 
f 11//11 12//12 3//3 
f 11//11 3//3 14//14 
f 11//11 14//14 19//19 
f 19//19 35//35 11//11 
f 19//19 55//55 26//26 
f 26//26 55//55 10//10 
f 10//10 55//55 1//1 
f 10//10 34//34 6//6 
f 6//6 5//5 10//10 
f 7//7 19//19 26//26 
f 20//20 16//16 30//30 
f 30//30 31//31 20//20 
f 4//4 20//20 31//31 
f 4//4 31//31 8//8 
f 4//4 8//8 32//32 
f 11//11 4//4 32//32 
f 11//11 32//32 33//33 
f 11//11 33//33 15//15 
f 19//19 14//14 55//55 
f 6//6 34//34 18//18 
f 18//18 24//24 6//6 
f 6//6 24//24 21//21 
f 6//6 21//21 5//5 
f 5//5 21//21 7//7 
f 7//7 26//26 5//5 
f 7//7 21//21 20//20 
f 21//21 16//16 20//20 
f 21//21 22//22 16//16 
f 24//24 22//22 21//21 
f 24//24 23//23 22//22 
f 23//23 16//16 22//22 
f 18//18 34//34 2//2 
f 18//18 2//2 56//56 
f 56//56 24//24 18//18 
f 23//23 30//30 16//16 
f 28//28 30//30 23//23 
f 24//24 28//28 23//23 
f 56//56 25//25 24//24 
f 25//25 28//28 24//24 
f 25//25 56//56 54//54 
f 28//28 25//25 46//46 
f 46//46 9//9 28//28 
f 28//28 9//9 30//30 
f 9//9 31//31 30//30 
f 9//9 8//8 31//31 
f 41//41 56//56 2//2 
f 25//25 54//54 50//50 
f 25//25 50//50 48//48 
f 46//46 25//25 48//48 
f 32//32 8//8 47//47 
f 33//33 32//32 47//47 
f 33//33 47//47 15//15 
f 15//15 59//59 39//39 
f 39//39 12//12 15//15 
f 14//14 44//44 27//27 
f 14//14 27//27 55//55 
f 41//41 13//13 40//40 
f 34//34 13//13 41//41 
f 41//41 2//2 34//34 
f 10//10 13//13 34//34 
f 10//10 1//1 13//13 
f 41//41 54//54 56//56 
f 41//41 50//50 54//54 
f 59//59 15//15 47//47 
f 39//39 42//42 12//12 
f 3//3 44//44 14//14 
f 58//58 38//38 43//43 
f 43//43 44//44 58//58 
f 43//43 27//27 44//44 
f 55//55 27//27 1//1 
f 1//1 27//27 13//13 
f 13//13 36//36 40//40 
f 29//29 57//57 39//39 
f 29//29 52//52 57//57 
f 41//41 52//52 29//29 
f 29//29 50//50 41//41 
f 29//29 39//39 37//37 
f 59//59 37//37 39//39 
f 39//39 57//57 42//42 
f 41//41 40//40 52//52 
f 57//57 45//45 42//42 
f 42//42 45//45 12//12 
f 12//12 45//45 44//44 
f 12//12 44//44 3//3 
f 38//38 27//27 43//43 
f 38//38 36//36 27//27 
f 13//13 27//27 36//36 
f 40//40 36//36 52//52 
f 45//45 49//49 58//58 
f 45//45 58//58 44//44 
f 52//52 36//36 57//57 
f 57//57 36//36 45//45 
f 36//36 49//49 45//45 
f 38//38 58//58 49//49 
f 36//36 38//38 49//49 
f 9//9 46//46 53//53 
f 53//53 8//8 9//9 
f 47//47 51//51 59//59 
f 51//51 37//37 59//59 
f 29//29 37//37 50//50 
f 48//48 50//50 37//37 
f 53//53 48//48 8//8 
f 47//47 8//8 48//48 
f 47//47 48//48 51//51 
f 48//48 37//37 51//51 
f 46//46 48//48 53//53 
