v 0.07113663852 0.1507644057 -0.2401545942 1 1 1
vn 0.08765204996 -0.8848422766 -0.4575710595
v 0.3395416141 0.4868882 0.1005762964 1 1 1
vn 0.8260957599 -0.547175467 0.1347768158
v -0.06179467961 -0.79820925 -0.04702450335 1 1 1
vn -0.7451081276 -0.2089028805 -0.6333825588
v 0.4477674663 0.4868882 0.1326344162 1 1 1
vn 0.7790375948 -0.5937172771 0.2014950663
v 0.4076142013 0.7802672386 -0.2961493731 1 1 1
vn 0.1142133325 0.9909763932 -0.0701501593
v 0.301940769 0.267913878 0.1850288808 1 1 1
vn 0.7180525661 -0.3992854059 0.5700628757
v 0.2062829733 0.1507644057 0.1264098734 1 1 1
vn 0.4042437375 -0.8900268674 0.210806042
v 0.2049300373 0.7802672386 -0.4602794349 1 1 1
vn 0.07298503816 -0.9941868782 -0.07915613055
v 0.1123153195 0.5909956694 -0.08618269861 1 1 1
vn 0.3253257275 0.9203865528 -0.2169141769
v 0.4872586429 0.7802672386 0.1443319917 1 1 1
vn 0.01681723073 0.9998494983 0.004263638053
v -0.3498116732 0.7802672386 -0.3686253726 1 1 1
vn -0.02664732747 0.9990997314 -0.03301002458
v -0.4682568014 0.7802672386 -0.2084820867 1 1 1
vn -0.02895493805 0.9994975924 -0.01289153006
v 0.3564868569 0.267913878 -0.08558493108 1 1 1
vn 0.9458699822 -0.2737104297 -0.1743919253
v 0.1086228788 0.7623252273 -0.09509631246 1 1 1
vn 0.1989587992 -0.9664140344 -0.1626630127
v 0.1749340445 0.4868882 0.3221881688 1 1 1
vn 0.5022458434 -0.227893278 0.8341544867
v 0.06145995855 0.267913878 0.3558543921 1 1 1
vn 0.1619363576 -0.3565131724 0.9201494455
v 0.4175834358 0.4868882 -0.1929418594 1 1 1
vn 0.5777281523 -0.7483514547 -0.3258838952
v -0.03352595866 0.5909956694 -0.1288127303 1 1 1
vn -0.07867198437 0.9824432731 -0.1691625714
v 0.03732467443 -0.79820925 0.07473958284 1 1 1
vn 0.1821997464 -0.275549531 0.9438621402
v 0.4386229217 0.5909952521 -0.1053045094 1 1 1
vn 0.3275666833 0.9427651763 -0.06240147725
v -0.2228316069 0.5909952521 -0.4104062617 1 1 1
vn -0.2035927176 0.9144553542 -0.3497447073
v -0.1199686378 0.7623252273 -0.08030953258 1 1 1
vn -0.2722235322 -0.950525403 -0.1496523619
v -0.5080108047 0.7802672386 -0.01330328733 1 1 1
vn -0.02383038215 0.9997159839 -0.0002503098804
v -0.1511615068 0.7802672386 -0.4863354862 1 1 1
vn -0.294362843 0.8786661029 -0.3758940697
v 0.1301641911 0.7623252273 0.04939351976 1 1 1
vn 0.2029336393 -0.9777520299 0.05309341103
v -0.05011479557 0.1507644057 0.2223580033 1 1 1
vn 0.0115792118 -0.9011297226 0.4333949685
v -0.478526026 0.7802672386 0.1836885065 1 1 1
vn -0.01898675412 0.9997931719 0.007288280874
v 0.501953125 0.7802672386 -0.08610618114 1 1 1
vn 0.01378014777 0.9999019504 -0.002491619671
v 0.09344077855 0.5909956694 0.09479156137 1 1 1
vn 0.162262857 0.975799799 0.1465794444
v 0.04966200888 -0.79820925 -0.07132398337 1 1 1
vn 0.2777533829 -0.4398065209 -0.8540627956
v 0.07633507997 0.1507644057 0.03218827397 1 1 1
vn 0.8318942189 -0.50935781 0.2202421874
v 0.2568729222 0.4868882 -0.2437635511 1 1 1
vn 0.6683298945 -0.4624357224 -0.5826562643
v 0.3981819749 0.5909952521 0.244005844 1 1 1
vn 0.3405942321 0.9094304442 0.2386039793
v 0.2152399123 0.4868882 0.3964219987 1 1 1
vn 0.2780898809 -0.7436791062 0.6079534292
v 0.01330309082 0.7623252273 -0.5080116987 1 1 1
vn 0.003898625728 -0.9985719919 -0.0532800369
v -0.3449709117 0.4868882 0.1067928448 1 1 1
vn -0.8158616424 -0.447434485 0.3662952185
v 0.02232077159 0.1507644057 -0.08052598685 1 1 1
vn 0.2881270945 -0.4967778325 -0.81865412
v -0.4540949166 0.4868882 0.1090181842 1 1 1
vn -0.5814269185 -0.7654587626 0.2757092714
v -0.2431166023 0.1507644057 0.04198864847 1 1 1
vn -0.4135811925 -0.8981374502 0.1493308097
v -0.07898324728 -0.5157783031 -0.01313799154 1 1 1
vn -0.9997563362 0.001711318037 0.02200768143
v 0.2081690282 0.267913878 -0.2950872183 1 1 1
vn 0.470767051 -0.2192968428 -0.8545684814
v -0.01847877353 0.7623252273 -0.1403587908 1 1 1
vn 0.007440821268 -0.974721849 -0.2232979387
v -0.4069120884 0.5909952521 -0.2145323455 1 1 1
vn -0.2727071047 0.9526634216 -0.1343996227
v 0.2126157582 0.1507644057 -0.1154409871 1 1 1
vn 0.3637637198 -0.914131403 -0.1789965779
v -0.05417651683 0.5909956694 0.1307931095 1 1 1
vn -0.113025479 0.9510626793 0.287584722
v -0.319445312 0.4868882 -0.1684180498 1 1 1
vn -0.7443521619 -0.547221005 -0.3827388883
v -0.4540949166 0.5909952521 0.1090181842 1 1 1
vn -0.3965010345 0.9169800282 0.04398388043
v 0.3983420134 0.7802672386 0.3225710392 1 1 1
vn 0.02240118384 0.999584496 0.01814008318
v -0.04484311119 -0.5157783031 0.06537780911 1 1 1
vn -0.400610745 0.009902432561 0.9161948562
v -0.1403583586 0.5909956694 0.01847824454 1 1 1
vn -0.2389317304 0.9709914923 -0.009336281568
v -0.368625015 0.7802672386 0.3498116732 1 1 1
vn -0.04769160226 0.9974813461 0.05250263959
v 0.1053043157 0.5909952521 0.4386222959 1 1 1
vn 0.02898118459 0.9107105732 0.4120271206
v 0.01847878844 0.7623252273 0.1403582841 1 1 1
vn 0.04194415361 -0.9546968937 0.2946090698
v 0.05357789248 0.7802672386 0.5097625852 1 1 1
vn 0.005709626712 -0.9985070825 0.05432345718
v -0.144332841 0.7802672386 0.4872581661 1 1 1
vn -0.02760159411 -0.9973524213 0.06727747619
v -0.1005763784 0.4868882 0.3395405114 1 1 1
vn -0.3086903989 -0.3547697663 0.8825240135
v -0.06092076749 -0.79820925 0.04985179007 1 1 1
vn -0.7714794278 -0.3759330511 0.5133164525
v -0.2356917113 0.4868882 0.384613663 1 1 1
vn -0.2438940406 -0.6889861226 0.682505548
v -0.2523618937 0.267913878 -0.2659342885 1 1 1
vn -0.6966417432 -0.2433294803 -0.6748933792
v -0.3214598596 0.4868882 -0.3387492299 1 1 1
vn -0.4598818719 -0.7566373944 -0.4647671282
v -0.06145992875 0.267913878 -0.3558554053 1 1 1
vn -0.08628477901 -0.3958866298 -0.9142366648
v -0.08266869187 0.4868882 -0.3443399072 1 1 1
vn -0.08854357153 -0.469385922 -0.8785424829
v 0.2440066934 0.5909952521 -0.3981823623 1 1 1
vn 0.2483831942 0.9262510538 -0.2834867835
v -0.3125381768 0.5909952521 0.3375222087 1 1 1
vn -0.2373255938 0.9223040938 0.3050109446
v 0.09201261401 -0.79820925 0.01201681606 1 1 1
vn 0.9956017137 -0.06755677611 0.06491032243
v -0.4477669895 0.4868882 -0.1326359063 1 1 1
vn -0.8536302447 -0.4813641906 -0.199007377
v 0.01222387049 0.5909952521 -0.4668387473 1 1 1
vn 0.02052318864 0.8998936415 -0.4356262684
v -0.109018594 0.4868882 -0.4540953338 1 1 1
vn -0.1591870189 -0.6273683906 -0.7622784376
v -0.1585201174 0.1507644057 -0.1774173677 1 1 1
vn -0.3218913674 -0.8943572044 -0.310662359
v -0.02805618569 -0.5157783031 -0.08196159452 1 1 1
vn -0.3414719999 -0.003151112469 -0.9398866892
v -0.2081683427 0.267913878 0.295085758 1 1 1
vn -0.6313518286 -0.3353421688 0.6992427707
v 0.2424858063 0.7802672386 0.4466018677 1 1 1
vn 0.1472824812 -0.9591114521 0.2416879088
v -0.1154202297 0.7623252273 0.07216004282 1 1 1
vn -0.1912321299 -0.9729287624 0.129768759
v -0.3540021181 0.267913878 -0.009270308539 1 1 1
vn -0.935084343 -0.3544185162 -0.002198171802
v -0.07314506173 0.1507644057 -0.03193911165 1 1 1
vn -0.8188978434 -0.3701484501 -0.4386301339
v -0.04194457084 0.1507644057 0.0657081753 1 1 1
vn -0.3930970728 -0.2962154448 0.8704774976
v 0.1588454694 0.4868882 -0.4317059517 1 1 1
vn 0.2276338786 -0.8210958242 -0.523435235
v 0.06531396508 -0.5157783031 -0.06061728671 1 1 1
vn 0.8640756607 0.01650609821 -0.5030912161
v 0.0607001707 -0.5157783031 0.05331737921 1 1 1
vn 0.625916183 0.02071494237 0.7796151638
# mm_gid 0
g mmGroup0
f 4//4 2//2 17//17 
f 20//20 4//4 17//17 
f 20//20 9//9 29//29 
f 31//31 44//44 7//7 
f 44//44 13//13 7//7 
f 7//7 13//13 6//6 
f 2//2 6//6 13//13 
f 2//2 13//13 32//32 
f 17//17 2//2 32//32 
f 5//5 14//14 8//8 
f 24//24 5//5 8//8 
f 11//11 5//5 24//24 
f 5//5 25//25 14//14 
f 25//25 9//9 14//14 
f 25//25 29//29 9//9 
f 28//28 25//25 5//5 
f 11//11 28//28 5//5 
f 12//12 28//28 11//11 
f 10//10 25//25 28//28 
f 20//20 29//29 33//33 
f 33//33 4//4 20//20 
f 33//33 34//34 4//4 
f 2//2 4//4 34//34 
f 2//2 34//34 15//15 
f 15//15 6//6 2//2 
f 7//7 6//6 26//26 
f 31//31 7//7 26//26 
f 19//19 30//30 65//65 
f 65//65 79//79 19//19 
f 20//20 17//17 63//63 
f 63//63 9//9 20//20 
f 8//8 35//35 24//24 
f 35//35 42//42 24//24 
f 24//24 42//42 11//11 
f 11//11 42//42 22//22 
f 11//11 22//22 12//12 
f 23//23 28//28 12//12 
f 23//23 10//10 28//28 
f 15//15 16//16 6//6 
f 26//26 6//6 16//16 
f 31//31 26//26 76//76 
f 76//76 79//79 31//31 
f 30//30 70//70 78//78 
f 37//37 78//78 70//70 
f 30//30 78//78 65//65 
f 31//31 79//79 78//78 
f 31//31 78//78 37//37 
f 37//37 44//44 31//31 
f 44//44 41//41 13//13 
f 32//32 13//13 41//41 
f 17//17 32//32 77//77 
f 63//63 17//17 77//77 
f 14//14 9//9 42//42 
f 8//8 14//14 42//42 
f 8//8 42//42 35//35 
f 42//42 18//18 22//22 
f 12//12 22//22 23//23 
f 48//48 25//25 10//10 
f 33//33 29//29 52//52 
f 52//52 34//34 33//33 
f 15//15 34//34 56//56 
f 56//56 16//16 15//15 
f 76//76 49//49 79//79 
f 19//19 79//79 49//49 
f 19//19 49//49 57//57 
f 30//30 19//19 57//57 
f 30//30 57//57 3//3 
f 3//3 70//70 30//30 
f 37//37 70//70 75//75 
f 75//75 69//69 37//37 
f 69//69 59//59 61//61 
f 69//69 61//61 1//1 
f 37//37 69//69 1//1 
f 1//1 61//61 41//41 
f 1//1 41//41 44//44 
f 37//37 1//1 44//44 
f 63//63 77//77 67//67 
f 67//67 18//18 63//63 
f 63//63 18//18 9//9 
f 42//42 9//9 18//18 
f 67//67 77//77 68//68 
f 67//67 68//68 21//21 
f 21//21 18//18 67//67 
f 21//21 68//68 60//60 
f 21//21 60//60 43//43 
f 43//43 18//18 21//21 
f 43//43 60//60 66//66 
f 43//43 50//50 18//18 
f 22//22 18//18 50//50 
f 22//22 50//50 73//73 
f 23//23 22//22 73//73 
f 27//27 10//10 23//23 
f 10//10 27//27 48//48 
f 72//72 25//25 48//48 
f 72//72 53//53 25//25 
f 53//53 29//29 25//25 
f 43//43 66//66 47//47 
f 47//47 50//50 43//43 
f 23//23 73//73 27//27 
f 48//48 27//27 51//51 
f 48//48 51//51 72//72 
f 52//52 58//58 34//34 
f 56//56 34//34 58//58 
f 56//56 71//71 16//16 
f 26//26 16//16 71//71 
f 75//75 70//70 40//40 
f 69//69 74//74 59//59 
f 46//46 59//59 74//74 
f 66//66 46//46 38//38 
f 47//47 66//66 38//38 
f 27//27 73//73 51//51 
f 54//54 53//53 72//72 
f 53//53 45//45 29//29 
f 52//52 29//29 45//45 
f 64//64 58//58 52//52 
f 52//52 45//45 64//64 
f 3//3 40//40 70//70 
f 75//75 39//39 69//69 
f 39//39 74//74 69//69 
f 46//46 74//74 36//36 
f 38//38 46//46 36//36 
f 47//47 38//38 64//64 
f 64//64 50//50 47//47 
f 72//72 51//51 55//55 
f 72//72 55//55 54//54 
f 55//55 53//53 54//54 
f 73//73 45//45 53//53 
f 55//55 73//73 53//53 
f 51//51 73//73 55//55 
f 58//58 36//36 56//56 
f 36//36 71//71 56//56 
f 26//26 71//71 39//39 
f 76//76 26//26 39//39 
f 76//76 39//39 75//75 
f 75//75 40//40 76//76 
f 76//76 40//40 49//49 
f 57//57 49//49 40//40 
f 57//57 40//40 3//3 
f 38//38 36//36 58//58 
f 64//64 38//38 58//58 
f 36//36 74//74 71//71 
f 39//39 71//71 74//74 
f 64//64 45//45 50//50 
f 73//73 50//50 45//45 
f 60//60 46//46 66//66 
f 60//60 62//62 46//46 
f 62//62 59//59 46//46 
f 62//62 61//61 59//59 
f 68//68 62//62 60//60 
f 77//77 62//62 68//68 
f 77//77 32//32 62//62 
f 32//32 41//41 62//62 
f 62//62 41//41 61//61 
f 65//65 78//78 79//79 
