v 0.03292385489 -1.728814125 -1.18147254 1 1 1
vn 0.9982700348 -0.01901124045 -0.05563725904
v 0.03292385489 1.728814006 -1.18147254 1 1 1
vn 0.9997217059 0.01903890073 -0.01392953098
v 0.03292385489 -1.728814125 1.181469083 1 1 1
vn 0.9997217059 -0.01903888583 0.01392953098
v 0.03292385489 1.728814006 1.18147254 1 1 1
vn 0.9982700348 0.01901118457 0.05563717708
v -0.03292385489 -1.728814125 1.181469083 1 1 1
vn -0.9982700348 -0.01901129633 0.05563725904
v -0.03292385489 1.728814006 1.18147254 1 1 1
vn -0.9997217059 0.01903888583 0.01392953098
v -0.03292385489 -1.728814125 -1.18147254 1 1 1
vn -0.9997217059 -0.01903887279 -0.01392953098
v -0.03292385489 1.728814006 -1.18147254 1 1 1
vn -0.9982700348 0.01901124045 -0.05563717708
# mm_gid 3
g mmGroup3
f 1//1 2//2 3//3 
f 3//3 7//7 1//1 
f 7//7 8//8 1//1 
f 1//1 8//8 2//2 
f 8//8 6//6 2//2 
f 2//2 6//6 4//4 
f 3//3 2//2 4//4 
f 4//4 5//5 3//3 
f 5//5 7//7 3//3 
f 5//5 6//6 7//7 
f 7//7 6//6 8//8 
f 6//6 5//5 4//4 
