v 0.2854516208 0.07648479939 0.07017240673 1 1 1
vn 0.9472020268 0.2288330346 0.2245969474
v 0.2426941395 0.06502765417 0.1144456714 1 1 1
vn 0.09232521057 0.0199726522 0.9955285788
v 0.2955181599 -6.34584967e-06 0.07017240673 1 1 1
vn 0.9741536379 -0.02406485006 0.224600926
v 0.2512509525 -6.34584967e-06 0.1144456714 1 1 1
vn 0.08589612693 -0.004186517559 0.9962952733
v 0.2854516208 -0.07649114728 0.07017240673 1 1 1
vn 0.9347437024 -0.2753383815 0.2245950699
v 0.2426941395 -0.06502592564 0.1144456714 1 1 1
vn 0.08447191864 -0.02710370906 0.9960571527
v 0.2559330165 -0.1477659941 0.07017240673 1 1 1
vn 0.8315933347 -0.5079336762 0.2246239781
v 0.2175931334 -0.1256282181 0.1144456714 1 1 1
vn 0.08740428835 -0.05631434172 0.9945799112
v 0.2089665234 -0.2089659572 0.07017240673 1 1 1
vn 0.6717580557 -0.705892086 0.2246274501
v 0.1776601374 -0.1776595712 0.1144456714 1 1 1
vn 0.09446353465 -0.1041557342 0.9900647402
v 0.1477590799 -0.2559258342 0.07017240673 1 1 1
vn 0.4662474096 -0.8556654453 0.2246106863
v 0.1256290823 -0.2175865024 0.1144456714 1 1 1
vn 0.1028289199 -0.1999840885 0.9743883014
v 0.07649201155 -0.2854507565 0.07017240673 1 1 1
vn 0.2288705707 -0.947191 0.2246050537
v 0.0650267899 -0.2426935732 0.1144456714 1 1 1
vn 0.0886561498 -0.4096967578 0.9079034328
v -6.299106202e-15 -0.2955175638 0.07017240673 1 1 1
vn -0.02405860834 -0.9741598964 0.2245743573
v -6.299106202e-15 -0.2512575686 0.1144456714 1 1 1
vn -0.03242008388 -0.6651542187 0.7460018992
v -0.07648479193 -0.2854507565 0.07017240673 1 1 1
vn -0.2753905952 -0.9347316027 0.2245814949
v -0.0650267899 -0.2426935732 0.1144456714 1 1 1
vn -0.1713339835 -0.5338153243 0.8280615211
v -0.147759065 -0.2559258342 0.07017240673 1 1 1
vn -0.5079251528 -0.8316010833 0.2246144414
v -0.1256218702 -0.2175865024 0.1144456714 1 1 1
vn -0.1643388718 -0.2550823987 0.9528513551
v -0.2089596093 -0.2089659572 0.07017240673 1 1 1
vn -0.7058210969 -0.6718373299 0.2246133238
v -0.1776601523 -0.1776595712 0.1144456714 1 1 1
vn -0.1287859976 -0.1168226227 0.9847673178
v -0.2559261024 -0.1477659941 0.07017240673 1 1 1
vn -0.8556803465 -0.4662182331 0.2246146053
v -0.2175862193 -0.1256282181 0.1144456714 1 1 1
vn -0.105479762 -0.05422583967 0.9929418564
v -0.2854444087 -0.07649114728 0.07017240673 1 1 1
vn -0.9471843243 -0.2288913578 0.2246121913
v -0.2426869422 -0.06502592564 0.1144456714 1 1 1
vn -0.09231922776 -0.01997906901 0.995528996
v -0.2955181599 -6.34584967e-06 0.07017240673 1 1 1
vn -0.9741559029 0.02408088744 0.2245892733
v -0.2512509525 -6.34584967e-06 0.1144456714 1 1 1
vn -0.08590415865 0.004189779516 0.9962946177
v -0.2854444087 0.07648479939 0.07017240673 1 1 1
vn -0.9347364306 0.2753600776 0.2245987654
v -0.2426869422 0.06502765417 0.1144456714 1 1 1
vn -0.08446613699 0.0271038264 0.9960576296
v -0.2559261024 0.1477596462 0.07017240673 1 1 1
vn -0.8315938115 0.5079375505 0.2246133834
v -0.2175862193 0.1256218702 0.1144456714 1 1 1
vn -0.08740904182 0.05631414801 0.994579494
v -0.2089596093 0.2089596093 0.07017240673 1 1 1
vn -0.67182374 0.7058391571 0.2245972753
v -0.1776601523 0.1776601374 0.1144456714 1 1 1
vn -0.09446753561 0.1041404977 0.9900659919
v -0.147759065 0.2559264004 0.07017240673 1 1 1
vn -0.4662231505 0.8556827307 0.2245953381
v -0.1256218702 0.2175934166 0.1144456714 1 1 1
vn -0.1028135344 0.1999912858 0.9743884802
v -0.07648479193 0.2854444087 0.07017240673 1 1 1
vn -0.2288870215 0.9471911192 0.2245877683
v -0.0650267899 0.2426872253 0.1144456714 1 1 1
vn -0.08866491169 0.4097674787 0.9078706503
v -6.299106202e-15 0.2955181599 0.07017240673 1 1 1
vn 0.02408053167 0.9741554856 0.2245911211
v -6.299106202e-15 0.2512512207 0.1144456714 1 1 1
vn 0.03243945912 0.6651175618 0.7460337281
v 0.07649201155 0.2854444087 0.07017240673 1 1 1
vn 0.2753746808 0.9347308874 0.2246041
v 0.0650267899 0.2426872253 0.1144456714 1 1 1
vn 0.1713018715 0.5338858962 0.8280226588
v 0.1477590799 0.2559264004 0.07017240673 1 1 1
vn 0.5079224706 0.8316108584 0.2245844901
v 0.1256290823 0.2175934166 0.1144456714 1 1 1
vn 0.1643616259 0.255127877 0.9528352618
v 0.2089665234 0.2089596093 0.07017240673 1 1 1
vn 0.7058299184 0.6718335152 0.2245971113
v 0.1776601374 0.1776601374 0.1144456714 1 1 1
vn 0.1287807971 0.1168075502 0.9847697616
v 0.2559330165 0.1477596462 0.07017240673 1 1 1
vn 0.8556761742 0.4662213922 0.2246238291
v 0.2175931334 0.1256218702 0.1144456714 1 1 1
vn 0.105476588 0.05422884971 0.9929420352
v -0.2854444087 -0.07649114728 -0.07017817348 1 1 1
vn -0.9347320795 -0.275373131 -0.2246009707
v -0.2955181599 -6.34584967e-06 -0.07017817348 1 1 1
vn -0.9741513133 -0.02408279106 -0.2246090621
v -0.2854444087 0.07648479939 -0.07017817348 1 1 1
vn -0.9471891522 0.2288810164 -0.2246022373
v -0.2559261024 0.1477596462 -0.07017817348 1 1 1
vn -0.8556821346 0.4662131965 -0.2246183157
v -0.2089596093 0.2089596093 -0.07017817348 1 1 1
vn -0.7058421969 0.6718202829 -0.2245980054
v -0.147759065 0.2559264004 -0.07017817348 1 1 1
vn -0.5079352856 0.8315994143 -0.2245978862
v -0.07648479193 0.2854444087 -0.07017817348 1 1 1
vn -0.275370419 0.9347332716 -0.2245992422
v -6.299106202e-15 0.2955181599 -0.07017817348 1 1 1
vn -0.02408291213 0.9741524458 -0.2246040404
v 0.07649201155 0.2854444087 -0.07017817348 1 1 1
vn 0.2288776934 0.9471914768 -0.2245959938
v 0.1477590799 0.2559264004 -0.07017817348 1 1 1
vn 0.4662349224 0.8556759953 -0.2245966196
v 0.2089665234 0.2089596093 -0.07017817348 1 1 1
vn 0.6717892289 0.7058650851 -0.2246189713
v 0.2559330165 0.1477596462 -0.07017817348 1 1 1
vn 0.8315908909 0.5079394579 -0.2246198207
v 0.2854516208 0.07648479939 -0.07017817348 1 1 1
vn 0.9347442389 0.2753280699 -0.2246056646
v 0.2955181599 -6.34584967e-06 -0.07017817348 1 1 1
vn 0.9741551876 0.02406661585 -0.2245939374
v 0.2854516208 -0.07649114728 -0.07017817348 1 1 1
vn 0.9471951723 -0.2288390398 -0.2246197015
v 0.2559330165 -0.1477659941 -0.07017817348 1 1 1
vn 0.8556736112 -0.4662217498 -0.2246329188
v 0.2089665234 -0.2089659572 -0.07017817348 1 1 1
vn 0.7058092952 -0.6718457937 -0.2246252149
v 0.1477590799 -0.2559258342 -0.07017817348 1 1 1
vn 0.5079140067 -0.831608057 -0.2246138453
v 0.07649201155 -0.2854507565 -0.07017817348 1 1 1
vn 0.2753976285 -0.9347252846 -0.2245991379
v -6.299106202e-15 -0.2955175638 -0.07017817348 1 1 1
vn 0.02405990101 -0.9741598964 -0.2245742381
v -0.07648479193 -0.2854507565 -0.07017817348 1 1 1
vn -0.2288755774 -0.947188735 -0.2246096283
v -0.147759065 -0.2559258342 -0.07017817348 1 1 1
vn -0.4662309587 -0.8556714058 -0.2246222049
v -0.2089596093 -0.2089659572 -0.07017817348 1 1 1
vn -0.6717877984 -0.7058665752 -0.2246185541
v -0.2559261024 -0.1477659941 -0.07017817348 1 1 1
vn -0.831591785 -0.5079333782 -0.2246303409
v -0.2426869422 0.06502765417 -0.1144456714 1 1 1
vn -0.09231320024 0.01997650973 -0.995529592
v -0.2512509525 -6.34584967e-06 -0.1144456714 1 1 1
vn -0.08588495106 -0.004188971594 -0.996296227
v -0.2426869422 -0.06502592564 -0.1144456714 1 1 1
vn -0.08446092904 -0.02710302919 -0.9960581064
v -0.2175862193 -0.1256282181 -0.1144456714 1 1 1
vn -0.08739361912 -0.05630384013 -0.994581461
v -0.1776601523 -0.1776595712 -0.1144456714 1 1 1
vn -0.09445230663 -0.1041388437 -0.9900676012
v -0.1256218702 -0.2175865024 -0.1144456714 1 1 1
vn -0.1028146446 -0.1999641657 -0.9743939042
v -0.0650267899 -0.2426935732 -0.1144456714 1 1 1
vn -0.08865089715 -0.4096432328 -0.9079281092
v -6.299106202e-15 -0.2512575686 -0.1144456714 1 1 1
vn 0.03241656348 -0.6651051641 -0.7460457683
v 0.0650267899 -0.2426935732 -0.1144456714 1 1 1
vn 0.1713181287 -0.5337659717 -0.8280966282
v 0.1256290823 -0.2175865024 -0.1144456714 1 1 1
vn 0.1643186212 -0.2550611198 -0.9528605342
v 0.1776601374 -0.1776595712 -0.1144456714 1 1 1
vn 0.1287682205 -0.1168062538 -0.9847715497
v 0.2175931334 -0.1256282181 -0.1144456714 1 1 1
vn 0.1054659635 -0.05422304943 -0.9929435253
v 0.2426941395 -0.06502592564 -0.1144456714 1 1 1
vn 0.09230739623 -0.01997005194 -0.9955303073
v 0.2512509525 -6.34584967e-06 -0.1144456714 1 1 1
vn 0.08589310944 0.004186241888 -0.9962955713
v 0.2426941395 0.06502765417 -0.1144456714 1 1 1
vn 0.0844552815 0.02709749714 -0.9960587621
v 0.2175931334 0.1256218702 -0.1144456714 1 1 1
vn 0.0873971805 0.05631013215 -0.9945807457
v 0.1776601374 0.1776601374 -0.1144456714 1 1 1
vn 0.09445463121 0.1041307822 -0.9900682569
v 0.1256290823 0.2175934166 -0.1144456714 1 1 1
vn 0.102802366 0.1999617219 -0.9743956923
v 0.0650267899 0.2426872253 -0.1144456714 1 1 1
vn 0.08865112066 0.4097329676 -0.907887578
v -6.299106202e-15 0.2512512207 -0.1144456714 1 1 1
vn -0.0324382782 0.6650701165 -0.7460760474
v -0.0650267899 0.2426872253 -0.1144456714 1 1 1
vn -0.1712871045 0.5338398814 -0.8280553818
v -0.1256218702 0.2175934166 -0.1144456714 1 1 1
vn -0.1643429846 0.2550888062 -0.9528489113
v -0.1776601523 0.1776601374 -0.1144456714 1 1 1
vn -0.1287660301 0.1167943999 -0.9847732782
v -0.2175862193 0.1256218702 -0.1144456714 1 1 1
vn -0.1054632813 0.05421771109 -0.9929440618
# mm_gid 12
g mmGroup12
f 1//1 2//2 3//3 
f 62//62 1//1 3//3 
f 62//62 3//3 63//63 
f 63//63 85//85 62//62 
f 62//62 85//85 86//86 
f 62//62 86//86 61//61 
f 61//61 1//1 62//62 
f 61//61 47//47 1//1 
f 47//47 48//48 1//1 
f 1//1 48//48 2//2 
f 32//32 2//2 48//48 
f 32//32 48//48 34//34 
f 33//33 32//32 34//34 
f 33//33 34//34 35//35 
f 54//54 33//33 35//35 
f 54//54 35//35 55//55 
f 55//55 93//93 54//54 
f 54//54 93//93 94//94 
f 54//54 94//94 53//53 
f 53//53 33//33 54//54 
f 53//53 31//31 33//33 
f 31//31 32//32 33//33 
f 31//31 30//30 32//32 
f 30//30 2//2 32//32 
f 2//2 30//30 4//4 
f 3//3 2//2 4//4 
f 3//3 4//4 5//5 
f 63//63 3//3 5//5 
f 63//63 5//5 64//64 
f 64//64 84//84 63//63 
f 63//63 84//84 85//85 
f 76//76 85//85 84//84 
f 76//76 84//84 77//77 
f 71//71 76//76 77//77 
f 71//71 77//77 70//70 
f 70//70 19//19 71//71 
f 71//71 19//19 21//21 
f 71//71 21//21 72//72 
f 72//72 76//76 71//71 
f 72//72 75//75 76//76 
f 75//75 85//85 76//76 
f 75//75 86//86 85//85 
f 74//74 86//86 75//75 
f 49//49 74//74 75//75 
f 49//49 75//75 72//72 
f 72//72 23//23 49//49 
f 49//49 23//23 25//25 
f 49//49 25//25 50//50 
f 50//50 74//74 49//49 
f 50//50 73//73 74//74 
f 73//73 87//87 74//74 
f 74//74 87//87 86//86 
f 61//61 86//86 87//87 
f 61//61 87//87 60//60 
f 60//60 47//47 61//61 
f 60//60 45//45 47//47 
f 45//45 46//46 47//47 
f 47//47 46//46 48//48 
f 34//34 48//48 46//46 
f 34//34 46//46 36//36 
f 35//35 34//34 36//36 
f 35//35 36//36 37//37 
f 55//55 35//35 37//37 
f 55//55 37//37 56//56 
f 56//56 92//92 55//55 
f 55//55 92//92 93//93 
f 91//91 93//93 92//92 
f 56//56 91//91 92//92 
f 57//57 91//91 56//56 
f 56//56 39//39 57//57 
f 57//57 39//39 41//41 
f 57//57 41//41 58//58 
f 58//58 90//90 57//57 
f 57//57 90//90 91//91 
f 90//90 94//94 91//91 
f 91//91 94//94 93//93 
f 90//90 95//95 94//94 
f 53//53 94//94 95//95 
f 53//53 95//95 52//52 
f 52//52 31//31 53//53 
f 52//52 29//29 31//31 
f 29//29 30//30 31//31 
f 29//29 28//28 30//30 
f 4//4 30//30 28//28 
f 4//4 28//28 6//6 
f 5//5 4//4 6//6 
f 5//5 6//6 7//7 
f 64//64 5//5 7//7 
f 64//64 7//7 65//65 
f 65//65 83//83 64//64 
f 64//64 83//83 84//84 
f 77//77 84//84 83//83 
f 77//77 83//83 78//78 
f 70//70 77//77 78//78 
f 70//70 78//78 69//69 
f 69//69 17//17 70//70 
f 70//70 17//17 19//19 
f 17//17 18//18 19//19 
f 19//19 18//18 20//20 
f 19//19 20//20 21//21 
f 21//21 20//20 22//22 
f 21//21 22//22 23//23 
f 72//72 21//21 23//23 
f 23//23 22//22 24//24 
f 23//23 24//24 25//25 
f 25//25 24//24 26//26 
f 25//25 26//26 27//27 
f 50//50 25//25 27//27 
f 50//50 27//27 51//51 
f 51//51 73//73 50//50 
f 51//51 96//96 73//73 
f 88//88 73//73 96//96 
f 88//88 96//96 89//89 
f 59//59 88//88 89//89 
f 59//59 89//89 58//58 
f 58//58 43//43 59//59 
f 59//59 43//43 45//45 
f 59//59 45//45 60//60 
f 60//60 88//88 59//59 
f 60//60 87//87 88//88 
f 87//87 73//73 88//88 
f 43//43 44//44 45//45 
f 45//45 44//44 46//46 
f 36//36 46//46 44//44 
f 36//36 44//44 38//38 
f 37//37 36//36 38//38 
f 37//37 38//38 39//39 
f 56//56 37//37 39//39 
f 39//39 38//38 40//40 
f 39//39 40//40 41//41 
f 41//41 40//40 42//42 
f 41//41 42//42 43//43 
f 58//58 41//41 43//43 
f 43//43 42//42 44//44 
f 38//38 44//44 42//42 
f 38//38 42//42 40//40 
f 58//58 89//89 90//90 
f 89//89 95//95 90//90 
f 89//89 96//96 95//95 
f 52//52 95//95 96//96 
f 52//52 96//96 51//51 
f 51//51 29//29 52//52 
f 51//51 27//27 29//29 
f 27//27 28//28 29//29 
f 27//27 26//26 28//28 
f 6//6 28//28 26//26 
f 6//6 26//26 8//8 
f 7//7 6//6 8//8 
f 7//7 8//8 9//9 
f 65//65 7//7 9//9 
f 65//65 9//9 66//66 
f 66//66 82//82 65//65 
f 65//65 82//82 83//83 
f 78//78 83//83 82//82 
f 78//78 82//82 79//79 
f 69//69 78//78 79//79 
f 69//69 79//79 68//68 
f 68//68 15//15 69//69 
f 69//69 15//15 17//17 
f 15//15 16//16 17//17 
f 17//17 16//16 18//18 
f 14//14 18//18 16//16 
f 15//15 14//14 16//16 
f 13//13 14//14 15//15 
f 68//68 13//13 15//15 
f 67//67 13//13 68//68 
f 68//68 80//80 67//67 
f 67//67 80//80 81//81 
f 67//67 81//81 66//66 
f 66//66 11//11 67//67 
f 67//67 11//11 13//13 
f 11//11 12//12 13//13 
f 13//13 12//12 14//14 
f 12//12 20//20 14//14 
f 14//14 20//20 18//18 
f 12//12 22//22 20//20 
f 10//10 22//22 12//12 
f 11//11 10//10 12//12 
f 9//9 10//10 11//11 
f 66//66 9//9 11//11 
f 9//9 8//8 10//10 
f 8//8 24//24 10//10 
f 10//10 24//24 22//22 
f 8//8 26//26 24//24 
f 66//66 81//81 82//82 
f 79//79 82//82 81//81 
f 79//79 81//81 80//80 
f 68//68 79//79 80//80 
