v 0.05037544668 -0.6192083955 0.1687390357 1 1 1
vn -0.9553121924 0.07771896571 -0.2851988673
v 0.05037544668 0.6192089915 0.1687390357 1 1 1
vn -0.9553121924 -0.07771896571 -0.2851988673
v 0.05037544668 -0.6192083955 -0.168739602 1 1 1
vn -0.9553121924 0.07771896571 0.2851988673
v 0.05037544668 0.6192089915 -0.168739602 1 1 1
vn -0.9553121924 -0.07771896571 0.2851988673
v -0.05037541315 -0.6192083955 -0.168739602 1 1 1
vn 0.9882425666 0.04019900039 0.1475149542
v -0.05037541315 0.6192089915 -0.168739602 1 1 1
vn 0.8503392935 -0.1383579075 0.50772053
v -0.05037541315 -0.6192083955 0.1687390357 1 1 1
vn 0.8503392935 0.1383579075 -0.50772053
v -0.05037541315 0.6192089915 0.1687390357 1 1 1
vn 0.9882425666 -0.04019900039 -0.1475149542
# mm_gid 2
g mmGroup2
f 1//1 2//2 3//3 
f 1//1 3//3 7//7 
f 1//1 7//7 2//2 
f 2//2 7//7 8//8 
f 8//8 6//6 2//2 
f 2//2 6//6 4//4 
f 3//3 2//2 4//4 
f 6//6 3//3 4//4 
f 5//5 3//3 6//6 
f 8//8 5//5 6//6 
f 7//7 5//5 8//8 
f 7//7 3//3 5//5 
