v 0.03292731568 -1.728814125 -0.3565692902 1 1 1
vn 0.9826799035 -0.03743263334 -0.1814910024
v 0.03292731568 1.728814006 -0.3565692902 1 1 1
vn 0.9988905787 0.009512534365 -0.04612123594
v 0.03292731568 -1.728814125 0.3565686643 1 1 1
vn 0.9988905787 -0.009512534365 0.04612123594
v 0.03292731568 1.728814006 0.3565686643 1 1 1
vn 0.9826799035 0.03743263334 0.1814910024
v -0.03292735294 -1.728814125 0.3565686643 1 1 1
vn -0.9826799035 -0.03743263334 0.1814910024
v -0.03292735294 1.728814006 0.3565686643 1 1 1
vn -0.9988905787 0.009512534365 0.04612123594
v -0.03292735294 -1.728814125 -0.3565692902 1 1 1
vn -0.9988905787 -0.009512534365 -0.04612123594
v -0.03292735294 1.728814006 -0.3565692902 1 1 1
vn -0.9826799035 0.03743263334 -0.1814910024
# mm_gid 3
g mmGroup3
f 1//1 2//2 3//3 
f 3//3 5//5 1//1 
f 1//1 5//5 7//7 
f 7//7 8//8 1//1 
f 1//1 8//8 2//2 
f 2//2 8//8 4//4 
f 3//3 2//2 4//4 
f 4//4 5//5 3//3 
f 6//6 5//5 4//4 
f 4//4 8//8 6//6 
f 7//7 6//6 8//8 
f 5//5 6//6 7//7 
