v 0.02848183177 0.04939450696 0.6727916002 1 1 1
vn 0.6548757553 0.7552279234 0.02772339992
v -0.02848181501 0.04939450696 0.6727916002 1 1 1
vn -0.9600685239 0.2767969966 0.04064337909
v 0.02848183177 -0.04939451069 0.6727916002 1 1 1
vn 0.9600685239 -0.2767969966 0.04064337909
v -0.02848181501 -0.04939451069 0.6727916002 1 1 1
vn -0.6548757553 -0.7552279234 0.02772339992
v 0.02848183177 -0.04939451069 -0.6727904677 1 1 1
vn 0.6548757553 -0.7552279234 -0.02772339992
v 0.02848183177 0.04939450696 -0.6727904677 1 1 1
vn 0.9600685239 0.2767969966 -0.04064337909
v -0.02848181501 -0.04939451069 -0.6727904677 1 1 1
vn -0.9600685239 -0.2767969966 -0.04064337909
v -0.02848181501 0.04939450696 -0.6727904677 1 1 1
vn -0.6548757553 0.7552279234 -0.02772339992
# mm_gid 18
g mmGroup18
f 1//1 2//2 3//3 
f 3//3 6//6 1//1 
f 6//6 8//8 1//1 
f 1//1 8//8 2//2 
f 8//8 7//7 2//2 
f 2//2 7//7 4//4 
f 3//3 2//2 4//4 
f 4//4 5//5 3//3 
f 5//5 6//6 3//3 
f 5//5 7//7 6//6 
f 6//6 7//7 8//8 
f 7//7 5//5 4//4 
