v 0.9205392599 1.552398801 2.45670104 1 1 1
vn 0.08353231847 -0.06437706202 -0.994423449
v -0.9205392003 1.552398801 2.45670104 1 1 1
vn -0.04187587649 -0.0645461753 -0.9970356822
v 0.9205392599 1.755813837 2.242628098 1 1 1
vn 0.1466254443 -0.9858297706 -0.08149024099
v -0.9205392003 1.755813837 2.242628098 1 1 1
vn -0.07928735018 -0.9966082573 -0.02203282341
v 0.9205392599 1.755813837 -2.250861168 1 1 1
vn 0.03990655765 -0.9989575744 0.0221627187
v -0.9205392003 1.755813837 -2.250861168 1 1 1
vn -0.0744029507 -0.9937980771 0.08264163882
v 0.9205392599 1.551863432 -2.456700325 1 1 1
vn 0.08247330785 -0.06180135906 0.9946752191
v -0.9205392003 1.551863432 -2.456700325 1 1 1
vn -0.1632890403 -0.06118030101 0.9846794605
v -0.9205392003 -1.557108879 -2.456700325 1 1 1
vn -0.04166322574 0.06304167211 0.9971408844
v 0.9205392599 -1.557108879 -2.456700325 1 1 1
vn 0.08311033249 0.06287816912 0.9945546985
v 0.9205392599 -1.755813956 -2.247580767 1 1 1
vn 0.1465261728 0.9859899282 0.07971149683
v -0.9205392003 -1.755813956 -2.247580767 1 1 1
vn -0.07910155505 0.9966343641 0.0215159636
v 0.9205392599 -1.755813956 2.249936104 1 1 1
vn 0.03993473947 0.9989547133 -0.02224072628
v -0.9205392003 -1.755813956 2.249936104 1 1 1
vn -0.07443734258 0.9937729239 -0.08291230351
v -0.9205392003 -1.550945044 2.45670104 1 1 1
vn -0.1634911001 0.0615395084 -0.9846235514
v 0.9205392599 -1.550945044 2.45670104 1 1 1
vn 0.08257745206 0.06216578186 -0.994643867
v 0.9205392599 1.884976983 -2.589822292 1 1 1
vn 0.1547112465 0.7987830043 -0.5813863873
v 0.9205392599 -1.884976983 -2.589822292 1 1 1
vn 0.07102947682 -0.8064756393 -0.5869854093
v 0.9205392599 1.884976983 2.589822531 1 1 1
vn 0.07113502175 0.8064695597 0.5869809985
v 0.9205392599 -1.884976983 2.589822531 1 1 1
vn 0.1548043638 -0.7987712026 0.5813778043
v -0.9205392003 -1.884976983 -2.589822292 1 1 1
vn -0.1409959346 -0.8004407883 -0.5825930238
v -0.9205392003 1.884976983 -2.589822292 1 1 1
vn -0.07805944979 0.8060507178 -0.5866761804
v -0.9205392003 1.884976983 2.589822531 1 1 1
vn -0.1412023157 0.800417006 0.5825757384
v -0.9205392003 -1.884976983 2.589822531 1 1 1
vn -0.07810728997 -0.8060477376 0.586673975
# mm_gid 0
g mmGroup0
f 1//1 2//2 3//3 
f 19//19 1//1 3//3 
f 19//19 3//3 17//17 
f 17//17 22//22 19//19 
f 19//19 22//22 23//23 
f 24//24 19//19 23//23 
f 23//23 15//15 24//24 
f 24//24 15//15 14//14 
f 24//24 14//14 12//12 
f 24//24 12//12 21//21 
f 18//18 24//24 21//21 
f 22//22 18//18 21//21 
f 21//21 8//8 22//22 
f 22//22 8//8 6//6 
f 22//22 6//6 4//4 
f 22//22 4//4 23//23 
f 23//23 4//4 2//2 
f 23//23 2//2 15//15 
f 2//2 16//16 15//15 
f 15//15 16//16 14//14 
f 14//14 16//16 13//13 
f 13//13 12//12 14//14 
f 11//11 12//12 13//13 
f 20//20 11//11 13//13 
f 20//20 13//13 16//16 
f 20//20 16//16 19//19 
f 20//20 19//19 24//24 
f 20//20 24//24 18//18 
f 18//18 11//11 20//20 
f 18//18 10//10 11//11 
f 10//10 9//9 11//11 
f 11//11 9//9 12//12 
f 12//12 9//9 21//21 
f 21//21 9//9 8//8 
f 8//8 9//9 7//7 
f 7//7 6//6 8//8 
f 5//5 6//6 7//7 
f 17//17 5//5 7//7 
f 17//17 7//7 18//18 
f 17//17 18//18 22//22 
f 18//18 7//7 10//10 
f 7//7 9//9 10//10 
f 17//17 3//3 5//5 
f 3//3 4//4 5//5 
f 5//5 4//4 6//6 
f 3//3 2//2 4//4 
f 19//19 16//16 1//1 
f 1//1 16//16 2//2 
