v 0.9205392599 0.8875875473 2.456702709 1 1 1
vn 0.1638480574 -0.1187705994 -0.9793096185
v -0.9205392003 0.8875875473 2.456702709 1 1 1
vn -0.0827614516 -0.119984664 -0.9893200994
v 0.9205392599 1.003198504 2.222502947 1 1 1
vn 0.09889789671 -0.9940030575 -0.04665911943
v -0.9205392003 1.003198504 2.222502947 1 1 1
vn -0.05348664895 -0.9984888434 -0.01261725463
v 0.9205392599 1.003198504 -2.234935045 1 1 1
vn 0.02662797086 -0.9995673895 0.01248900592
v -0.9205392003 1.003198504 -2.234935045 1 1 1
vn -0.04954802245 -0.997689724 0.0464778617
v 0.9205392599 0.889041543 -2.456698895 1 1 1
vn 0.08235749602 -0.1135169193 0.9901167154
v -0.9205392003 0.889041543 -2.456698895 1 1 1
vn -0.1630643159 -0.11237932 0.9801943302
v -0.9205392003 -0.9310686588 -2.456698895 1 1 1
vn -0.03915302455 0.07216735184 0.9966237545
v 0.9205392599 -0.9310686588 -2.456698895 1 1 1
vn 0.07812660933 0.07200197875 0.9943399429
v 0.9205392599 -0.9985442758 -2.32001543 1 1 1
vn 0.0503846854 0.9983533025 0.02742422372
v -0.9205392003 -0.9985442758 -2.32001543 1 1 1
vn -0.02632304654 0.9996278286 0.007163775153
v 0.9205392599 -0.9985442758 2.31939292 1 1 1
vn 0.05372457951 0.9985276461 -0.00749477651
v -0.9205392003 -0.9985442758 2.31939292 1 1 1
vn -0.1025118306 0.9943205118 -0.02860155515
v 0.9205392599 -0.9278684258 2.456702709 1 1 1
vn 0.03923056647 0.07255162299 -0.9965928197
v -0.9205392003 -0.9278684258 2.456702709 1 1 1
vn -0.07828062028 0.07238471508 -0.9943000674
v 0.9205392599 1.090306759 -2.5898242 1 1 1
vn 0.1142170429 0.91562289 -0.3854727149
v 0.9205392599 -1.090306759 -2.5898242 1 1 1
vn 0.07058788836 -0.9193549156 -0.3870451152
v 0.9205392599 1.090299726 2.589824438 1 1 1
vn 0.0388382487 0.920958519 0.387720257
v 0.9205392599 -1.090306759 2.589824438 1 1 1
vn 0.09991269559 -0.9170425534 0.3860704005
v -0.9205392003 -1.090306759 -2.5898242 1 1 1
vn -0.1401323229 -0.9125597477 -0.3841843903
v -0.9205392003 1.090306759 -2.5898242 1 1 1
vn -0.05738996714 0.9201353192 -0.3873724341
v -0.9205392003 1.090299726 2.589824438 1 1 1
vn -0.07750133425 0.9188817739 0.3868459463
v -0.9205392003 -1.090306759 2.589824438 1 1 1
vn -0.05014441535 -0.9204949141 0.3875238001
# mm_gid 0
g mmGroup0
f 1//1 2//2 3//3 
f 3//3 19//19 1//1 
f 1//1 19//19 20//20 
f 1//1 20//20 15//15 
f 1//1 15//15 2//2 
f 2//2 15//15 16//16 
f 24//24 2//2 16//16 
f 24//24 16//16 14//14 
f 24//24 14//14 21//21 
f 18//18 24//24 21//21 
f 22//22 18//18 21//21 
f 21//21 8//8 22//22 
f 22//22 8//8 6//6 
f 22//22 6//6 4//4 
f 22//22 4//4 23//23 
f 19//19 22//22 23//23 
f 24//24 19//19 23//23 
f 23//23 2//2 24//24 
f 23//23 4//4 2//2 
f 3//3 2//2 4//4 
f 3//3 4//4 5//5 
f 17//17 3//3 5//5 
f 17//17 5//5 7//7 
f 17//17 7//7 18//18 
f 17//17 18//18 22//22 
f 17//17 22//22 19//19 
f 19//19 3//3 17//17 
f 18//18 7//7 10//10 
f 18//18 10//10 11//11 
f 13//13 18//18 11//11 
f 11//11 12//12 13//13 
f 13//13 12//12 14//14 
f 14//14 15//15 13//13 
f 15//15 20//20 13//13 
f 13//13 20//20 18//18 
f 20//20 24//24 18//18 
f 20//20 19//19 24//24 
f 16//16 15//15 14//14 
f 21//21 14//14 12//12 
f 12//12 9//9 21//21 
f 21//21 9//9 8//8 
f 8//8 9//9 7//7 
f 7//7 6//6 8//8 
f 5//5 6//6 7//7 
f 5//5 4//4 6//6 
f 7//7 9//9 10//10 
f 10//10 9//9 11//11 
f 11//11 9//9 12//12 
