v 0.03292731568 -1.222858071 -1.180359483 1 1 1
vn 0.9980866313 -0.02687503397 -0.05568532273
v 0.03292731568 1.222857952 -1.180359483 1 1 1
vn 0.9995405078 0.02691418305 -0.01394161023
v 0.03292731568 -1.222858071 1.180359483 1 1 1
vn 0.9995405078 -0.02691418305 0.01394161023
v 0.03292731568 1.222857952 1.180359483 1 1 1
vn 0.9980866313 0.02687503397 0.05568532273
v -0.03292739019 -1.222858071 1.180359483 1 1 1
vn -0.9980866313 -0.02687503397 0.05568532273
v -0.03292739019 1.222857952 1.180359483 1 1 1
vn -0.9995405078 0.02691418305 0.01394161023
v -0.03292739019 -1.222858071 -1.180359483 1 1 1
vn -0.9995405078 -0.02691418305 -0.01394161023
v -0.03292739019 1.222857952 -1.180359483 1 1 1
vn -0.9980866313 0.02687503397 -0.05568532273
# mm_gid 3
g mmGroup3
f 1//1 2//2 3//3 
f 3//3 7//7 1//1 
f 7//7 8//8 1//1 
f 1//1 8//8 2//2 
f 8//8 6//6 2//2 
f 2//2 6//6 4//4 
f 3//3 2//2 4//4 
f 4//4 5//5 3//3 
f 5//5 7//7 3//3 
f 5//5 6//6 7//7 
f 7//7 6//6 8//8 
f 6//6 5//5 4//4 
