v 0.03292735294 -1.728817225 -1.00010252 1 1 1
vn 0.9976589084 -0.0190015845 -0.06569391489
v 0.03292735294 1.728817105 -1.00010252 1 1 1
vn 0.9996832609 0.01904015802 -0.01645679027
v 0.03292735294 -1.728817225 1.000099063 1 1 1
vn 0.9996832609 -0.01904014125 0.01645679027
v 0.03292735294 1.728817105 1.00010252 1 1 1
vn 0.9976589084 0.01900151931 0.06569380313
v -0.03292735294 -1.728817225 1.000099063 1 1 1
vn -0.9976589084 -0.01900164969 0.06569391489
v -0.03292735294 1.728817105 1.00010252 1 1 1
vn -0.9996832609 0.01904014125 0.01645679027
v -0.03292735294 -1.728817225 -1.00010252 1 1 1
vn -0.9996832609 -0.01904012449 -0.01645679027
v -0.03292735294 1.728817105 -1.00010252 1 1 1
vn -0.9976589084 0.0190015845 -0.06569380313
# mm_gid 3
g mmGroup3
f 1//1 2//2 3//3 
f 3//3 7//7 1//1 
f 7//7 8//8 1//1 
f 1//1 8//8 2//2 
f 8//8 6//6 2//2 
f 2//2 6//6 4//4 
f 3//3 2//2 4//4 
f 4//4 5//5 3//3 
f 5//5 7//7 3//3 
f 5//5 6//6 7//7 
f 7//7 6//6 8//8 
f 6//6 5//5 4//4 
