v 0.06989665329 0.07132619619 -0.01911139302 1 1 1
vn 0.989228785 0.1392372996 -0.04515970498
v 0.0476622358 0.09280920774 -0.02486419491 1 1 1
vn 0.1469636708 0.9467890859 -0.2863426805
v 0.06989665329 0.07383742183 5.768954452e-06 1 1 1
vn 0.9898275137 0.1420819908 -0.007363672834
v 0.0476622358 0.09607905149 5.768954452e-06 1 1 1
vn 0.1469439566 0.9886420369 -0.03153410554
v 0.06989665329 0.07132619619 0.01911023818 1 1 1
vn 0.9879012108 0.1516798437 0.0323166661
v 0.0476622358 0.09280920774 0.02486996166 1 1 1
vn 0.1469752192 0.9631251097 0.2253627181
v 0.06989665329 0.06394481659 0.0369201526 1 1 1
vn 0.9816637039 0.1697940081 0.08663957566
v 0.0476622358 0.08320851624 0.04803693295 1 1 1
vn 0.1469659209 0.871968329 0.4669820964
v 0.06989665329 0.05221538246 0.05221134797 1 1 1
vn 0.9640014172 0.1975456029 0.1779801995
v 0.0476622358 0.06794501096 0.06794213504 1 1 1
vn 0.1469797343 0.7215064168 0.6766280532
v 0.06989665329 0.03692390397 0.06394770741 1 1 1
vn 0.9106656313 0.2248191983 0.3466185927
v 0.0476622358 0.04804125428 0.08321139961 1 1 1
vn 0.146956563 0.5215662122 0.8404596448
v 0.06989665329 0.01911398955 0.07132158428 1 1 1
vn 0.7852458954 0.1910098493 0.5889856815
v 0.0476622358 0.02486765571 0.09280632436 1 1 1
vn 0.1469621211 0.286341548 0.9467896819
v 0.06989665329 3.461372671e-06 0.0738414675 1 1 1
vn 0.7298272252 0.03546098247 0.6827113032
v 0.0476622358 3.461372671e-06 0.09608308971 1 1 1
vn 0.1469724774 0.03159468621 0.988635838
v 0.06989665329 -0.01910764165 0.07132158428 1 1 1
vn 0.8560054302 -0.1077672988 0.5056093931
v 0.0476622358 -0.02486765385 0.09280632436 1 1 1
vn 0.1469689459 -0.2253780961 0.9631224275
v 0.06989665329 -0.03691726923 0.06394770741 1 1 1
vn 0.9445418715 -0.1492168903 0.2925320268
v 0.0476622358 -0.04804154858 0.08321139961 1 1 1
vn 0.1469880491 -0.4669151306 0.8720004559
v 0.06989665329 -0.05220875144 0.05221134797 1 1 1
vn 0.9751403332 -0.1483594179 0.1645929962
v 0.0476622358 -0.06793867052 0.06794213504 1 1 1
vn 0.146983847 -0.6768051982 0.7213394046
v 0.06989665329 -0.06394511461 0.0369201526 1 1 1
vn 0.9855627418 -0.1420465857 0.09213502705
v 0.0476622358 -0.08320908993 0.04803693295 1 1 1
vn 0.1469662786 -0.8403956294 0.5216667056
v 0.06989665329 -0.07131956518 0.01911023818 1 1 1
vn 0.9892266393 -0.1392464638 0.04517895728
v 0.0476622358 -0.09280978888 0.02486996166 1 1 1
vn 0.1469896287 -0.9467591047 0.2864284515
v 0.06989665329 -0.07383800298 5.768954452e-06 1 1 1
vn 0.9898331761 -0.1420425475 0.00736165233
v 0.0476622358 -0.09607934207 5.768954452e-06 1 1 1
vn 0.1469890326 -0.9886358976 0.03151648119
v 0.06989665329 -0.07131956518 -0.01911139302 1 1 1
vn 0.98790133 -0.1516815424 -0.03230677173
v 0.0476622358 -0.09280978888 -0.02486419491 1 1 1
vn 0.1469864398 -0.9631406665 -0.2252888232
v 0.06989665329 -0.06394511461 -0.03692246228 1 1 1
vn 0.9816616178 -0.1698084772 -0.08663452417
v 0.0476622358 -0.08320908993 -0.04803808033 1 1 1
vn 0.1469642222 -0.871961832 -0.4669947326
v 0.06989665329 -0.05220875144 -0.0522136502 1 1 1
vn 0.9639934301 -0.1975381225 -0.1780317426
v 0.0476622358 -0.06793867052 -0.06794328243 1 1 1
vn 0.1469768435 -0.7214730382 -0.6766642332
v 0.06989665329 -0.03691726923 -0.06395000964 1 1 1
vn 0.9106794596 -0.2248285711 -0.3465761244
v 0.0476622358 -0.04804154858 -0.08321370184 1 1 1
vn 0.1469819695 -0.521645546 -0.8404060006
v 0.06989665329 -0.01910764165 -0.07132388651 1 1 1
vn 0.7852112651 -0.1909398735 -0.5890545249
v 0.0476622358 -0.02486765385 -0.0928074792 1 1 1
vn 0.1469799727 -0.2862708271 -0.9468082786
v 0.06989665329 3.461372671e-06 -0.0738356933 1 1 1
vn 0.7298119068 -0.03545795009 -0.6827278137
v 0.0476622358 3.461372671e-06 -0.09608424455 1 1 1
vn 0.146984458 -0.03160938993 -0.9886336327
v 0.06989665329 0.01911398955 -0.07132388651 1 1 1
vn 0.8559929729 0.1077204123 -0.5056405663
v 0.0476622358 0.02486765571 -0.0928074792 1 1 1
vn 0.1469618082 0.2254023105 -0.9631178379
v 0.06989665329 0.03692390397 -0.06395000964 1 1 1
vn 0.944536984 0.1492185146 -0.2925469875
v 0.0476622358 0.04804125428 -0.08321370184 1 1 1
vn 0.146971792 0.4668720663 -0.8720262647
v 0.06989665329 0.05221538246 -0.0522136502 1 1 1
vn 0.9751390219 0.1483659744 -0.1645947695
v 0.0476622358 0.06794501096 -0.06794328243 1 1 1
vn 0.1469626576 0.6767944098 -0.7213537693
v 0.06989665329 0.06394481659 -0.03692246228 1 1 1
vn 0.9855645895 0.142046988 -0.09211472422
v 0.0476622358 0.08320851624 -0.04803808033 1 1 1
vn 0.1469571292 0.8404932618 -0.5215119123
v -0.06989665329 0.09280920774 0.02486996166 1 1 1
vn -0.8419024944 0.5146071911 0.1624179929
v -0.06989665329 0.09607905149 5.768954452e-06 1 1 1
vn -0.8501510024 0.5260338187 0.02305745706
v -0.06989665329 0.09280920774 -0.02486419491 1 1 1
vn -0.8241391778 0.5530005097 -0.1224135458
v -0.06989665329 0.08320851624 -0.04803808033 1 1 1
vn -0.7473104 0.58948493 -0.3066508174
v -0.06989665329 0.06794501096 -0.06794328243 1 1 1
vn -0.5797660351 0.6009466052 -0.5502131581
v -0.06989665329 0.04804125428 -0.08321370184 1 1 1
vn -0.3103413582 0.5108721256 -0.8016844392
v -0.06989665329 0.02486765571 -0.0928074792 1 1 1
vn -0.07272846252 0.3000484705 -0.9511474371
v -0.06989665329 3.461372671e-06 -0.09608424455 1 1 1
vn -0.01856203005 0.04387489706 -0.9988645911
v -0.06989665329 -0.02486765385 -0.0928074792 1 1 1
vn -0.1751526296 -0.2128699124 -0.961253345
v -0.06989665329 -0.04804154858 -0.08321370184 1 1 1
vn -0.4532885253 -0.4113328755 -0.7907810807
v -0.06989665329 -0.06793867052 -0.06794328243 1 1 1
vn -0.6777613759 -0.4966880977 -0.5421627164
v -0.06989665329 -0.08320908993 -0.04803808033 1 1 1
vn -0.794069469 -0.5125766397 -0.3266785145
v -0.06989665329 -0.09280978888 -0.02486419491 1 1 1
vn -0.8419033885 -0.5146192908 -0.1623750031
v -0.06989665329 -0.09607934207 5.768954452e-06 1 1 1
vn -0.8501150608 -0.5260919929 -0.02305619046
v -0.06989665329 -0.09280978888 0.02486996166 1 1 1
vn -0.8241308331 -0.5530067086 0.1224415526
v -0.06989665329 -0.08320908993 0.04803693295 1 1 1
vn -0.7473120093 -0.5894318223 0.3067488968
v -0.06989665329 -0.06793867052 0.06794213504 1 1 1
vn -0.5797288418 -0.6009212136 0.5502800941
v -0.06989665329 -0.04804154858 0.08321139961 1 1 1
vn -0.3103904128 -0.5109279752 0.8016298413
v -0.06989665329 -0.02486765385 0.09280632436 1 1 1
vn -0.07272734493 -0.300047785 0.9511477351
v -0.06989665329 3.461372671e-06 0.09608308971 1 1 1
vn -0.01856031269 -0.0438708365 0.9988647699
v -0.06989665329 0.02486765571 0.09280632436 1 1 1
vn -0.1752017289 0.2129218727 0.961232841
v -0.06989665329 0.04804125428 0.08321139961 1 1 1
vn -0.4532473981 0.4113237858 0.7908094525
v -0.06989665329 0.06794501096 0.06794213504 1 1 1
vn -0.6777389646 0.4966585636 0.5422177911
v -0.06989665329 0.08320851624 0.04803693295 1 1 1
vn -0.7940592766 0.5126226544 0.3266310692
# mm_gid 14
g mmGroup14
f 1//1 2//2 3//3 
f 3//3 27//27 1//1 
f 1//1 27//27 29//29 
f 1//1 29//29 47//47 
f 47//47 48//48 1//1 
f 1//1 48//48 2//2 
f 52//52 2//2 48//48 
f 52//52 48//48 53//53 
f 59//59 52//52 53//53 
f 59//59 53//53 58//58 
f 58//58 36//36 59//59 
f 59//59 36//36 34//34 
f 59//59 34//34 60//60 
f 60//60 52//52 59//59 
f 60//60 51//51 52//52 
f 51//51 2//2 52//52 
f 51//51 4//4 2//2 
f 3//3 2//2 4//4 
f 3//3 4//4 5//5 
f 5//5 25//25 3//3 
f 3//3 25//25 27//27 
f 25//25 26//26 27//27 
f 27//27 26//26 28//28 
f 27//27 28//28 29//29 
f 29//29 28//28 30//30 
f 29//29 30//30 31//31 
f 47//47 29//29 31//31 
f 47//47 31//31 45//45 
f 45//45 46//46 47//47 
f 47//47 46//46 48//48 
f 53//53 48//48 46//46 
f 53//53 46//46 54//54 
f 58//58 53//53 54//54 
f 58//58 54//54 57//57 
f 57//57 38//38 58//58 
f 58//58 38//38 36//36 
f 37//37 36//36 38//38 
f 37//37 38//38 39//39 
f 41//41 37//37 39//39 
f 39//39 40//40 41//41 
f 41//41 40//40 42//42 
f 41//41 42//42 43//43 
f 43//43 35//35 41//41 
f 41//41 35//35 37//37 
f 35//35 36//36 37//37 
f 35//35 34//34 36//36 
f 33//33 34//34 35//35 
f 43//43 33//33 35//35 
f 45//45 33//33 43//43 
f 43//43 44//44 45//45 
f 45//45 44//44 46//46 
f 54//54 46//46 44//44 
f 54//54 44//44 55//55 
f 57//57 54//54 55//55 
f 57//57 55//55 56//56 
f 56//56 40//40 57//57 
f 57//57 40//40 38//38 
f 39//39 38//38 40//40 
f 56//56 42//42 40//40 
f 55//55 42//42 56//56 
f 55//55 44//44 42//42 
f 43//43 42//42 44//44 
f 45//45 31//31 33//33 
f 31//31 32//32 33//33 
f 33//33 32//32 34//34 
f 60//60 34//34 32//32 
f 60//60 32//32 61//61 
f 61//61 51//51 60//60 
f 51//51 61//61 50//50 
f 50//50 4//4 51//51 
f 50//50 6//6 4//4 
f 5//5 4//4 6//6 
f 5//5 6//6 7//7 
f 23//23 5//5 7//7 
f 23//23 7//7 21//21 
f 21//21 22//22 23//23 
f 23//23 22//22 24//24 
f 23//23 24//24 25//25 
f 25//25 5//5 23//23 
f 25//25 24//24 26//26 
f 64//64 26//26 24//24 
f 64//64 24//24 65//65 
f 71//71 64//64 65//65 
f 71//71 65//65 70//70 
f 70//70 12//12 71//71 
f 71//71 12//12 10//10 
f 71//71 10//10 72//72 
f 72//72 64//64 71//71 
f 72//72 63//63 64//64 
f 63//63 26//26 64//64 
f 63//63 28//28 26//26 
f 62//62 28//28 63//63 
f 49//49 62//62 63//63 
f 49//49 63//63 72//72 
f 72//72 8//8 49//49 
f 49//49 8//8 6//6 
f 49//49 6//6 50//50 
f 50//50 62//62 49//49 
f 50//50 61//61 62//62 
f 61//61 30//30 62//62 
f 62//62 30//30 28//28 
f 61//61 32//32 30//30 
f 31//31 30//30 32//32 
f 7//7 6//6 8//8 
f 7//7 8//8 9//9 
f 21//21 7//7 9//9 
f 21//21 9//9 19//19 
f 19//19 20//20 21//21 
f 21//21 20//20 22//22 
f 66//66 22//22 20//20 
f 66//66 20//20 67//67 
f 69//69 66//66 67//67 
f 69//69 67//67 68//68 
f 68//68 16//16 69//69 
f 69//69 16//16 14//14 
f 69//69 14//14 70//70 
f 70//70 66//66 69//69 
f 70//70 65//65 66//66 
f 65//65 22//22 66//66 
f 65//65 24//24 22//22 
f 70//70 14//14 12//12 
f 13//13 12//12 14//14 
f 13//13 14//14 15//15 
f 17//17 13//13 15//15 
f 15//15 16//16 17//17 
f 17//17 16//16 18//18 
f 17//17 18//18 19//19 
f 19//19 11//11 17//17 
f 17//17 11//11 13//13 
f 11//11 12//12 13//13 
f 11//11 10//10 12//12 
f 9//9 10//10 11//11 
f 19//19 9//9 11//11 
f 9//9 8//8 10//10 
f 72//72 10//10 8//8 
f 19//19 18//18 20//20 
f 67//67 20//20 18//18 
f 67//67 18//18 68//68 
f 68//68 18//18 16//16 
f 15//15 14//14 16//16 
