v 0.9205392599 0.970125258 -1.877625108 1 1 1
vn 0.1236719489 -0.9805032015 0.1527045369
v -0.9205392003 0.970125258 -1.877621651 1 1 1
vn -0.08931683749 -0.984139502 0.1532708555
v 0.9205392599 0.3852804899 -1.877621651 1 1 1
vn 0.2937882245 0.9126234651 0.2842654884
v -0.9205392003 0.3852804899 -1.877621651 1 1 1
vn -0.1003917977 0.9919450283 0.07724325359
v -0.9205392003 0.3852804899 1.877618194 1 1 1
vn -0.3031179607 0.9416020513 -0.1466460377
v -0.9205392003 0.970125258 1.877618194 1 1 1
vn -0.1195613667 -0.9479076266 -0.2952561378
v 0.9205392599 0.3852804899 1.877618194 1 1 1
vn 0.0995053947 0.9831847548 -0.1531221718
v 0.9205392599 0.970125258 1.877618194 1 1 1
vn 0.0901145488 -0.9929255247 -0.07731956244
v -0.9205392003 1.072086692 1.877618194 1 1 1
vn -0.1729835421 0.9356092811 -0.3077531159
v 0.9205392599 1.072086692 1.877618194 1 1 1
vn 0.0644018501 0.9945669174 -0.08178652823
v -0.9205392003 1.072086692 -1.877621651 1 1 1
vn -0.0637652427 0.9847353101 0.1619579643
v 0.9205392599 1.072086692 -1.877625108 1 1 1
vn 0.1794760674 0.9707210064 0.1596530527
v -0.9205392003 1.689705372 -1.877621651 1 1 1
vn -0.2264991105 -0.961099565 0.1580688655
v -0.9205392003 1.822826862 -2.5898242 1 1 1
vn -0.1842337549 0.8037552834 -0.5657166839
v -0.9205392003 1.822826862 2.589824438 1 1 1
vn -0.3854721487 0.7545568347 0.5310887098
v -0.9205392003 0.1652664095 1.877618194 1 1 1
vn -0.3027791381 -0.8549246192 -0.4212228358
v -0.9205392003 0.1652664095 -1.877621651 1 1 1
vn -0.5961794853 -0.7201820612 0.354834944
v -0.9205392003 1.689698458 1.877618194 1 1 1
vn -0.06758312881 -0.9943571091 -0.08177114278
v -0.9205392003 -1.822826862 2.589824438 1 1 1
vn -0.2154656202 -0.7985453606 0.5620496869
v -0.9205392003 -1.684946775 1.877618194 1 1 1
vn -0.2316721678 0.8726258874 -0.4299442768
v -0.9205392003 -1.684946775 -1.877621651 1 1 1
vn -0.1631886959 0.8850057721 0.4360438585
v -0.9205392003 -1.822826862 -2.5898242 1 1 1
vn -0.3689009547 -0.760076046 -0.5349733829
v 0.9205392599 1.689698458 1.877618194 1 1 1
vn 0.128063783 -0.942107439 -0.3098923266
v 0.9205392599 -1.684946775 -1.877621651 1 1 1
vn 0.3140725493 0.8516399264 0.4196044505
v 0.9205392599 -1.684946775 1.877618194 1 1 1
vn 0.118240349 0.8907378912 -0.4388681054
v 0.9205392599 0.1652664095 1.877618194 1 1 1
vn 0.5961807966 -0.7201811671 -0.354834497
v 0.9205392599 0.1652664095 -1.877621651 1 1 1
vn 0.3027780354 -0.8549249172 0.4212229848
v 0.9205392599 1.822826862 -2.5898242 1 1 1
vn 0.3510283828 0.7657153606 -0.5389425755
v 0.9205392599 1.822826862 2.589824438 1 1 1
vn 0.2044654936 0.8004771471 0.5634093881
v 0.9205392599 1.689705372 -1.877621651 1 1 1
vn 0.1154933572 -0.980140686 0.1612004191
v 0.9205392599 -1.822826862 2.589824438 1 1 1
vn 0.40373227 -0.7481437325 0.5265749693
v 0.9205392599 -1.822826862 -2.5898242 1 1 1
vn 0.19465141 -0.8021116257 -0.5645598173
# mm_gid 0
g mmGroup0
f 1//1 2//2 3//3 
f 28//28 1//1 3//3 
f 28//28 3//3 27//27 
f 27//27 32//32 28//28 
f 28//28 32//32 14//14 
f 28//28 14//14 29//29 
f 29//29 30//30 28//28 
f 28//28 30//30 12//12 
f 12//12 1//1 28//28 
f 12//12 8//8 1//1 
f 1//1 8//8 2//2 
f 2//2 8//8 6//6 
f 9//9 2//2 6//6 
f 9//9 6//6 15//15 
f 15//15 18//18 9//9 
f 23//23 9//9 18//18 
f 23//23 18//18 30//30 
f 29//29 23//23 30//30 
f 10//10 23//23 29//29 
f 29//29 8//8 10//10 
f 10//10 8//8 12//12 
f 11//11 10//10 12//12 
f 30//30 11//11 12//12 
f 13//13 11//11 30//30 
f 30//30 18//18 13//13 
f 15//15 13//13 18//18 
f 14//14 13//13 15//15 
f 29//29 14//14 15//15 
f 19//19 29//29 15//15 
f 15//15 16//16 19//19 
f 19//19 16//16 20//20 
f 19//19 20//20 21//21 
f 19//19 21//21 22//22 
f 32//32 19//19 22//22 
f 14//14 32//32 22//22 
f 22//22 17//17 14//14 
f 17//17 4//4 14//14 
f 14//14 4//4 2//2 
f 11//11 14//14 2//2 
f 11//11 2//2 9//9 
f 9//9 10//10 11//11 
f 10//10 9//9 23//23 
f 13//13 14//14 11//11 
f 3//3 2//2 4//4 
f 4//4 7//7 3//3 
f 26//26 3//3 7//7 
f 26//26 7//7 29//29 
f 29//29 31//31 26//26 
f 26//26 31//31 25//25 
f 25//25 16//16 26//26 
f 16//16 27//27 26//26 
f 27//27 3//3 26//26 
f 17//17 27//27 16//16 
f 16//16 5//5 17//17 
f 17//17 5//5 4//4 
f 5//5 7//7 4//4 
f 5//5 6//6 7//7 
f 7//7 6//6 8//8 
f 29//29 7//7 8//8 
f 15//15 6//6 5//5 
f 15//15 5//5 16//16 
f 21//21 27//27 17//17 
f 22//22 21//21 17//17 
f 24//24 27//27 21//21 
f 24//24 21//21 25//25 
f 25//25 31//31 24//24 
f 24//24 31//31 32//32 
f 24//24 32//32 27//27 
f 31//31 19//19 32//32 
f 31//31 29//29 19//19 
f 25//25 21//21 20//20 
f 20//20 16//16 25//25 
